<svg width="24.666mm" height="24.666mm" version="1.1" viewBox="0 0 24.666 24.666" xmlns="http://www.w3.org/2000/svg">
 <g transform="translate(-55.703 -73)">
  <g transform="matrix(.36862 0 0 .36862 25.87 136.21)" opacity=".98" stroke-width=".26458">
   <path d="m102.15-107.95c-6.5833-1.8565-12.047-3.4524-12.141-3.5466-0.18624-0.18623-4.8376-56.073-4.8523-58.301-0.0066-1.0026 0.10121-1.403 0.40956-1.5214 0.54495-0.20912 56.678-0.2031 57.459 6e-3 0.4639 0.12432 0.59531 0.35106 0.59531 1.0272 0 0.4772-1.1332 13.826-2.5183 29.664-1.7115 19.57-2.6228 28.894-2.8443 29.101-0.31045 0.28983-23.321 7.0026-23.874 6.9645-0.14552-0.01-5.6509-1.5372-12.234-3.3936zm19.51-12.285 7.0115-2.1878 0.83993-9.3809c0.46196-5.1595 0.84892-10.006 0.8599-10.77l0.02-1.3891h-7.2604c-7.1585 0-8.0834-0.10786-7.3357-0.85553 0.15414-0.15414 3.8288-1.7304 8.1658-3.5028l7.8855-3.2226v-6.3097h-35.454l0.08882 1.1906c0.04885 0.65485 0.22744 2.0241 0.39688 3.0427l0.30806 1.8521 8.4005 0.0699c8.019 0.0667 8.4005 0.0924 8.4005 0.567 0 0.27343-0.14883 0.55761-0.33073 0.63152-2.4643 1.0012-15.711 6.8626-15.871 7.0225-0.20763 0.20763 0.45092 5.4227 0.74482 5.8982 0.0784 0.12686 5.6757 0.23065 12.438 0.23065 11.335 0 12.309 0.0352 12.469 0.45035 0.27499 0.71662-0.64766 9.3835-1.0391 9.7608-0.18752 0.18074-2.2099 0.68637-4.4941 1.1236l-4.1532 0.79501-3.8736-0.99336c-2.1305-0.54635-3.9683-1.1466-4.084-1.3339s-0.28993-1.1895-0.38708-2.2273c-0.28379-3.0311-0.0141-2.8128-3.4752-2.8128-2.466 0-3.0249 0.0709-3.0249 0.38363 0 1.3381 0.85705 9.8362 1.0071 9.9856 0.16869 0.16794 13.869 4.093 14.471 4.146 0.14552 0.0128 3.4197-0.96125 7.276-2.1645z" fill="#d2e5f1"/>
   <path d="m102.21-108.14c-7.6877-2.166-11.754-3.4317-11.972-3.7266-0.1819-0.24565-0.33413-0.7513-0.33828-1.1237-0.0042-0.37237-1.0607-13.476-2.348-29.12-1.5869-19.286-2.2552-28.55-2.0757-28.775 0.2099-0.26323 6.2108-0.31797 29.005-0.26458l28.74 0.0673 0.0706 1.1906c0.0997 1.6817-4.8679 57.954-5.1391 58.215-0.30749 0.29572-23.217 6.8795-23.817 6.8446-0.26574-0.0155-5.7219-1.5041-12.125-3.3081zm19.579-11.896c3.638-1.1176 6.7304-2.1388 6.8719-2.2694 0.23773-0.21924 1.9551-18.254 1.9804-20.797l0.0112-1.1245h-7.276c-4.9273 0-7.276-0.0901-7.276-0.27914 0-0.33623 0.93434-0.75463 9.1281-4.0876 3.4925-1.4206 6.4988-2.7007 6.6807-2.8447 0.51315-0.40611 0.45772-6.1122-0.0636-6.5448-0.30969-0.25702-4.1568-0.28573-17.926-0.13378-9.6422 0.1064-17.603 0.23509-17.69 0.28597-0.14913 0.0869 0.37583 4.5645 0.68762 5.865l0.14272 0.59531h8.3514c6.5629 0 8.328 0.0708 8.2423 0.33073-0.06 0.1819-3.7173 1.9045-8.1274 3.828-4.4101 1.9235-8.0646 3.5434-8.1211 3.5999-0.10364 0.10364 0.62275 5.3573 0.81442 5.8903 0.0711 0.19772 3.9677 0.34396 12.485 0.46859 7.4854 0.10953 12.445 0.28241 12.54 0.43716 0.17955 0.29052-0.6612 9.0914-0.90641 9.4881-0.0878 0.142-0.48562 0.32199-0.88414 0.39997-0.39851 0.078-2.2988 0.44595-4.2229 0.8177l-3.4983 0.67591-3.3808-0.83114c-1.8595-0.45712-3.6342-0.98772-3.9438-1.1791-0.42741-0.2642-0.60444-0.71786-0.73534-1.8844-0.0948-0.84506-0.23892-1.983-0.32021-2.5287l-0.14782-0.99219h-6.6364l0.15699 1.5214c0.08634 0.83674 0.29195 3.1882 0.45691 5.2255 0.16496 2.0373 0.43711 3.8426 0.60479 4.0119 0.38126 0.38485 14.447 4.3074 14.989 4.18 0.21828-0.0513 3.3734-1.0077 7.0115-2.1253z" fill="#a8cee5"/>
   <path d="m102.16-108.32c-6.289-1.774-11.561-3.3539-11.716-3.511-0.30189-0.30673-5.1393-58.177-4.9124-58.768 0.10772-0.28071 5.4821-0.34503 28.832-0.34503 16.73 0 28.761 0.0994 28.847 0.23822 0.19394 0.3138-4.8337 58.257-5.0965 58.737-0.2413 0.44066-22.512 6.9135-23.707 6.8904-0.44737-9e-3 -5.9589-1.4672-12.248-3.2411zm19.686-11.57c3.7532-1.1698 6.9132-2.2161 7.0223-2.3252 0.15333-0.15333 2.054-20.19 2.0562-21.675 2.7e-4 -0.25609-1.5669-0.33165-6.9448-0.33478-3.8199-2e-3 -7.1177-0.11311-7.3284-0.24641-0.4645-0.29386-1.1594 0.0282 8.1883-3.7945l7.276-2.9755 0.0738-3.5012 0.0738-3.5012h-18.008c-15.105 0-18.03 0.0591-18.148 0.36674-0.12585 0.32796 0.19309 3.359 0.59479 5.6525l0.15061 0.8599h8.1726c6.5485 0 8.1726 0.0687 8.1726 0.34554 0 0.19981-3.1874 1.7271-7.5578 3.6214-4.1568 1.8017-7.7499 3.4164-7.9848 3.5881-0.38455 0.28119-0.39272 0.58524-0.08226 3.0593 0.1896 1.5109 0.45318 2.9555 0.58574 3.2101 0.22427 0.43086 1.0939 0.46302 12.519 0.46302 7.3613 0 12.34 0.0994 12.432 0.24825 0.24745 0.40037-0.68994 9.1154-1.0158 9.444-0.16337 0.16475-2.1567 0.6316-4.4296 1.0374l-4.1326 0.7379-3.4631-0.88268c-1.9047-0.48547-3.5886-0.96026-3.742-1.0551-0.15343-0.0948-0.41266-1.236-0.57607-2.536-0.1634-1.3-0.41463-2.5124-0.55828-2.6943-0.32142-0.40701-6.0404-0.46625-6.44-0.0667-0.32691 0.32691 0.49813 10.5 0.88275 10.885 0.2999 0.2999 13.933 4.1454 14.806 4.1762 0.31973 0.0113 3.6521-0.93657 7.4053-2.1064z" fill="#86bbdb"/>
   <path d="m102.22-108.42c-6.3995-1.8108-11.705-3.4054-11.791-3.5435-0.08533-0.13807-0.72716-7.2452-1.4263-15.794-0.69912-8.5484-1.7731-21.615-2.3866-29.036s-1.0631-13.643-0.99902-13.824c0.09221-0.26182 6.066-0.33073 28.671-0.33073 26.582 0 28.567 0.031 28.727 0.44783 0.24134 0.6289-4.8253 58.27-5.1505 58.595-0.32165 0.32165-22.913 6.851-23.557 6.8083-0.24917-0.0165-5.689-1.5117-12.088-3.3225zm19.535-11.298c3.8884-1.2183 7.1541-2.2994 7.2572-2.4025 0.33031-0.33031 2.1028-21.679 1.8298-22.039-0.18906-0.24973-1.9402-0.33073-7.1501-0.33073-4.7618 0-6.8147-0.085-6.6254-0.27424 0.15083-0.15083 3.4369-1.569 7.3024-3.1515 3.8655-1.5825 7.2782-3.0111 7.5839-3.1747 0.51846-0.27747 0.5557-0.51621 0.5557-3.563 0-2.5776-0.0835-3.3349-0.39623-3.5944-0.31236-0.25923-4.1777-0.28713-18.261-0.13181-9.8256 0.10837-17.914 0.27599-17.973 0.37248-0.17932 0.29014 0.7086 6.2151 0.98486 6.5718 0.19483 0.25159 2.1615 0.33073 8.2179 0.33073 6.6815 0 7.8995 0.0572 7.5744 0.35554-0.21308 0.19555-3.6616 1.762-7.6635 3.4809-4.0018 1.719-7.4266 3.2616-7.6107 3.4282-0.474 0.42883 0.34183 6.217 0.94325 6.6922 0.32107 0.25368 3.2423 0.33073 12.539 0.33073h12.12l-5e-3 0.99219c-9e-3 1.7794-0.75595 8.0769-0.98455 8.3055-0.12254 0.12254-2.0633 0.57929-4.3128 1.015l-4.09 0.79219-3.5719-0.93796c-1.9645-0.51588-3.6461-1.0202-3.7368-1.1207-0.0907-0.10049-0.2955-1.2301-0.45509-2.5102-0.15958-1.2801-0.36027-2.441-0.44599-2.5797-0.21087-0.3412-6.6612-0.32787-6.8726 0.0142-0.09054 0.14649 0.04187 2.6586 0.29423 5.5825 0.4224 4.8939 0.50254 5.336 1.0089 5.5659 0.45981 0.20875 14.264 4.1263 14.723 4.1785 0.0827 9e-3 3.3318-0.9797 7.2201-2.198z" fill="#5da4d0"/>
   <path d="m102.16-108.6c-6.2843-1.7728-11.492-3.2896-11.573-3.3706-0.10608-0.10608-4.9143-57.397-4.9143-58.555 0-0.0868 12.929-0.1578 28.732-0.1578h28.732l-0.15496 1.2568c-0.0852 0.69122-1.2412 13.818-2.5689 29.17-1.4939 17.275-2.5284 28.031-2.7142 28.221-0.40582 0.41508-22.418 6.7104-23.363 6.6818-0.41205-0.0125-5.8909-1.4731-12.175-3.246zm19.942-11.029c3.7532-1.1698 6.93-2.2329 7.0596-2.3625 0.12959-0.12959 0.66334-5.1916 1.1861-11.249 0.82905-9.6062 0.90074-11.045 0.56114-11.259-0.21414-0.13542-3.3064-0.25167-6.8716-0.25832-4.6036-9e-3 -6.3458-0.0915-6.0114-0.28621 0.25902-0.15076 3.5332-1.5222 7.276-3.0477 3.7428-1.5255 6.9539-2.9691 7.1358-3.208 0.34471-0.45274 0.48308-5.9784 0.17013-6.7939-0.14429-0.37603-2.0118-0.41852-18.397-0.41852-16.026 0-18.255 0.0485-18.39 0.39982-0.17385 0.45305 0.40477 5.5039 0.73469 6.4132l0.216 0.59531h7.6638c4.2151 0 7.7281 0.10392 7.8066 0.23093s-3.2622 1.7046-7.4238 3.5057-7.6321 3.4428-7.7124 3.6481c-0.18059 0.46205 0.45051 5.8204 0.75336 6.3965 0.19473 0.37041 1.6743 0.43976 12.576 0.58947 6.7954 0.0933 12.379 0.20207 12.409 0.24167 0.19863 0.26538-0.87231 8.74-1.1241 8.8956-0.16957 0.1048-2.0692 0.52358-4.2213 0.93064l-3.913 0.74009-3.4396-0.8522c-1.8918-0.46872-3.5303-0.93231-3.6411-1.0302-0.11086-0.0979-0.33533-1.2422-0.49882-2.5429-0.1635-1.3007-0.41481-2.5137-0.55846-2.6956-0.18351-0.23239-1.2254-0.33073-3.5037-0.33073-2.2747 0-3.3225 0.0987-3.5105 0.33073-0.31226 0.3854 0.52827 10.95 0.90049 11.318 0.3373 0.33367 14.108 4.1611 15.098 4.1963 0.46525 0.0165 3.9167-0.92702 7.6699-2.0968z" fill="#308bc3"/>
   <path d="m102.5-108.66c-6.3926-1.8036-11.701-3.3711-11.795-3.4832-0.15707-0.18577-4.7997-56.566-4.7718-57.949l0.01201-0.59531h56.885l-1e-3 0.7276c-2e-3 1.1103-4.9906 57.798-5.0955 57.903-0.1383 0.13829-23.136 6.7247-23.39 6.6988-0.121-0.0123-5.4503-1.4982-11.843-3.3018zm19.583-10.716c3.7713-1.1739 7.0145-2.2883 7.2071-2.4764 0.52643-0.51399 2.3767-22.269 1.9319-22.715-0.22772-0.22814-2.1212-0.36264-6.4182-0.4559l-6.0952-0.13229 6.4386-2.6142c3.5412-1.4378 6.7097-2.7821 7.0411-2.9874 0.58723-0.36375 0.60065-0.46855 0.52917-4.1327l-0.0734-3.7595-18.288-0.0679c-15.533-0.0577-18.335-0.0113-18.6 0.3077-0.2406 0.28991-0.20885 1.1206 0.13913 3.6398 0.24799 1.7953 0.5662 3.413 0.70713 3.5949 0.19439 0.25089 2.0815 0.33073 7.8174 0.33073 4.4092 0 7.4564 0.0978 7.3098 0.2346-0.13824 0.12904-3.4997 1.635-7.47 3.3467-3.9702 1.7116-7.2858 3.2207-7.3678 3.3535-0.29984 0.48515 0.73166 6.6781 1.1696 7.022 0.3228 0.2535 3.2166 0.33073 12.393 0.33073 6.5848 0 12.02 0.0893 12.079 0.19843 0.0589 0.10914-0.0829 2.096-0.31511 4.4152l-0.42211 4.2168-3.3073 0.61214c-1.819 0.33667-3.623 0.72082-4.009 0.85366-0.52553 0.18089-1.5623 0.0245-4.1297-0.62293-1.8854-0.47545-3.5538-0.94224-3.7077-1.0373-0.15382-0.0951-0.36489-1.0948-0.46904-2.2216-0.3184-3.4448-0.0506-3.2394-4.2228-3.2394-2.9309 0-3.6143 0.072-3.7378 0.39361-0.15921 0.4149 0.63445 10.513 0.87567 11.142 0.07727 0.20136 0.57465 0.49324 1.1053 0.64863 4.7807 1.3999 14.042 3.9154 14.481 3.9332 0.30331 0.0123 3.6371-0.93804 7.4083-2.112z" fill="#1a82bd"/>
   <path d="m102.43-108.85c-6.2847-1.774-11.487-3.2884-11.561-3.3655-0.07397-0.0771-1.1496-12.638-2.3903-27.914-1.2407-15.275-2.3228-28.339-2.4046-29.03l-0.14874-1.2568h56.815l-0.12006 1.4478c-0.066 0.79628-1.2084 13.91-2.5386 29.141l-2.4185 27.693-11.354 3.2706c-6.2448 1.7988-11.601 3.2635-11.903 3.2548-0.30185-9e-3 -5.6909-1.4672-11.976-3.2411zm22.366-4.818c4.9981-1.4288 9.132-2.7265 9.1865-2.8838 0.23951-0.69152 4.2691-48.196 4.1035-48.377-0.10151-0.11069-5.4161-0.17022-11.81-0.13229l-11.626 0.069-0.1323 3.0427-0.13229 3.0427-18.785 0.26458-0.07631 0.92604c-0.10868 1.3188 0.63663 6.3546 0.99337 6.7119 0.20111 0.20144 2.6523 0.34289 7.4829 0.43185l7.1838 0.13229-7.1065 3.0848c-3.9086 1.6967-7.1994 3.2509-7.313 3.4538-0.24734 0.44198 0.62638 6.735 0.98486 7.0935 0.14391 0.14391 3.7399 0.28051 8.4434 0.32073l8.1928 0.07 0.0723 4.8754c0.0423 2.8529-0.0326 4.9804-0.18068 5.1284-0.24588 0.24587-7.0536-1.2564-7.5019-1.6555-0.1111-0.0989-0.33118-1.2438-0.48908-2.5443-0.1579-1.3005-0.409-2.5133-0.55801-2.6952-0.39989-0.48816-7.1743-0.46416-7.5819 0.0269-0.22002 0.26511-0.19209 1.6508 0.10801 5.3578 0.22263 2.7501 0.49479 5.357 0.60478 5.7932 0.19935 0.7904 0.22483 0.79986 7.8632 2.9201l7.6632 2.1271 0.0701 2.7684c0.0807 3.1848 0.16321 3.5353 0.79299 3.3671 0.2529-0.0675 4.5492-1.2918 9.5472-2.7205z" fill="#0170b6"/>
  </g>
 </g>
</svg>
