<svg width="21.282mm" height="23.603mm" version="1.1" viewBox="0 0 21.282 23.603" xmlns="http://www.w3.org/2000/svg">
 <g transform="translate(-50.935 -163.69)">
  <g transform="matrix(.25389 0 0 .25389 54.493 135)" stroke-width=".26458">
   <path d="m25.248 204.93c-7.939-3.5755-15.137-8.6586-21.281-15.029-12.965-13.443-18.922-30.39-17.857-50.806 0.6117-11.731 1.3826-14.585 4.8867-18.089 2.1686-2.1686 4.0574-3.0904 8.8917-4.3394 19.052-4.9224 36.759-4.9295 56-0.0224 6.2142 1.5848 8.954 3.3483 11.308 7.2782 1.7123 2.8586 2.0378 4.8099 2.5038 15.01 0.62887 13.764-1.3686 24.398-6.5739 34.996-5.0394 10.261-12.731 18.871-22.956 25.699-2.8745 1.9196-10.266 5.8398-11.862 6.2915-0.3212 0.0909-1.5256-0.29871-3.0606-0.99003zm4.2517-21.526c0-2.9317-0.09083-3.6366-0.71599-5.5562-0.3938-1.2092-0.78597-2.1986-0.87151-2.1986-0.08553 0-0.47771 0.98936-0.87151 2.1986-0.62516 1.9196-0.71599 2.6245-0.71599 5.5562v3.3577h3.175z" fill="#9ecd9d"/>
   <path d="m24.737 204.39c-7.0544-3.2135-14.221-8.2755-20.03-14.147-9.9498-10.058-15.595-21.665-17.846-36.69-0.5322-3.5534-0.46623-17.177 0.10634-21.96 0.68185-5.6963 1.6968-8.0283 4.7067-10.815 2.0174-1.8677 3.5769-2.6023 7.9272-3.7339 11.221-2.9188 23.387-4.2342 33.489-3.6207 10.425 0.63312 23.916 3.1791 28.348 5.3498 2.9707 1.4549 5.954 5.1451 6.9416 8.5864 0.48291 1.6827 1.0551 10.37 1.0631 16.14 0.01431 10.332-1.5724 18.724-5.1583 27.283-5.2676 12.573-15.326 23.625-28.255 31.047-3.3934 1.948-7.2794 3.7161-8.1545 3.7102-0.34411-2e-3 -1.7567-0.5195-3.1392-1.1492zm5.2388-17.42c0.20962-0.20962 0.3175-1.3372 0.3175-3.3186 0-2.7892-0.0757-3.2338-1.0723-6.2971-0.678-2.084-1.2051-3.296-1.4333-3.296-0.22381 0-0.72128 1.0812-1.3089 2.8448-0.89372 2.6821-0.94792 3.0422-0.94792 6.2971 0 2.3324 0.103 3.5553 0.3175 3.7698 0.41818 0.41818 3.7093 0.41818 4.1275 0z" fill="#7ec481"/>
   <path d="m24.737 204.15c-7.1001-3.2039-14.298-8.3752-20.379-14.64-9.2328-9.5132-14.56-20.218-16.982-34.123-0.53016-3.0444-0.59521-4.316-0.60095-11.748-0.0098-12.711 0.67717-17.228 3.1254-20.548 2.1903-2.9699 4.0356-4.1862 8.1129-5.3472 11.571-3.2948 25.433-4.8291 36.38-4.0267 10.273 0.75307 23.61 3.4247 27.417 5.4925 2.497 1.3561 5.0465 4.4529 6.0622 7.3635 1.402 4.0175 1.7392 22.014 0.54251 28.954-2.9498 17.106-11.331 30.878-25.082 41.217-5.2344 3.9355-13.549 8.5399-15.422 8.5399-0.3638 0-1.7926-0.51041-3.175-1.1342zm5.4978-20.668c0.0726-3.6161 0.057-3.7317-0.89285-6.6146-0.53171-1.6138-1.071-3.0473-1.1984-3.1855-0.12872-0.13968-0.23163-10.396-0.23163-23.085 0-19.217-0.05772-22.834-0.36444-22.834-0.39682 0-3.0501 2.895-4.9711 5.424-3.7433 4.928-6.6644 11.374-7.7558 17.114-2.015 10.598 0.73326 19.605 8.4256 27.611l2.2779 2.3708 0.0033 3.3293c0.0019 1.8311 0.08709 3.4131 0.1895 3.5156 0.10242 0.10242 1.1442 0.15203 2.3151 0.11024l2.1289-0.076z" fill="#4cac4f"/>
   <path d="m25.154 197.19c-9.1709-4.7225-17.367-11.988-22.951-20.347-4.498-6.7322-7.5278-15.075-8.8396-24.342-0.82445-5.8236-0.45012-21.11 0.58907-24.055 0.48383-1.3713 1.493-2.6681 2.6959-3.4641 1.7722-1.1728 11.028-3.28 19.434-4.4244 3.5861-0.48821 5.5256-0.58394 11.83-0.58394s8.2438 0.0957 11.83 0.58394c8.574 1.1673 17.709 3.2618 19.432 4.4553 1.1554 0.80073 2.1702 2.1954 2.7075 3.7211 0.92948 2.6395 1.3956 17.681 0.71199 22.974-2.3173 17.939-10.976 32.105-25.553 41.809-3.3148 2.2065-8.2653 4.8906-9.0187 4.8899-0.27847-2.6e-4 -1.5689-0.54763-2.8676-1.2164zm5.1394-13.743 0.13229-3.7146 2.025-2.0638c6.4138-6.5364 9.2905-13.796 8.8662-22.373-0.34724-7.0198-2.5881-13.509-6.9015-19.986-1.6933-2.5427-5.8854-7.4929-6.5862-7.7773-0.31683-0.12857-3.0152 2.7458-4.941 5.2632-5.3041 6.9336-8.1756 14.42-8.6337 22.508-0.47759 8.4325 2.3221 15.523 8.8951 22.526l2.3812 2.5372v3.2873c0 1.808 0.0838 3.3711 0.18622 3.4735 0.10242 0.10242 1.1442 0.15203 2.3151 0.11024l2.1289-0.076z" fill="#4f9048"/>
   <path d="m24.869 196.72c-15.697-8.3704-26.516-22.124-30.134-38.309-1.3188-5.8989-1.5533-8.8536-1.3933-17.555 0.15645-8.5041 0.41537-11.495 1.1154-12.883 0.60327-1.1967 1.9126-2.5436 3.0358-3.1228 1.9172-0.9887 11.493-3.0324 18.879-4.0294 6.1219-0.82629 16.957-0.82629 23.079 0 7.3804 0.99615 16.958 3.0398 18.879 4.0284 2.0779 1.0693 3.3121 3.1704 3.772 6.4215 0.18192 1.2859 0.31402 5.8066 0.32264 11.041 0.01212 7.3638-0.0666 9.356-0.46529 11.774-1.0152 6.1572-2.5253 11.107-4.9242 16.14-2.7913 5.8562-5.7329 10.05-10.459 14.912-3.3635 3.4603-6.0187 5.6744-9.8965 8.2526-2.7851 1.8517-8.1722 4.7517-8.8133 4.7444-0.19359-2e-3 -1.5426-0.63893-2.9978-1.4149zm5.3661-12.983 0.07441-3.4222 2.3159-2.3986c8.3593-8.6578 10.901-18.427 7.8503-30.168-1.6753-6.4469-5.6263-13.41-10.499-18.504l-2.0502-2.1431-1.6192 1.5864c-5.3171 5.2093-9.6342 12.88-11.316 20.107-2.0329 8.7359-0.83564 16.681 3.5355 23.462 1.4361 2.2279 4.35 5.7322 5.9251 7.1254l1.0789 0.95432v3.3011c0 1.8156 0.0838 3.3848 0.18622 3.4873 0.10242 0.10242 1.1442 0.15203 2.3151 0.11024l2.1289-0.076z" fill="#596e44"/>
   <path d="m25.002 196.52c-5.5786-2.995-9.7344-6.0328-14.25-10.416-9.1219-8.855-14.166-18.434-16.501-31.333-0.55002-3.0391-0.60177-4.1001-0.59466-12.192 0.00831-9.4608 0.28822-13.068 1.143-14.73 0.59682-1.1606 1.6698-2.229 2.818-2.8059 1.8216-0.91534 11.754-3.0096 18.755-3.9546 6.1264-0.8269 16.956-0.82633 23.088 1e-3 4.9264 0.66485 9.5741 1.5375 14.621 2.7452 4.2018 1.0055 5.5411 1.7709 6.6846 3.8201 1.0569 1.8941 1.2875 3.9883 1.4539 13.205 0.18057 9.9997-0.29432 14.302-2.3508 21.299-4.3521 14.807-15.047 27.358-29.504 34.625-1.1973 0.6018-2.3284 1.0925-2.5135 1.0905-0.18513-2e-3 -1.4677-0.61093-2.8501-1.3531zm5.4981-12.649 0.07417-3.5552 2.4539-2.5302c8.1112-8.3637 10.67-18.072 7.8155-29.65-1.6692-6.7694-6.1568-14.624-11.173-19.555-1.7112-1.6822-1.7296-1.6919-2.3928-1.2573-1.1032 0.72284-4.5884 4.8787-6.5442 7.8037-4.6293 6.9229-6.9361 14.213-6.921 21.872 0.01617 8.1814 2.7291 14.489 9.0969 21.15l2.3567 2.4652v3.2959c0 1.8128 0.08353 3.3794 0.18561 3.4815 0.10208 0.10208 1.2629 0.15169 2.5797 0.11024l2.3941-0.0754z" fill="#594e39"/>
   <path d="m26.457 196.92c-2.6287-1.3355-4.8047-2.6017-7.0208-4.0854-14.607-9.7802-23.506-24.362-25.376-41.583-0.60637-5.5838-0.20448-19.225 0.65757-22.321 0.41888-1.504 1.8156-3.1385 3.1629-3.7015 2.4386-1.0189 11.46-2.8986 18.522-3.8596 6.0837-0.8277 16.935-0.8277 23.019 0 9.0279 1.2283 17.8 3.2322 19.361 4.4228 1.1258 0.85872 2.082 2.3089 2.4305 3.6864 0.77605 3.0674 1.1174 16.557 0.55101 21.772-1.8892 17.397-10.834 32.094-25.386 41.71-2.528 1.6705-7.0852 4.2006-8.0698 4.4802-0.30593 0.0869-1.0873-0.13323-1.8521-0.52178zm4.0481-9.4173c0.21292-0.21293 0.3175-1.4019 0.3175-3.6099v-3.2924l2.0994-2.1868c4.842-5.0436 7.5622-9.9513 8.7779-15.837 0.47003-2.2755 0.53088-3.2756 0.41203-6.7709-0.0769-2.2614-0.33402-4.9912-0.5732-6.0854-1.1167-5.1089-3.3148-10.224-6.3674-14.817-1.9316-2.9063-5.7462-7.3438-6.8182-7.9315l-0.73494-0.40291-2.0367 2.1167c-6.8591 7.1282-11.081 16.104-11.946 25.399-0.83164 8.9366 2.1237 16.895 8.8925 23.947l2.4734 2.5769v3.2882c0 2.2047 0.10462 3.3928 0.3175 3.6057 0.42881 0.4288 4.757 0.4288 5.1858 0z" fill="#5b3f36"/>
  </g>
 </g>
</svg>
