<svg width="21.535mm" height="24.406mm" version="1.1" viewBox="0 0 21.535 24.406" xmlns="http://www.w3.org/2000/svg">
 <g transform="translate(-50.363 -163.43)">
  <g transform="matrix(.11533 0 0 .11533 73.507 162.62)" stroke-width=".26458">
   <path d="m-111.14 218.37c-0.86982-0.22517-15.595-8.5934-42.995-24.433-22.92-13.25-42.171-24.458-42.782-24.907-1.37-1.0079-2.6214-2.7901-3.2853-4.6789-0.48913-1.3917-0.50157-2.8712-0.43535-51.77l0.0682-50.338 0.74383-1.5148c1.7134-3.4892-0.19705-2.2828 45.516-28.743 32.183-18.629 42.104-24.255 43.259-24.531 1.9125-0.45726 5.3083-0.45925 7.2108-0.00423 1.1292 0.27009 11.467 6.1292 43.656 24.744 25.725 14.876 42.568 24.771 43.181 25.367 1.2034 1.1707 2.4265 3.521 2.8197 5.4182 0.20078 0.96875 0.26512 16.112 0.21552 50.731l-0.0707 49.35-0.90382 1.8464c-1.8472 3.7737 0.25694 2.4371-45.663 29.007-22.847 13.219-41.956 24.169-42.466 24.333-1.3903 0.44783-6.5136 0.526-8.0698 0.12313zm-10.574-86.168c4.0693-2.3412 7.6368-4.4874 7.9279-4.7695 0.50362-0.48806 0.53315-0.91811 0.61158-8.9063 0.0513-5.2244-0.0203-8.7432-0.18959-9.3196-0.25398-0.86467-0.76803-1.2139-7.7553-5.2686-5.7938-3.3621-7.6924-4.3425-8.4094-4.3423-0.71504 1.67e-4 -2.5458 0.9415-8.035 4.1314-3.9099 2.2722-7.333 4.334-7.6068 4.5818-0.46918 0.4246-0.49785 0.97905-0.49785 9.629 0 8.4103 0.0387 9.2124 0.46302 9.5844 0.80254 0.70379 15.248 8.9364 15.68 8.9364 0.22681 0 3.7418-1.9155 7.8111-4.2567zm-10.489-8.7862c-3.4038-2.065-3.1467-1.6362-3.1467-5.249v-3.1459l1.3891-0.88578c0.76399-0.48718 2.0767-1.2727 2.9171-1.7455l1.528-0.85975 2.4407 1.3926c3.603 2.0558 3.3668 1.6853 3.3668 5.28 0 2.6181-0.0711 3.1539-0.46302 3.4898-0.81013 0.69431-5.02 3.1252-5.3946 3.1149-0.19807-5e-3 -1.3849-0.63154-2.6374-1.3914z" fill="#d1e79c"/>
   <path d="m-110.56 218.35c-0.69727-0.19174-3.138-1.4252-5.424-2.7409-41.959-24.152-80.354-46.52-81.338-47.385-0.78501-0.69066-1.5684-1.7508-2.1167-2.8645l-0.87042-1.7681v-101.08l0.77554-1.5875c1.7383-3.5583-0.0181-2.446 44.704-28.31 22.394-12.951 41.325-23.859 42.069-24.239 2.9778-1.5226 6.9913-1.7008 9.7381-0.43242 0.77193 0.35644 20.096 11.455 42.943 24.664 30.456 17.607 41.87 24.335 42.777 25.212 0.70334 0.68009 1.5596 1.8939 1.9844 2.813l0.74716 1.6167v101.34l-0.87346 1.6099c-1.8022 3.3218-0.28923 2.3727-45.493 28.535-30.911 17.89-42.264 24.335-43.381 24.626-1.8222 0.47461-4.5112 0.47379-6.2411-2e-3zm-10.924-85.887c4.0863-2.3444 7.6976-4.5536 8.025-4.9095 0.59292-0.64449 0.59531-0.68312 0.59531-9.6134 0-8.9247-3e-3 -8.9694-0.59531-9.6322-0.84909-0.94969-15.261-9.1532-16.08-9.1532-0.81211 0-15.208 8.2063-16.066 9.1588-0.59233 0.65694-0.5953 0.70438-0.59142 9.4429 3e-3 6.4402 0.0911 8.9541 0.33073 9.4255 0.40029 0.78738 15.35 9.5274 16.313 9.5371 0.35218 4e-3 3.982-1.9108 8.0698-4.256zm-10.43-9.2556c-3.3588-2.0151-3.175-1.7256-3.175-5.0028 0-2.3635 0.0761-2.8948 0.46303-3.2323 0.82511-0.71972 4.6718-2.8531 5.1444-2.8531 0.45349 0 4.1446 2.0948 5.042 2.8614 0.38749 0.33104 0.46236 0.85287 0.45897 3.1988-2e-3 1.5418-0.0915 2.9378-0.19843 3.1022-0.18361 0.28233-4.4169 2.8707-5.146 3.1464-0.18704 0.0707-1.3521-0.47857-2.589-1.2207z" fill="#b0d654"/>
   <path d="m-109.29 218.56c-0.43609-0.0728-0.85281-0.21084-0.92604-0.30685-0.0732-0.096-0.63143-0.35315-1.2404-0.57144-2.011-0.72078-84.765-48.741-85.88-49.834-0.57132-0.56007-1.414-1.8102-1.8725-2.7781l-0.83376-1.7598v-100.81l0.89121-1.6432c1.8083-3.3342 0.49871-2.5124 45.543-28.578 22.92-13.263 42.029-24.2 42.466-24.305 0.43656-0.10516 0.87703-0.31899 0.97882-0.47517 0.24531-0.37641 5.0571-0.37437 5.5362 0.00235 0.20029 0.15748 0.72134 0.40671 1.1579 0.55384 0.43657 0.14713 19.784 11.241 42.995 24.653 32.993 19.065 42.426 24.629 43.232 25.502 0.56677 0.61399 1.3407 1.7712 1.7198 2.5716l0.68931 1.4552v101.07l-0.7602 1.5482c-1.6114 3.2818 0.0313 2.2487-45.222 28.44-22.941 13.278-42.102 24.273-42.579 24.433-0.47746 0.16064-0.99601 0.39108-1.1524 0.51209-0.35372 0.2738-3.6714 0.49551-4.742 0.3169zm-13.848-84.836c8.9288-5.1267 9.9367-5.7605 10.249-6.445 0.19377-0.42527 0.29131-3.6512 0.29131-9.6348 0-8.9776-1e-3 -8.9966-0.59531-9.5848-0.32743-0.32415-3.946-2.5214-8.0413-4.8828-5.3994-3.1133-7.6797-4.2934-8.2964-4.2934-1.2196 0-16.041 8.5708-16.563 9.578-0.49071 0.94649-0.54606 17.793-0.0619 18.855 0.20454 0.44893 1.3411 1.2718 3.3734 2.4423 1.6857 0.97088 5.2021 2.9935 7.8142 4.4948 2.7578 1.585 5.0438 2.7296 5.4517 2.7296 0.41497 0 3.0255-1.3338 6.379-3.2593zm-9.0022-10.999c-1.2165-0.70534-2.316-1.4469-2.4433-1.6479-0.27987-0.44188-0.31133-5.2698-0.0371-5.6915 0.24653-0.3791 4.69-3.0084 5.0842-3.0084 0.37683 0 4.3988 2.315 4.9099 2.826 0.50597 0.50597 0.55139 5.3314 0.0561 5.9578-0.43894 0.55504-4.4427 2.8595-4.9554 2.8522-0.22133-3e-3 -1.3978-0.58283-2.6143-1.2882z" fill="#8ac400"/>
   <path d="m-197.42 167.88-0.50403-0.59531 0.59531 0.50403c0.55945 0.47366 0.71577 0.68659 0.50403 0.68659-0.0502 0-0.31809-0.26789-0.59531-0.59531zm179.54-0.0661c0.34178-0.36381 0.68094-0.66146 0.7537-0.66146s-0.14734 0.29765-0.48912 0.66146c-0.34178 0.3638-0.68094 0.66145-0.7537 0.66145-0.07276 0 0.14734-0.29765 0.48912-0.66145zm-68.924-30.74c-0.93828-0.50116-13.497-7.7663-14.335-8.2923-0.31707-0.19917-0.70402-0.64203-0.8599-0.98414-0.184-0.40383-0.28341-3.8238-0.28341-9.7497 0-9.1153 7.9e-4 -9.1285 0.59531-9.7153 0.32742-0.32317 3.9473-2.5204 8.0442-4.8828 5.8995-3.4017 7.6495-4.2952 8.413-4.2952 0.62692 0 1.6383 0.37004 2.8921 1.0582 1.0604 0.58198 2.0073 0.97885 2.1042 0.88194 0.09691-0.0969 0.17803-5.3058 0.18026-11.575 0.0021-6.2695 0.10775-11.563 0.23449-11.763 0.12674-0.20009 0.5385-0.3638 0.91501-0.3638 0.86195 0 9.8112 4.9252 10.352 5.6971 0.35009 0.49983 0.40078 3.3237 0.40078 22.329 0 14.905-0.08926 21.953-0.28341 22.379-0.34354 0.75397 0.17833 0.42205-8.7052 5.5367-7.6352 4.3959-8.0997 4.5756-9.6645 3.7398zm4.2763-14.662 2.206-1.3325v-5.7456l-2.3465-1.3428c-1.2906-0.73854-2.4902-1.3428-2.6658-1.3428-0.36701 0-3.8862 1.9918-4.5788 2.5915-0.38479 0.33319-0.46302 0.85922-0.46302 3.1135v2.7126l2.4474 1.4589c1.3461 0.80239 2.6155 1.405 2.821 1.3393 0.20551-0.0658 1.3664-0.71925 2.5797-1.4521zm33.03 10.475c-4.2201-2.4196-7.8813-4.6424-8.1359-4.9397-0.42209-0.49269-0.46302-1.3692-0.46302-9.9159 0-9.3716 2.41e-4 -9.3757 0.59531-9.9648 0.32742-0.32415 3.946-2.5214 8.0413-4.8828 5.8656-3.3822 7.6489-4.2934 8.402-4.2934 0.7533 0 2.5617 0.92458 8.5283 4.3603 4.1648 2.3982 7.7322 4.5711 7.9276 4.8286 0.47926 0.6316 0.51304 6.1349 0.04147 6.7558-0.55815 0.73486-9.4104 6.0157-10.084 6.0157-1.0443 0-1.3286-0.653-1.4452-3.3196l-0.10808-2.4711-2.3183-1.338c-1.2751-0.73588-2.401-1.338-2.5021-1.338-0.10108 0-1.2466 0.61991-2.5456 1.3776l-2.3618 1.3776v5.9386l7.5649 4.3182c4.1607 2.375 7.6853 4.5416 7.8324 4.8147 0.54496 1.0112-0.15338 1.6108-4.9465 4.2475-2.5725 1.4151-5.0536 2.6303-5.5135 2.7004-0.71002 0.10815-1.9939-0.53638-8.5091-4.2718zm-140.88 0.14828c-0.53116-0.53116-0.54262-0.7944-0.5388-12.383 3e-3 -8.8701 0.0859-12 0.33073-12.477 0.21958-0.4279 2.9746-2.1467 8.3959-5.2378 6.4651-3.6863 8.2007-4.5684 8.7312-4.4375 0.91042 0.22467 15.336 8.5735 16.074 9.303l0.59531 0.58828v24.354l-0.62418 0.40898c-0.36942 0.24206-0.82837 0.33314-1.1245 0.22317-1.1321-0.42047-9.2665-5.2013-9.6946-5.6978-0.4106-0.47627-0.46302-1.1947-0.46302-6.346 0-3.1949-0.11266-6.0194-0.25036-6.2767-0.40326-0.7535-4.4812-3.0027-5.1377-2.8337-0.3108 0.08-1.4716 0.67827-2.5796 1.3294-1.6864 0.99106-2.0419 1.321-2.1828 2.0253-0.0926 0.46279-0.16829 3.2541-0.16829 6.203 0 4.7211-0.0553 5.427-0.46302 5.9096-0.47385 0.56081-8.7256 5.3768-9.776 5.7056-0.40809 0.12774-0.7438 0.0201-1.1245-0.3606zm147.92-11.725c-2.058-1.0526-2.4151-1.5457-2.4151-3.3355 0-0.86817 0.07156-1.765 0.15901-1.9929 0.21544-0.56142 2.7955-2.0104 3.5774-2.009 0.34609 5.3e-4 1.2841 0.3945 2.0845 0.87533l1.4552 0.87423 0.07823 1.9273c0.04823 1.1883-0.03974 2.0694-0.22944 2.298-0.34889 0.42039-2.966 1.9635-3.3206 1.9579-0.12781-2e-3 -0.75294-0.26991-1.3892-0.59532zm-92.276-3.1052c0-1.528 0.0437-2.153 0.0972-1.3891 0.0534 0.76398 0.0534 2.0141 0 2.7781-0.0534 0.76399-0.0972 0.13891-0.0972-1.3891zm10.319 0c0-1.528 0.0437-2.153 0.0972-1.3891 0.0534 0.76398 0.0534 2.0141 0 2.7781-0.0535 0.76399-0.0972 0.13891-0.0972-1.3891zm-5.4557-19.49c0.1819-0.0734 0.47955-0.0734 0.66145 0s0.0331 0.13345-0.33073 0.13345c-0.3638 0-0.51263-0.06006-0.33072-0.13345zm112.1-40.901-0.7771-0.8599 0.8599 0.7771c0.47294 0.42741 0.8599 0.81436 0.8599 0.8599 0 0.20441-0.21832 0.02445-0.94269-0.7771zm-87.164-50.22c0-0.15411 0.11906-0.20661 0.26458-0.11668 0.14552 0.089937 0.26458 0.21603 0.26458 0.2802 0 0.064172-0.11906 0.11668-0.26458 0.11668s-0.26458-0.12609-0.26458-0.2802z" fill="#84b60c"/>
   <path d="m-86.843 136.66c-0.59974-0.32742-4.0913-2.3217-7.759-4.4318-4.8019-2.7625-6.773-4.0365-7.0414-4.5509-0.29904-0.5731-0.3728-2.4679-0.3728-9.5764 0-8.822 3e-3 -8.8648 0.59531-9.509 0.93775-1.0193 15.333-9.172 16.195-9.172 0.4069 0 1.6224 0.48719 2.7011 1.0826 1.0787 0.59544 2.1351 1.0159 2.3477 0.93434 0.33055-0.12684 0.38643-1.7915 0.38643-11.512 0-6.2501 0.07227-11.552 0.1606-11.782 0.08833-0.23018 0.43064-0.41852 0.76069-0.41852 0.66114 0 8.9495 4.5043 9.7943 5.3228 0.5195 0.50326 0.53046 0.9076 0.59996 22.135 0.05105 15.591-0.01244 21.823-0.22756 22.343-0.23246 0.56131-1.8551 1.6195-7.3468 4.7912-9.8527 5.6904-8.9744 5.3369-10.793 4.3441zm4.2883-13.84 2.4988-1.4706v-3.0959c0-2.6625-0.06482-3.1362-0.46302-3.3836-0.25466-0.15822-1.4412-0.85541-2.6368-1.5493l-2.1738-1.2616-2.1919 1.2658c-3.308 1.9105-3.1179 1.6124-3.1179 4.8891 0 2.3153 0.0804 2.9037 0.43721 3.1999 0.79527 0.66002 4.4512 2.8335 4.803 2.8554 0.18999 0.0119 1.4699-0.64025 2.8443-1.4491zm33.051 9.6622c-4.0706-2.3341-7.6095-4.4904-7.8642-4.7918-0.42134-0.49863-0.46302-1.3657-0.46302-9.632 0-9.0524 0.0021-9.0863 0.59531-9.7311 0.90939-0.98849 15.331-9.172 16.164-9.172 0.74356 0 14.787 7.8541 15.944 8.9171 0.59156 0.54345 0.63426 0.76859 0.63426 3.3441 0 2.2541-0.08507 2.8576-0.46302 3.285-0.57995 0.65582-9.1545 5.885-9.6499 5.885-0.78119 0-0.99959-0.64333-0.99959-2.9444 0-1.6734-0.10654-2.416-0.38681-2.6962-0.58824-0.58824-4.5607-2.826-5.0167-2.826-0.62282 0-4.8712 2.5983-5.1742 3.1645-0.32641 0.60989-0.35474 5.2882-0.03508 5.7926 0.12485 0.19703 3.6056 2.296 7.735 4.6644 9.5388 5.471 9.3158 4.8199 2.8778 8.4001-3.3801 1.8797-4.8822 2.5762-5.5635 2.5797-0.72638 4e-3 -2.5738-0.93588-8.3344-4.239zm-140.87 0.0279c-0.42048-0.78566-0.36381-23.243 0.0607-24.07 0.4051-0.78951 15.605-9.5495 16.57-9.5495 0.79973 0 15.775 8.5909 16.312 9.3578 0.32281 0.46088 0.38488 2.4515 0.38488 12.344 0 12.296-0.0121 12.429-1.1195 12.429-0.6388 0-9.1984-4.8904-9.7946-5.596-0.41006-0.48532-0.46302-1.2079-0.46302-6.3179 0-3.1734-0.0737-5.962-0.16381-6.1968-0.21234-0.55335-4.4458-3.056-5.1695-3.056-0.79068 0-4.3383 2.0156-4.9772 2.8278-0.50247 0.63879-0.53734 1.0547-0.53734 6.4094 0 4.5807-0.077 5.8361-0.38462 6.2754-0.4892 0.69842-9.1626 5.654-9.8958 5.654-0.3019 0-0.67216-0.2303-0.8228-0.51178zm147.39-11.881c-1.2787-0.77849-1.5668-1.2731-1.5948-2.7378-0.02979-1.5618 0.34585-2.1426 1.9362-2.9938l1.4831-0.79375 1.4672 0.76589c0.80698 0.42125 1.5871 0.9899 1.7336 1.2637 0.14652 0.27377 0.23078 1.1782 0.18725 2.0099-0.0782 1.4941-0.09492 1.5225-1.399 2.3744-1.5778 1.0306-2.2706 1.0509-3.8136 0.11148z" fill="#769430"/>
   <path d="m-86.464 136.46c-3.56-1.908-14.421-8.3188-14.693-8.6722-0.24994-0.32549-0.33073-2.6706-0.33073-9.5995 0-8.4037 0.0386-9.2022 0.46302-9.5682 0.89399-0.77108 15.317-8.9431 15.784-8.9431 0.25972 0 1.4764 0.54738 2.7037 1.2164 1.8162 0.99002 2.3039 1.1563 2.6204 0.89364 0.33117-0.27485 0.3889-2.0215 0.3889-11.767 0-9.8379 0.05558-11.491 0.39592-11.773 0.32739-0.27171 1.0487 0.02701 4.1672 1.7258 2.0742 1.1299 4.2475 2.3691 4.8296 2.7537l1.0583 0.69929 0.07281 21.686c0.04004 11.927 0.01027 21.945-0.0662 22.261-0.09736 0.40303-1.229 1.207-3.777 2.6834-8.3134 4.817-12.076 6.9277-12.351 6.9277-0.16001 0-0.73019-0.23544-1.2671-0.52319zm4.1448-13.366c1.3585-0.79949 2.5425-1.6427 2.6311-1.8737 0.228-0.59416 0.19318-5.7392-0.04128-6.0996-0.31305-0.48118-5.0636-3.2731-5.5693-3.2731-0.25385 0-1.5891 0.6854-2.9673 1.5231l-2.5057 1.5231-0.07398 3.2005c-0.06321 2.7348-0.0092 3.2542 0.37106 3.5698 1.0967 0.91018 4.5234 2.8424 5.0754 2.8619 0.33551 0.0118 1.7215-0.6326 3.0799-1.4321zm33.091 9.1148c-4.0627-2.3348-7.5414-4.3734-7.7304-4.5303-0.27003-0.2241-0.34374-2.2837-0.34374-9.6046 0-8.547 0.03837-9.3524 0.46302-9.7187 0.25466-0.21965 3.8265-2.3346 7.9373-4.6999 5.7722-3.3212 7.6162-4.265 8.0974-4.1442 0.34271 0.08602 3.9823 2.0771 8.088 4.4247 5.5634 3.181 7.5277 4.4334 7.7114 4.9166 0.32652 0.85881 0.31654 4.7512-0.01376 5.3684-0.21533 0.40235-6.7017 4.5409-8.9862 5.7336-1.0741 0.56073-1.3363 0.0685-1.3409-2.5168-0.0021-1.2555-0.09152-2.4172-0.19844-2.5816-0.33767-0.51922-4.8766-3.0745-5.4612-3.0745-0.55286 0-4.3549 2.1061-5.2504 2.9083-0.3885 0.34806-0.46302 0.88977-0.46302 3.366 0 1.9668 0.11031 3.0873 0.33073 3.3593 0.1819 0.22452 3.6491 2.299 7.7048 4.61 4.0558 2.311 7.4356 4.3619 7.5107 4.5577 0.0751 0.19571-0.02856 0.5155-0.23036 0.71065-0.73631 0.71201-9.1874 5.1604-9.8037 5.1604-0.34907 0-3.9587-1.9103-8.0213-4.245zm-140.72 0.36447c-0.097-0.097-0.17639-5.5554-0.17639-12.13 0-11.056 0.0348-11.983 0.46302-12.353 0.25466-0.2195 3.8563-2.3284 8.0036-4.6864 4.8525-2.7589 7.7374-4.2508 8.0926-4.1848 0.58321 0.10828 14.729 8.196 15.521 8.8739 0.42835 0.36666 0.46302 1.2954 0.46302 12.402 0 10.082-0.0597 12.029-0.37269 12.149-0.55344 0.21238-9.4805-4.9812-9.876-5.7457-0.2288-0.44218-0.328-2.3116-0.33073-6.2324-2e-3 -3.0804-0.0776-5.7929-0.16772-6.0277-0.17873-0.46576-4.2308-2.9559-5.1933-3.1914-0.40904-0.10009-1.2566 0.23209-2.7017 1.0588-3.5822 2.0494-3.3183 1.3977-3.3183 8.192 0 4.6873-0.0763 5.9571-0.38462 6.3973-0.36654 0.52331-9.0747 5.654-9.5964 5.654-0.13725 0-0.32892-0.0794-0.42593-0.17639zm147.2-12.23-1.1906-0.72309-0.07764-1.7437-0.07764-1.7437 2.9442-1.6845 2.7674 1.5612 0.1561 3.4951-1.2687 0.79662c-0.69778 0.43814-1.4473 0.78953-1.6656 0.78085-0.21828-9e-3 -0.93266-0.34116-1.5875-0.73885z" fill="#676d58"/>
   <path d="m-93.249 132.12c-4.1275-2.38-7.6083-4.491-7.735-4.6911-0.12672-0.20005-0.23223-4.3804-0.23446-9.2897l-4e-3 -8.9259 0.99219-0.64176c3.1754-2.0539 14.49-8.3616 14.998-8.3616 0.33275 0 1.4714 0.47625 2.5304 1.0583 2.1328 1.1724 3.0197 1.3137 3.4303 0.54656 0.17664-0.33006 0.27389-4.5577 0.27389-11.906 0-7.9206 0.08636-11.394 0.28325-11.394 0.49003 0 8.5576 4.5419 9.0433 5.0912 0.43287 0.48955 0.46302 1.9226 0.46302 22.007 0 16.793-0.0722 21.573-0.33073 21.891-0.50378 0.62038-15.129 8.955-15.703 8.949-0.27645-3e-3 -3.8797-1.9526-8.0072-4.3326zm11.102-8.6928 2.7525-1.6536v-7.1244l-2.7781-1.6551c-1.528-0.91029-2.9017-1.6588-3.0527-1.6633-0.34388-0.0103-4.9541 2.6174-5.6747 3.2344-0.4787 0.40987-0.5326 0.77346-0.52897 3.5678 0.0021 1.7113 0.10497 3.2706 0.22831 3.4652 0.30984 0.48881 5.3582 3.4777 5.8787 3.4804 0.23238 1e-3 1.6611-0.7419 3.175-1.6514zm32.915 8.3326-7.6729-4.4348-0.13914-18.372 0.99561-0.64482c3.0879-1.9999 14.473-8.3631 14.964-8.3631 0.95207 0 15.521 8.4598 15.683 9.1066 0.07578 0.30288 0.10278 1.6123 0.05998 2.9099l-0.07781 2.3592-4.4979 2.7337c-2.4739 1.5035-4.5872 2.7338-4.6964 2.734s-0.19844-0.94444-0.19844-2.0991c0-1.1547-0.10918-2.3866-0.24262-2.7376-0.26199-0.68908-5.0911-3.6296-5.9608-3.6296-0.52069 0-4.9282 2.4382-5.5728 3.0828-0.30898 0.30898-0.39457 1.1359-0.39457 3.8119v3.4174l0.99219 0.62537c0.5457 0.34395 4.0684 2.3846 7.8282 4.5349 5.5271 3.161 6.7683 3.9717 6.4823 4.2341-0.54488 0.4999-8.6322 4.8772-9.2937 5.0302-0.42348 0.098-2.7048-1.0897-8.258-4.2994zm-140.63-11.126c0-8.872 0.0776-11.69 0.33073-12.012 0.4894-0.62284 15.165-8.9406 15.774-8.9406 0.46134 0 13.309 7.2123 15.182 8.5228l0.72761 0.50905v11.756c0 9.2541-0.0707 11.756-0.33209 11.756-0.18265 0-2.3555-1.1609-4.8286-2.5797l-4.4966-2.5797-0.1323-6.2439c-0.1002-4.7295-0.21984-6.3492-0.49329-6.6782-0.62794-0.75535-4.9614-3.0852-5.7385-3.0852-1.1624 0-5.3178 2.5789-5.8031 3.6015-0.31907 0.67238-0.40057 2.0003-0.40057 6.5264 0 4.2231-0.0849 5.7528-0.33073 5.9567-0.71839 0.59597-8.7411 5.0821-9.0885 5.0821-0.31173 0-0.37032-1.8337-0.37032-11.591zm147.16-0.737-1.137-0.68143 0.07868-1.4517c0.07748-1.4296 0.09789-1.4626 1.3354-2.1604l1.2568-0.70859 2.5135 1.42v1.5306c0 1.5094-0.01466 1.5388-1.0583 2.1299-1.3415 0.75974-1.6021 0.75291-2.9891-0.0784z" fill="#646660"/>
  </g>
 </g>
</svg>
