<svg width="124.8mm" height="48.995mm" version="1.1" viewBox="0 0 124.8 48.995" xmlns="http://www.w3.org/2000/svg">
 <g transform="translate(110.09 -47.156)">
  <g transform="translate(50.649 -101.3)" stroke-width=".26458">
   <path d="m-126.22 196.84c-0.0881-0.3287-0.16177-1.8776-0.16376-3.4419l-4e-3 -2.8443h-34.121l-0.14405-0.59531c-0.0792-0.32742-0.11125-9.7631-0.0712-20.968l0.0729-20.373h124.62l0.07286 20.373c0.04007 11.205 0.0082 20.64-0.07091 20.967l-0.14377 0.59422-61.771 0.1344-0.13229 3.3073-0.13229 3.3073-27.851 0.137zm20.735-10.223c0-2.2928 0.0952-3.2216 0.35205-3.4348 0.23017-0.19103 2.5888-0.31674 6.813-0.36313l6.461-0.0709 0.13718-26.591h-26.728v33.602h12.965zm0.46302-10.108c-0.42169-0.24561-0.46302-0.86792-0.46302-6.971 0-5.3997 0.0715-6.7606 0.36793-7.0067 0.24585-0.20404 1.453-0.28063 3.638-0.23084l3.2701 0.0745 0.07063 6.9931c0.05472 5.4182-0.0049 7.041-0.26458 7.2058-0.48612 0.30856-6.0719 0.25379-6.6191-0.0649zm-35.123-3.6301c0-7.426 0.0818-10.083 0.3175-10.319 0.36084-0.36083 6.474-0.44911 7.0215-0.10139 0.24882 0.15803 0.34416 2.62 0.39687 10.249l0.0694 10.041 5.9531 0.1496v-26.745l-26.591 0.1372-0.0689 12.965c-0.0379 7.1305-0.0119 13.113 0.0578 13.295 0.0965 0.2519 1.6424 0.33073 6.485 0.33073h6.3583zm69.056-0.3175 0.13229-10.186 3.4027-0.0743c2.283-0.0498 3.5237 0.0261 3.7703 0.23083 0.30194 0.25059 0.36763 2.0958 0.36763 10.327v10.022h6.0854v-10.001c0-7.426 0.08175-10.083 0.3175-10.319 0.36083-0.36083 6.474-0.44911 7.0215-0.10139 0.24882 0.15803 0.34416 2.62 0.39688 10.249l0.06938 10.041h6.0854v-26.458l-40.614-0.1356v26.736l6.4161-0.0709 6.4161-0.0708z" fill="#f1d0d0"/>
   <path d="m-125.67 197.1c-0.36227-0.27105-0.45496-0.90372-0.51359-3.5057l-0.0715-3.175-34.131-0.26459-0.0686-20.505c-0.0637-19.043-0.0365-20.529 0.38129-20.836 0.66073-0.48569 122.8-0.48569 123.46 0 0.41783 0.30714 0.44503 1.7933 0.3813 20.836l-0.06862 20.505-61.648 0.26459-0.13229 3.2516c-0.10158 2.4968-0.22441 3.3096-0.52917 3.5017-0.64336 0.40542-26.518 0.33608-27.064-0.0725zm20.449-10.517 0.1323-3.3073 6.6019-0.0709c4.8768-0.0524 6.656-0.15607 6.809-0.39687 0.27339-0.43039 0.26907-26.158-0.0044-26.588-0.16644-0.26218-3.0558-0.31858-13.556-0.26458l-13.344 0.0686-0.1362 34.008 13.365-0.1414zm0.29229-10.418c-0.21238-0.2559-0.28071-2.3117-0.23084-6.9453l0.0708-6.5818 3.1375-0.0748c2.087-0.0498 3.2608 0.0275 3.5057 0.23083 0.49812 0.41341 0.54544 12.922 0.05076 13.417-0.47459 0.4746-6.135 0.43475-6.534-0.046zm-34.953-3.3407 0.13229-10.186h6.8792l0.14017 10.186c0.0771 5.6026 0.1664 10.22 0.19844 10.261 0.032 0.041 1.4572 0.041 3.1671 0l3.1089-0.0745 0.0686-13.56 0.0685-13.56h-26.992v13.45c0 7.3973 0.0814 13.531 0.18098 13.631 0.0995 0.0995 3.0463 0.14915 6.5484 0.11024l6.3675-0.0707zm68.792 0.21138c0.08796-6.6323 0.22824-10.071 0.41861-10.261 0.18296-0.18277 1.4723-0.25908 3.5719-0.21138l3.2856 0.0746 0.13229 10.186 0.13229 10.186h6.35l0.13229-10.186 0.13229-10.186h6.8792l0.14018 10.186c0.0771 5.6026 0.16639 10.22 0.19844 10.261 0.03204 0.041 1.4572 0.041 3.1671 0l3.1089-0.0745 0.06855-13.562 0.06855-13.562-40.883 0.1356-0.06885 13.229c-0.03787 7.276-0.01103 13.38 0.05965 13.565 0.09993 0.26086 1.5565 0.31969 6.5511 0.26458l6.4226-0.0709z" fill="#e8afaf"/>
   <path d="m-125.73 196.84c-0.0667-0.18322-0.15269-1.7024-0.19105-3.3758l-0.0697-3.0427-34.131-0.26459v-41.275h123.56v41.275l-61.648 0.26459-0.26458 6.6146-13.567 0.0686c-10.715 0.0541-13.593-2e-3 -13.689-0.26459zm20.468-6.898c0.16179-0.19494 0.32103-1.7324 0.36313-3.5057l0.075-3.1585 13.361-0.1414v-13.593c0-12.151-0.0444-13.61-0.41852-13.754-0.75559-0.28995-26.034-0.18223-26.586 0.11329-0.49769 0.26636-0.51177 0.73432-0.51177 17.013 0 12.666 0.0773 16.816 0.3175 17.056 0.47703 0.47703 13.002 0.44926 13.4-0.0297zm0.30581-20.402v-6.7424l1.6536-0.0788c0.90951-0.0433 2.3998-0.0388 3.3118 0.0102l1.6581 0.0889-0.07064 6.658-0.07064 6.6579-6.4823 0.1486zm-34.862 3.485 0.0693-10.12h6.8792l0.0693 10.128 0.0693 10.128 6.7406-0.148 0.0692-13.361c0.0639-12.326 0.0343-13.387-0.3813-13.692-0.34587-0.2539-3.4457-0.33073-13.343-0.33073-7.0908 0-13.081 0.0723-13.311 0.1606-0.37402 0.14352-0.41851 1.5875-0.41851 13.582 0 7.3817 0.0794 13.501 0.17639 13.598 0.097 0.097 3.1317 0.17639 6.7437 0.17639h6.5673zm68.93-0.13229 0.06929-10.12h6.8729v9.7679c0 5.3724 0.07227 9.9563 0.1606 10.186 0.13449 0.35048 0.69365 0.41852 3.4396 0.41852h3.279l4e-3 -9.8557c0.0021-5.4206 0.10092-10.008 0.21931-10.195 0.16057-0.25304 1.0503-0.32027 3.5017-0.26458l3.2864 0.0747 0.13229 10.054 0.13229 10.054h6.6146l0.0686-13.477c0.05399-10.606-0.0024-13.522-0.26458-13.688-0.38405-0.24381-39.897-0.30135-40.528-0.059-0.37412 0.14356-0.41852 1.6034-0.41852 13.763v13.602l13.361-0.1414z" fill="#e19392"/>
   <path d="m-125.53 197c-0.23944-0.0966-0.33073-1.0324-0.33073-3.3904 0-2.7258-0.0682-3.2831-0.41851-3.4175-0.23018-0.0883-7.97-0.1606-17.2-0.1606h-16.781l0.0678-20.571 0.0678-20.571h123.56l0.06777 20.571 0.06777 20.571h-30.539c-16.797 0-30.728 0.0723-30.958 0.1606-0.35021 0.13439-0.41852 0.69116-0.41852 3.4113 0 2.7201-0.06831 3.2769-0.41852 3.4113-0.49994 0.19185-26.291 0.17775-26.767-0.0146zm20.513-10.205 0.074-3.3689 13.346-0.1414v-27.517h-27.252l-0.0686 16.933c-0.0377 9.3133-0.0109 17.084 0.0596 17.269 0.0998 0.26113 1.6351 0.3196 6.9477 0.26458l6.8196-0.0706zm0.18057-10.849c-0.0727-0.18942-0.10017-3.1996-0.0611-6.6892l0.0711-6.3448h6.35v13.229l-3.1139 0.0746c-2.3676 0.0567-3.1456-8e-3 -3.2461-0.26981zm-35.1 7.1538c0.23575-0.23575 0.3175-2.8928 0.3175-10.319v-10.001h6.6146v9.807c0 6.2542 0.0992 9.9924 0.27389 10.319 0.24602 0.45967 0.57597 0.51136 3.2412 0.50772 1.632-2e-3 3.1172-0.0992 3.3004-0.21555 0.26224-0.16648 0.31856-3.1086 0.26459-13.82l-0.0686-13.609h-27.252l-0.0688 13.494c-0.0379 7.4216-0.0118 13.643 0.0578 13.824 0.17827 0.46547 12.855 0.47806 13.32 0.0132zm69.109-10.001 0.13229-10.186h6.6146l0.06941 9.8987c0.04746 6.7688 0.16228 10.011 0.36313 10.253 0.2134 0.25713 1.1081 0.35391 3.2716 0.35391 2.1636 0 3.0582-0.0968 3.2716-0.35391 0.20085-0.242 0.31566-3.4838 0.36313-10.253l0.06941-9.8987 3.2411-0.0743c1.7826-0.0409 3.2674-0.0409 3.2994 0 0.03204 0.0409 0.12134 4.6582 0.19844 10.261l0.14018 10.186h6.6146v-27.517l-20.344-0.0678c-14.809-0.0494-20.442 0.0135-20.704 0.23084-0.50012 0.41506-0.53668 26.674-0.03783 27.173 0.23942 0.23942 1.9865 0.30388 6.813 0.25135l6.491-0.0706z" fill="#dd8483"/>
   <path d="m-125.72 196.31c-0.0759-0.32742-0.16749-1.8455-0.20347-3.3734l-0.0654-2.7781-34.131-0.26458v-40.746h123.56v40.746l-30.692 0.0657c-28.483 0.061-30.715 0.098-31.022 0.51359-0.21868 0.29614-0.33073 1.4616-0.33073 3.44v2.9921h-26.977zm20.765-9.4589 0.13229-3.3073 6.6768-0.0707c6.6629-0.0705 6.6771-0.0719 6.8202-0.66146 0.07884-0.32492 0.11036-6.5439 0.07005-13.82l-0.0733-13.229h-27.517l-0.0686 16.933c-0.0377 9.3133-0.0109 17.084 0.0596 17.269 0.0998 0.26113 1.6351 0.3196 6.9477 0.26458l6.8196-0.0706zm0.29921-10.938c-0.22109-0.26639-0.28875-2.1688-0.23793-6.6893l0.071-6.317h6.0854v13.229l-2.8048 0.0747c-2.1583 0.0575-2.876-0.0111-3.1137-0.29756zm-34.96-2.8198 0.13229-10.186h6.35l0.13229 10.186 0.1323 10.186h6.8792l0.137-27.649h-13.732c-12.278 0-13.749 0.0443-13.893 0.41852-0.0883 0.23018-0.1606 6.3381-0.1606 13.573 0 9.979 0.0777 13.232 0.32193 13.477 0.23959 0.2396 2.0158 0.30388 6.9453 0.25136l6.6234-0.0706zm68.756 9.9648c0.20084-0.242 0.31566-3.4838 0.36313-10.253l0.06941-9.8987h6.35l0.13229 10.186 0.13229 10.186h6.8792l0.13229-10.186 0.13229-10.186h6.35l0.14018 10.186c0.0771 5.6026 0.16639 10.216 0.19844 10.253 0.03204 0.0364 1.5227 0.0661 3.3126 0.0661 2.1784 0 3.3593-0.10497 3.5719-0.3175 0.36818-0.36818 0.46314-26.56 0.09839-27.135-0.16702-0.26307-4.5102-0.31823-20.832-0.26458l-20.621 0.0678-0.06882 13.494c-0.03785 7.4216-0.01183 13.643 0.05784 13.824 0.19057 0.4976 13.188 0.47545 13.601-0.0232z" fill="#d76d6d"/>
   <path d="m-125.47 196.58c-0.0667-0.18325-0.15271-1.7024-0.19107-3.3759l-0.0697-3.0427-34.131-0.26458v-40.746h123.03v40.746l-61.648 0.26458-0.13229 3.3073-0.13229 3.3073-13.303 0.0686c-10.504 0.0542-13.328-2e-3 -13.424-0.26458zm20.456-6.3392c0.21107-0.21107 0.3175-1.3641 0.3175-3.4396v-3.1221h6.3284c3.4806 0 6.5167-0.0723 6.7469-0.1606 0.37425-0.14361 0.41852-1.6239 0.41852-13.995 0-12.371-0.04427-13.851-0.41852-13.995-0.23018-0.0883-6.3976-0.1606-13.705-0.1606-9.9815 0-13.366 0.079-13.604 0.3175-0.45891 0.4589-0.45891 34.096 0 34.555 0.45171 0.45172 13.465 0.45172 13.917 0zm0.3175-20.717v-6.4823h6.0854v12.965h-6.0854zm-35.076 13.739c0.36318-0.36318 0.41577-1.6696 0.41577-10.327v-9.9114l6.2177 0.149 0.0694 10.041c0.0527 7.6285 0.14805 10.091 0.39688 10.249 0.48562 0.30843 5.9685 0.26015 6.5626-0.0578 0.49576-0.26532 0.51178-0.69835 0.51178-13.838 0-10.197-0.0788-13.643-0.3175-13.881-0.23852-0.23852-3.6229-0.3175-13.604-0.3175-7.3078 0-13.475 0.0723-13.705 0.1606-0.37419 0.14358-0.41852 1.6136-0.41852 13.877 0 12.785 0.0315 13.735 0.46302 13.987 0.27797 0.1619 2.967 0.2729 6.728 0.27773 5.3499 7e-3 6.3257-0.0527 6.6807-0.40773zm68.696 0.14188c0.49218-0.2634 0.51177-0.65848 0.51177-10.319v-10.045h6.35v10.045c0 9.6603 0.01961 10.055 0.51177 10.319 0.28147 0.15064 1.8208 0.27389 3.4207 0.27389 2.2917 0 2.9971-0.0882 3.3247-0.41577 0.36318-0.36318 0.41578-1.6696 0.41578-10.327v-9.9114l6.2177 0.149 0.13852 20.181 0.5922 0.15872c0.99129 0.26569 5.7525 0.18409 6.2981-0.10794 0.49587-0.26538 0.51177-0.70013 0.51177-13.995 0-12.267-0.04433-13.738-0.41852-13.881-0.23018-0.0883-9.5724-0.1606-20.76-0.1606-19.841 0-20.349 0.0126-20.616 0.51177-0.17832 0.3332-0.27389 5.1272-0.27389 13.739 0 11.672 0.04889 13.277 0.41577 13.643 0.35438 0.35438 1.3337 0.41577 6.632 0.41577 3.779 0 6.4169-0.10738 6.728-0.27389z" fill="#cf4c4b"/>
   <path d="m-125.33 193.62c0-1.6616-0.0723-3.2094-0.1606-3.4396-0.14414-0.37564-1.9062-0.41852-17.198-0.41852h-17.037v-40.481h122.77v40.481h-30.796c-27.838 0-30.811 0.0402-30.956 0.41852-0.08833 0.23018-0.1606 1.778-0.1606 3.4396v3.0211h-26.458zm20.486-3.2155c0.33143-0.33144 0.41577-1.0551 0.41577-3.5673v-3.1516l13.361-0.1414 0.06848-13.946c0.06724-13.694 0.05895-13.951-0.45874-14.228-0.3589-0.19207-4.8398-0.2588-14.035-0.20899-11.665 0.0632-13.542 0.12731-13.759 0.47004-0.15113 0.23918-0.25237 7.1438-0.25482 17.377-4e-3 15.088 0.0423 17.027 0.41173 17.396 0.62365 0.62365 13.626 0.62365 14.25 0zm0.41577-20.883v-6.2177h5.5563v12.435h-5.5563zm-34.988 3.9026 0.0693-10.12h6.0728l0.1386 20.241 3.6838 0.0739c2.7695 0.0556 3.7371-0.0101 3.8986-0.26458 0.11814-0.18617 0.21662-6.4319 0.21885-13.879 4e-3 -11.961-0.0445-13.59-0.41172-13.957-0.367-0.367-1.9831-0.41578-13.776-0.41578-8.7034 0-13.538 0.0955-13.872 0.27389-0.49596 0.26543-0.51177 0.70145-0.51177 14.111 0 7.6105 0.0813 13.918 0.18062 14.018 0.0993 0.0993 3.3438 0.14895 7.2099 0.11025l7.0293-0.0704zm69.056 0 0.06929-10.12h5.8145l0.0036 9.5911c0.0021 5.2751 0.07541 9.859 0.16315 10.186 0.15571 0.58102 0.24749 0.59531 3.8235 0.59531 3.3517 0 3.6873-0.0436 3.9379-0.51177 0.17448-0.32601 0.27389-4.0234 0.27389-10.186l1.3e-5 -9.6747h5.8145l0.13858 20.241h7.6729l0.06918-13.891c0.06386-12.824 0.03458-13.916-0.3813-14.221-0.35116-0.25781-4.8872-0.32993-20.574-0.32712-11.068 2e-3 -20.392 0.0754-20.719 0.16316l-0.59531 0.15953v13.948c0 7.6714 0.08128 14.029 0.18062 14.129 0.09934 0.0993 3.3438 0.14895 7.2099 0.11025l7.0293-0.0704z" fill="#c93635"/>
  </g>
 </g>
</svg>
