<svg width="27.697mm" height="24.666mm" version="1.1" viewBox="0 0 27.697 24.666" xmlns="http://www.w3.org/2000/svg">
 <g transform="translate(-49.174 -163.08)">
  <g transform="matrix(.14913 0 0 .14913 42.633 183.49)" opacity=".98" stroke-width=".26458">
   <path d="m94.988 28.174c-7.6388-1.6601-12.773-8.7306-14.549-20.036-0.35875-2.2835-0.46152-4.4345-0.43947-9.1982 0.0309-6.6754 0.47906-11.093 1.8265-18.003 0.37539-1.9252 0.58576-3.5839 0.46748-3.6859-0.11828-0.10199-1.8819-0.75857-3.9192-1.4591-16.686-5.7372-28.598-13.985-32.791-22.703-5.362-11.148 1.9262-22.656 20.215-31.919 3.5966-1.8217 10.42-4.6271 14.504-5.9637 1.7436-0.57059 2.1658-0.80725 2.0616-1.1555-0.35047-1.1705-1.2976-6.355-1.7576-9.6207-1.3254-9.4101-1.1584-18.676 0.44946-24.949 1.9152-7.4708 5.3574-12.267 10.57-14.727 9.6661-4.5623 25.431 1.3051 41.977 15.623l3.1052 2.6871 1.525-1.3969c10.325-9.4576 21.745-16.139 30.894-18.074 2.6957-0.5702 7.0936-0.57979 9.4571-0.0206 6.3292 1.4974 11.002 6.6347 13.268 14.586 2.3923 8.3958 2.2508 20.565-0.38875 33.433-0.27939 1.3621-0.50799 2.5667-0.50799 2.677 0 0.11027 1.6371 0.7643 3.638 1.4534 12.676 4.3657 22.192 9.7712 28.255 16.051 2.7574 2.8561 3.7618 4.2382 5.0221 6.9106 1.2086 2.5627 1.7144 4.6544 1.7144 7.0893 0 8.6865-7.1828 17.072-20.728 24.2-4.0566 2.1347-10.229 4.7392-14.482 6.111l-3.1888 1.0286 0.12917 0.79375c0.071 0.43656 0.42678 2.4011 0.79051 4.3656 1.283 6.9295 1.59 10.108 1.6099 16.669 0.0201 6.6071-0.22389 9.1295-1.289 13.328-3.0353 11.966-10.459 17.521-21.284 15.926-9.1777-1.3517-19.827-7.108-31.065-16.791-1.9188-1.6534-3.2439-2.6154-3.4396-2.497-0.17511 0.1059-1.2709 1.0368-2.435 2.0686-8.0797 7.1612-17.638 13.216-24.821 15.723-5.0395 1.759-10.51 2.3202-14.392 1.4765zm9.8444-9.774c6.481-1.8625 16.73-8.3259 24.003-15.137l1.2489-1.1696-3.3656-3.7705c-3.3225-3.7223-6.812-7.9648-10.155-12.346l-1.7142-2.2467-3.6664-0.45693c-4.9076-0.61162-11.079-1.6531-15.683-2.6469-2.0765-0.44817-3.8247-0.76569-3.8848-0.7056-0.06009 0.06009-0.35411 1.3575-0.65338 2.8832-3.1362 15.988-1.9843 29.765 2.8865 34.521 2.1809 2.1295 6.0098 2.5043 10.983 1.0749zm73.343 0.03883c2.9164-1.5483 5.1077-6.2418 5.889-12.613 0.399-3.254 0.33701-10.014-0.13288-14.489-0.34049-3.2423-1.4036-9.6564-1.8562-11.199-0.10598-0.36126-0.6275-0.30433-4.1541 0.45347-4.9774 1.0695-10.826 2.062-15.641 2.6541l-3.6555 0.44951-0.69483 0.94156c-3.5634 4.8287-8.8562 11.289-12.317 15.033-1.1106 1.2016-2.0193 2.2409-2.0193 2.3097 0 0.31826 4.5883 4.2362 7.8052 6.6648 6.871 5.1873 13.751 8.8046 19.05 10.016 2.1853 0.49968 6.6075 0.37314 7.7268-0.22111zm-38.645-25.917c2.8792-3.237 5.8654-6.7884 6.1718-7.3401 0.194-0.34932-0.8844-0.39808-8.9997-0.4069-8.256-9e-3 -9.1876 0.03253-8.9092 0.39688 2.3629 3.092 8.6105 10.064 9.0184 10.064 0.16752 0 1.391-1.2214 2.7187-2.7141zm9.0702-17.409c2.5356-0.15164 4.7229-0.34539 4.8607-0.43054 0.44289-0.27372 5.5971-8.2812 8.2288-12.784 1.4033-2.4011 3.8886-7.0181 5.5228-10.26l2.9713-5.8943-2.6324-5.1708c-3.0346-5.9611-6.4776-11.95-10.299-17.914-4.0115-6.2615-3.2387-5.6885-8.1033-6.0084-7.8912-0.51889-28.128-0.20248-29.194 0.45647-0.34922 0.21583-4.7461 7.0146-7.2364 11.189-2.7017 4.5292-5.0685 8.8754-7.5152 13.8l-1.9267 3.8781 2.4128 4.7777c3.7631 7.4514 9.1576 16.602 13.223 22.43l1.1345 1.6262 2.1815 0.19608c6.0387 0.54275 18.27 0.59318 26.371 0.10871zm-16.327-12.161c-3.1738-0.83153-5.4534-2.1833-7.9967-4.7419-2.4418-2.4565-3.5529-4.2631-4.4847-7.2917-2.0453-6.6477 0.17046-14.002 5.605-18.603 6.2279-5.2732 15.576-5.4594 22.062-0.43939 8.731 6.7579 9.2629 19.425 1.1316 26.954-4.363 4.0394-10.61 5.6179-16.317 4.1227zm-24.663 10.237c0-0.04746-1.4698-2.5352-3.2661-5.5284-1.7964-2.9932-3.84-6.5532-4.5413-7.9111l-1.2752-2.469-0.50962 1.1844c-0.28029 0.65142-1.3268 3.6235-2.3255 6.6047-1.3131 3.9194-1.7277 5.4697-1.4973 5.5987 0.17526 0.09808 2.4617 0.60441 5.0809 1.1252 7.017 1.3951 8.3341 1.6157 8.3341 1.3956zm62.316-0.56511c4.0166-0.70762 9.352-1.8722 9.5684-2.0886 0.13582-0.13582-3.2037-10.261-4.0164-12.178-0.24485-0.57738-0.53401-0.92489-0.66049-0.79375-0.12375 0.12829-1.0252 1.7211-2.0033 3.5395-0.97805 1.8184-2.9225 5.2117-4.321 7.5406-1.3985 2.3289-2.5824 4.3237-2.6309 4.4328-0.12443 0.27996-0.0487 0.27153 4.0636-0.45296zm-83.093-10.593c1.0768-3.2015 2.6871-7.6068 3.5786-9.7896 0.89145-2.1828 1.8377-4.5045 2.1028-5.1594l0.48202-1.1906-1.6781-4.029c-2.1641-5.1957-4.0083-10.163-5.4044-14.558-0.89875-2.829-1.208-3.5057-1.602-3.5057-0.70335 0-7.9921 2.7245-11.389 4.2572-9.4189 4.2497-16.502 9.6694-18.91 14.47-0.61732 1.2305-0.76042 1.8607-0.76429 3.366-0.0067 2.6198 1.0363 4.4956 4.3492 7.8216 3.7903 3.8053 9.8955 7.6525 16.807 10.592 4.0488 1.7215 9.4697 3.6786 9.9976 3.6093 0.36654-0.04809 0.91181-1.368 2.4303-5.8828zm105.91 4.7359c10.981-3.9674 18.777-8.4281 23.626-13.518 4.6427-4.8735 5.071-8.4366 1.5727-13.083-3.3102-4.3965-11.869-10.016-20.507-13.464-2.0581-0.82163-8.5291-3.1678-8.7372-3.1678-0.057 0-0.59756 1.5776-1.2013 3.5057-1.344 4.2928-3.9866 11.436-5.7752 15.61l-1.3319 3.1089 1.3314 3.1089c1.7364 4.0547 4.3963 11.202 5.8097 15.61 0.71405 2.2273 1.255 3.5057 1.4835 3.5057 0.1978 0 1.8758-0.54776 3.7288-1.2173zm-92.004-36.42c1.2067-2.2192 3.203-5.7018 4.4362-7.7391 1.2332-2.0373 2.3033-3.8112 2.378-3.942 0.0786-0.13757-0.46661-0.16078-1.2932-0.05505-2.386 0.30517-11.988 2.2793-12.221 2.5127-0.29322 0.29322 4.0362 13.258 4.4274 13.258 0.04339 0 1.0662-1.8157 2.2729-4.0349zm76.881-3.3734c1.0607-3.1287 1.8455-5.7711 1.7439-5.872-0.20512-0.20378-9.972-2.1979-12.157-2.4822-0.76399-0.09938-1.3891-0.11766-1.3891-0.04063 0 0.07704 0.80938 1.4318 1.7986 3.0107 2.0012 3.1939 4.7276 7.9294 6.2858 10.918l1.023 1.9621 0.38306-0.90379c0.21069-0.49708 1.2509-3.4636 2.3116-6.5923zm-79.656-16.373c2.7712-0.57181 7.3552-1.3555 10.186-1.7415 2.8313-0.386 5.511-0.75537 5.9548-0.82082 0.65203-0.09616 1.1347-0.56194 2.5135-2.4257 2.7444-3.7094 5.9067-7.5872 9.7444-11.949l3.584-4.0735-1.313-1.1964c-2.5371-2.3119-7.8393-6.4121-10.973-8.4854-7.2984-4.829-13.449-7.2544-18.42-7.2635-2.0987-4e-3 -2.6085 0.0902-3.8915 0.7179-1.6114 0.78841-2.6263 1.904-3.7391 4.1103-3.0006 5.9493-3.3172 18.554-0.78804 31.377 0.62744 3.1811 0.5986 3.1205 1.4015 2.9445 0.38553-0.08454 2.9684-0.62155 5.7396-1.1934zm84.219 0.03481c0.43687-2.0393 1.306-7.404 1.661-10.253 0.50443-4.0475 0.4284-12.924-0.13824-16.14-0.87289-4.9534-2.7204-9.0709-4.7039-10.483-4.2207-3.0054-13.417-0.65816-23.228 5.9286-4.8567 3.2606-12.181 9.2488-12.181 9.9588 0 0.16294 0.9162 1.2758 2.036 2.4731 2.6131 2.7939 7.7843 9.0131 10.665 12.826 1.8334 2.427 2.3948 2.9986 3.0421 3.097 0.43657 0.06641 3.093 0.4325 5.9031 0.81352 2.8101 0.38102 7.5726 1.2047 10.583 1.8304 3.0107 0.6257 5.613 1.1527 5.7828 1.1711 0.16984 0.01842 0.42996-0.53205 0.57804-1.2233zm-36.48-4.0349c-0.33785-0.61104-6.9442-8.2056-8.1248-9.3402l-1.0466-1.0058-2.1171 2.3287c-2.3326 2.5657-6.9609 8.0723-6.9607 8.2816 6e-5 0.07291 4.1556 0.13256 9.2344 0.13256 8.1294 0 9.208-0.04749 9.0148-0.39688z" fill="#e8f9fd"/>
   <path d="m94.646 27.885c-7.4582-1.9907-12.031-8.3164-13.943-19.288-0.35975-2.0641-0.45887-4.1292-0.45081-9.3927 0.012012-7.8455 0.46257-11.896 2.3717-21.324l0.16575-0.81846-2.8691-0.93511c-14.326-4.6691-26.1-11.779-31.628-19.098-2.8607-3.7874-4.1813-7.3052-4.1813-11.138 0-7.6382 5.6955-15.069 16.694-21.779 4.522-2.759 12.54-6.3599 18.717-8.406l3-0.99366-0.11587-0.94705c-0.06373-0.52088-0.42411-2.5544-0.80085-4.5189-1.1666-6.0833-1.6117-10.738-1.6192-16.933-0.01048-8.5998 0.92933-13.621 3.5492-18.961 5.3782-10.963 16.683-12.877 31.7-5.3678 5.8208 2.9108 12.306 7.3932 18.603 12.857 1.4014 1.216 2.6936 2.211 2.8717 2.211 0.17805 0 1.2937-0.87214 2.4792-1.9381 9.9974-8.9894 20.619-15.173 29.672-17.274 3.2849-0.76232 8.0884-0.65093 10.848 0.25155 5.419 1.7722 9.4216 6.2621 11.596 13.007 1.5986 4.96 2.1497 9.8044 1.9565 17.198-0.15762 6.0308-0.59764 9.9893-1.7931 16.131-0.4239 2.1777-0.68323 4.0401-0.57629 4.1385 0.10694 0.09846 1.5041 0.62074 3.1048 1.1606 18.405 6.2075 31.109 15.35 34.468 24.803 0.8234 2.3177 1.0999 6.3457 0.59341 8.645-2.1939 9.9604-14.941 19.883-33.992 26.461-2.177 0.75162-3.9985 1.4069-4.0478 1.4563-0.0493 0.04934 0.27103 1.979 0.71193 4.288 1.2573 6.5847 1.6188 9.8452 1.7856 16.105 0.17468 6.5565-0.21786 10.851-1.3944 15.254-3.347 12.527-11.773 17.664-24.053 14.665-8.3555-2.0402-17.961-7.6216-27.992-16.266-1.9188-1.6534-3.2439-2.6154-3.4396-2.497-0.17511 0.1059-1.2709 1.0368-2.435 2.0686-10.084 8.9378-20.794 15.14-29.501 17.085-2.777 0.62025-7.8968 0.66635-10.054 0.09054zm7.1438-8.5885c2.5176-0.40479 6.826-1.9142 9.7473-3.415 5.4321-2.7906 12.693-8.0193 17.983-12.949l0.87511-0.8156-3.2604-3.639c-3.5108-3.9185-6.5029-7.5333-9.9573-12.029-1.8061-2.3507-2.3225-2.8582-3.0279-2.9758-0.46776-0.07796-2.2792-0.32744-4.0255-0.55442-4.6997-0.61086-10.633-1.6275-14.783-2.5331-2.0187-0.44051-3.758-0.7024-3.865-0.58199-0.24274 0.27316-1.1581 5.0126-1.7797 9.2148-0.36106 2.4408-0.46863 4.8268-0.4652 10.319 0.0043 6.8106 0.03735 7.2824 0.70983 10.116 0.83487 3.5184 1.9862 6.0658 3.4683 7.6736 2.0272 2.1992 4.3913 2.8114 8.3804 2.1701zm75.477-0.34929c1.7296-0.52054 2.7581-1.3433 3.9133-3.1306 3.5152-5.4387 4.3813-16.983 2.229-29.709-0.34454-2.0373-0.76474-4.3408-0.93379-5.119-0.36362-1.6738 0.44883-1.6638-7.2639-0.08991-5.1875 1.0586-10.872 1.968-14.552 2.3281-2.1491 0.2103-1.9275 0.01728-5.7384 4.9974-2.7454 3.5877-7.0396 8.7112-9.7624 11.648-1.0062 1.0852-1.8294 2.0678-1.8294 2.1836 0 0.24898 5.0579 4.5739 7.7632 6.6381 5.1926 3.9622 12.041 7.8664 16.314 9.2999 3.7705 1.2651 7.5968 1.6352 9.8607 0.95388zm-38.086-25.703c2.9887-3.3321 7.0585-8.2296 7.0584-8.4939-3e-5 -0.12672-4.2863-0.2304-9.525-0.2304-5.2387 0-9.525 0.07019-9.525 0.15599 1.1e-4 0.58193 9.1175 10.824 9.6354 10.824 0.18305 0 1.2433-1.0152 2.3562-2.2559zm8.9869-17.857c2.5046-0.14794 4.792-0.32397 5.083-0.39118 1.2637-0.29181 10.243-15.229 15.37-25.569l1.7888-3.6075-2.6569-5.256c-4.033-7.9785-11.49-20.462-13.758-23.032l-0.74336-0.84222-4.6953-0.28226c-6.0188-0.36182-17.21-0.36293-23.483-0.0024-4.8302 0.27766-4.9037 0.29091-5.5691 1.0036-1.9776 2.1181-9.8864 15.461-13.912 23.47l-2.534 5.0417 2.2962 4.5863c3.7987 7.5874 7.4942 13.957 12.105 20.864 1.2922 1.9356 2.492 3.5696 2.6663 3.6311 1.5846 0.55862 20.671 0.82124 28.042 0.38585zm-15.778-12.585c-4.2582-1.0309-9.0664-4.824-11.108-8.7625-5.0628-9.7691-0.2493-21.422 10.272-24.869 1.7864-0.58516 2.5914-0.69334 5.1594-0.69334 2.5729 0 3.3695 0.10746 5.1594 0.69595 2.9856 0.98165 5.1733 2.3727 7.4049 4.7085 4.0825 4.2731 5.7226 10.007 4.4795 15.66-1.1007 5.0052-4.6512 9.5964-9.1095 11.78-1.2351 0.60482-2.9553 1.2794-3.8226 1.4992-1.9656 0.49796-6.3415 0.48815-8.4358-0.01892zm-24.515 10.508c0-0.12615-1.053-1.9419-2.34-4.0349-1.287-2.093-3.0919-5.1747-4.0109-6.8482-2.7745-5.0525-2.9313-5.3094-3.1555-5.1709-0.39862 0.24636-4.5165 12.255-4.5165 13.171 0 0.22505 0.26789 0.47556 0.59531 0.5567 2.7512 0.68173 11.979 2.4685 13.097 2.5358 0.1819 0.01095 0.33073-0.0833 0.33073-0.20945zm61.847-0.43881c4.857-0.86544 9.6456-1.9273 9.9175-2.1991 0.31554-0.31554-3.9121-12.936-4.5675-13.635-0.11891-0.12683-0.53913 0.40895-0.93383 1.1906-1.3324 2.6387-4.6851 8.5452-6.6408 11.699-1.8966 3.0586-2.1626 3.6126-1.7344 3.6126 0.115 0 1.8966-0.30068 3.9591-0.66818zm-83.07-9.7172c0.91488-2.801 2.6795-7.593 3.9213-10.649 1.2418-3.0559 2.3192-5.8609 2.3941-6.2333 0.08989-0.44675-0.26426-1.6168-1.041-3.4396-1.8976-4.4527-4.0361-10.154-5.5077-14.683-0.75402-2.3206-1.4733-4.3322-1.5983-4.4701-0.4864-0.53636-9.4326 2.8466-15.055 5.6932-10.593 5.3627-16.758 11.454-16.758 16.557 0 2.5754 1.1536 4.6304 4.4437 7.9157 5.0796 5.0721 12.965 9.5081 23.543 13.244 1.7606 0.62178 3.3796 1.1366 3.5979 1.1441 0.28463 0.0098 0.86733-1.4267 2.0603-5.0791zm105.94 3.8688c10.296-3.5771 18.291-8.0793 23.395-13.174 2.0584-2.0545 2.8783-3.0905 3.5719-4.5135 1.611-3.3051 1.1465-5.9396-1.7002-9.6432-2.3761-3.0913-7.847-7.0996-13.871-10.163-5.8395-2.9693-15.308-6.5751-15.555-5.9236-0.0677 0.17837-1.004 2.9437-2.0807 6.1451-1.0767 3.2015-2.8159 7.9044-3.8649 10.451-1.049 2.5466-1.9607 4.9279-2.0261 5.2917-0.0762 0.42402 0.46005 2.028 1.4938 4.4685 1.815 4.2847 4.6239 11.922 5.7035 15.508 0.79679 2.6464 0.8527 2.7781 1.1791 2.7781 0.126 0 1.8156-0.55123 3.7547-1.225zm-91.409-37.007c1.0994-2.0373 3.0558-5.4529 4.3474-7.5903 1.2917-2.1374 2.3485-3.9666 2.3485-4.0649 0-0.30376-7.0802 0.89917-11.972 2.034-2.2847 0.53005-2.3124 0.54611-2.1438 1.2427 0.29204 1.2061 3.4649 10.427 4.0671 11.82 0.546 1.2627 0.58883 1.298 0.96257 0.79233 0.21513-0.29104 1.2907-2.196 2.3901-4.2333zm75.165 1.3229c1.4144-3.8959 3.2328-9.5391 3.2328-10.033 0-0.4911-0.90923-0.74464-6.7711-1.8881-5.6589-1.1039-7.2518-1.3206-7.2518-0.98659 0 0.14171 0.49291 1.0202 1.0953 1.9523 1.4673 2.2702 5.0931 8.4889 6.8247 11.705 0.77054 1.4313 1.4938 2.5028 1.6072 2.3812 0.11343-0.12158 0.68172-1.5307 1.2629-3.1315zm-78.523-20.495c4.5933-0.93266 11.408-2.028 15.65-2.5154l1.4952-0.1718 2.7184-3.5926c3.0687-4.0556 6.7786-8.538 10.14-12.251 1.2514-1.3824 2.2754-2.5921 2.2755-2.6882 2.4e-4 -0.25717-3.4403-3.2655-6.5573-5.7334-6.0175-4.7645-12.795-8.663-18.049-10.381-2.5674-0.83972-3.0305-0.90863-6.1062-0.90863-3.2388 0-3.3629 0.0214-4.6302 0.79901-2.4921 1.5292-4.3141 5.1966-5.3209 10.71-0.6356 3.4807-0.62586 13.088 0.01797 17.727 0.51874 3.738 1.6321 9.6465 1.8992 10.079 0.09729 0.15742 0.43135 0.21612 0.74235 0.13044 0.311-0.08569 2.8872-0.62721 5.7248-1.2034zm84.718-0.93948c0.24643-1.1622 0.69047-3.7799 0.98675-5.8172 2.3025-15.833 0.17754-28.115-5.3685-31.031-1.2474-0.65586-1.5945-0.71203-4.2682-0.69063-2.3508 0.0188-3.3683 0.16062-5.2917 0.73753-4.611 1.3831-10.866 4.7619-16.363 8.8383-3.8853 2.8816-8.905 7.2049-8.905 7.6696 0 0.2158 0.80368 1.2403 1.7859 2.2767 2.6481 2.794 7.0243 8.0079 10.24 12.2 1.5628 2.0373 2.9193 3.7853 3.0145 3.8844 0.0952 0.09915 1.7209 0.37302 3.6126 0.6086 4.5066 0.5612 13.331 2.0884 16.669 2.8846 1.4552 0.34719 2.8244 0.61356 3.0426 0.59193 0.27351-0.02711 0.53603-0.69591 0.84487-2.1524zm-36.388-2.8615c0.16581-0.16581-4.6921-5.9533-7.3848-8.798-2.4962-2.6371-1.842-2.8314-5.8645 1.7413-3.6846 4.1885-5.7793 6.8199-5.626 7.0677 0.13512 0.21835 18.657 0.20762 18.875-0.01095z" fill="#cff3fc"/>
   <path d="m95.836 27.918c-7.7933-1.4403-12.54-7.305-14.745-18.219-0.53443-2.6452-0.59707-3.7288-0.59901-10.362-0.002382-8.0286 0.25547-10.771 1.7047-18.136 0.50049-2.5433 0.66626-3.9303 0.49488-4.1404-0.14174-0.1738-1.383-0.67832-2.7584-1.1212-3.8818-1.2498-9.6881-3.6154-13.425-5.4697-11.878-5.8932-18.991-12.458-21.496-19.839-1.2779-3.7648-0.89112-8.3843 1.017-12.148 4.2928-8.4666 16.289-16.687 32.299-22.133 2.2078-0.75099 4.119-1.4576 4.2471-1.5702 0.13164-0.11574-0.12698-2.0822-0.59477-4.5227-1.432-7.4707-1.7278-10.535-1.7321-17.944-0.0031-5.3997 0.09246-7.2752 0.47875-9.3927 1.9707-10.803 6.3893-16.824 13.786-18.784 2.13-0.56462 7.069-0.57677 9.6573-0.0238 8.6962 1.8579 18.884 7.6307 29.16 16.523 1.7044 1.4749 3.2201 2.6817 3.3682 2.6817 0.14807 0 1.0753-0.73416 2.0604-1.6315 6.3057-5.7433 14.388-11.346 20.577-14.263 11.698-5.5143 20.624-5.2494 26.591 0.78916 2.3006 2.3285 3.4317 4.1343 4.7088 7.518 3.1486 8.3423 3.321 21.743 0.45917 35.705-0.4532 2.211-0.53215 3.0453-0.30875 3.2625 0.16509 0.16047 1.4908 0.67738 2.946 1.1487 11.515 3.7295 21.833 9.3572 27.876 15.205 7.2188 6.9854 9.1939 13.422 6.3975 20.848-1.9671 5.2239-8.2398 11.385-16.505 16.211-4.5787 2.6737-12.291 6.0464-18.165 7.9438-1.2369 0.39954-2.3428 0.81146-2.4575 0.91539-0.11473 0.10393 0.0245 1.25 0.30925 2.5468 0.68874 3.136 1.5328 8.5573 1.8913 12.147 0.38079 3.8132 0.37201 12.04-0.0162 15.214-0.98297 8.0356-4.067 14.703-8.2724 17.884-6.298 4.7643-15.066 4.3918-26.081-1.1081-6.4711-3.2311-11.76-6.8421-18.528-12.65-2.868-2.461-3.3384-2.773-3.7369-2.4789-0.25073 0.18509-1.67 1.4081-3.154 2.7178-10.323 9.1105-21.714 15.368-30.344 16.669-3.0946 0.46644-4.6138 0.46786-7.1093 0.0067zm10.004-9.4871c6.7398-2.2783 14.095-6.9061 22.394-14.089 1.1629-1.0067 2.118-1.9818 2.1223-2.167 4e-3 -0.18517-1.4506-1.9711-3.2332-3.9688-3.929-4.4028-5.9205-6.8095-9.3183-11.261-1.4255-1.8673-2.7248-3.4436-2.8875-3.5027-0.16267-0.05915-2.5242-0.40729-5.2479-0.77365-5.4021-0.72663-10.623-1.6452-15.155-2.6664-2.5218-0.56824-2.9467-0.60409-3.1915-0.26932-0.32164 0.43986-1.2468 5.238-1.8413 9.5489-0.58237 4.2234-0.79736 12.38-0.41494 15.743 0.94375 8.2974 3.379 12.992 7.4291 14.321 0.36474 0.11969 1.9729 0.18044 3.5736 0.13502 2.5224-0.07158 3.2918-0.21151 5.771-1.0496zm72.217 0.40789c3.0984-1.3706 5.3761-5.7677 6.2649-12.094 0.69296-4.9325 0.58358-12.047-0.27663-17.992-0.61338-4.2392-1.6459-9.1783-1.9424-9.2921-0.17471-0.06704-1.9272 0.23617-3.8944 0.6738-4.5392 1.0098-10.336 2.0094-15.509 2.6744-2.2248 0.28598-4.0939 0.51997-4.1537 0.51997-0.0598 0-1.0285 1.2204-2.1526 2.712-3.8683 5.1327-7.7667 9.8315-11.529 13.895-0.97901 1.0577-1.7176 2.0697-1.6413 2.249 0.21081 0.49547 5.1608 4.6764 8.4836 7.1656 6.909 5.1757 14.092 8.7985 19.536 9.8529 2.3746 0.45995 5.3047 0.30304 6.8148-0.36493zm-39.058-25.125c3.2062-3.5405 7.5391-8.8261 7.4513-9.0895-0.1037-0.31108-19.351-0.36546-19.453-0.05496-0.16203 0.4952 9.2276 11.195 9.8242 11.195 0.17635 0 1.1562-0.92273 2.1775-2.0505zm11.677-18.292c1.4946-0.13129 2.8906-0.3825 3.1024-0.55824 0.5857-0.48609 4.4974-6.4929 7.3692-11.316 4.0745-6.8432 9.1683-16.745 9.1683-17.822 0-0.5492-2.5724-5.8102-5.0938-10.418-4.364-7.9745-10.936-18.259-11.902-18.626-0.83757-0.31844-11.021-0.82068-16.607-0.81904-4.6593 0.0013-13.71 0.38674-15.819 0.67356-1.326 0.18035-1.5041 0.39445-5.3225 6.3965-4.8986 7.7001-12.46 21.717-12.46 23.097 0 1.2699 7.1073 14.363 11.846 21.823 3.9918 6.2839 4.7238 7.2351 5.6996 7.4063 3.4979 0.61375 23.647 0.72399 30.019 0.16425zm-16.777-12.472c-0.74756-0.13458-2.1455-0.53012-3.1066-0.87898-5.2834-1.9178-9.4738-6.5658-10.89-12.079-0.66213-2.5784-0.43164-7.4529 0.46593-9.8535 0.94698-2.5328 2.2022-4.499 4.1001-6.4224 7.1739-7.2705 18.808-6.7411 25.554 1.163 1.4904 1.7461 2.9393 4.6267 3.4761 6.9108 0.51827 2.2056 0.52421 6.0603 0.0124 8.0803-1.4965 5.9072-6.1175 10.783-11.886 12.54-2.1075 0.64214-5.7455 0.89606-7.727 0.53932zm-25.761 10.523c0-0.18274-0.82984-1.6609-1.8441-3.2847-2.2487-3.6003-5.7726-9.728-6.7829-11.795-0.40901-0.83674-0.88366-1.5214-1.0548-1.5214-0.5982 0-5.1646 13.571-4.7162 14.016 0.26156 0.25964 12.196 2.7076 14.067 2.8854 0.1819 0.01728 0.33073-0.11808 0.33073-0.30081zm62.442-0.59437c2.11-0.37693 5.0271-0.95008 6.4823-1.2737 2.2921-0.5097 2.6568-0.66505 2.7282-1.162 0.0844-0.58778-2.5035-8.5572-3.837-11.816-0.40884-0.99905-0.85702-1.8159-0.99596-1.8151-0.13894 7.93e-4 -1.1382 1.6516-2.2205 3.6685-1.0824 2.017-3.2011 5.7155-4.7083 8.2189-1.5072 2.5034-2.7404 4.6858-2.7404 4.8497 0 0.18305 0.28066 0.24336 0.7276 0.15633 0.40019-0.07792 2.454-0.45007 4.5641-0.82699zm-84.276-8.0692c1.5123-4.803 3.2648-9.5886 5.3655-14.652 1.5124-3.6457 1.7052-4.293 1.4578-4.8948-4.0232-9.784-5.3979-13.452-7.227-19.28-0.50198-1.5997-0.9911-2.712-1.1926-2.712-0.66802 0-7.2958 2.4242-10.888 3.9823-10.048 4.3586-17.652 10.051-20.122 15.063-0.50401 1.0228-0.74475 1.9835-0.81687 3.26-0.09381 1.6601-0.02003 1.9779 0.89168 3.8415 2.4617 5.0318 10.545 10.994 20.896 15.412 3.3748 1.4405 9.6792 3.6823 10.15 3.6093 0.21502-0.03335 0.81394-1.4964 1.4851-3.6278zm105.46 2.6829c11.072-3.7315 20.009-8.7973 25.132-14.245 2.567-2.73 3.5276-4.6053 3.6554-7.1366 0.0803-1.5908-0.0102-2.1307-0.55502-3.3088-3.0299-6.552-13.657-13.601-27.836-18.464-1.7401-0.59681-3.3215-1.0514-3.5141-1.0102-0.20008 0.04282-1.2469 2.7412-2.4412 6.2927-1.15 3.4197-2.8809 8.1227-3.8465 10.451-2.6193 6.3164-2.5317 5.2857-0.79934 9.3998 1.945 4.619 4.6189 11.819 5.6967 15.339 0.77293 2.5244 1.2218 3.7042 1.4093 3.7042 0.0381 0 1.4329-0.45959 3.0996-1.0213zm-91.161-36.079c1.0186-1.9145 3.132-5.6211 4.6964-8.2369 1.5644-2.6158 2.8443-4.8556 2.8443-4.9773 0-0.12172-0.10723-0.2213-0.23829-0.2213-0.61105 0-6.9039 1.1427-10.411 1.8906-3.5493 0.7568-3.9026 0.8833-3.9026 1.3973 0 0.55942 2.4428 8.0259 3.8368 11.727 0.39734 1.055 0.85747 1.9144 1.0225 1.9098 0.16504-0.0046 1.1335-1.5748 2.1522-3.4894zm75.48 1.181c1.4325-3.7598 3.7988-11.23 3.6665-11.574-0.15293-0.39852-3.3434-1.1654-9.3991-2.2592-4.8509-0.87618-5.0571-0.89671-5.0571-0.50325 0 0.15392 1.1144 2.0887 2.4764 4.2995 1.362 2.2108 3.3455 5.627 4.4077 7.5915 2.4749 4.5773 2.6186 4.8075 2.8946 4.6369 0.12674-0.07833 0.58171-1.0644 1.011-2.1912zm-80.749-21.088c3.75-0.84418 11.132-2.0972 15.719-2.6682 1.9645-0.24454 3.7088-0.52064 3.8761-0.61356 0.16735-0.09292 1.5262-1.7763 3.0196-3.7408 3.1648-4.1632 5.6133-7.1204 9.492-11.464 1.537-1.7213 2.8293-3.2243 2.8716-3.3399 0.0969-0.26438-2.9458-2.9726-6.5132-5.7973-6.2003-4.9094-13.941-9.3056-18.964-10.771-3.1256-0.91169-6.6325-1.1317-8.6571-0.54315-4.8211 1.4015-7.4254 8.3772-7.4209 19.877 0.0021 5.5787 0.36007 9.1922 1.5578 15.729 0.67663 3.6929 0.94103 4.3504 1.6591 4.1257 0.23412-0.07325 1.7459-0.43039 3.3595-0.79364zm87.446-1.9808c1.3426-6.5456 1.6599-9.7012 1.6778-16.684 0.0189-7.3618-0.1688-9.0371-1.4721-13.141-0.94095-2.9628-2.5213-5.4311-4.1308-6.4519-6.0986-3.8676-19.269 1.6532-33.522 14.052-1.2451 1.0831-2.2641 2.108-2.2645 2.2776-5.3e-4 0.16961 0.91047 1.3007 2.0242 2.5135 3.1999 3.4846 7.182 8.2396 10.267 12.259 1.5634 2.0373 3.0389 3.7873 3.279 3.8889 0.24013 0.10161 2.4011 0.43641 4.8022 0.744 4.4285 0.56731 12.415 1.9769 16.272 2.872 1.1642 0.27017 2.2192 0.39929 2.3445 0.28694 0.12532-0.11236 0.45062-1.2904 0.72289-2.6178zm-36.273-2.3716c0-0.30556-5.1227-6.3988-7.5388-8.9672-1.1226-1.1934-2.2001-2.1697-2.3944-2.1697-0.59266 0-9.6459 10.392-9.6459 11.073 0 0.18653 3.1718 0.27628 9.7896 0.27702 5.3843 5.29e-4 9.7896-0.09509 9.7896-0.21265z" fill="#afebfb"/>
   <path d="m95.572 27.773c-6.7794-1.3608-11.552-6.7486-13.738-15.508-2.0653-8.2766-1.8308-19.94 0.6389-31.767 0.81217-3.8892 0.99683-3.5392-2.4686-4.6792-16.741-5.5069-29.482-14.019-33.708-22.521-1.4932-3.0041-1.7856-4.2424-1.78-7.5406 0.0044-2.6131 0.1033-3.314 0.70036-4.9641 1.9769-5.4635 7.3792-11.188 15.166-16.072 4.6774-2.9333 12.797-6.5978 19.447-8.7766 1.528-0.50063 2.8688-0.99995 2.9797-1.1096s-0.09165-1.6207-0.45005-3.358c-2.2512-10.912-2.7052-22.085-1.2106-29.794 1.7824-9.1945 5.9495-14.983 12.286-17.068 1.8708-0.61543 2.5823-0.70509 5.7091-0.71949 3.0646-0.0141 3.9665 0.0858 6.35 0.7035 9.0778 2.3525 19.41 8.5456 29.57 17.724 0.76552 0.69156 1.4799 1.2546 1.5875 1.2512 0.10759-3e-3 1.5648-1.2089 3.2383-2.6789 13.382-11.755 26.776-18.122 36.096-17.161 8.0409 0.8296 13.171 5.961 15.603 15.609 1.1066 4.3882 1.3507 6.8395 1.3308 13.365-0.02 6.5711-0.47992 11.079-1.8578 18.208-0.40011 2.0702-0.60551 3.7448-0.47352 3.8603 0.12822 0.11221 1.7214 0.71408 3.5404 1.3375 12.556 4.3031 22.109 9.6524 28.211 15.797 5.5114 5.5498 7.7097 11.599 6.33 17.418-2.3644 9.9724-15.472 19.935-34.607 26.305-2.7712 0.92251-3.3734 1.2143-3.3734 1.6346 0 0.28138 0.30204 2.0277 0.67119 3.8807 1.34 6.7259 1.8079 11.357 1.8239 18.053 0.021 8.7699-0.87039 13.702-3.4188 18.918-2.8485 5.8294-7.0416 8.9349-13.051 9.6655-9.7605 1.1868-24.144-5.7359-38.085-18.33-0.76553-0.69156-1.5394-1.2546-1.7198-1.2513-0.18036 0.00336-1.2209 0.79323-2.3123 1.7552-11.102 9.7856-22.28 16.188-30.882 17.688-2.394 0.41749-6.3795 0.47808-8.1445 0.12382zm9.1281-8.8202c6.1276-1.799 12.7-5.58 20.166-11.602 3.0496-2.4597 5.763-4.9365 5.763-5.2607 0-0.12757-1.1233-1.4561-2.4962-2.9523-3.1709-3.4555-6.5766-7.5436-10.146-12.179-1.632-2.1194-3.0351-3.6928-3.351-3.7579-0.29892-0.06155-2.8652-0.41911-5.7029-0.79459-2.8377-0.37548-7.868-1.2272-11.179-1.8928-3.3106-0.66557-6.1832-1.1472-6.3835-1.0703-0.63974 0.24549-2.0568 8.7836-2.5551 15.395-0.74027 9.822 0.94858 18.698 4.2796 22.492 2.2377 2.5486 6.4464 3.1372 11.604 1.6229zm73.686-0.09555c2.0584-1.0864 3.5733-3.1208 4.7223-6.3417 1.3827-3.8761 1.629-5.9496 1.6126-13.576-0.0127-5.8992-0.10936-7.6201-0.60925-10.848-0.68908-4.4496-1.5314-8.4793-1.8362-8.7841-0.11663-0.11663-1.7613 0.14357-3.6548 0.57821-4.1023 0.94165-11.39 2.2076-15.977 2.7754-1.819 0.22514-3.5483 0.46307-3.8428 0.52871-0.30131 0.06716-1.6505 1.5992-3.0847 3.5028-2.9805 3.9559-7.1254 8.9636-10.356 12.512-1.2588 1.3824-2.2902 2.6504-2.2922 2.8177-4e-3 0.38726 2.3201 2.5212 5.5942 5.1354 7.0885 5.6599 13.265 9.3187 18.894 11.192 3.1118 1.0355 4.1823 1.2056 7.1265 1.1328 2.0938-0.05178 2.8666-0.18197 3.7042-0.624zm-39.877-24.482c3.1116-3.2491 8.2589-9.4213 8.2589-9.9034 0-0.13558-4.3086-0.24216-10.054-0.24872-5.5298-0.0063-10.054 0.07665-10.054 0.18436 0 0.55482 9.5898 11.621 10.071 11.621 0.10733 0 0.9078-0.74414 1.7788-1.6536zm10.376-18.752c2.5466-0.15225 4.7754-0.3972 4.9528-0.54432 0.72551-0.60163 5.4933-8.0824 9.0752-14.239 2.3674-4.0693 7.6678-14.405 7.6678-14.952 0-0.51843-3.7365-7.9807-6.2916-12.565-2.2165-3.9768-6.6132-11.11-8.9698-14.552l-1.5396-2.249-1.7198-0.19444c-5.7168-0.64636-22.344-0.67506-29.989-0.05177l-2.3404 0.1908-0.86285 1.189c-1.4668 2.0212-5.6423 8.6839-8.15 13.005-2.6492 4.5646-7.8698 14.735-7.8698 15.332 0 0.57232 5.4181 10.988 8.0421 15.46 2.5111 4.2795 5.9391 9.7039 7.7448 12.255l1.1483 1.6224 2.3142 0.19767c7.1603 0.61162 17.543 0.64889 26.788 0.09615zm-16.19-13.059c-5.0619-1.2853-9.0948-4.5737-11.363-9.2652-4.0649-8.4078-0.80065-18.283 7.4751-22.615 1.108-0.57996 2.7749-1.2337 3.7042-1.4528 2.179-0.51365 6.3004-0.51692 8.3148-0.0066 9.1145 2.3091 14.699 11.557 12.522 20.737-0.15926 0.67164-0.76879 2.2332-1.3545 3.4701-0.86087 1.818-1.4761 2.6582-3.211 4.3845-3.5973 3.5797-6.5338 4.8593-11.539 5.0281-2.0908 0.07052-3.5138-0.01699-4.5486-0.27974zm-24.291 10.966c0-0.15074-0.72762-1.4174-1.6169-2.8149-1.8006-2.8295-5.6976-9.5761-7.1174-12.322-0.50761-0.98173-1.056-1.7854-1.2187-1.7859-0.16267-5.29e-4 -0.71431 1.1003-1.2258 2.4464-1.5014 3.9506-3.9361 11.571-3.7784 11.827 0.17666 0.28585 3.5402 1.0801 8.3427 1.97 5.6617 1.0491 6.6146 1.1471 6.6146 0.67976zm62.39-0.51806c6.1466-1.1508 9.0679-1.8637 9.2157-2.249 0.2323-0.60537-3.9797-13.158-4.7273-14.088-0.3966-0.49345-0.65686-0.20708-1.6984 1.8689-1.3116 2.6142-5.1354 9.3231-7.0089 12.297-0.85272 1.3537-1.5504 2.5741-1.5504 2.712 0 0.41496 1.3255 0.29057 5.7692-0.5414zm-84.624-7.3576c1.2339-4.0603 3.9662-11.537 5.8178-15.92l1.5929-3.7707-1.5717-3.7553c-2.1438-5.1222-3.7975-9.5671-5.3726-14.441-0.72889-2.2556-1.4665-4.2547-1.6391-4.4426-0.25378-0.27614-1.019-0.09129-3.9978 0.96568-6.4883 2.3023-11.079 4.3799-15.458 6.9962-7.5408 4.5052-12.38 9.7077-12.869 13.835-0.82982 7.0065 10.811 16.141 28.472 22.342 1.9607 0.68842 3.6999 1.1999 3.8649 1.1366 0.16498-0.06331 0.68704-1.3888 1.1601-2.9456zm105.88 1.9083c17.927-6.2199 29.569-15.397 28.712-22.635-0.55507-4.6867-7.3979-11.094-16.995-15.913-5.2853-2.654-14.994-6.3312-15.45-5.852-0.12469 0.13091-0.9667 2.5002-1.8711 5.2651-1.6717 5.1105-3.5416 10.108-5.5143 14.739l-1.0941 2.5682 1.6842 4.0464c2.1428 5.1482 4.3432 11.099 5.6054 15.159 0.54289 1.7462 1.0372 3.2643 1.0985 3.3734 0.20863 0.3715 1.0844 0.19947 3.8249-0.75138zm-92.002-34.838c1.6822-3.1542 5.5058-9.8037 7.1543-12.442 0.77123-1.2342 1.1898-2.154 1.0446-2.2952-0.25217-0.24524-4.7834 0.47907-10.693 1.7093-4.2418 0.883-4.2338 0.88034-4.2309 1.4064 0.0029 0.52393 2.7358 8.7416 3.9537 11.888 0.46463 1.2005 0.98496 2.1816 1.1563 2.1802 0.17132-0.0013 0.89823-1.1028 1.6154-2.4474zm76.428-0.80277c1.026-2.8019 3.628-10.633 3.628-10.918 0-0.61812-14.401-3.5269-14.927-3.0151-0.1464 0.14239 0.10483 0.7923 0.63155 1.6338 2.2618 3.6133 5.619 9.3467 7.0153 11.981 1.653 3.1182 1.9398 3.5719 2.2577 3.5719 0.11214 0 0.73989-1.4637 1.395-3.2528zm-79.054-20.677c3.684-0.77054 10.214-1.8151 16.673-2.667 1.0022-0.13218 1.2004-0.32466 3.4968-3.3949 2.8491-3.8092 7.4365-9.3549 10.563-12.769 1.2146-1.3266 2.2083-2.5893 2.2083-2.8062 0-0.78273-7.1167-6.5811-12.435-10.131-8.095-5.404-15.751-8.12-20.538-7.2863-2.082 0.36257-2.8245 0.71347-4.04 1.9093-4.9593 4.8791-6.1868 18.173-3.1597 34.22 0.30196 1.6007 0.65648 3.1934 0.78781 3.5393 0.27737 0.73053-0.20056 0.77605 6.444-0.61374zm85.384-1.0735c1.3866-6.4764 2.212-14.928 1.9637-20.108-0.48058-10.027-2.9364-15.974-7.2739-17.613-2.0349-0.76912-5.7647-0.60639-9.1659 0.39989-6.2865 1.8599-15.433 7.5292-23.019 14.267-2.2417 1.9913-2.5419 2.3102-2.4431 2.5949 0.034 0.098 1.356 1.6154 2.9377 3.3719 3.3873 3.7617 7.3321 8.5418 10.14 12.287 1.1064 1.4758 2.0904 2.7738 2.1866 2.8844 0.0963 0.1106 2.0134 0.43668 4.2602 0.72464 5.3743 0.68877 11.239 1.6954 15.33 2.6312 4.6983 1.0748 4.535 1.1211 5.0834-1.4403zm-36.172-2.979c0-0.70341-9.4161-11.441-10.033-11.441-0.59254 0-9.9432 10.813-9.9431 11.498 2e-5 0.18759 3.2086 0.2697 9.988 0.25561 7.0882-0.01474 9.988-0.10543 9.988-0.31243z" fill="#97e5fb"/>
   <path d="m95.715 27.657c-6.1785-1.1739-10.815-5.8753-13.186-13.371-1.5156-4.7912-1.7734-7.0141-1.7643-15.214 0.0088-7.9291 0.34123-11.282 1.8557-18.718 0.52524-2.579 0.58887-3.2773 0.32095-3.5228-0.18379-0.16839-2.001-0.86685-4.0383-1.5521-14.114-4.7474-25.531-11.824-30.648-18.995-5.8309-8.1713-4.8243-16.365 2.9847-24.295 6.0472-6.1413 16.388-11.882 28.788-15.982 2.3313-0.77078 2.9766-1.0878 2.9766-1.4623 0-0.26299-0.24294-1.6521-0.53988-3.087-2.562-12.38-2.75-24.751-0.49878-32.828 2.1853-7.841 6.4511-12.634 12.664-14.23 2.1825-0.56058 6.6345-0.58027 9.3297-0.0413 8.7027 1.7404 19.781 8.1149 30.369 17.474 1.0887 0.96234 2.1404 1.7497 2.3372 1.7497 0.19676 0 1.365-0.89618 2.5962-1.9915 14.703-13.081 29.041-19.531 38.816-17.46 7.3716 1.5619 11.987 7.5013 14.087 18.128 0.59941 3.0335 0.81886 13.184 0.38262 17.698-0.34991 3.621-1.3409 10.033-1.9625 12.697-0.21401 0.91738-0.32959 1.8231-0.25685 2.0126 0.0727 0.18957 2.068 1.0075 4.4338 1.8177 16.942 5.8018 28.747 14.02 32.718 22.779 0.41081 0.90603 0.94758 2.6376 1.1928 3.8478 2.3594 11.644-10.167 23.728-33.024 31.856-2.2926 0.81532-4.2723 1.4824-4.3994 1.4824s-0.36801 0.1651-0.53547 0.36688c-0.23217 0.27974-0.17936 0.95525 0.22234 2.8443 1.5102 7.102 2.1296 12.87 2.1266 19.808-4e-3 8.4974-0.96562 13.672-3.4922 18.785-1.1486 2.3244-1.7203 3.1261-3.5006 4.9087-3.3045 3.3087-6.5603 4.6018-11.611 4.6117-9.3322 0.01834-21.985-6.3571-34.732-17.5-1.4717-1.2865-2.7395-2.3391-2.8174-2.3391-0.0779 0-1.6584 1.3088-3.5122 2.9083-8.3963 7.2448-16.286 12.258-23.518 14.945-5.1498 1.913-10.331 2.5964-14.164 1.8682zm9.0505-8.5741c4.0245-1.1048 8.8445-3.538 14.089-7.1126 4.9566-3.3781 11.776-9.0661 11.77-9.8171-2e-3 -0.23946-1.0307-1.5665-2.2862-2.9489-3.9992-4.4036-10.879-12.818-12.376-15.137-0.5826-0.90244-0.52751-0.88688-5.4428-1.5369-5.5603-0.73528-9.6301-1.4339-14.787-2.5383-2.5092-0.53736-4.4346-0.83012-4.5699-0.69487-0.30215 0.30215-1.3938 5.9154-1.9418 9.9852-0.59887 4.4471-0.80586 12.061-0.42643 15.685 0.55388 5.2898 1.992 9.6771 4.0129 12.242 2.1172 2.6875 6.4937 3.3732 11.957 1.8734zm73.462-0.04848c3.1354-1.3488 5.2761-5.4604 6.4089-12.31 0.97072-5.8693 7e-3 -19.315-1.9094-26.636-0.17358-0.66315-0.4112-0.99219-0.71652-0.99219-0.25126 0-2.0028 0.34812-3.8924 0.77359-3.7886 0.85309-11.532 2.178-16.294 2.788-1.6879 0.21622-3.2357 0.45767-3.4396 0.53656-0.20385 0.07889-0.66829 0.5849-1.0321 1.1245-2.0407 3.0266-7.8574 10.128-12.227 14.926-1.279 1.4048-2.3255 2.6723-2.3255 2.8166 0 0.14436 1.1609 1.267 2.5797 2.4947 13.601 11.769 26.218 17.33 32.848 14.478zm-38.44-25.849c3.1099-3.4422 7.2456-8.4735 7.2456-8.8145 0-0.13612-0.0893-0.24944-0.19844-0.25182-0.10914-0.0024-4.6633-0.01392-10.12-0.02561-8.2951-0.01778-9.9342 0.03934-9.9972 0.34841-0.15051 0.73813 9.3487 11.588 10.145 11.588 0.19537 0 1.5116-1.2799 2.9249-2.8443zm6.8488-17.264c2.6194-0.13969 5.3337-0.32795 6.0318-0.41835l1.2693-0.16438 2.0817-3.1072c4.4069-6.5779 11.236-18.59 13.879-24.416l0.92764-2.0439-2.2013-4.4384c-3.6093-7.2774-7.366-13.767-12.252-21.163-2.1995-3.33-2.581-3.7763-3.3323-3.8983-1.7152-0.27872-11.401-0.67541-16.37-0.67048-5.0657 5e-3 -13.476 0.3623-15.894 0.67518l-1.2531 0.16214-2.4732 3.746c-4.6127 6.9866-9.0054 14.632-12.369 21.527-1.0084 2.0672-1.8335 4.0036-1.8335 4.303 0 0.98882 5.377 11.288 9.2981 17.81 0.8938 1.4867 2.9288 4.694 4.5222 7.1274 2.5696 3.9241 2.9916 4.4406 3.7327 4.5682 3.2373 0.55736 18.831 0.79547 26.236 0.4006zm-12.632-13.222c-6.8275-1.2393-12.296-6.287-13.822-12.757-0.51639-2.1904-0.51008-6.1949 0.013-8.2464 1.188-4.6595 4.6136-8.9136 8.8459-10.985 9.3665-4.5851 19.966-0.33784 23.702 9.4975 0.68822 1.8117 0.75255 2.2805 0.76177 5.5507 0.0111 3.954-0.24398 5.0684-1.8778 8.2021-2.6574 5.0969-8.0617 8.5067-14.004 8.8357-1.3004 0.072-2.929 0.02841-3.6192-0.09686zm-25.471 11.11c0.0882-0.14276-0.97807-2.1063-2.3696-4.3635-1.3915-2.2572-3.2066-5.3253-4.0336-6.818-0.82701-1.4927-1.9268-3.4781-2.4439-4.412-0.51712-0.93383-1.0763-1.7432-1.2425-1.7986-0.17221-0.05741-0.66614 0.84406-1.1478 2.0948-1.2851 3.3374-3.9731 11.53-3.9731 12.109 0 0.63472 0.47812 0.77583 6.7469 1.9912 8.1512 1.5803 8.2206 1.5902 8.4636 1.197zm59.931-0.2654c5.4631-0.93624 11.156-2.202 11.514-2.5601 0.40925-0.40925-0.0692-2.1443-2.396-8.6889-1.8615-5.2359-2.1767-5.9531-2.6164-5.9531-0.20739 0-1.2085 1.6018-2.2739 3.638-1.0468 2.0009-3.2581 5.8845-4.9139 8.6303-2.6953 4.4696-3.1576 5.463-2.5393 5.457 0.10055-0.0011 1.552-0.23641 3.2255-0.5232zm-81.508-9.8599c0.90568-2.8013 2.7839-7.9484 4.1739-11.438 2.1564-5.4139 2.4874-6.4426 2.256-7.0115-3.4857-8.5695-5.0465-12.666-6.4029-16.806-0.90589-2.7649-1.7535-5.1386-1.8836-5.2749-0.2827-0.29622-1.905 0.18272-6.8581 2.0247-11.409 4.243-20.396 10.155-24.064 15.83-1.3143 2.0335-1.6849 3.3289-1.5515 5.4235 0.43956 6.9032 11.952 15.387 28.923 21.316 1.6007 0.55914 3.1018 1.0196 3.3356 1.0231 0.32025 0.0049 0.83167-1.2507 2.0719-5.0867zm104.84 4.0739c14.869-5.0558 26.076-12.579 28.596-19.196 0.29538-0.77543 0.51388-2.0057 0.51452-2.897 4e-3 -5.759-9.1204-13.626-22.156-19.103-3.3406-1.4035-9.4959-3.5574-10.166-3.5574-0.35863 0-0.85988 1.2235-2.3576 5.7547-1.0462 3.1651-2.8007 7.9573-3.899 10.649-2.9077 7.1277-2.7775 6.0212-1.156 9.8234 1.8573 4.3554 3.8956 9.8239 5.4113 14.518 1.501 4.649 1.6489 5.0271 1.9661 5.0271 0.13703 0 1.5981-0.45869 3.2468-1.0193zm-90.856-36.406c1.2047-2.245 3.4327-6.1412 4.9512-8.6584 1.7462-2.8947 2.6684-4.6692 2.5092-4.8283-0.422-0.422-14.197 2.1518-14.989 2.8007-0.3575 0.29273-0.1538 1.1077 1.5435 6.1753 1.6387 4.8924 3.1413 8.5993 3.4844 8.5958 0.17086-0.0019 1.2963-1.84 2.501-4.085zm75.922-0.14517c1.7657-4.8214 3.3344-9.9747 3.1683-10.408-0.25324-0.6599-14.503-3.4269-15.014-2.9155-0.17863 0.17863 0.53535 1.5659 2.1693 4.215 2.0313 3.2934 3.8256 6.4324 7.2353 12.658 0.36087 0.65888 0.47436 0.71679 0.77781 0.39688 0.19541-0.20602 0.94393-1.9819 1.6634-3.9464zm-79.428-19.829c4.4535-0.91964 10.863-1.9547 15.995-2.5828l1.7142-0.20984 2.7237-3.5719c3.3775-4.4293 7.7729-9.717 10.611-12.765 1.185-1.2727 2.1546-2.4254 2.1546-2.5616 0-0.52035-4.294-4.2444-8.8172-7.6468-10.255-7.7142-20.071-11.392-25.834-9.6807-1.0431 0.30977-1.7656 0.77453-2.7763 1.7859-4.9621 4.9657-6.1612 17.775-3.1766 33.935 0.77377 4.1895 0.98717 4.7228 1.7994 4.4968 0.31496-0.08764 2.838-0.62714 5.6068-1.1989zm85.302-0.23301c1.7219-7.3815 2.5978-18.796 1.9025-24.794-0.85917-7.4111-3.2364-12.401-6.5856-13.824-5.7271-2.4328-15.924 1.3065-27.312 10.015-4.1598 3.1812-7.9375 6.525-7.9375 7.0259 0 0.22805 1.0465 1.564 2.3255 2.9688 4.161 4.57 7.2178 8.2646 11.978 14.477l1.2066 1.5747 3.8205 0.4778c4.9164 0.61485 12.182 1.8548 16.388 2.7971 1.819 0.40744 3.4464 0.69064 3.6164 0.62932 0.17003-0.06131 0.43897-0.66802 0.59764-1.3482zm-35.964-3.8583c0-0.55407-4.503-5.9767-8.5794-10.332l-1.4754-1.5762-1.2116 1.1793c-2.4166 2.352-9.1065 10.318-9.1065 10.843 0 0.16291 3.7499 0.25783 10.186 0.25783 8.5836 0 10.186-0.05863 10.186-0.37262z" fill="#87e1fa"/>
   <path d="m94.852 27.368c-7.1703-1.7383-11.795-8.2121-13.606-19.044-0.38342-2.2944-0.4796-4.233-0.45904-9.2525 0.0279-6.812 0.46189-11.112 1.8293-18.125 0.37423-1.9193 0.64412-3.6701 0.59977-3.8908-0.05146-0.25597-1.5171-0.90241-4.0494-1.7861-5.568-1.9429-7.905-2.9035-12.303-5.0569-10.672-5.2252-17.593-11.13-20.601-17.576-1.3072-2.8011-1.7372-4.9357-1.5608-7.7496 0.6668-10.641 13.557-21.335 34.201-28.374 2.0373-0.69464 3.8475-1.3936 4.0226-1.5532 0.24661-0.22479 0.14635-1.1401-0.4446-4.0589-4.1868-20.679-1.6995-37.444 6.4762-43.653 6.5725-4.9909 16.174-4.2044 28.178 2.3084 5.0754 2.7535 11.993 7.7603 17.233 12.473 1.1107 0.99887 2.1365 1.8161 2.2796 1.8161 0.1431 0 1.1989-0.84072 2.3462-1.8683 10.25-9.1802 20.363-15.206 29.131-17.359 3.5069-0.86102 7.9083-0.95665 10.658-0.23157 5.952 1.5695 10.26 6.5112 12.416 14.242 1.1739 4.2092 1.4515 6.8621 1.4456 13.816-6e-3 7.2738-0.31315 10.441-1.7265 17.815-0.70281 3.6665-0.77287 4.3732-0.46249 4.6648 0.2012 0.18906 1.3778 0.67092 2.6148 1.0708 11.312 3.657 22.149 9.4794 27.944 15.014 5.7388 5.4806 7.9695 9.9689 7.7178 15.529-0.21729 4.8006-2.1879 8.6396-6.8065 13.26-6.2594 6.2615-15.47 11.403-28.061 15.665l-3.3073 1.1194 0.035 1.0583c0.0192 0.58208 0.34575 2.6985 0.72561 4.7032 1.297 6.8447 1.5858 9.9278 1.5918 16.993 4e-3 5.017-0.10108 7.2224-0.4361 9.1313-2.067 11.777-7.0528 17.871-15.601 19.067-9.4469 1.3216-23.59-5.3544-37.433-17.669-1.1931-1.0614-2.3344-1.9298-2.5361-1.9298s-1.516 1.0086-2.9206 2.2413c-10.653 9.3495-20.98 15.327-29.469 17.057-3.1208 0.63597-7.3505 0.69482-9.662 0.13444zm9.8848-8.168c5.7262-1.6594 12.531-5.5088 19.409-10.98 3.5976-2.8615 6.4283-5.3895 6.6156-5.9083 0.1227-0.33976-0.5307-1.2254-2.4399-3.3073-3.335-3.6365-7.3094-8.4166-10.389-12.494-1.3331-1.7654-2.6832-3.3124-3.0002-3.4379-0.317-0.12546-1.8265-0.37005-3.3545-0.54356-4.0564-0.46061-11.771-1.7481-15.873-2.649-4.154-0.91241-4.681-0.94718-4.8663-0.321-0.40347 1.3633-1.5112 7.8211-1.8948 11.046-0.52326 4.3996-0.59835 12.554-0.14449 15.692 1.1635 8.0436 3.8108 12.438 8.1558 13.539 1.5542 0.39381 5.2775 0.08956 7.7806-0.63581zm73.7-0.09832c3.3714-1.7585 5.5973-6.5344 6.4464-13.831 0.66797-5.7401-1.8e-4 -15.343-1.6129-23.181-0.55189-2.6822-0.88711-3.377-1.5134-3.1367-1.1576 0.44422-12.842 2.6055-17.262 3.1931-2.8377 0.37718-5.4246 0.73974-5.7488 0.80568-0.32647 0.0664-1.0929 0.79701-1.7179 1.6377-3.7125 4.9933-8.3796 10.685-12.073 14.723-1.1859 1.2966-2.1526 2.5467-2.1482 2.7781 8e-3 0.43746 2.5367 2.7244 6.5301 5.9061 6.3312 5.0444 12.849 8.8341 18.333 10.66 2.7143 0.9037 4.3539 1.1589 7.0115 1.0912 2.1175-0.05393 2.8674-0.18296 3.7554-0.64615zm-38.554-25.857c4.0361-4.5245 7.15-8.3754 7.15-8.8422-1e-5 -0.3665-1.1406-0.41234-10.231-0.41118-7.9636 0.0011-10.255 0.07481-10.342 0.33294-0.11654 0.34964 0.67205 1.3659 4.5589 5.8753 3.462 4.0165 5.4451 6.0936 5.8176 6.0936 0.17965 0 1.5504-1.3718 3.046-3.0485zm9.0472-17.329c2.2308-0.14804 4.2941-0.32383 4.5851-0.39065 0.90445-0.20764 6.954-9.7214 11.818-18.586 2.5289-4.6086 5.5121-10.648 5.5121-11.158 0-0.43088-3.9846-8.3201-6.2927-12.459-3.2761-5.8747-9.7352-16.073-10.671-16.848-1.3826-1.1456-32.926-1.1406-34.335 0.0055-0.49747 0.40474-3.464 4.8514-6.0294 9.0376-5.283 8.6208-11.092 19.83-10.796 20.83 0.32847 1.1082 5.5806 11.142 7.9209 15.132 2.8432 4.8476 7.5222 12.154 8.5271 13.316l0.74336 0.85907 3.5719 0.22717c5.1585 0.32808 20.704 0.34914 25.445 0.03448zm-16.299-13.648c-2.6287-0.63583-5.2875-2.0861-7.2931-3.978-2.3252-2.1935-3.5976-4.1168-4.6066-6.9635-0.72926-2.0574-0.80114-2.5579-0.79961-5.5679 2e-3 -2.9063 0.0864-3.5426 0.70056-5.2479 1.5177-4.2142 4.3792-7.595 8.0361-9.4944 2.8068-1.4578 4.9635-1.9917 8.0461-1.9917 7.4601 0 13.57 4.4117 16.034 11.577 0.62358 1.8136 0.72856 2.5466 0.73857 5.1568 8e-3 2.2007-0.12066 3.482-0.46656 4.6302-1.7629 5.8519-6.6396 10.552-12.337 11.891-2.1256 0.49948-5.9615 0.49383-8.0522-0.01185zm-23.962 11.395c0-0.2235-0.69683-1.5034-1.5485-2.8443-1.9544-3.077-4.7876-7.9533-6.7585-11.632-0.86705-1.6185-1.6899-2.8443-1.9094-2.8443-0.52273 0-1.1329 1.4886-3.4574 8.4348-1.6501 4.9309-1.9224 5.9797-1.6283 6.2705 0.3976 0.39323 3.4902 1.1313 9.349 2.2311 4.707 0.88363 5.9531 0.96407 5.9531 0.38426zm60.609-0.12941c3.6814-0.6525 9.0619-1.7815 10.233-2.1471 0.52045-0.16253 0.85984-0.44322 0.85976-0.71104-1.6e-4 -0.47562-3.266-10.256-4.3-12.877-0.34427-0.87279-0.81107-1.6225-1.0373-1.6661-0.28102-0.05412-0.77052 0.61655-1.5445 2.1161-1.6407 3.1788-5.3809 9.741-7.1781 12.594-0.85272 1.3537-1.5504 2.6336-1.5504 2.8443 0 0.52094 0.8859 0.49099 4.5178-0.15274zm-82.05-10.312c1.5625-4.7341 3.7129-10.441 5.9271-15.73 0.62187-1.4854 0.63644-1.628 0.25679-2.5135-2.052-4.7862-4.6934-11.702-6.2193-16.285-1.0176-3.0559-1.9449-5.6546-2.0605-5.7748-0.47696-0.49568-10.295 3.2585-15.754 6.0239-8.1129 4.1098-13.881 8.9039-16.087 13.371-1.9888 4.0272-0.61144 7.9321 4.4724 12.68 4.8289 4.5096 13.223 9.1207 22.991 12.629 4.8094 1.7275 4.3461 2.0425 6.473-4.4016zm105.36 4.3998c13.983-4.9626 24.263-11.711 27.472-18.034 0.79448-1.5653 0.92166-2.0741 0.92166-3.6873 0-1.5768-0.1342-2.1414-0.85226-3.5857-3.2598-6.5567-12.948-12.99-27.312-18.138-3.6803-1.3188-4.3175-1.4773-4.6304-1.1518-0.19954 0.2076-0.86343 1.9818-1.4753 3.9427-1.2246 3.9244-4.033 11.507-5.9166 15.974l-1.2103 2.8705 1.0937 2.5535c2.0583 4.8056 3.9033 9.6984 5.6772 15.055 1.6124 4.8692 1.8289 5.3578 2.3738 5.3578 0.32976 0 2.0658-0.52041 3.858-1.1565zm-92.36-34.767c1.9964-3.7213 5.2341-9.3495 6.9514-12.084 1.4523-2.3124 1.6921-2.8986 1.288-3.1483-0.39934-0.24681-13.118 2.1168-14.769 2.7447-0.35325 0.1343-0.64227 0.41056-0.64227 0.61391 0 0.53647 1.9845 6.6654 3.3542 10.359 1.2586 3.3941 1.8177 4.4708 2.1992 4.2351 0.13119-0.08108 0.85968-1.3053 1.6189-2.7204zm75.839 0.86597c1.3973-3.547 4.2874-12.559 4.1459-12.928-0.17146-0.44682-2.7394-1.0881-9.0661-2.2639-5.3771-0.99934-6.2193-1.0692-6.328-0.5246-0.0464 0.23238 0.73722 1.7207 1.7414 3.3073 2.2851 3.6107 5.563 9.2967 6.9521 12.059 1.2808 2.5475 1.6682 2.6005 2.5548 0.3497zm-78.117-22.313c4.3968-0.90237 10.136-1.816 16.177-2.5752 1.0506-0.13204 1.2054-0.28318 3.7942-3.7045 3.2242-4.2611 6.2133-7.8857 9.9472-12.062 1.5169-1.6966 2.758-3.2635 2.758-3.482 0-0.82527-7.2709-6.774-12.632-10.335-9.1486-6.0767-17.231-8.592-22.251-6.9247-7.0157 2.3302-9.3931 17.559-5.699 36.505 0.36973 1.8962 0.73632 3.5513 0.81464 3.6781 0.18122 0.29323 0.68315 0.21538 7.0914-1.0998zm84.777 0.28742c0.45156-1.7014 1.3366-6.9361 1.7333-10.253 1.7692-14.788-0.63421-26.188-6.0835-28.854-6.6346-3.246-19.367 2.3-33.453 14.572-1.3156 1.1462-2.392 2.2222-2.392 2.3913s1.033 1.4254 2.2955 2.7919c2.9727 3.2175 8.0575 9.3288 11.038 13.266 1.2943 1.7099 2.4413 3.1089 2.5489 3.1089 1.8328 0 15.399 2.2174 20.101 3.2856 3.8754 0.88034 3.8964 0.87879 4.2117-0.30905zm-35.759-4.3216c0.0799-0.42611-4.5757-6.0795-7.9197-9.6171-1.5723-1.6632-2.3591-2.3152-2.6566-2.201-0.4776 0.18327-5.1337 5.3639-8.06 8.9681-1.7626 2.1708-2.1493 2.8388-1.8288 3.1588 0.0607 0.06064 4.6744 0.10029 10.253 0.08812 8.5272-0.0186 10.153-0.08181 10.213-0.39688z" fill="#75ddfa"/>
   <path d="m96.762 27.515c-10.253-1.2571-15.876-11.21-15.875-28.102 2.64e-4 -6.0706 0.65992-12.266 2.0181-18.955 0.36494-1.7974 0.60437-3.4221 0.53207-3.6105-0.0723-0.18842-0.76503-0.54795-1.5394-0.79897-19.98-6.4766-33.253-15.83-36.342-25.608-0.76943-2.4357-0.88097-6.0468-0.25904-8.3869 1.5684-5.9014 7.1895-12.053 15.769-17.256 4.6348-2.8111 14.095-7.0332 19.361-8.6408 3.2862-1.0032 3.1738-0.71238 2.1718-5.6183-3.6163-17.706-2.0966-33.314 3.9628-40.699 3.1463-3.8348 7.0167-5.561 12.486-5.569 9.5129-0.0139 21.035 5.7231 34.188 17.022 2.6441 2.2714 3.3569 2.7602 3.7327 2.559 0.25549-0.13673 1.7018-1.3333 3.2141-2.6591 12.821-11.24 25.782-17.612 34.764-17.092 4.9332 0.28587 7.4211 1.3524 10.629 4.5569 1.8344 1.8323 2.3648 2.5764 3.4956 4.904 2.4134 4.9676 3.472 10.717 3.4672 18.831-4e-3 6.4568-0.86594 14.171-2.2651 20.266-0.21373 0.93117-0.32774 1.8837-0.25336 2.1167 0.0851 0.26655 1.3516 0.83496 3.4157 1.533 12.556 4.2459 21.752 9.2972 28.039 15.402 7.9986 7.7663 9.3162 15.665 3.9637 23.76-4.792 7.2476-16.355 14.59-30.602 19.431-2.2078 0.75025-4.1803 1.5164-4.3832 1.7026-0.31486 0.2888-0.28656 0.73968 0.19264 3.0689 2.5807 12.544 2.8938 24.59 0.84696 32.593-3.5739 13.974-13.522 18.492-28.288 12.849-7.0724-2.703-16.229-8.6851-23.89-15.608-1.1169-1.0093-2.2018-1.835-2.4109-1.835-0.20908 0-1.4384 0.94258-2.7318 2.0946-14.008 12.477-27.644 18.947-37.409 17.749zm4.6772-7.4261c7.1795-0.97855 17.36-6.7022 26.94-15.146 2.2169-1.9539 2.7781-2.5327 2.7781-2.865 0-0.11012-1.2444-1.5783-2.7654-3.2626-3.5374-3.9173-6.444-7.3975-9.4936-11.367-3.9191-5.1018-2.9489-4.5222-8.8919-5.3121-5.5533-0.73818-10.618-1.6205-15.228-2.653-3.5641-0.79826-3.7948-0.80144-4.0759-0.05614-0.43577 1.1553-1.6115 8.1919-2.0342 12.174-0.51826 4.883-0.37607 13.732 0.27087 16.857 1.2969 6.264 3.7088 10.17 6.9166 11.202 2.3229 0.74701 2.92 0.79302 5.5824 0.43014zm76.868-0.7141c6.7021-2.9647 8.9193-18.042 5.3396-36.31-0.35643-1.819-0.71529-3.527-0.79747-3.7956-0.18861-0.61648-0.48063-0.58363-7.3737 0.82975-4.5013 0.92295-7.2751 1.3647-16.205 2.5806-1.0833 0.1475-1.2243 0.28483-3.8764 3.7749-3.1729 4.1755-7.3048 9.1468-10.58 12.729-1.2534 1.371-2.2777 2.6807-2.2763 2.9104 1e-3 0.22969 1.0432 1.3206 2.3151 2.4243 9.6012 8.3313 18.44 13.498 25.993 15.193 2.3476 0.52705 5.868 0.3681 7.4618-0.3369zm-37.959-26.357c4.1939-4.711 7.004-8.2847 6.9041-8.7804-0.0791-0.39243-1.0698-0.43439-10.479-0.4438-5.7154-0.0057-10.467 0.06484-10.559 0.15678-0.30432 0.30432 0.28429 1.1675 3.1297 4.5896 4.188 5.0369 7.1594 8.0821 7.6883 7.8791 0.24027-0.092202 1.7323-1.6228 3.3157-3.4014zm7.2136-16.831c7.1946-0.4289 6.1518 0.08992 9.2044-4.5792 4.7705-7.2968 8.6795-14.137 12.375-21.656l2.0351-4.1402-1.3645-2.8564c-4.1559-8.7-14.276-25.588-15.994-26.69-1.3987-0.89742-23.46-1.2002-31.774-0.43611-2.8682 0.2636-2.6123 0.01566-6.786 6.5748-3.8205 6.0042-7.0719 11.725-10.299 18.122-2.3636 4.6857-2.6048 5.2944-2.3582 5.9531 0.47892 1.2793 4.7074 9.5362 6.5223 12.736 4.3164 7.6101 9.8309 16.06 10.735 16.449 1.5153 0.65278 19.746 0.99629 27.703 0.52197zm-12.965-13.751c-3.966-0.555-6.7192-1.946-9.682-4.8918-3.3597-3.3404-4.87-6.9545-4.87-11.654 0-2.9282 0.47016-4.8844 1.853-7.7098 1.7569-3.5897 5.2833-6.7043 9.1161-8.0514 6.2125-2.1835 12.823-0.70858 17.434 3.89 3.1226 3.114 4.6387 6.571 4.8584 11.077 0.24418 5.0083-1.2384 8.8487-4.8131 12.467-1.7255 1.7467-2.5432 2.348-4.3715 3.2141-3.2335 1.5318-6.4394 2.0898-9.525 1.6581zm-25.665 11.404c0-0.27134-1.0099-2.1055-2.2443-4.076s-3.2184-5.3501-4.409-7.5103c-1.1906-2.1602-2.4479-4.4337-2.7939-5.0522-1.0563-1.8876-1.4384-1.5986-2.7993 2.1167-1.792 4.8923-3.6285 10.667-3.6285 11.409 0 0.40433 0.1794 0.7088 0.46302 0.78586 2.9445 0.79997 13.168 2.7671 14.552 2.7999 0.67 0.0159 0.8599-0.08856 0.8599-0.47296zm60.596-0.17714c5.2127-0.9126 10.569-2.1262 10.916-2.4734 0.32932-0.32932-0.90728-4.4779-3.1306-10.503-1.5932-4.3172-1.8615-4.8744-2.3477-4.8744-0.19681 0-1.4367 2.0009-2.7554 4.4464-1.3187 2.4455-3.3719 6.0471-4.5628 8.0036-1.1909 1.9565-2.3999 3.9452-2.6867 4.4194-0.57897 0.95727-0.46991 1.6514 0.25946 1.6514 0.26291 0 2.2014-0.30172 4.3078-0.67049zm-83.958-4.9519c0.13817-0.1819 0.58112-1.4618 0.98432-2.8443 1.0036-3.4409 3.747-10.972 5.7325-15.736 1.9295-4.63 2.0458-3.4399-1.0865-11.119-1.1871-2.9104-2.9691-7.7324-3.96-10.716-1.6399-4.9374-1.8586-5.431-2.4381-5.5026-0.3501-0.04326-2.1187 0.44738-3.9302 1.0903-14.53 5.1568-24.518 11.783-27.698 18.377-1.3305 2.7579-1.3122 4.6015 0.07377 7.415 0.80106 1.6262 1.54 2.572 3.6711 4.699 5.2212 5.2111 13.92 10.026 25.025 13.853 2.518 0.86754 3.2595 0.9665 3.626 0.48395zm107.57-1.1054c10.512-3.7387 18.278-8.1382 23.356-13.233 2.8442-2.8532 4.1245-4.852 4.6362-7.2376 1.3781-6.4259-8.1094-15.038-23.519-21.348-4.0198-1.6461-9.0163-3.3044-9.4522-3.1371-0.19404 0.07446-0.7238 1.3453-1.1772 2.8242-1.3228 4.3141-3.3765 10.064-5.0708 14.197-0.86515 2.1105-1.7698 4.3433-2.0104 4.9618-0.50338 1.2943-0.73793 0.48796 2.3225 7.984 1.496 3.6641 3.4362 9.1451 5.6967 16.093 0.18293 0.56226 1.0392 0.38088 5.2182-1.1054zm-93.009-34.135c1.3445-2.67 5.1522-9.3425 7.1226-12.481 0.92514-1.4737 1.6821-2.8734 1.6821-3.1104 0-0.60309-1.0221-0.56033-5.4316 0.22726-5.7966 1.0353-10.014 2.0032-10.417 2.3907-0.31566 0.30361-0.16561 0.98932 1.0225 4.6728 1.7061 5.2894 3.6312 10.321 4.0473 10.578 0.47948 0.29634 0.95292-0.24983 1.9736-2.2768zm75.414 1.903c0.3135-0.39306 3.1632-8.3682 4.1412-11.589 0.90899-2.994 0.89354-3.3204-0.17296-3.6534-2.3027-0.7191-12.649-2.6829-14.135-2.6829-0.64302 0-0.87977 0.11809-0.87977 0.43884 0 0.24136 0.93484 1.938 2.0774 3.7703 2.1452 3.4402 4.6024 7.7028 6.763 11.732 1.2087 2.2541 1.6644 2.6639 2.2065 1.9844zm-80.486-23.208c4.0542-0.92904 11.317-2.1811 16.126-2.78 1.8918-0.2356 3.6418-0.48846 3.889-0.56191 0.24719-0.07345 0.99004-0.89113 1.6508-1.8171 2.1212-2.9725 7.3782-9.4252 10.824-13.285 1.8414-2.063 3.3481-3.9348 3.3481-4.1594 0-0.82281-8.4964-7.7443-13.349-10.874-5.0943-3.2862-10.433-5.7203-14.518-6.6185-3.1095-0.68386-6.494-0.47507-8.3021 0.51217-1.6588 0.90576-2.1374 1.3959-3.3777 3.4598-3.7376 6.2192-4.2647 18.409-1.43 33.073 0.60699 3.14 0.85714 3.8365 1.378 3.8365 0.18449 0 1.8769-0.35324 3.761-0.78497zm87.668 0.18966c0.39983-1.06 1.5685-7.9008 2.0227-11.84 0.60903-5.2817 0.41927-14.372-0.3742-17.926-1.0305-4.6155-2.8164-8.0982-4.9289-9.6123-4.8928-3.5068-15.005-0.65174-26.315 7.4295-4.4976 3.2137-10.859 8.579-10.859 9.1587 0 0.13427 1.0848 1.4325 2.4107 2.8849 3.4286 3.7558 7.5362 8.6915 10.614 12.754 1.4578 1.924 2.8443 3.5553 3.0812 3.625 0.23684 0.06978 1.9189 0.31223 3.7379 0.53878 4.6527 0.57948 12.238 1.8801 16.14 2.7675 4.137 0.94085 4.198 0.94385 4.471 0.22001zm-35.427-4.8854c0-0.88567-9.9497-12.246-10.725-12.246-0.76187 0-10.441 11.329-10.441 12.22 0 0.44525 0.6002 0.47744 10.12 0.54262 5.5662 0.03811 10.329 0.02564 10.583-0.02772 0.25466-0.05335 0.46302-0.27335 0.46302-0.48888z" fill="#60d9f9"/>
  </g>
 </g>
</svg>
