<svg width="338.67mm" height="307.52mm" version="1.1" viewBox="0 0 338.67 307.52" xmlns="http://www.w3.org/2000/svg">
 <g transform="translate(83.911 102.44)">
  <path d="m-13.169-102.44a8.9497 8.9497 0 0 0-8.9498 8.9499 8.9497 8.9497 0 0 0 0.0026 0.0713 8.9497 8.9497 0 0 0-4.038 3.8913 7.2847 7.2847 0 0 0 5.3e-4 -0.0341 7.2847 7.2847 0 0 0-7.2848-7.2849 7.2847 7.2847 0 0 0-1.0713 0.0858 7.2847 7.2847 0 0 0-4.7232-1.7415 7.2847 7.2847 0 0 0-7.2848 7.2848 7.2847 7.2847 0 0 0 0.0021 0.05839 7.2847 7.2847 0 0 0-4.1408 6.5639 7.2847 7.2847 0 0 0 7.2843 7.2848 7.2847 7.2847 0 0 0 3.746-1.0459 7.2847 7.2847 0 0 0 0.06201 0.08681v8.4827c-30.876 5.4843-44.347 18.759-44.347 18.759l0.4377 14.439 10.013 0.09094v155.8l62.442 0.2186v24.628h68.377v24.41h-102.41v20.82c-3.412 0.33351-6.057 2.3993-6.057 4.8917 0 2.7235 3.1551 4.9454 7.0218 4.9454 3.8667 0 7.0213-2.222 7.0213-4.9454 0-2.5112-2.6838-4.5903-6.133-4.9v-19.508h102.41v-27.019h-68.377v-24.622l-17.326-0.0605v-12.585h118.19v43.366h22.896v27.893h77.963v-28.548h25.067v46.941c-3.4357 0.31853-6.1056 2.3941-6.1056 4.8984 0 2.7235 3.1551 4.9454 7.0218 4.9454s7.0213-2.2219 7.0213-4.9454c0-2.4995-2.6598-4.5716-6.086-4.8963v-48.247h-28.77v28.548h-74.26v-26.589h21.348v-20.921h13.467c0.44007 2.4291 3.3959 4.3181 6.9608 4.3181 3.8667 0 7.0218-2.222 7.0218-4.9454 0-2.7235-3.1551-4.9439-7.0218-4.9439-3.5408 0-6.4808 1.8623-6.9515 4.2674h-15.328v20.92h-42.392v-43.366h-121.9v13.884l-43.264-0.1509v-154.49l25.499 0.23101c-0.89298 0.84952-2.4618 1.6883-4.3853 2.2092-0.72018 0.195-1.3095 0.51401-1.3095 0.709 0 0.45299 0.56304 0.43746 1.5405-0.04239 0.42364-0.20796 1.0856-0.38256 1.4712-0.38756 0.68277-9e-3 0.6887 0.01191 0.21549 0.79788-0.27638 0.459-0.39828 1.043-0.28319 1.3545 0.11129 0.3011 0.02561 0.83042-0.19017 1.1767-0.3976 0.63799-0.25608 1.0725 0.26045 0.79841 0.15534-0.08239 0.58719-0.97925 0.95963-1.9927 0.56774-1.5448 1.9886-3.4926 3.2215-4.6095l3.1786 0.02895c-1.4735 0.26734-1.7472 0.39251-1.7472 0.72192 0 0.21553 0.15365 0.39169 0.34158 0.39169 0.48266 0 1.8033 1.1215 1.8097 1.5369 0.0029 0.19082 0.14422 0.27286 0.31368 0.18293 0.16945-0.08988 0.30799-0.48993 0.30799-0.88882 0-0.88503 0.50631-1.3601 1.4485-1.3601 0.50323 0 0.70797 0.15338 0.70797 0.52917 0 0.64677 1.2644 0.73724 1.849 0.13229 0.21095-0.21828 0.66946-0.39688 1.0191-0.39688 0.3496 0 0.95979-0.26109 1.3555-0.58031 0.09806-0.07911 0.18077-0.14306 0.25735-0.19947l0.91312 0.0082c0.01019 0.0087 0.01839 0.01482 0.02894 0.02381 0.4356 0.37407 0.34866 0.5057-0.93018 1.4056-2.1204 1.4921-1.9318 1.7122 1.4382 1.6738 2.036-0.02328 3.1909 0.09282 4.0432 0.40566 0.65615 0.24088 1.5858 0.4377 2.0655 0.4377s1.2079 0.13131 1.6185 0.29197c0.5962 0.23331 0.90926 0.20092 1.5529-0.16121 0.4433-0.24948 1.0163-0.38444 1.2733-0.29972 0.25696 0.08469 0.84702 0.02979 1.3115-0.12197 0.75204-0.24564 7.9987-0.62442 10.395-0.54364 0.50836 0.0172 1.5223 0.0418 2.2526 0.0553 0.86322 0.01614 1.3883 0.16074 1.5012 0.41341 0.24098 0.5393 0.09511 0.61616-1.9508 1.0268-0.9916 0.19902-2.0286 0.4364-2.3043 0.52761-0.35749 0.11835-0.55477-0.01984-0.68988-0.48212-0.19347-0.66196-0.95167-1.091-1.4552-0.82373-0.41992 0.22283-0.33772 0.80526 0.16381 1.1627 0.24412 0.17396 0.3677 0.48586 0.27492 0.6935-0.17606 0.39399-1.6793 0.52366-2.08 0.17931-0.127-0.10914-1.0565-0.2123-2.0665-0.22945-1.0434-0.01773-2.3763-0.24032-3.0861-0.5152l-1.249-0.48368-0.54518 0.62114c-0.53311 0.60693-0.60315 0.61455-3.128 0.3478-1.4204-0.14999-3.4145-0.18383-4.4313-0.07493-1.0167 0.1089-2.834 0.13856-4.0385 0.06562-2.2624-0.1369-2.989 0.12753-2.3022 0.8382 0.33168 0.34319 5.5655 0.48141 17.069 0.45061 4.3721-0.01191 4.7954 0.20955 2.0495 1.0723-2.4968 0.78449-6.0261 1.1371-7.4218 0.74157-1.199-0.33983-1.8133-0.19891-1.8133 0.41598 0 0.68337 1.7682 1.2218 3.7801 1.1514 1.5919-0.0558 2.2382 0.12142 1.972 0.55655-0.90076 0.03276-6.3193 0.25138-12.847 1.0485-7.1249 0.87003-15.361 2.4079-19.676 5.1904-4.2425 2.7357-5.2657 5.4429-4.8168 7.7019 0.44891 2.2589 2.3406 4.0665 3.9476 5.071 0.87519 0.54708 2.3276 0.9824 4.0075 1.4614 1.6799 0.47903 3.599 0.99348 5.4162 1.6366 3.6343 1.2862 6.8711 3.0537 7.0838 6.1257l0.3793 5.4751h-1.0335c-0.56749 0-1.0242 0.45672-1.0242 1.0242 0 0.56748 0.45673 1.0247 1.0242 1.0247h2.235c0.56749 0 1.0242-0.45725 1.0242-1.0247 0-0.56751-0.45674-1.0242-1.0242-1.0242h-0.6196l0.36122-5.4922c-0.2248-3.2461-3.7701-5.2119-7.5742-6.5583-1.9021-0.67313-3.8688-1.1994-5.5252-1.6717-1.6564-0.47231-2.9921-0.89876-3.6484-1.309-1.4559-0.91006-3.2847-2.6437-3.7109-4.7883-0.42619-2.1446 0.52043-4.7026 4.5915-7.3277 3.9985-2.5784 11.952-4.1047 18.938-4.9578 5.1657-0.63079 9.7521-0.89741 11.8-0.99425-0.45995 0.34176-0.49337 0.49932-0.2005 0.75499 0.32091 0.28012 0.83997 0.20646 2.8427-0.40463 2.4507-0.74779 3.3359-0.8786 7.0859-1.048 1.1015-0.04969 2.8022-0.18621 3.7791-0.30282 1.5178-0.18116 1.8681-0.14004 2.4086 0.28009 0.6223 0.48363 0.64845 0.47575 1.6128-0.46199 0.53917-0.5243 1.7635-1.3259 2.7208-1.7813 0.95724-0.4554 1.8191-1.0046 1.9156-1.2206 0.28911-0.64701 0.92301-0.44249 1.6614 0.53642 0.73579 0.97544 1.8035 1.233 2.1255 0.51263 0.10375-0.2323-0.10087-0.67022-0.4718-1.0093-1.2228-1.1178-0.74714-2.2846 0.93121-2.2846 0.33636 0 1.0527-0.2843 1.5921-0.63148 1.3216-0.85061 3.4499-1.7506 4.1269-1.7456 0.3033 0.0026 0.7458 0.10954 0.9834 0.23873 0.3353 0.1823 0.07662 0.51626-1.1555 1.4909-1.4806 1.1712-1.9998 1.9704-1.2795 1.9704 0.16946 0 0.30799 0.16825 0.30799 0.37415 0 0.36872-2.7501 2.2717-3.283 2.2717-0.39538 0-2.5709 1.5813-2.5709 1.8686 0 0.13335 0.75893-0.07707 1.6862-0.46765 0.92727-0.39052 1.7614-0.64561 1.8531-0.5669 0.09164 0.07869-0.04515 0.57785-0.30386 1.1095-0.47882 0.98412-0.23235 1.2884 0.46199 0.56999 0.21096-0.21828 0.51512-0.39688 0.67593-0.39688 0.16081 0 0.5003 0.17859 0.75448 0.39688 0.50733 0.43566 1.0346 0.52377 1.0346 0.17312 0-0.12298-0.27759-0.43886-0.6165-0.70228-0.3389-0.26339-0.61598-0.65686-0.61598-0.87437 0-0.41891 2.9189-2.9621 3.3998-2.9621 0.15558 0 0.49644 0.27958 0.75706 0.62116 0.43664 0.57229 0.48472 3.1717 0.1447 4.6436-1.8825 0.10321-9.1156 0.5384-15.497 1.5157-3.6727 0.56245-6.9646 1.2702-8.6191 2.3079-0.82724 0.51885-1.2082 1.1603-0.85163 1.8237 0.35662 0.66342 1.3664 1.3243 3.0975 2.0211 6.8906 2.7733 20.193 4.6106 29.317 6.4745 4.5619 0.93197 8.0358 1.9102 9.0429 2.789 0.50355 0.43937 0.52468 0.81336-0.12299 1.3255-0.64767 0.51213-2.0709 1.1267-4.455 1.7978-9.7039 2.7315-16.114 4.0077-20.242 5.1955-2.064 0.59394-3.5807 1.1733-4.594 1.9218-1.0133 0.74851-1.1692 1.7245-1.2258 2.8872l0.39998 3.2685h-1.0351c-0.62985 0-1.1369 0.50702-1.1369 1.1369 0 0.62984 0.50703 1.1369 1.1369 1.1369h2.4805c0.62984 0 1.1369-0.50705 1.1369-1.1369 0-0.62987-0.50704-1.1369-1.1369-1.1369h-0.76636l-0.06615-3.3295c0.05279-1.0844 0.4627-1.8295 1.309-2.4546 0.84626-0.62511 2.1725-1.1486 4.1558-1.7193 3.9667-1.1414 10.466-2.4421 20.233-5.1914 2.4837-0.69911 4.0742-1.3487 4.9237-2.0205 0.84958-0.67178 0.85217-1.4007 0.15245-2.0112-1.3994-1.2211-5.0632-2.1275-9.6898-3.0727-9.2534-1.8904-22.533-3.7795-28.988-6.3774-1.6053-0.64609-2.4008-1.2158-2.6484-1.6764-0.24758-0.46056-0.03205-0.83725 0.6072-1.2382 1.2785-0.80182 4.3984-1.5398 7.9726-2.0872 5.8183-0.89106 12.525-1.3318 14.917-1.4712-0.12546 0.70096 0.72976 0.83764 1.5611 0.16692 0.60901-0.49133 0.83329-0.53036 1.602-0.27853 1.2707 0.41627 3.1065-0.13901 3.6959-1.1178 0.61003-1.013 1.0817-0.94776 0.82992 0.11472-0.29942 1.2636-0.28115 1.7625 0.0651 1.7761 0.28607 0.01111 0.38769-0.2332 0.89297-2.1544 0.11981-0.45553 0.42204-0.7394 0.84543-0.79375 0.51589-0.06609 0.75299-0.40114 1.0893-1.54 0.24427-0.82701 0.76549-1.7407 1.2072-2.1167l0.7767-0.66146 0.5209 0.5638c0.28661 0.31014 0.68009 0.78639 0.87436 1.0583 0.2862 0.40058 0.43074 0.43119 0.75964 0.1602 0.32311-0.26617 0.33124-0.50356 0.0413-1.1632-0.39838-0.90638-0.27996-1.2806 0.40566-1.2806 0.24481 0 0.9445-0.22982 1.5544-0.51057 0.60992-0.28067 1.3177-0.44159 1.5725-0.35758 0.65485 0.21577 0.332 1.6477-0.65164 2.8908-0.69823 0.88236-0.73535 1.0398-0.33073 1.4237 0.25018 0.23741 0.45747 0.6604 0.45992 0.94001 2e-3 0.27956 0.12408 0.67019 0.26975 0.86765 0.44833 0.60762 0.70596-0.12433 0.48627-1.3824-0.16243-0.9302-0.0471-1.4354 0.59686-2.6045 0.43945-0.79772 0.79892-1.6434 0.79892-1.879 0-0.23556 0.39644-0.81907 0.88057-1.2971 0.48412-0.47802 1.0487-1.3138 1.2547-1.8572 0.18339-0.48384 0.58917-1.0039 1.0366-1.3999l3.7217 0.03411c0.49113 0.421-0.0833 0.89866-1.509 0.89866-0.89072 0-1.2459 0.4263-0.76792 0.92088 0.26985 0.27919 0.26587 0.51626-0.0155 0.98031l-0.37155 0.61235 0.75551-0.59531c0.83634-0.65953 1.6461-0.7711 1.9213-0.26458 0.10759 0.19791 0.24194 0.22455 0.33486 0.06615 1.0951-1.8661 2.0116-2.3995 2.8644-1.6671 0.64201 0.55134 0.41007 0.93525-0.99373 1.6417-0.75015 0.37753-1.6624 1.0141-2.0273 1.4144s-1.1035 0.85669-1.6407 1.0144-1.1418 0.56806-1.3436 0.9121c-0.20182 0.34404-0.87781 0.85095-1.5022 1.126-0.99531 0.43852-1.0796 0.54766-0.68523 0.88628 0.39431 0.33864 0.60585 0.25246 1.7146-0.69972 1.1348-0.97449 1.3737-1.0685 2.3285-0.91466 0.80168 0.12914 1.3615 0.02461 2.2686-0.42376 0.86076-0.42537 1.4452-0.54343 2.0485-0.41341 1.1067 0.23855 0.83076 0.55422-1.171 1.3405-1.8784 0.73787-4.7889 3.0534-4.7889 3.8101 0 0.27892 0.17318 0.63063 0.38499 0.78137 0.47254 0.33621 5.0071 0.19283 6.1976-0.19587 1.0319-0.33687 2.3523-0.36409 2.3523-0.04858 0 0.12618-0.56323 0.5493-1.2516 0.94051-0.92805 0.52742-1.2268 0.86077-1.1555 1.2893 0.17396 1.0449 1.0846 0.80023 3.1445-0.84545 1.0984-0.87749 2.3868-1.6638 2.8634-1.7472 0.47661-0.0834 1.3799-0.38526 2.0066-0.67075 0.62666-0.28551 1.493-0.51885 1.9255-0.51885 0.70998 0 0.786 0.10134 0.786 1.0434 0 1.3149-0.96268 2.7393-2.3492 3.4752-1.3279 0.70477-1.1926 1.1957 0.30179 1.0924 1.2155-0.084 1.5259 0.38708 0.66094 1.0035-0.68825 0.49056-0.55838 0.85648 0.18294 0.51575 0.35468-0.16306 0.97862-0.22434 1.3865-0.13644 0.68562 0.14777 0.74069 0.08482 0.73639-0.83714-2e-3 -0.54848-0.1264-1.1635-0.27595-1.3663-0.50047-0.67871 0.32694-1.8935 2.6453-3.8845 2.2809-1.9587 3.7496-2.5814 3.4029-1.4428-0.1229 0.40362-0.0171 0.50813 0.46922 0.46302 1.1321-0.10504 0.9166 0.56317-0.36225 1.1234-1.6181 0.70892-1.6211 1.1555-4e-3 0.66561l1.2485-0.37828-0.62787 0.68522c-0.34544 0.37714-0.55463 0.78851-0.46457 0.91363 0.0901 0.12512-0.39171 0.55721-1.0707 0.96068-0.67903 0.40346-1.2395 0.90472-1.2459 1.1136-7e-3 0.20889-0.32411 0.67479-0.70538 1.0351-0.38127 0.36023-0.51054 0.56406-0.28732 0.4532 0.26872-0.13348 0.46249-0.01482 0.57413 0.35192 0.15234 0.5003 0.2619 0.44979 1.1348-0.52504 0.53132-0.59338 1.2733-1.4557 1.649-1.9162 0.37564-0.46051 1.3283-1.4564 2.1167-2.2133 1.2584-1.2081 1.5424-1.3573 2.3291-1.2222 0.59473 0.10216 1.0783 0.01191 1.4382-0.26768 0.29815-0.23172 1.21-0.67471 2.0268-0.98496 1.4954-0.56806 2.2254-0.45199 1.8877 0.30078-0.20774 0.46326-3.8431 2.1052-5.1821 2.3404-0.74879 0.13152-1.0205 0.34078-1.1384 0.87694-0.0868 0.39452-0.73773 1.1309-1.4795 1.6743-0.72829 0.53359-1.2601 1.0259-1.1813 1.0935 0.0787 0.0676 0.79656-0.12523 1.5947-0.42841 0.79817-0.30321 1.6654-0.55139 1.927-0.55139s0.72931-0.19685 1.0392-0.4377c0.52539-0.40828 0.60598-0.40487 1.1922 0.05064 0.84584 0.65738 2.452 3.5954 2.452 4.485 0 0.67127 0.96074 2.1457 1.68 2.5787 1.0612 0.63873 1.7875-0.63243 0.97204-1.7012-0.3894-0.51038-0.41871-0.82614-0.15297-1.6526 0.18063-0.56182 0.37032-2.2237 0.42168-3.6933 0.0514-1.4697 0.1088-2.7503 0.12713-2.8458 0.0483-0.25162 3.0586-2.0753 3.4256-2.0753 0.17043 0 0.54407 0.50266 0.83044 1.1173 0.28633 0.61457 0.83982 1.6334 1.2299 2.2634 0.75792 1.2241 0.90012 2.043 0.40101 2.3079-0.4527 0.24027-0.37498 1.1314 0.11989 1.3762 0.23528 0.11636 0.47954 0.44947 0.54312 0.74052 0.0775 0.35483 0.35984 0.52917 0.85627 0.52917 1.0025 0 1.125-0.49705 0.28784-1.1668-0.73638-0.58915-0.58748-0.71914 0.33745-0.29406 0.67764 0.31144 0.99103 0.03482 1.5828-1.3999 0.55936-1.356 1.0628-1.6929 1.495-0.99941 0.4307 0.69109-0.081 2.6318-1.1007 4.1718-0.4026 0.60801-0.73277 1.4087-0.73277 1.7792 0 0.46246-0.26535 0.79817-0.84698 1.0702-1.1644 0.54464-3.0829 1.9821-2.6567 1.9911 0.19106 4e-3 0.51975-0.17137 0.7307-0.38965 0.42948-0.44439 1.4633-0.51446 2.143-0.1452 0.37406 0.20323 0.39009 0.45455 0.0941 1.5172-0.19519 0.70054-0.44558 1.6905-0.55655 2.1999-0.42685 1.9595-2.5824 4.1356-5.0886 5.1372-0.5809 0.23214-1.5255 0.71713-2.1017 1.0795l2e-3 -0.04339s-12.564 0.605-23.468 3.1228c-5.4522 1.2589-10.574 2.9348-13.594 5.1532-3.0203 2.2184-3.8788 4.981-0.8692 8.2997 2.9973 3.3051 7.4034 5.2974 12.303 6.5536 4.8997 1.2562 10.262 1.781 15.197 2.2118 4.9346 0.4308 9.439 0.7755 12.641 1.5989s5.216 2.0909 5.3227 4.5615l0.43718 10.133 0.39429-0.01 0.49041-10.133c-0.11209-2.5956-2.4195-4.1094-5.9454-5.0162-3.5258-0.90678-8.156-1.241-13.066-1.6696-4.9104-0.42868-10.101-0.94371-14.773-2.1415-4.6718-1.1978-8.8518-3.0727-11.762-6.2813-2.8974-3.1949-2.0627-5.7482 0.78289-7.8383 2.8456-2.0901 7.7635-3.716 13.086-4.9449 9.9253-2.2917 21.045-3.237 22.521-3.3559-1.1339 0.76187-0.16142 0.48183 3.0189-0.87797 2.3358-0.9987 3.3473-1.3004 3.9651-1.1839 0.80121 0.15105 0.83004 0.11599 0.85834-1.0304 0.0305-1.2375 0.5085-2.0014 1.2526-2.0014 0.23994 0 1.7004 1.0954 3.2458 2.434 2.393 2.0727 2.7776 2.318 2.589 1.6536-5e-3 -0.0164-0.015-0.03916-0.0212-0.05736l0.0651 0.0367s13.624 1.1379 26.883 3.3729c6.6292 1.1175 12.978 2.5118 17.102 4.1475 4.1237 1.6358 6.0418 3.4705 4.0447 5.6033-4.1125 4.3922-9.9818 6.2741-14.922 7.6238-2.4702 0.67487-4.7226 1.2117-6.41 1.8733-1.6874 0.66154-2.7693 1.4651-2.7693 2.5797v1.9539h-1.2402c-0.65961 0-1.1906 0.53104-1.1906 1.1906 0 0.65964 0.53102 1.1906 1.1906 1.1906h2.5978c0.65961 0 1.1906-0.53099 1.1906-1.1906 0-0.65958-0.53102-1.1906-1.1906-1.1906h-0.42788l0.39223-1.9539c0.2012-1.0024 0.88838-1.6517 2.4143-2.25 1.5259-0.59828 3.7293-1.131 6.2363-1.8159 5.014-1.3699 11.178-3.3677 15.379-7.8543 2.1597-2.3065 4e-3 -4.3717-4.3222-6.088-4.3266-1.7163-10.803-3.1265-17.519-4.2587-13.093-2.2071-26.865-3.0847-27.564-3.1285-0.21925-0.49493-0.76046-1.3324-1.3172-2.02-1.3399-1.6548-2.0372-2.9566-2.6629-4.9733-0.67262-2.168-0.57257-3.2901 0.36018-4.0426 0.63386-0.51141 0.76819-0.82883 0.66456-1.5673-0.15678-1.1169 0.68241-2.9127 1.5741-3.3688 0.4745-0.2427 1.0537-0.25786 2.266-0.06046 1.1027 0.17931 1.6623 0.17796 1.7332-0.0048 0.0577-0.14846 0.46323-0.26977 0.90176-0.26977 0.43854 0 1.0458-0.19307 1.3493-0.42892 0.51052-0.39672 0.64438-0.38746 1.7906 0.1256 0.68136 0.30491 1.4551 0.48305 1.7198 0.39582 0.31937-0.1052 0.93099 0.26228 1.818 1.0919 0.7351 0.68757 1.3898 1.1129 1.4547 0.94567 0.086-0.22172 0.61425-0.19278 1.9498 0.10594 2.3277 0.52067 2.259 0.52911 2.0851-0.25167-0.0809-0.3638-0.25676-0.66146-0.39067-0.66146-0.0469 0-0.14542-0.02381-0.2837-0.06665 3.7668-0.12975 16.891-0.4794 31.004 0.38137 8.352 0.50938 17.004 1.4457 24.145 3.0872 7.1412 1.6414 12.745 3.9732 15.188 7.2869 4.986 6.7651 2.5261 9.9532-1.1937 12.774-3.7198 2.8212-8.908 5.2902-8.908 10.228l0.48472 5.5289h-1.2955c-0.82956 0-1.4971 0.66752-1.4971 1.4971 0 0.82955 0.66751 1.4976 1.4971 1.4976h1.558l0.0134 0.14883c-8.1934 5e-3 -14.825 0.91033-14.825 9.1116 0 7.8082 6.0111 21.155 13.658 22.48-3.9313-1.061-6.4024-7.1536-8.107-11.221-1.6734-4.655-3.3745-11.233-1.7281-16.204 1.7211-3.5973 5.4541-3.9671 8.7039-4.0974-4.7257 0.31877-8.2538 1.9586-8.2538 9.0424 0 7.8082 4.2856 21.155 9.7379 22.48-2.803-1.061-4.5651-7.1536-5.7805-11.221-1.1931-4.655-2.4059-11.233-1.232-16.204 1.2674-3.7155 4.0665-3.9893 6.4342-4.1109-3.228 0.28808-5.6534 1.8778-5.6534 9.0558 0 8.218 3.1794 22.573 7.1024 22.588-2.7723-0.0206-5.0188-14.372-5.0188-22.588 0-7.7729 2.0106-8.9927 4.5749-9.1028 0.0307 3e-3 0.0622 3e-3 0.093 4e-3 -1.6892 0.13337-3.0055 1.4105-3.0055 9.0992 0 8.2136 1.5021 22.557 3.3564 22.587h2e-3 3e-3 1e-3c1.8568-3e-3 3.3621-14.366 3.3621-22.588 0-7.2613-1.1746-8.8037-2.728-9.0651 0.12888 3e-3 0.25979 5e-3 0.39119 9e-3 2.2832 0.28716 3.9992 1.875 3.9992 9.0558 0 8.2222-2.2494 22.588-5.0245 22.588 3.9257 0 7.1081-14.366 7.1081-22.588 0-7.0604-2.3475-8.7128-5.4963-9.0392 2.2938 0.0813 4.7973 0.45461 6.1397 3.6778 1.3773 4.6686 0.20964 11.191-0.84801 15.721-1.2394 4.4434-2.9918 11.045-6.0565 12.128 5.4662-1.2837 9.7674-14.665 9.7674-22.488 0-7.0073-3.4525-8.688-8.1013-9.032 3.1469 0.0958 6.5251 0.53155 8.3587 3.6706 1.9317 4.6686 0.29382 11.191-1.1896 15.721-1.7382 4.4434-4.1958 11.045-8.4941 12.128 7.6665-1.2837 13.699-14.665 13.699-22.488 0-8.0534-6.399-9.0695-14.388-9.108v-0.15295h1.1338c0.82955 0 1.4976-0.66802 1.4976-1.4976s-0.66803-1.4971-1.4976-1.4971h-1.1338v-5.5289c0-4.7259 4.8748-6.9839 8.7028-9.8873 3.828-2.9033 6.4022-6.4371 1.3245-13.327-2.5897-3.5137-8.5261-5.9612-15.865-7.6481-7.3391-1.6869-16.108-2.6293-24.547-3.144-8.4391-0.51472-16.557-0.6001-22.565-0.55705-6.0072 0.043-9.9043 0.21444-9.9043 0.21444l0.0233 0.12144c-1.2926-0.51369-3.0701-1.2874-4.1362-1.8257-1.6689-0.84272-3.967-1.0637-5.5805-0.53692-1.1847 0.38679-4.9136 0.035-5.7428-0.54158-0.65336-0.45434-0.65428-0.47535-0.14056-2.3032 0.4685-1.6667 0.47391-1.9899 0.0599-3.3548-0.90301-2.9772-0.4355-3.7295 1.6144-2.5978 1.3073 0.7217 1.6136 1.1969 1.6206 2.5192 7e-3 1.3086 0.9197 2.3858 1.7802 2.1022 0.32903-0.10843 0.39596-0.40876 0.25786-1.1503-0.10267-0.55189-0.057-1.0717 0.10077-1.1555 0.15783-0.08371 0.94652 0.5043 1.7534 1.3069 1.5213 1.5132 2.2169 1.7592 2.9182 1.0335 0.35385-0.36613 0.2942-0.49808-0.42633-0.9488-1.0529-0.65865-0.79161-1.0736 0.54106-0.85886 1.2912 0.20804 1.8025-0.33716 0.83405-0.88934-0.85137-0.48543-0.84602-0.74467 0.0191-0.93895 0.77-0.17293 0.47372-0.58923-0.5302-0.74467-0.67143-0.10396-1.0044-0.92284-0.53795-1.3234 0.36801-0.31604 3.0458 1.1886 3.2897 1.8485 0.0944 0.2554 1.0751 1.2936 2.1797 2.3068 1.1046 1.0132 2.2611 2.259 2.5699 2.7683 0.44998 0.74226 0.76988 0.94279 1.6118 1.0108l1.0506 0.08475-1.1901-1.0526c-0.65472-0.57912-1.1304-1.2094-1.0563-1.4004 0.0946-0.24381 0.36983-0.14576 0.92346 0.3297 1.2731 1.0933 3.0272 1.7324 5.3304 1.942 1.1849 0.10782 2.3319 0.32094 2.5492 0.47387 0.27672 0.19481 0.7383 0.1909 1.5405-0.01296 2.0037-0.50911 2.6534-0.55261 4.0726-0.27493 1.5243 0.29826 3.8034 0.49652 5.6813 0.49353 0.66749 0 1.529 0.17574 1.9146 0.39275 0.78562 0.44204 1.9554 0.52808 1.9554 0.14364 0-0.13811-0.46191-0.55359-1.0258-0.92295-0.9248-0.60574-1.3357-0.67746-4.1935-0.73327-1.8867-0.0368-3.3724-0.19148-3.6732-0.38243-1.7407-1.1051 4.5172-1.3384 7.014-0.26146 2.2247 0.95959 4.6951 2.4832 5.6746 3.5 1.3196 1.3699 2.8278 1.0849 1.6051-0.30334-1.255-1.4249 0.15635-1.6705 2.8536-0.49662 2.4553 1.0686 2.9141 1.1207 2.7807 0.31419-0.071-0.42974-0.61207-0.81211-1.9466-1.3751-1.5774-0.66548-2.2206-0.78187-4.3822-0.79375-2.2024-0.01217-2.6228-0.0916-3.2246-0.60825-0.62638-0.53779-0.64684-0.63349-0.21291-1.0061 0.39726-0.34118 0.61965-0.3569 1.2981-0.09147 0.6938 0.27146 0.9123 0.24807 1.4283-0.15296 0.4557-0.3542 0.86309-0.4272 1.6185-0.2899 1.9363 0.35184 3.9345 0.43415 4.4778 0.18447 0.37376-0.17177 0.7899-0.13631 1.3126 0.11216 1.1379 0.54089 1.816 0.45932 2.2004-0.26511 0.18903-0.35629 0.63671-0.68371 0.99477-0.7276 0.35805-0.04389 0.65113-0.25815 0.65113-0.47646 0-0.32086-0.41263-0.38515-2.1565-0.33486-1.1862 0.03421-2.6812 0.20325-3.3218 0.37568-1.3805 0.37166-1.7063 0.17492-1.8283-1.1033l-0.0878-0.92191 3.1579 0.04292 3.158 0.04339v-0.78859c0-0.69591 0.081-0.7666 0.68885-0.60098 0.37882 0.10327 1.203 0.54245 1.8314 0.97615 0.86791 0.59891 1.332 0.74803 1.9301 0.6191 0.96992-0.20907 0.99496-0.59259 0.094-1.4371l-0.69298-0.65008 1.2325 0.19844c0.67782 0.10914 1.7866 0.23807 2.4644 0.28628 0.67781 0.04821 2.034 0.29308 3.0138 0.54467 1.3291 0.34129 1.8707 0.38121 2.1316 0.15711 0.38179-0.32787 0.47618-0.28591-1.91-0.84389-0.76255-0.17833-1.903-0.50657-2.5342-0.72967-0.80008-0.28284-1.64-0.35637-2.773-0.24236-1.7864 0.17973-4.7873-0.35922-5.2136-0.93639-0.45396-0.6146-0.30659-1.077 0.27647-0.86868 0.29655 0.10594 1.2322 0.24254 2.0795 0.30387 1.4972 0.10829 3.3668 0.46617 4.6214 0.88416 1.5922 0.53049 3.33 0.79235 5.2731 0.79634 2.1903 4e-3 3.71 0.33999 5.054 1.1162 0.71178 0.41116 0.88908 0.4142 2.1528 0.0403 0.75758-0.22418 1.7669-0.3407 2.2433-0.2589 0.50553 0.08681 0.79198 0.04519 0.68729-0.10025-0.10713-0.14893 0.41345-0.19754 1.294-0.12144 3.5431 0.30644 8.441 0.54904 10.711 0.53073l2.4598-0.01958 0.15917-0.77203c0.0874-0.42455 0.31583-0.8169 0.50797-0.87178 0.5189-0.14822 1.4078 0.72517 1.2036 1.1823-0.0974 0.21796-0.0185 0.5598 0.17465 0.75964 0.53488 0.55346 1.5414 0.44307 1.7343-0.19018 0.14566-0.47837 0.32975-0.53216 1.3576-0.39688 0.654 0.08612 1.7432 0.2282 2.421 0.31628 1.2871 0.16719 1.591-0.10409 0.77049-0.68887-0.67209-0.479-0.58335-0.64609 0.59994-1.1307 1.7874-0.73194 3.9135-0.84108 6.1691-0.31679 1.1114 0.25831 2.0986 0.40251 2.1937 0.32091 0.095-0.0816 0.61233-0.0254 1.1503 0.12454 1.0292 0.28694 4.5614 0.74583 6.3412 0.82373 0.6065 0.02651 1.1053-0.09358 1.1813-0.28474 0.0791-0.19907-0.14066-0.33073-0.55192-0.33073-1.8992 0-3.7074-0.91017-3.2024-1.6118 0.063-0.08752 0.21095-0.14827 0.39378-0.18653l1.0165 0.0093c0.19465 0.04289 0.3547 0.10845 0.42166 0.20153 0.31092 0.43198 1.5316 0.30559 2.1462-0.17828l21.54 0.19481c2.801 0.45704 6.3722 1.1855 9.7922 2.3094 7.1365 2.3452 13.578 6.3617 10.766 13.262-2.8132 6.9021-11.651 9.39-20.049 11.494-4.1991 1.0522-8.2999 1.9973-11.414 3.3455-3.1139 1.3482-5.1894 3.1074-5.301 5.7004l-0.30181 7.0104h-1.4324c-0.94943 0-1.7136 0.76417-1.7136 1.7136 0 0.94941 0.76417 1.7141 1.7136 1.7141h3.7393c0.9494 0 1.7136-0.76469 1.7136-1.7141 0-0.94943-0.7642-1.7136-1.7136-1.7136h-0.98393l0.30128-7.0021c0.10715-2.4896 2.027-4.0904 4.9568-5.3588 2.9298-1.2685 6.9228-2.1973 11.147-3.2556 8.4476-2.1168 17.768-4.7975 20.643-11.851 2.8758-7.0556-3.8109-11.309-11.223-13.745-2.4685-0.81121-5.0113-1.421-7.3133-1.8789l21.822 0.1974-0.11629-9.8852c0.0702-0.12967 0.11473-0.26464 0.11473-0.37206 0-0.08639-0.0347-0.15039-0.12142-0.19637l-0.31472-26.738s-0.55258 0.14698-0.81804 0.2186l-3.9377-17.377-2.6805 0.51985 0.47077 2.0784-27.686 6.7329-0.72245-3.0525-3.1445 0.59891 4.2907 18.137c-11.219 2.2909-25.064 4.8955-41.334 7.5556 0.51313-0.86955 0.73421-1.9175 0.54983-2.9916-0.36133-2.1048-2.1557-3.6047-4.2106-3.6701-0.29356-9e-3 -0.59218 0.01032-0.89297 0.06202-2.405 0.41561-4.0207 2.6999-3.608 5.1036 0.17862 1.0404 0.70753 1.9316 1.4438 2.5761-5.2719 0.83169-10.782 1.6646-16.513 2.4918 0.34044-0.76888 0.46676-1.643 0.31367-2.5347-0.36132-2.1048-2.1544-3.6051-4.2085-3.6706-0.29344-9e-3 -0.59227 0.01085-0.89296 0.06255-2.4057 0.41664-4.0217 2.6999-3.6091 5.1035 0.13648 0.79502 0.47996 1.5005 0.96169 2.0779-33.072 4.3863-43.31 2.3667-60.161-2.699a0.84626 0.84626 0 0 0 0.0687-0.1478 0.84626 0.84626 0 0 0-0.0579-0.68731l1.2201-3.4799a3.0089 3.0089 0 0 0 1.7255-1.7953 3.0089 3.0089 0 0 0 0.0103-0.03151 4.3991 2.7188 43.193 0 0 4.6318 0.65577 4.3991 2.7188 43.193 0 0-1.3462-4.993 4.3991 2.7188 43.193 0 0-0.21394-0.19225 1.3084 2.117 19.001 0 0 0.0486-0.12867 1.3084 2.117 19.001 0 0-0.54777-2.4278 1.3084 2.117 19.001 0 0-1.8045 1.2743 4.3991 2.7188 43.193 0 0-0.77463-0.13642 1.7865 1.7865 0 0 0-1.1927-1.7115 1.7865 1.7865 0 0 0-1.0175-0.04807 3.1029 3.1029 0 0 0-1.6666-1.3911 3.1029 3.1029 0 0 0-1.8144-0.07027 1.4104 1.4104 0 0 0-0.67489-0.50334 1.4104 1.4104 0 0 0-0.23307-0.05993h-5.2e-4a1.4104 1.4104 0 0 0-1.5136 0.79994 1.3164 1.3164 0 0 0-0.63613-0.47956 1.3164 1.3164 0 0 0-1.6779 0.80666 1.3164 1.3164 0 0 0-0.0481 0.18243 1.3164 1.3164 0 0 0-0.42684-0.24908 1.3164 1.3164 0 0 0-1.6774 0.80666 1.3164 1.3164 0 0 0-0.0605 0.62219 2.7268 2.7268 0 0 0-1.1033 0.53692 2.7268 2.7268 0 0 0-0.54106-0.88212 1.3164 1.3164 0 0 0 0.30386-0.5457 1.3164 1.3164 0 0 0-0.92294-1.6169 1.3164 1.3164 0 0 0-0.49248-0.03773 1.3164 1.3164 0 0 0 0.0641-0.17724 1.3164 1.3164 0 0 0-0.92294-1.617 1.3164 1.3164 0 0 0-0.79582 0.03307 1.4104 1.4104 0 0 0-0.79168-1.5182h-5.3e-4a1.4104 1.4104 0 0 0-0.22582-0.08321 1.4104 1.4104 0 0 0-0.84129 0.03101 3.1029 3.1029 0 0 0-1.5332-0.97256 3.1029 3.1029 0 0 0-2.1616 0.19794 1.7865 1.7865 0 0 0-0.86455-0.53795 1.7865 1.7865 0 0 0-1.9544 0.7312 2.7188 4.3991 81.419 0 0-0.71468-0.32763 1.3084 2.117 15.611 0 0-0.7612-2.0743 1.3084 2.117 15.611 0 0-1.8299 1.6872 1.3084 2.117 15.611 0 0-0.0331 0.13332 2.7188 4.3991 81.419 0 0-0.28526 0.03667 2.7188 4.3991 81.419 0 0-1.2852 0.32351 4.3991 2.7188 38.597 0 0-0.75499-0.70281 4.3991 2.7188 38.597 0 0-0.22841-0.17465 1.3084 2.117 14.405 0 0 0.0382-0.13179 1.3084 2.117 14.405 0 0-0.74052-2.3761 1.3084 2.117 14.405 0 0-1.6971 1.4149 4.3991 2.7188 38.597 0 0-0.78238-0.0739 1.7865 1.7865 0 0 0-1.3265-1.6108 1.7865 1.7865 0 0 0-1.018 0.0336 3.1029 3.1029 0 0 0-1.7725-1.2526 3.1029 3.1029 0 0 0-1.8138 0.07493 1.4104 1.4104 0 0 0-0.71314-0.44752 1.4104 1.4104 0 0 0-0.23719-0.04133h-1e-3a1.4104 1.4104 0 0 0-1.4449 0.91879 1.3164 1.3164 0 0 0-0.67231-0.42685 1.3164 1.3164 0 0 0-1.6076 0.93845 1.3164 1.3164 0 0 0-0.0336 0.18552 1.3164 1.3164 0 0 0-0.44545-0.21394 1.3164 1.3164 0 0 0-1.6077 0.93845 1.3164 1.3164 0 0 0-0.0103 0.62476 2.7268 2.7268 0 0 0-1.8216 1.9079 2.7268 2.7268 0 0 0 1.9441 3.33 2.7268 2.7268 0 0 0 0.21343 0.04599 1.3164 1.3164 0 0 0 0.031 0.13332l-0.9586 3.6489a0.84626 0.84626 0 0 0-0.43305 0.53692 0.84626 0.84626 0 0 0 0.26924 0.85783c-5.0196-1.0534-10.517-2.1267-16.578-3.2101-6.3336-1.1323-12.359-1.9626-18.093-2.5404v-3.3212a7.2847 7.2847 0 0 0 3.6427 0.98391 7.2847 7.2847 0 0 0 7.2843-7.2848 7.2847 7.2847 0 0 0-0.85576-3.4153 7.2847 7.2847 0 0 0 1.0216-3.7042 7.2847 7.2847 0 0 0-7.2848-7.2836 7.2847 7.2847 0 0 0-1.0713 0.08578 7.2847 7.2847 0 0 0-4.7232-1.7415 7.2847 7.2847 0 0 0-4.2788 1.3978 8.9497 8.9497 0 0 0-8.044-5.0519 8.9497 8.9497 0 0 0-1.3157 0.10544 8.9497 8.9497 0 0 0-5.8033-2.1394zm261.23 20.301 1.3338 5.8849-27.959 5.2017-1.0315-4.3604zm-274.44 0.52348a8.9497 8.9497 0 0 0 8.121 5.2116 8.9497 8.9497 0 0 0 4.6018-1.2852 8.9497 8.9497 0 0 0 0.07648 0.10697v5.4782c-8.776 0.08364-16.651 0.8014-23.671 1.9265v-5.964a7.2847 7.2847 0 0 0 3.6427 0.98391 7.2847 7.2847 0 0 0 7.229-6.458zm32.257 5.0085a7.2847 7.2847 0 0 0 0.05891 0.08784v5.2271c-5.8723-0.52853-11.424-0.78446-16.67-0.8165v-2.8597a8.9497 8.9497 0 0 0 4.4752 1.2087 8.9497 8.9497 0 0 0 5.9133-2.2422 7.2847 7.2847 0 0 0 2.4732 0.44236 7.2847 7.2847 0 0 0 3.7491-1.0475zm158.67 1.9663-7.7752 0.10594-17.622 3.0251 1.6965 9.3421 17.732-3.0442 0.17415 1.0134-17.723 3.0427 1.8128 9.9627 3.2768-0.60513c-0.12035-0.33076-0.21861-0.6754-0.28008-1.0335-0.5232-3.0476 1.5247-5.9446 4.5723-6.4678 3.0476-0.52321 5.941 1.5257 6.4642 4.5734 0.0598 0.34843 0.0847 0.69657 0.0786 1.0418l12.822-2.2014c-0.12003-0.32356-0.2171-0.66191-0.27647-1.0077-0.52319-3.0476 1.5296-5.9455 4.5754-6.4683 3.0467-0.52303 5.9446 1.5247 6.4678 4.5723 0.0598 0.34843 0.0812 0.69728 0.076 1.0423l5.3635-0.92086-0.80822-4.7051-1.8583 0.31935c-3e-3 -0.02037-1.4e-4 -0.04815-4e-3 -0.06668l-0.9617-5.6022s-0.17095-1.267-2.4009-0.88418c-2.2238 0.38177-11.577 1.9529-11.577 1.9529zm-107.4 0.3788a0.6582 0.6582 0 0 1 0.0656 0.0026 0.6582 0.6582 0 0 1 0.11058 0.01905 0.6582 0.6582 0 0 1 0.46923 0.8041 0.6582 0.6582 0 0 1-0.80357 0.46921 0.6582 0.6582 0 0 1-0.46974-0.8041 0.6582 0.6582 0 0 1 0.62787-0.49091zm1.5916 0.41857a0.6582 0.6582 0 0 1 0.0656 0.0026 0.6582 0.6582 0 0 1 0.11059 0.01958 0.6582 0.6582 0 0 1 0.46922 0.80357 0.6582 0.6582 0 0 1-0.0677 0.16227 2.7188 4.3991 81.419 0 0-0.42582 0.31266 0.6582 0.6582 0 0 1-0.31057-0.0056 0.6582 0.6582 0 0 1-0.46922-0.80357 0.6582 0.6582 0 0 1 0.62786-0.49093zm-1.2346 0.06874a0.28209 0.28209 0 0 0-0.26923 0.21032 0.28209 0.28209 0 0 0 0.20154 0.34467 0.28209 0.28209 0 0 0 0.34416-0.201 0.28209 0.28209 0 0 0-0.20102-0.3447 0.28209 0.28209 0 0 0-0.0475-0.0087 0.28209 0.28209 0 0 0-0.0279 0zm0.8878 0.19584a0.28209 0.28209 0 0 0-0.26923 0.21032 0.28209 0.28209 0 0 0 0.20102 0.3447 0.28209 0.28209 0 0 0 0.34468-0.20103 0.28209 0.28209 0 0 0-0.20102-0.34467 0.28209 0.28209 0 0 0-0.0475-0.0087 0.28209 0.28209 0 0 0-0.0279 0zm119.37 0.39531c-0.0938-0.0029-0.1891 4e-3 -0.28525 0.02011l-6.7603 1.1606c-0.76918 0.13205-1.2855 0.86175-1.1534 1.6309 0.1319 0.7683 0.86172 1.2834 1.6309 1.1514l6.7577-1.1601c0.77141-0.1297 1.2881-0.86069 1.156-1.6299-0.11554-0.67302-0.6889-1.1522-1.3457-1.1731zm72.337 0.06927 0.7488 3.3052c-4.6556 1.1895-13.985 3.4653-27.634 6.3035l-1.0439-4.4127zm-187.88 0.04083a0.6582 0.6582 0 0 1 0.19534 0.02275 0.6582 0.6582 0 0 1 0.10542 0.03876 0.6582 0.6582 0 0 1 0.35605 0.76996 0.6582 0.6582 0 0 1-0.80874 0.46096 0.6582 0.6582 0 0 1-0.46095-0.80822 0.6582 0.6582 0 0 1 0.61288-0.48419zm100.56 0.3085 2.6164 5.6911-5.9666 1.0242-1.0242-5.9645zm-98.969 0.12504a0.6582 0.6582 0 0 1 0.19534 0.02328 0.6582 0.6582 0 0 1 0.10542 0.03876 0.6582 0.6582 0 0 1 0.35553 0.76946 0.6582 0.6582 0 0 1-0.80822 0.46146 0.6582 0.6582 0 0 1-0.46147-0.8082 0.6582 0.6582 0 0 1 0.6134-0.48474zm-1.2061 0.0217a0.28209 0.28209 0 0 0-0.2713 0.20772 0.28209 0.28209 0 0 0 0.19792 0.34623 0.28209 0.28209 0 0 0 0.34623-0.19741 0.28209 0.28209 0 0 0-0.15244-0.3302 0.28209 0.28209 0 0 0-0.045-0.0164 0.28209 0.28209 0 0 0-0.0754-0.0098zm0.86662 0.2744a0.28209 0.28209 0 0 0-0.2713 0.20772 0.28209 0.28209 0 0 0 0.19792 0.34676 0.28209 0.28209 0 0 0 0.34623-0.19794 0.28209 0.28209 0 0 0-0.15245-0.3297 0.28209 0.28209 0 0 0-0.045-0.0164 0.28209 0.28209 0 0 0-0.0754-0.0098zm98.076 0.75136a2.1878 2.1878 0 0 0-2.1875 2.188 2.1878 2.1878 0 0 0 2.1875 2.1875 2.1878 2.1878 0 0 0 2.188-2.1875 2.1878 2.1878 0 0 0-2.188-2.188zm-104.68 2.019a4.3991 2.7188 38.597 0 0 3.0313 1.002 2.7188 4.3991 81.419 0 0 2.1766 0.22635 3.0089 3.0089 0 0 0-9e-3 0.03151 3.0089 3.0089 0 0 0 0.39998 2.4582l-0.97204 3.5564a0.84626 0.84626 0 0 0-0.43821 0.53279 0.84626 0.84626 0 0 0 0.0966 0.66765c-2.2379-0.57118-4.598-1.1534-7.1019-1.7446a0.84626 0.84626 0 0 0 0.40825-0.52401 0.84626 0.84626 0 0 0-0.11317-0.68059l0.93741-3.5657a3.0089 3.0089 0 0 0 1.5761-1.928 3.0089 3.0089 0 0 0 8e-3 -0.03204zm-11.891 0.11729a1.3164 1.3164 0 0 0 0.66043 0 1.8806 1.8806 0 0 0 0.45268 0.94205l-0.65991 2.512a0.84626 0.84626 0 0 0-0.43304 0.53692 0.84626 0.84626 0 0 0 0.0661 0.60047c-0.44615-0.09573-0.89316-0.19177-1.3472-0.28784a0.84626 0.84626 0 0 0 0.57774-0.59478 0.84626 0.84626 0 0 0-0.11266-0.68059zm3.8762 0.98237a3.197 3.197 0 0 0 0.82889 0.35142 3.197 3.197 0 0 0 2.0557-0.14886 3.0089 3.0089 0 0 0 0.41289 0.37364l-0.85266 3.2432a0.84626 0.84626 0 0 0-0.43253 0.53742 0.84626 0.84626 0 0 0 0.0398 0.54467c-1.4749-0.33658-2.9905-0.67543-4.5615-1.017a0.84626 0.84626 0 0 0 0.29043-0.44545 0.84626 0.84626 0 0 0-0.11266-0.68059l0.58136-2.2133a1.8806 1.8806 0 0 0 1.7503-0.5452zm4.332 1.0775a3.0089 3.0089 0 0 0 0.85007 0.09559l-0.77979 2.9667a0.84626 0.84626 0 0 0-0.43254 0.53692 0.84626 0.84626 0 0 0 0.12351 0.69609c-0.23562-0.05498-0.46833-0.10975-0.70642-0.16486a0.84626 0.84626 0 0 0 0.262-0.42116 0.84626 0.84626 0 0 0-0.11265-0.68056zm108.91 1.5834 0.11317 0.66043-2.1213 0.3643-0.11317-0.66043zm-98.7 0.85318a3.0089 3.0089 0 0 0 0.78393 0.34208l-0.82631 3.021a0.84626 0.84626 0 0 0-0.4377 0.53279 0.84626 0.84626 0 0 0-7e-3 0.41704c-0.20483-0.05331-0.40847-0.10671-0.61547-0.16021a0.84626 0.84626 0 0 0 0.39946-0.51263 0.84626 0.84626 0 0 0-0.10593-0.68162zm2.4748 0.3085a3.197 3.197 0 0 0 1.7058 1.1576 3.197 3.197 0 0 0 0.89348 0.1106 1.8806 1.8806 0 0 0 1.2423 1.3472l-0.60358 2.2076a0.84626 0.84626 0 0 0-0.43821 0.53279 0.84626 0.84626 0 0 0-0.0284 0.19069c-1.3845-0.38298-2.7918-0.76843-4.2876-1.1638a0.84626 0.84626 0 0 0 0.19379-0.3488 0.84626 0.84626 0 0 0-0.10645-0.68162l0.8847-3.235a3.0089 3.0089 0 0 0 0.54415-0.11729zm25.618 0.46508a0.6582 0.6582 0 0 1 0.13125 0.0087 0.6582 0.6582 0 0 1 0.10853 0.02791 0.6582 0.6582 0 0 1 0.40359 0.83921 0.6582 0.6582 0 0 1-0.83923 0.40309 0.6582 0.6582 0 0 1-0.40307-0.8387 0.6582 0.6582 0 0 1 0.59893-0.44029zm0.3545 0.51469a0.28209 0.28209 0 0 0-0.25683 0.18862 0.28209 0.28209 0 0 0 0.17311 0.35967 0.28209 0.28209 0 0 0 0.35915-0.17261 0.28209 0.28209 0 0 0-0.1726-0.35965 0.28209 0.28209 0 0 0-0.0465-0.01243h-5.3e-4a0.28209 0.28209 0 0 0-0.0558-0.0042zm1.1984 0.02998a0.6582 0.6582 0 0 1 0.13126 0.0082 0.6582 0.6582 0 0 1 0.10852 0.02844 0.6582 0.6582 0 0 1 0.4036 0.8387 0.6582 0.6582 0 0 1-0.83923 0.4036 0.6582 0.6582 0 0 1-0.40308-0.83923 0.6582 0.6582 0 0 1 0.59893-0.43976zm-0.32917 0.23667a0.28209 0.28209 0 0 0-0.25684 0.18862 0.28209 0.28209 0 0 0 0.1726 0.35967 0.28209 0.28209 0 0 0 0.35967-0.17312 0.28209 0.28209 0 0 0-0.1726-0.35968 0.28209 0.28209 0 0 0-0.0465-0.01191 0.28209 0.28209 0 0 1-5.3e-4 0 0.28209 0.28209 0 0 0-0.0558-0.0037zm-16.41 0.25011a2.7268 2.7268 0 0 0 1.648 1.6077 2.7268 2.7268 0 0 0 0.20877 0.06305 1.3164 1.3164 0 0 0 0.0207 0.13539l-1.2485 3.5605a0.84626 0.84626 0 0 0-0.47439 0.50025 0.84626 0.84626 0 0 0-0.0367 0.41288c-1.243-0.3688-2.5366-0.74626-3.8762-1.1312a0.84626 0.84626 0 0 0 0.14315-0.28887 0.84626 0.84626 0 0 0-0.10594-0.68109l0.99477-3.6396a1.3164 1.3164 0 0 0 0.0935-0.09972 2.7268 2.7268 0 0 0 0.20825 0.06718 2.7268 2.7268 0 0 0 2.4247-0.50644zm-4.5558 0.5302a1.3164 1.3164 0 0 0 0.57206 0.3297l-0.82579 3.0205a0.84626 0.84626 0 0 0-0.43821 0.53329 0.84626 0.84626 0 0 0-0.0259 0.30128c-0.27167-0.07697-0.52303-0.15089-0.79892-0.22842a0.84626 0.84626 0 0 0 0.0744-0.18087 0.84626 0.84626 0 0 0-0.10645-0.68162l0.68523-2.5048a1.8806 1.8806 0 0 0 0.86351-0.58912zm67.693 1.8082c-0.0938-0.0029-0.18921 4e-3 -0.28525 0.02011-0.7683 0.1319-1.2835 0.8613-1.1519 1.6278l1.1606 6.7603c0.13189 0.7683 0.86106 1.2853 1.6294 1.1534 0.77006-0.13221 1.2851-0.86085 1.1529-1.6309l-1.1606-6.7603c-0.11528-0.67151-0.68883-1.1498-1.3451-1.1705zm-60.407 0.44598a1.3164 1.3164 0 0 0 0.65836 0.05374 1.8806 1.8806 0 0 0 0.37569 0.97512l-0.85886 2.4505a0.84626 0.84626 0 0 0-0.47439 0.50072 0.84626 0.84626 0 0 0-0.0424 0.19278c-0.27236-0.08202-0.53093-0.161-0.8077-0.24392a0.84626 0.84626 0 0 0 0.17105-0.28628 0.84626 0.84626 0 0 0-0.0579-0.68731zm95.978 0.82785c0.92786 0.03008 1.74 0.70943 1.9027 1.6573 0.18656 1.0867-0.5463 2.1187-1.6304 2.3048-1.0811 0.18743-2.1154-0.54292-2.3037-1.6294-0.18626-1.085 0.54601-2.119 1.6283-2.3048 0.13573-0.02328 0.27052-0.03223 0.40307-0.02791zm-92.193 0.46199a3.197 3.197 0 0 0 0.79789 0.41651 3.197 3.197 0 0 0 2.0614 0.0164 3.0089 3.0089 0 0 0 0.38085 0.40566l-1.1095 3.1647a0.84626 0.84626 0 0 0-0.47439 0.50025 0.84626 0.84626 0 0 0-0.0326 0.12711c-1.332-0.4069-2.7212-0.83071-4.161-1.2676a0.84626 0.84626 0 0 0 0.0496-0.11266 0.84626 0.84626 0 0 0-0.0579-0.68728l0.75706-2.1601a1.8806 1.8806 0 0 0 1.7885-0.40307zm4.2318 1.4211a3.0089 3.0089 0 0 0 0.83923 0.1633l-1.0144 2.8944a0.84626 0.84626 0 0 0-0.47439 0.50075 0.84626 0.84626 0 0 0-0.0455 0.23357c-0.10043-0.03051-0.20447-0.06231-0.30541-0.09303a0.84626 0.84626 0 0 0 5.3e-4 0 0.84626 0.84626 0 0 0 0.0217-0.05583 0.84626 0.84626 0 0 0-0.0579-0.68728zm64.498 2.1451c0.92684 0.0303 1.7395 0.70945 1.9022 1.6573 0.18656 1.0867-0.54792 2.1191-1.6294 2.3048-1.0864 0.18833-2.1203-0.54261-2.3068-1.6294-0.18626-1.085 0.54646-2.1185 1.6314-2.3048 0.13551-0.02328 0.27015-0.03231 0.40256-0.02791zm-189.33 19.34 0.555 0.0045c-0.09801 0.10081-0.22512 0.18772-0.34933 0.22326-0.19603 0.05615-0.26492-0.03503-0.20567-0.22788zm7.4088 0.06718 1.2004 0.01085c0.08591 0.21018-0.02154 0.57078-0.3483 1.0526-0.61368 0.90488-1.7816 1.3051-2.0267 0.69453-0.21987-0.54758 0.36429-1.4103 1.1746-1.758zm2.4717 0.02223 1.5844 0.01455c0.37024 0.11591 0.77161 0.2531 1.1911 0.42169 1.123 0.45133 2.3384 0.81682 2.7006 0.81182 0.73133-0.0098 1.3988-0.4354 1.8939-1.1813l7.151 0.06458c1.9645 0.75978 2.9446 0.79891 3.3068 0.02998l3.9439 0.03567c-0.03282 0.19725-0.04298 0.3933-0.02326 0.5643 0.08186 0.70967-0.05028 0.9343-0.74982 1.2738-0.82129 0.3986-0.87387 0.38613-1.5916-0.38137-0.72898-0.77952-0.75847-0.78586-1.6159-0.35502-1.4125 0.70977-3.036 0.87061-3.8494 0.38137-0.97583-0.58692-1.6031-0.53094-2.6675 0.23823-1.1139 0.80486-1.2904 0.81198-2.3487 0.09716l-0.83458-0.56377-0.8263 0.52451c-0.938 0.59555-3.385 0.9833-4.0132 0.63614-0.26242-0.14502-0.34001-0.44061-0.20929-0.79428 0.14793-0.40026 0.05541-0.61391-0.31936-0.73742-0.37074-0.12216-0.78417 0.0943-1.3906 0.72864-0.7941 0.83066-0.90291 0.86889-1.3643 0.47749-0.4892-0.41502-0.40338-1.719 0.03204-2.2867zm23.221 0.21034 0.62167 0.0056c0.0021 0.02117 0.0078 0.03744 0.0078 0.06151 0 0.21259-0.22099 0.54412-0.49144 0.73689-0.42933 0.30599-0.47808 0.27085-0.38499-0.2775 0.03557-0.20955 0.13142-0.39164 0.24702-0.52657zm1.8753 0.01693 1.5637 0.01402c-0.07018 0.10782-0.12186 0.2136-0.15141 0.3147-0.18652 0.63812-0.88833 1.0736-1.2413 0.77049-0.07803-0.06702-0.14435-0.52231-0.17105-1.0992zm3.3564 0.02998 2.6686 0.02434c-1.0475 0.72816-0.26523 1.2948 1.4185 0.74464 0.98959-0.32332 1.7702-0.55528 2.404-0.71001l2.6386 0.02381c1.2363 0.6073 0.64993 1.5665-1.0754 1.3198-0.62606-0.08951-1.702 5e-3 -2.4893 0.21754-0.76255 0.20616-1.5943 0.43458-1.8485 0.50747-0.58269 0.16724-1.4816-0.02408-2.313-0.49197-0.55306-0.3112-0.74301-0.3034-1.3369 0.05376-0.38062 0.22894-0.89162 0.35026-1.1358 0.26974-0.36731-0.12105-0.33202-0.30962 0.20619-1.093 0.21289-0.30985 0.50678-0.60153 0.863-0.86609zm13.415 0.12195 2.5477 0.02275c-0.52691 0.44556-2.2017 0.42323-2.5477-0.02275zm20.614 0.18656 0.38654 0.0037c0.0258 0.13698-0.15096 0.54959-0.43046 0.98703-0.39698 0.62129-1.2187 1.1868-2.7104 1.866-1.1773 0.53607-2.4352 0.98219-2.7957 0.99219-0.76515 0.02064-1.4166-0.55023-1.2247-1.0733 0.0735-0.20037 0.21487-0.68236 0.31368-1.0712 0.12893-0.50744 0.46256-0.78084 1.1813-0.9679 1.7045-0.44355 3.004-0.57444 3.004-0.30282 0 0.14187-0.24295 0.26755-0.5395 0.27906-0.29654 0.01138-0.3793 0.07699-0.18397 0.14573 0.19532 0.06869 0.9983-0.13457 1.7839-0.45167 0.47632-0.19225 0.91599-0.33578 1.2154-0.40669zm14.691 0.13282 1.2873 0.01191c-0.13268 0.13944-0.25306 0.28281-0.3545 0.43045-0.67381 0.98073-1.173 1.1514-1.464 0.50025-0.0737-0.16489 0.10835-0.48379 0.53124-0.94258zm2.9781 0.02685 5.9206 0.05376c-0.17165 0.09533-0.35232 0.20659-0.54984 0.34933-1.3653 0.98655-2.7651 1.3597-4.4943 1.1973-1.7365-0.16306-1.9867-0.46106-1.14-1.3591 0.0894-0.09483 0.17554-0.17185 0.26355-0.24133zm7.3282 0.06668 1.4433 0.01297c-0.67944 0.5484-1.1747 0.57433-1.4066 0.0553-0.011-0.02461-0.0242-0.04606-0.0367-0.06821zm2.6381 0.02381 5.4271 0.04911c-8e-3 0.03625-0.0189 0.06993-0.0393 0.09819-0.25578 0.35542-2.6057 0.59367-3.1936 0.32348-0.35397-0.16269-0.8804-0.12036-1.5658 0.12713-1.9121 0.69043-2.164 0.26509-0.62838-0.5979zm20.274 0.18346 1.7105 0.01561c-0.18056 0.45924-0.4856 1.106-0.86661 1.805-0.19072 0.34991-0.79263 0.79642-1.3379 0.99219-0.54529 0.19579-1.2764 0.35605-1.6242 0.35605h-0.63201l0.61185-1.0299c0.43446-0.73131 1.3121-1.5498 2.1384-2.1389zm17.452 0.15812 3.206 0.029c0.44869 0.15785 0.82032 0.33965 0.9865 0.5116 0.18778 0.19431 0.791 0.35295 1.3405 0.35295 0.94059 0 2.6226 0.84127 2.6226 1.3115 0 0.118-0.27709 0.27686-0.61599 0.35295-0.45999 0.10332-0.61713 0.36227-0.62063 1.0227-2e-3 0.48657-0.088 1.1526-0.19017 1.48-0.12544 0.40198-0.41932 0.59531-0.90537 0.59531-0.56739 0-0.78653-0.2064-1.0335-0.97462-0.20401-0.63439-0.20791-1.0828-0.0124-1.2852 0.51524-0.53314-0.78192-1.5936-2.9342-2.3988-1.1441-0.42804-1.7572-0.75938-1.8433-0.99737zm9.7911 0.0889 1.8888 0.01693c0.0689 0.23093 0.0909 0.42272 0.0284 0.50954-0.32285 0.4486-0.8402 0.30721-1.9172-0.52657zm-33.624 0.01852c0.16296-0.02567 0.27587 0.06839 0.18345 0.30644-0.0671 0.17283-0.28651 0.3615-0.48783 0.4191-0.22508 0.0644-0.29396-0.05649-0.1788-0.31419 0.10748-0.24045 0.32021-0.38574 0.48318-0.41135zm-49.87 0.01243c0.31322 0.0164 0.52038 0.17603 0.52038 0.47334 0 0.92774-1.2085 1.8673-2.9673 2.3063-1.7059 0.4259-2.402 1.0365-1.6412 1.4402 0.24857 0.13192 0.87894 0.01296 1.5963-0.30128 1.1848-0.51906 1.7805-0.4817 1.7792 0.11163-8e-4 0.34491-2.9655 1.7676-3.7011 1.7756-0.7742 9e-3 -4.4628 1.9846-4.4628 2.3906 0 0.65632 1.3767 0.59071 2.637-0.12557 0.66065-0.37547 1.3426-0.68265 1.5157-0.68265 0.72041 0 0.22556 1.0268-1.0568 2.1926-1.3704 1.2457-1.9034 1.413-3.1347 0.986-0.64663-0.22426-1.3477-1.4819-1.3477-2.4169 0-0.26487 0.85291-1.2117 1.8955-2.1043 1.575-1.3484 1.9428-1.5513 2.1725-1.1989 0.15201 0.23328 0.48168 0.42426 0.73277 0.42426 0.6812 0 0.89719-0.77211 0.31832-1.1374-0.44862-0.28308-0.36809-0.4414 0.73174-1.4428 1.2729-1.159 1.4545-1.506 0.9338-1.7823-0.46066-0.2445-1.2318 0.21971-3.0877 1.8593-2.8548 2.5221-3.1612 2.7678-3.4551 2.7678-0.15625 0 2e-3 -0.34576 0.35347-0.76843 0.35044-0.42262 0.63717-0.92713 0.63717-1.1209 0-0.77978 1.6661-3.1542 2.2877-3.2602 2.2415-0.38211 3.2041-0.38383 3.5677-0.0077 0.48453 0.50173 1.2534 0.50369 2.019 0.0066 0.42345-0.27506 0.84276-0.40145 1.156-0.38497zm87.347 0.0037 0.7736 0.0071c-0.27688 0.24905-0.49864 0.23876-0.7736-0.0071zm2.5239 0.02275 1.4635 0.01349c-0.0869 0.17521-0.26208 0.34121-0.52038 0.4599-0.70008 0.32181-1.2558 0.35542-1.2464 0.07546 5e-3 -0.14748 0.13046-0.34885 0.30334-0.5488zm13.093 0.11885 2.3063 0.02064c0.98707 0.25154 1.9502 0.7262 2.2893 1.2025 0.23888 0.33557 0.22371 0.60624-0.0543 0.98859-0.21059 0.28956-0.38292 0.7457-0.38292 1.0134 0 0.26765-0.34635 0.76615-0.76998 1.1079-0.44395 0.35819-0.7705 0.91718-0.7705 1.3193 0 1.2532-1.006 1.8518-3.1698 1.8862-1.0525 0.01667-2.6496 0.06689-3.5496 0.11163-1.0567 0.05249-1.676-0.02871-1.7467-0.22894-0.67457-1.9117-0.34312-2.3334 1.1927-1.5183 0.90106 0.47826 1.0827 0.49863 1.4108 0.15917 0.30912-0.31988 0.1932-0.53306-0.64647-1.1917-0.56243-0.44117-1.3182-0.80203-1.6795-0.80203-0.91013 0-2.3934-1.5553-1.9353-2.0293 0.52212-0.54028 0.83382-0.4373 2.1001 0.69453 1.163 1.0395 1.8053 1.1737 1.2346 0.25786-0.70918-1.138 1.4893-0.86855 3.0158 0.36949 0.70351 0.57052 1.0991 0.72901 1.3276 0.53279 0.22849-0.19624-0.16166-0.62063-1.31-1.4247-0.89949-0.62984-1.7607-1.2363-1.9136-1.3477-0.15286-0.11142 0.0927-0.34745 0.54519-0.52451 0.73153-0.28623 0.89814-0.25098 1.5095 0.31522l0.68782 0.63664 0.0966-0.8568c0.0407-0.36158 0.0817-0.57063 0.21239-0.69194zm3.7088 0.03358 1.9606 0.01773c0.0351 0.11589-0.0625 0.23066-0.28836 0.42786-0.42696 0.37256-0.53706 0.37274-1.155 0-0.2073-0.1247-0.39161-0.28885-0.51728-0.44648zm4.8426 0.04395 2.8887 0.02593c0.72698 0.29379 1.0568 0.79391 0.72709 1.3229-0.24532 0.39367-0.203 0.67895 0.17363 1.1726 0.66026 0.86537 0.35482 1.2023-1.0325 1.14-0.62818-0.0282-1.5577 0.02593-2.066 0.12038-1.9884 0.36946-4.0408-1.3057-2.2836-1.864 0.57434-0.18246 0.59122-0.24162 0.1602-0.5488-0.37254-0.26551-0.40759-0.46413-0.15451-0.87024 0.32575-0.52271 0.3328-0.52239 1.0149 0.02791 0.71386 0.57592 1.5123 0.79518 0.86197 0.23667-0.3929-0.3374-0.48548-0.59351-0.28991-0.76324zm-47.609 0.0217c1.7828 0 2.2312 0.34666 1.6521 1.2759-0.26951 0.43246-0.64864 0.52348-2.1807 0.52348-1.705 0-1.8542-0.04709-1.8542-0.5824 0-0.90847 0.60475-1.217 2.3828-1.217zm-10.289 0.02894c0.67684-0.0026 0.62271 0.30853-0.12609 1.126-0.85781 0.93649-1.2693 0.87836-1.1524-0.16277 0.0805-0.71652 0.23761-0.87381 0.94361-0.94361 0.12665-0.01244 0.23817-0.01931 0.33487-0.01958zm73.333 0.08887 4.0127 0.0367c-0.0458 0.07255-0.0885 0.14237-0.14366 0.22273-0.69114 1.0059-1.144 1.1046-2.9771 0.65008-0.83933-0.20812-1.0934-0.55748-0.89193-0.9095zm5.6865 0.05167 1.6268 0.01455c0.11586 0.09663 0.23673 0.20045 0.37878 0.32917 0.62364 0.56518 1.1338 1.0982 1.1338 1.1839 0 0.0857-0.61381 0.15552-1.3642 0.15552-1.9131 0-2.6404-0.77338-1.7751-1.6831zm4.0189 0.03617 7.197 0.06511c-0.2984 0.4041-1.016 0.90064-1.8314 1.1932-0.86 0.3085-1.1639 0.30551-2.0758-0.0217-1.4199-0.50948-1.6775-0.48432-1.4857 0.14571 0.20677 0.679-0.23205 0.67236-1.2557-0.01905-0.78196-0.52824-0.9656-0.89998-0.54828-1.3632zm18.539 0.16796 4.7336 0.04289c-0.9521 0.10329-2.2931 0.21923-3.1244 0.26614-1.2992 0.07334-1.5685 0.03876-1.6092-0.30904zm6.8316 0.06202 2.9895 0.02685c-0.18542 0.09305-0.37828 0.1597-0.58913 0.19947-0.58832 0.11094-1.0923 0.42823-1.2992 0.81804-0.34867 0.65717-0.56711 0.69241-2.3952 0.38656-1.0783-0.18042-1.0787-0.18047-0.3085-0.47284 0.42362-0.16084 1.0224-0.36081 1.3296-0.44442 0.31726-0.08631 0.46511-0.28144 0.34261-0.45164-0.0167-0.02302-0.0412-0.04331-0.0698-0.06202zm10.431 0.09456 4.4318 0.03979c-0.1107 0.24593-0.31755 0.39709-0.66508 0.51057-0.88096 0.28763-0.86868 0.28848-2.2438-0.1633-0.40105-0.13176-0.98671-0.27723-1.5229-0.38706zm-23.364 0.02791c0.48261-0.01878 0.94378 0.1452 1.3048 0.48781 0.47051 0.44651 0.81091 0.49459 2.5125 0.35811 1.6374-0.13131 1.9684-0.09006 1.9684 0.24495 0 0.22151-0.18754 0.53668-0.41704 0.70022-0.48972 0.34901-7.3969 0.56745-7.9752 0.25217-0.21375-0.11652-0.76202-0.214-1.218-0.216-0.96141-5e-3 -1.4463-0.48681-0.82785-0.8232 0.23352-0.12703 0.98756-0.23312 1.6754-0.23514 0.68778-0.0026 1.5195-0.1791 1.8485-0.39275 0.36484-0.23699 0.75325-0.36163 1.1286-0.37618zm-159.45 0.03514c0.07907 0 0.16086 0.01058 0.24546 0.03564 0.44215 0.13062 0.2682 0.99322-0.50746 2.5187-0.37138 0.73041-0.87489 1.3938-1.1193 1.4743-0.32452 0.10694-0.38609 0.0209-0.22738-0.31935 0.11952-0.2563 0.32171-1.1026 0.44907-1.8805 0.19263-1.1766 0.60598-1.8202 1.1596-1.8288zm80.06 0.07906c0.11912-0.01005 0.25847 0.02223 0.41238 0.10388 0.28051 0.14888 0.35603 0.45902 0.22272 0.91519-0.25751 0.88101-0.73709 0.88596-0.99322 0.0093-0.17285-0.5914 8e-4 -0.99923 0.35812-1.0284zm-25.905 0.11628c0.45127-9e-3 0.7955 0.0808 0.93999 0.28162 0.41487 0.57645-0.71933 1.4503-2.5073 1.9322-0.99788 0.26898-2.2692 0.65593-2.8257 0.8599-1.1649 0.42704-1.6077 0.46622-1.6077 0.14213 0-0.33589 1.2312-1.6232 1.5524-1.6232 0.15127 0 0.93108-0.35719 1.7327-0.79375 0.91475-0.49818 1.9635-0.78465 2.7156-0.79891zm23.409 0.01561c0.60934 0.0061 1.306 0.65265 1.8991 1.7978 0.42714 0.82465 0.80147 1.6033 0.83199 1.7306 0.19874 0.82936-3.3374-0.36984-3.5962-1.2196-0.19981-0.65614 0.0818-2.0092 0.4594-2.2097 0.12894-0.0685 0.26505-0.10073 0.40566-0.09922zm-29.896 0.25424c0.21494 0 0.65022 0.24627 0.96739 0.54726 0.56877 0.5397 0.56102 0.55872-0.54261 1.3891-0.61542 0.46299-1.2786 1.1177-1.4743 1.4547-0.19575 0.33697-0.9558 0.83283-1.6878 1.1023-0.73196 0.26945-1.4235 0.6191-1.5368 0.77671-0.22995 0.31946-0.58554 0.36976-0.8723 0.12351-0.10428-0.08951 0.49626-0.73676 1.3348-1.4382 1.0171-0.85074 1.525-1.4931 1.525-1.9301 0-0.67064 1.5294-2.0252 2.2867-2.0252zm75.885 0.0553c-0.054 0-0.0981 0.01376-0.1297 0.04082-0.12622 0.1084-0.0255 0.30798 0.22376 0.44339 0.75008 0.40733 1.0834 0.28543 0.52658-0.19278-0.21483-0.18463-0.459-0.294-0.62064-0.29144zm-37.272 0.23254c0.0687-0.0061 0.16047 0.0029 0.27698 0.02223 0.48485 0.0802 1.5872 1.5231 1.633 2.1373 8e-3 0.10914-0.18948 0.19844-0.43977 0.19844-0.49541 0-1.2035-0.8296-1.5451-1.8102-0.13284-0.38129-0.13111-0.52991 0.0749-0.54777zm-25.833 0.01799c0.27317-0.0026 0.21668 0.50504 0.0491 1.8345-0.0106 0.0858-0.39974 0.30462-0.86403 0.48628-0.78822 0.30842-0.80713 0.35322-0.2899 0.678 0.52507 0.32972 0.51713 0.36991-0.14883 0.77049-0.94046 0.5657-1.7077 0.53332-2.0955-0.08887-0.72469-1.1628-0.0722-2.655 1.1668-2.6691 0.28443-0.0029 0.86362-0.23889 1.2873-0.52348 0.44856-0.30131 0.73114-0.48636 0.89504-0.48784zm-29.353 0.08371c0.30553-0.01349 0.62861 0.0349 1.0857 0.12351 0.73575 0.14261 2.135 0.40203 3.1094 0.57671 2.5913 0.46458 2.321 1.3174-0.84749 2.6748-1.4526 0.62233-3.5434 0.77515-3.7667 0.27543-0.11685-0.26146 0.11508-0.59941 0.63562-0.92501 0.45113-0.2822 0.82063-0.68694 0.82063-0.89916 0-0.31975-0.39602-0.35473-2.311-0.20569-1.2709 0.0989-2.311 0.11216-2.311 0.02998 0-0.08218 0.75014-0.51763 1.6666-0.9679 0.94884-0.4662 1.409-0.66019 1.9182-0.68265zm-44.593 0.16849c1.6726 0 3.1061 0.11986 3.0293 0.31779-0.17962 0.46273-2.1775 1.2408-3.1864 1.2408-0.53262 0-1.1409 0.17859-1.3519 0.39688-0.30459 0.31517-1.2008 0.39688-4.3517 0.39688-2.478 0-3.9672-0.10052-3.9672-0.26821 0-0.34457 1.8466-1.3173 2.5037-1.3183 0.2758 0 0.67426 0.17756 0.88522 0.39584 0.56293 0.58248 1.209 0.48461 1.526-0.23151 0.22907-0.51742 0.56856-0.65834 1.9182-0.79685 0.9014-0.0925 1.9911-0.13409 2.9946-0.13332zm109.28 0.33486c0.19013-0.01297 0.53126 0.04588 0.87489 0.15812 0.45817 0.1496 2.2024 0.27183 3.8762 0.27183 2.7755 0 3.0856 0.05061 3.5135 0.57515 0.42541 0.5216 0.41426 0.66347-0.11628 1.5214-0.32184 0.52038-0.75106 1.4225-0.95395 2.0045-0.20286 0.58208-0.50624 1.2072-0.67437 1.3891-0.44025 0.47636-1.7563 0.40717-1.9849-0.10438-0.11517-0.25776 0.0144-0.56602 0.31781-0.75655 0.89138-0.55973 0.57882-0.89554-0.78548-0.84286-1.0494 0.04051-1.321-0.04479-1.417-0.44648-0.10025-0.42024 0.0297-0.47855 0.84181-0.37618 1.0004 0.12607 1.7787-0.33515 1.4159-0.83923-0.243-0.33763-2.1912-1.0621-2.8923-1.0754-0.59594-0.01138-2.4041-1.2237-2.1502-1.4418 0.0242-0.0209 0.071-0.03291 0.13435-0.0372zm-55.377 0.69453h5.2e-4c0.81596 0 0.81583 0.02802 8e-3 1.3885-0.43274 0.72845-0.53723 1.1364-0.308 1.202 0.61679 0.17656 0.37037 0.78536-0.60306 1.4888-1.0308 0.74483-1.8775 0.67268-1.0723-0.09147 0.62844-0.59637 0.60982-0.97851-0.0574-1.1994-0.35161-0.11644-0.64605-0.01667-0.84697 0.28678-0.64485 0.9738-3.0388 2.6221-4.2664 2.9378-2.3591 0.60619-2.5149 0.4441-0.91105-0.94983 0.81429-0.70773 2.0942-1.5546 2.8443-1.8815s2.0803-1.1762 2.9564-1.8877c0.89176-0.72424 1.8843-1.2935 2.2562-1.294zm2.897 0.13126c0.18535-0.01111 0.34378 0.07808 0.43563 0.28371 0.10332 0.23117-0.12335 0.68461-0.5271 1.0537-1.1394 1.0416-1.5614 0.79092-0.86817-0.51573 0.26794-0.50501 0.65074-0.8029 0.95964-0.82166zm24.998 0.9312h5.3e-4c0.88856 0.01085 1.2477 0.54255 1.2816 1.8991 0.0192 0.77232 0.13794 1.6757 0.26458 2.0076 0.24779 0.64942-0.64506 2.2005-2.1523 3.7388-1.2262 1.2514-1.7956 1.0747-2.528-0.78444-0.69785-1.7713-0.94761-3.4821-0.60307-4.1315 0.36726-0.69218 1.1529-0.83587 1.1529-0.21082 0 0.22341 0.41463 1.0271 0.92139 1.7859 0.60676 0.90853 0.92217 1.1966 0.92449 0.84333 1e-3 -0.29501-0.18399-0.77129-0.41289-1.0583-0.88965-1.1155-0.8953-1.983-0.0196-3.068 0.45485-0.56364 0.98134-1.023 1.1705-1.0216zm84.18 0.35139c-0.11051-0.01588-0.1881 0.04252-0.1881 0.15814 0 0.15412 0.13852 0.28009 0.30799 0.28009 0.16945 0 0.30799-0.0526 0.30799-0.11679 0-0.06421-0.13854-0.19018-0.30799-0.28009-0.0424-0.02249-0.083-0.03604-0.11989-0.04135zm-58.856 0.17365c0.93015 0 1.3274 0.19322 2.3084 1.1245 1.1184 1.0616 1.4966 1.7609 0.97824 1.8066-1.3228 0.11658-2.2991 0.06501-3.4659-0.1819-1.3296-0.2813-1.3831-0.33015-1.3048-1.1906 0.1269-1.3958 0.28178-1.5586 1.4842-1.5586zm25.463 0.27699c0.7516-0.0545 1.5378 0.43844 1.9182 1.5105 0.25489 0.71811-0.40946 1.0358-1.3048 0.62423-0.44175-0.20302-0.74931-0.17566-1.1792 0.10388-0.98431 0.63992-1.3575 0.48871-1.1482-0.46508 0.24512-1.1174 0.96249-1.7191 1.7141-1.7735zm-56.437 0.25218c0.60029 0 0.15676 0.90281-0.60358 1.2284-0.40558 0.17365-1.3393 0.80177-2.0743 1.3958-1.4399 1.1636-1.4466 1.1673-1.7534 0.90382-0.44798-0.3847-0.18748-1.3806 0.40308-1.5415 0.33443-0.0911 1.3016-0.57515 2.1492-1.0759 0.84768-0.50072 1.693-0.91054 1.879-0.91054zm-78.427 0.36224c0.0793-0.01323-0.1663 0.18209-0.6072 0.47802-1.0096 0.67765-2.1097 1.074-5.041 1.818-2.8703 0.72848-5.3798 0.92739-5.8296 0.46199-0.28522-0.29517-0.21759-0.55398 0.31988-1.2159 0.37554-0.46254 0.91308-0.90577 1.1937-0.98549 0.28064-0.07969 2.5435-0.19844 5.0286-0.26352 2.4851-0.06511 4.6816-0.1882 4.8814-0.2739 0.02492-0.01058 0.04296-0.0172 0.05426-0.01905zm71.45 0.69609c0.89832 0 0.50859 0.81484-0.57619 1.2041-1.26 0.45212-1.3079 0.45635-1.5363 0.13901-0.21447-0.29803 1.4293-1.3431 2.1125-1.3431zm49.492 0c0.44749 0 1.0247 1.217 0.8077 1.7027-0.23545 0.52697-1.0921 0.53777-1.325 0.0164-0.23443-0.52464 0.12494-1.7193 0.51728-1.7193zm-52.789 0.01587c0.41536-0.0029 0.70745 0.11554 0.70745 0.35761 0 0.53493-1.7734 1.7427-2.5652 1.7467-0.36826 0.0026-0.96594 0.07218-1.3281 0.15555-1.3659 0.3147-0.96372-0.73906 0.50385-1.3198 0.25419-0.1006 0.80885-0.35544 1.2325-0.56586 0.49525-0.24596 1.0342-0.37087 1.4495-0.37415zm-80.247 0.60928c0.40642-0.0164 0.45438 0.3302-0.02429 0.8945-0.3718 0.43831-1.1248 0.80828-2.0882 1.0263-2.0156 0.45617-2.5686 0.44418-2.7936-0.05943-0.2443-0.54671 0.33484-0.84307 2.0572-1.0526 0.76255-0.09279 1.7027-0.33922 2.0888-0.54777 0.31683-0.17116 0.57542-0.25347 0.76016-0.26096zm58.153 0.05477c0.11493 4e-3 0.22151 0.0172 0.31781 0.03876 1.0968 0.2463 0.64219 0.73075-1.4712 1.5684-2.7572 1.0928-3.3687 1.2378-3.638 0.86352-0.54248-0.75377 3.0685-2.5359 4.7914-2.4707zm-16.797 1.2666c-0.11652-0.01323-0.14625 0.11496-0.14625 0.41548 0 0.3161-0.2107 0.95591-0.4687 1.4216-0.44293 0.79954-0.44121 0.81328 0.0372 0.25114 0.27867-0.32742 0.69821-0.59531 0.93172-0.59531 0.56786 0 0.54132-0.90982-0.0382-1.3229-0.14501-0.10335-0.24583-0.162-0.31574-0.17002zm-1.5146 0.17002c-0.0748 0-0.22134 0.11906-0.32608 0.26458-0.1047 0.14552-0.0435 0.26458 0.13591 0.26458 0.17946 0 0.32608-0.11906 0.32608-0.26458 0-0.14552-0.0612-0.26458-0.13591-0.26458zm29.783 0.51729c0.12695-0.01852 0.24189 0.0454 0.26096 0.2036 0.0126 0.10552-0.14287 0.23947-0.34623 0.29766-0.20333 0.05821-0.31428-0.0367-0.2465-0.21135 0.0662-0.17055 0.2048-0.27149 0.33177-0.2899zm60.644 0.54105c0.34893 0 0.5486 0.11906 0.4439 0.26458s-0.38988 0.26458-0.63407 0.26458c-0.24418 0-0.4439-0.11906-0.4439-0.26458s0.28515-0.26458 0.63407-0.26458zm-57.501 0.29456c-0.0422-0.0029-0.0926 0.0029-0.15038 0.01958-0.22241 0.06369-0.46535 0.27202-0.5395 0.46302-0.077 0.19841 0.0386 0.2976 0.26975 0.23151 0.2224-0.06371 0.46535-0.27202 0.5395-0.46302 0.0578-0.1488 7e-3 -0.24183-0.11937-0.25114zm11.096 1.8965c0.43478-0.01561 0.60409 0.15682 0.92915 0.69662 0.33594 0.55782 0.42415 1.1349 0.28628 1.8753-0.10957 0.58828-0.31499 1.1309-0.45578 1.2056-0.1408 0.07469-0.64133-0.37473-1.1121-0.99838-0.47076-0.62368-1.0304-1.2288-1.2438-1.3451-0.4264-0.23246-0.52149-0.88011-0.15658-1.0646 0.12709-0.06419 0.67281-0.19865 1.2134-0.29816 0.21946-0.0404 0.39457-0.06612 0.5395-0.07133zm-22.095 3.4143c-0.8441 0.01746-2.3807 0.48099-2.3807 0.77049 0 0.26027 1.1433 0.08842 2.465-0.3705 0.63194-0.2195 0.67281-0.28768 0.22841-0.37828-0.0858-0.01746-0.19205-0.02434-0.31264-0.0217zm43.067 0.31575c-0.0385-5e-3 -0.0699 0-0.0909 0.01905-0.0847 0.07279 0.024 0.31676 0.24184 0.54208 0.21774 0.22527 0.46506 0.35031 0.54984 0.2775 0.0847-0.07279-0.024-0.31676-0.24185-0.54208-0.1633-0.16896-0.34332-0.28165-0.45888-0.29662zm-30.949 0.42892c-0.17945 0-0.32608 0.11906-0.32608 0.26458s0.0612 0.26458 0.13591 0.26458c0.0747 0 0.22135-0.11906 0.32608-0.26458 0.10471-0.14552 0.0435-0.26458-0.13591-0.26458zm46.931 0.26458c-0.25414 0-0.37652 0.11906-0.27182 0.26458s0.39798 0.26458 0.65216 0.26458c0.25416 0 0.3765-0.11906 0.27182-0.26458-0.10471-0.14552-0.39798-0.26458-0.65216-0.26458zm-63.15 0.385c-0.0238-0.0042-0.0541-0.0042-0.0904 0-0.0484 0.0061-0.10711 0.02037-0.1757 0.04289-0.26299 0.0867-0.47852 0.20428-0.47852 0.26149 0 0.21429 0.58698 0.09382 0.76791-0.15761 0.0607-0.08435 0.0482-0.13496-0.0233-0.14727zm-81.661 29.121c-0.1387 0-0.27348 3e-3 -0.41083 3e-3h-0.02016c-0.01233 0-0.02513 0-0.03772 3e-3 0.01206-8e-5 0.02408 8e-5 0.03617 0h-0.04547c3e-3 -2.1e-4 0.0062 0 0.0093 0-5.4056 0.0367-9.7157 0.76359-9.7157 6.2301 0 5.3415 4.1124 14.472 9.3436 15.378-2.6894-0.72585-4.3803-4.8935-5.5464-7.676-1.1448-3.1844-2.3081-7.6844-1.1818-11.085 1.1774-2.4609 3.731-2.7138 5.9542-2.803-3.2328 0.21805-5.6462 1.3402-5.6462 6.1862 0 5.3415 2.9318 14.472 6.6616 15.378-1.9175-0.72585-3.1228-4.8935-3.9543-7.676-0.81622-3.1844-1.6459-7.6844-0.84284-11.085 0.86706-2.5418 2.7821-2.7286 4.4018-2.8117-2.2082 0.19709-3.868 1.2846-3.868 6.195 0 5.6244 2.1769 15.451 4.8622 15.452-1.8982 0-3.437-9.828-3.437-15.452 0-5.3174 1.3758-6.1517 3.13-6.227 0.02098 0 0.04246 3e-3 0.06356 3e-3 -1.1556 0.0913-2.0562 0.96467-2.0562 6.2244 0 5.6243 1.0294 15.451 2.2996 15.452h0.0011c1.2702 0 2.2996-9.8278 2.2996-15.452 0-4.9674-0.80336-6.0223-1.866-6.2012 0.08816 3e-3 0.1778 4e-3 0.26768 6e-3 1.5619 0.19643 2.7357 1.2826 2.7357 6.195 0 5.6248-1.5386 15.452-3.437 15.452 2.6856 0 4.8622-9.8276 4.8622-15.452 0-4.8299-1.6054-5.9603-3.7595-6.1836 1.5692 0.0556 3.2814 0.31065 4.1997 2.5156 0.94218 3.1938 0.1432 7.6563-0.58033 10.755-0.84782 3.0397-2.0464 7.5556-4.1429 8.2966 3.7394-0.87818 6.6818-10.032 6.6818-15.384 0-4.7936-2.3621-5.9436-5.5423-6.1789 2.1527 0.0655 4.4637 0.36359 5.718 2.511 1.3214 3.1938 0.2014 7.6563-0.81339 10.755-1.1891 3.0397-2.8706 7.5556-5.811 8.2966 5.2446-0.87818 9.372-10.032 9.372-15.384 0-5.6247-4.5597-6.2337-10.184-6.2337zm28.918 1.4134c-3.3306 0-6.012 2.6815-6.012 6.012v22.979c0 3.3306 2.6815 6.0115 6.012 6.0115h7.1753c-2.0508 0-3.7021-2.681-3.7021-6.0115v-22.979c0-3.3305 1.6513-6.012 3.7021-6.012h-4.2432zm7.6311 0c-1.404 0-2.5342 2.6815-2.5342 6.012v22.979c0 3.3306 1.1302 6.0115 2.5342 6.0115 1.404 0 2.5342-2.681 2.5342-6.0115v-22.979c0-3.3305-1.1302-6.012-2.5342-6.012zm0.4563 0c2.0508 0 3.7016 2.6815 3.7016 6.012v22.979c0 3.3306-1.6508 6.0115-3.7016 6.0115h7.1748c3.3306 0 6.012-2.681 6.012-6.0115v-22.979c0-3.3305-2.6815-6.012-6.012-6.012h-3.5827zm-6.1976 0.24183c-1.5398 0.72803-2.6593 3.0283-2.6593 5.7702v22.979c0 2.7419 1.1195 5.0422 2.6593 5.7702-2.5007-0.72803-4.3186-3.0283-4.3186-5.7702v-22.979c0-2.7419 1.8179-5.0422 4.3186-5.7702zm11.483 0c2.5009 0.7279 4.3186 3.0281 4.3186 5.7702v22.979c0 2.7421-1.8177 5.0423-4.3186 5.7702 1.5399-0.72789 2.6593-3.0281 2.6593-5.7702v-22.979c0-2.7421-1.1193-5.0423-2.6593-5.7702zm195.72 0.75139c-5.0204 0-9.0625 4.0416-9.0625 9.062v34.638c0 5.0204 4.0421 9.0625 9.0625 9.0625h10.815c-3.0913 0-5.58-4.0421-5.58-9.0625v-34.638c0-5.0204 2.4888-9.062 5.58-9.062h-6.3955zm11.503 0c-2.1163 0-3.8199 4.0416-3.8199 9.062v34.638c0 5.0204 1.7036 9.0625 3.8199 9.0625 2.1163 0 3.8199-4.0421 3.8199-9.0625v-34.638c0-5.0204-1.7036-9.062-3.8199-9.062zm0.68728 0c3.0913 0 5.58 4.0416 5.58 9.062v34.638c0 5.0204-2.4888 9.0625-5.58 9.0625h10.815c5.0204 0 9.0625-4.0421 9.0625-9.0625v-34.638c0-5.0204-4.0421-9.062-9.0625-9.062h-5.4007zm-9.3415 0.3638c-2.321 1.0974-4.0085 4.5651-4.0085 8.6982v34.638c0 4.1331 1.6875 7.6008 4.0085 8.6982-3.7695-1.0974-6.5097-4.5651-6.5097-8.6982v-34.638c0-4.1331 2.7402-7.6008 6.5097-8.6982zm17.308 0c3.7698 1.0972 6.5107 4.5649 6.5107 8.6982v34.638c0 4.1334-2.7409 7.601-6.5107 8.6982 2.3212-1.0972 4.0091-4.5648 4.0091-8.6982v-34.638c0-4.1333-1.6878-7.601-4.0091-8.6982zm-108.05 12.291c-6.5378 0-11.838 0.70728-11.838 7.245 0 6.2086 4.7794 16.821 10.86 17.874-3.1259-0.84365-5.0907-5.6878-6.4461-8.9219-1.3306-3.7014-2.6827-8.9312-1.3736-12.884 1.3685-2.8603 4.3365-3.1546 6.9205-3.2582-3.7575 0.25347-6.5629 1.5572-6.5629 7.1898 0 6.2086 3.4079 16.821 7.7432 17.874-2.2287-0.84365-3.6302-5.6878-4.5966-8.9219-0.9487-3.7014-1.9127-8.9312-0.97927-12.884 1.0078-2.9543 3.2333-3.1719 5.116-3.2685-2.5666 0.22908-4.4953 1.4927-4.4953 7.2001 0 6.5344 2.5279 17.949 5.6472 17.961-2.2044-0.0164-3.9905-11.428-3.9905-17.961 0-6.1805 1.5986-7.1497 3.6375-7.2373 0.0244 0 0.0499 3e-3 0.0744 3e-3 -1.3431 0.10605-2.39 1.1217-2.39 7.2352 0 6.531 1.1942 17.936 2.6686 17.96h2e-3c1e-3 3e-5 2e-3 0 2e-3 0h5.3e-4c1.4764 0 2.6732-11.423 2.6732-17.961 0-5.7737-0.93369-7-2.1689-7.2078 0.10248 3e-3 0.20662 4e-3 0.31109 7e-3 1.8155 0.22831 3.1796 1.4909 3.1796 7.2006 0 6.5378-1.7885 17.961-3.9951 17.961 3.1215 0 5.6518-11.423 5.6518-17.961 0-5.6139-1.8666-6.9281-4.3703-7.1877 1.8239 0.0647 3.8145 0.36147 4.8819 2.9244 1.0951 3.7122 0.16659 8.8989-0.67438 12.501-0.98545 3.5331-2.3784 8.782-4.8152 9.6434 4.3463-1.0207 7.7664-11.661 7.7664-17.881 0-5.5717-2.7455-6.9079-6.442-7.1815 2.5022 0.0761 5.1882 0.42225 6.6461 2.9182 1.5359 3.7122 0.23384 8.8989-0.94568 12.501-1.3821 3.5331-3.3364 8.782-6.7541 9.6434 6.0959-1.0207 10.893-11.661 10.893-17.881 0-6.5377-5.2998-7.2455-11.838-7.2455zm-151.23 6.6642c-0.56749 0-1.0242 0.45673-1.0242 1.0242 0 0.56751 0.45673 1.0248 1.0242 1.0248h0.817v9.2816h0.60048v-9.2816h0.81752c0.56749 0 1.0242-0.45725 1.0242-1.0248 0-0.56747-0.45674-1.0242-1.0242-1.0242zm119.62 7.4724c-0.5454 0-0.98443 0.43905-0.98443 0.98444 0 0.54541 0.43903 0.98443 0.98443 0.98443h2.1477c0.54539 0 0.98495-0.43902 0.98495-0.98443 0-0.54539-0.43956-0.98444-0.98495-0.98444zm-5.534 2.0624c-2.8841 0-5.2059 2.3218-5.2059 5.2059v19.899c0 2.8841 2.3218 5.2059 5.2059 5.2059h6.2131c-1.7758 0-3.2055-2.3218-3.2055-5.2059v-19.899c0-2.884 1.4297-5.2059 3.2055-5.2059h-3.6742zm6.6079 0c-1.2158 0-2.1947 2.3218-2.1947 5.2059v19.899c0 2.8841 0.97895 5.2059 2.1947 5.2059s2.1947-2.3218 2.1947-5.2059v-19.899c0-2.884-0.97895-5.2059-2.1947-5.2059zm0.39481 0c1.7758 0 3.2055 2.3218 3.2055 5.2059v19.899c0 2.8841-1.4297 5.2059-3.2055 5.2059h6.213c2.884 0 5.2059-2.3218 5.2059-5.2059v-19.899c0-2.884-2.3218-5.2059-5.2059-5.2059h-3.1021zm-5.3666 0.20928c-1.3334 0.63043-2.3022 2.6223-2.3022 4.9966v19.899c0 2.3743 0.96883 4.3662 2.3022 4.9966-2.1654-0.63042-3.7393-2.6223-3.7393-4.9966v-19.899c0-2.3743 1.5739-4.3662 3.7393-4.9966zm9.9431 0c2.1656 0.63029 3.7403 2.6222 3.7403 4.9966v19.899c0 2.3745-1.5747 4.3663-3.7403 4.9966 1.3335-0.63029 2.3032-2.6221 2.3032-4.9966v-19.899c0-2.3744-0.96975-4.3663-2.3032-4.9966zm-124.55 1.7379a1.1214 1.1214 0 0 0-1.1209 1.1085c-0.54155 0.361-0.89658 0.97705-0.89658 1.6795v5.4632c0 0.0209 0.0011 0.0414 0.0016 0.062h0.50901v-5.3635h0.46974v5.3635h0.1664v-5.3635h0.46974v5.3635h0.1664v-5.5785h0.46974v5.5785h0.1664v-5.3635h0.46974v5.3635h0.1664v-5.3387h0.46974v5.3387h0.50901c5.29e-4 -0.0206 0.0016-0.0412 0.0016-0.062v-5.4627c0-0.70237-0.35564-1.3184-0.8971-1.6795a1.1214 1.1214 0 0 0-1.1209-1.1084zm0.79685 1.9094a0.87797 0.87797 0 0 1-0.79685 0.5116 0.87797 0.87797 0 0 1-0.79634-0.51057 1.1214 1.1214 0 0 0 0.79634 0.33282 1.1214 1.1214 0 0 0 0.79685-0.33385zm34.512 1.4919c-0.62985 0-1.1369 0.50702-1.1369 1.1369 0 0.62984 0.50703 1.1369 1.1369 1.1369h0.90692v10.302h0.66663v-10.302h0.90692c0.62984 0 1.1369-0.50704 1.1369-1.1369 0-0.62987-0.50704-1.1369-1.1369-1.1369zm113.51 3.7042c-0.65961 0-1.1906 0.53102-1.1906 1.1906 0 0.65963 0.53102 1.1906 1.1906 1.1906h0.94981v10.788h0.69815v-10.788h0.94981c0.65961 0 1.1906-0.53099 1.1906-1.1906 0-0.65961-0.53102-1.1906-1.1906-1.1906zm51.623 4.0365c-0.82956 0-1.4971 0.66752-1.4971 1.4971 0 0.82957 0.66751 1.4976 1.4971 1.4976h1.1948v13.568h0.87747v-13.568h1.1948c0.82955 0 1.4976-0.66799 1.4976-1.4976 0-0.82955-0.66803-1.4971-1.4976-1.4971zm-163.89 5.0028a1.2446 1.2446 0 0 0-1.2439 1.2304c-0.60106 0.40066-0.99581 1.0844-0.99581 1.864v6.0637c0 0.023 0.0013 0.0458 0.0021 0.0687h0.56482v-5.9536h0.52141v5.9536h0.18449v-5.9536h0.52141v5.9536h0.185v-6.1919h0.52142v6.1919h0.18448v-5.9536h0.52141v5.9536h0.18449v-5.9252h0.52141v5.9252h0.56482c5.29e-4 -0.023 0.0021-0.0456 0.0021-0.0687v-6.0637c0-0.77955-0.39433-1.4633-0.99529-1.864a1.2446 1.2446 0 0 0-1.2444-1.2299zm113.56 4.3067a1.3034 1.3034 0 0 0-1.3028 1.2879c-0.62945 0.41961-1.0423 1.1359-1.0423 1.9523v6.35c0 0.0243 1e-3 0.0483 2e-3 0.0723h0.59117v-6.2347h0.54623v6.2347h0.19327v-6.2347h0.54622v6.2347h0.19327v-6.4844h0.54621v6.4844h0.19327v-6.2347h0.54622v6.2347h0.19327v-6.2058h0.54622v6.2058h0.59118c5.3e-4 -0.0241 2e-3 -0.0481 2e-3 -0.0723v-6.35c0-0.81637-0.41295-1.5322-1.0423-1.9518a1.3034 1.3034 0 0 0-1.3028-1.2883zm97.532 1.7999c-0.94943 0-1.7136 0.76419-1.7136 1.7136 0 0.94943 0.76417 1.7136 1.7136 1.7136h1.3674v15.529h1.0046v-15.529h1.3674c0.9494 0 1.7136-0.76417 1.7136-1.7136 0-0.94941-0.7642-1.7136-1.7136-1.7136zm-45.574 5.6751a1.6393 1.6393 0 0 0-1.6376 1.62c-0.79164 0.52771-1.311 1.4284-1.311 2.4552v7.9861c0 0.0304 2e-3 0.0602 2e-3 0.0904h0.74414v-7.8409h0.68678v7.8409h0.24288v-7.8409h0.68678v7.8409h0.2434v-8.1545h0.68678v8.1545h0.24339v-7.8409h0.68678v7.8409h0.24288v-7.8042h0.68678v7.8042h0.74363c7.9e-4 -0.0302 2e-3 -0.06 2e-3 -0.0904v-7.9861c0-1.0267-0.51952-1.9274-1.311-2.4552a1.6393 1.6393 0 0 0-1.6376-1.62zm-83.566 0.60356c-0.5454 0-0.98443 0.43903-0.98443 0.98444s0.43903 0.98443 0.98443 0.98443h0.78548v8.9204h0.57671v-8.9204h0.78549c0.54539 0 0.98495-0.43902 0.98495-0.98443s-0.43956-0.98444-0.98495-0.98444zm1.0738 11.035a1.0778 1.0778 0 0 0-1.0769 1.0656c-0.52048 0.34695-0.86248 0.93877-0.86248 1.6139v5.2508c0 0.0201 1e-3 0.0396 2e-3 0.0594h0.48938v-5.1552h0.45113v5.1552h0.1602v-5.1552h0.45113v5.1552h0.1602v-5.3614h0.45165v5.3614h0.15968v-5.1552h0.45165v5.1552h0.15969v-5.131h0.45165v5.1315h0.48885c5.3e-4 -0.0198 2e-3 -0.04 2e-3 -0.06v-5.2503c0-0.67503-0.34157-1.2674-0.86196-1.6144a1.0778 1.0778 0 0 0-1.0769-1.065zm129.94 1.8955a1.8761 1.8761 0 0 0-1.8753 1.8547c-0.90602 0.60396-1.5007 1.6345-1.5007 2.8096v9.14c0 0.0348 0 0.0693 3e-3 0.10388h0.85164v-8.9736h0.786v8.9736h0.27802v-8.9736h0.786v8.9736h0.27853v-9.3333h0.786v9.3333h0.27855v-8.9736h0.786v8.9736h0.27799v-8.9318h0.786v8.9318h0.85111c0-0.0345 3e-3 -0.069 3e-3 -0.10388v-9.1395c0-1.1751-0.59431-2.2056-1.5002-2.8097a1.8761 1.8761 0 0 0-1.8753-1.8546zm-55.313 38.535c2.8658 0 5.1702 1.6216 5.1702 3.6401 0 2.0184-2.3045 3.6416-5.1702 3.6416-2.8658 0-5.1676-1.6232-5.1676-3.6416 0-2.0185 2.3019-3.6401 5.1676-3.6401zm-202.31 66.877c2.8658 0 5.1682 1.6216 5.1682 3.6401s-2.3024 3.6416-5.1682 3.6416c-2.8658 0-5.1702-1.6231-5.1702-3.6416s2.3045-3.6401 5.1702-3.6401zm262.63 5.8549c2.8658 0 5.1697 1.6232 5.1697 3.6416 0 2.0185-2.3039 3.6396-5.1697 3.6396-2.8658 0-5.1682-1.6211-5.1682-3.6396 0-2.0185 2.3024-3.6416 5.1682-3.6416z" opacity=".22"/>
 </g>
</svg>
