<svg width="9.6217mm" height="9.6217mm" version="1.1" viewBox="0 0 9.6217 9.6217" xmlns="http://www.w3.org/2000/svg">
 <g transform="translate(-60.407 -264.77)">
  <circle cx="65.218" cy="269.58" r="4.8109" fill="#fff"/>
  <path d="m68.238 268.4-2.8702-1.9135c-0.09797-0.0603-0.20252-0.0608-0.30139 0l-2.8702 1.9135c-0.0736 0.049-0.11915 0.13668-0.11915 0.22429v1.9135c0 0.0876 0.04556 0.17523 0.11916 0.2243l2.8702 1.9138c0.09797 0.0603 0.20252 0.0608 0.30139 0l2.8702-1.9138c0.0736-0.0491 0.11917-0.13668 0.11917-0.2243v-1.9135c-2e-5 -0.0876-0.0456-0.17524-0.11918-0.22429zm-2.7511-1.1846 2.1133 1.4088-0.94272 0.63082-1.1705-0.78152zm-0.5397 0v1.2582l-1.1705 0.78152-0.94272-0.63082zm-2.3305 1.9135 0.67638 0.45209-0.67638 0.45209zm2.3305 2.8177-2.1133-1.4088 0.94272-0.63082 1.1705 0.78152zm0.26985-1.7278-0.95325-0.63783 0.95325-0.63783 0.95325 0.63783zm0.26985 1.7278v-1.2582l1.1705-0.78152 0.94272 0.63082zm2.3305-1.9135-0.67638-0.45209 0.67638-0.45209z" fill="#363732" stroke-width=".012266"/>
 </g>
</svg>
