<svg width="158.49mm" height="218.14mm" version="1.1" viewBox="0 0 158.49 218.14" xmlns="http://www.w3.org/2000/svg">
 <defs>
  <clipPath id="clipPath3389">
   <rect x="77.478" y="126.96" width="211.26" height="226.19" fill="#363732"/>
  </clipPath>
 </defs>
 <rect y="-1.6941e-21" width="158.49" height="218.14" fill="#363732"/>
 <path transform="matrix(.75019 0 0 .75019 -58.124 -95.248)" d="m125.58 109.47a47.568 47.815 0 0 0-43.01 27.525 15.813 15.895 0 0 0-10.148-3.7082 15.813 15.895 0 0 0-15.813 15.895 15.813 15.895 0 0 0 15.813 15.895 15.813 15.895 0 0 0 6.0925-1.2431 47.568 47.815 0 0 0 47.066 41.267 47.568 47.815 0 0 0 3.8448-0.17872 15.813 15.895 0 0 0 15.782 15.027 15.813 15.895 0 0 0 4.4226-0.64388 76.811 77.21 0 0 0 29.207 37.958 15.813 15.895 0 0 0-2.0212 7.7601 15.813 15.895 0 0 0 8.4601 14.06 45.619 45.856 0 0 0-1.6388 11.983 45.619 45.856 0 0 0 45.619 45.855 45.619 45.856 0 0 0 45.618-45.855 45.619 45.856 0 0 0-12.891-31.945 76.811 77.21 0 0 0 36.714-65.78 76.811 77.21 0 0 0-76.811-77.21 76.811 77.21 0 0 0-53.046 21.41 47.568 47.815 0 0 0-43.26-28.072zm4.9348 9.8038c1.4406 0.0137 2.5655 0.71674 3.3383 2.099 0.58864 1.0531 0.62541 1.3373 0.61376 4.6952l-0.0123 3.5749 1.3905 0.53395c2.8892 1.11 5.261 3.149 5.7553 4.9484 0.60273 2.1943-1.0708 4.4609-4.5376 6.1461-1.1306 0.54959-2.1906 0.99919-2.3556 0.99919-0.22371 0-0.26768 0.78542-0.17144 3.0862 0.14919 3.5666-0.10059 4.8311-1.2071 6.0979-1.8252 2.0895-4.8671 1.6453-8.731-1.2743l-1.4893-1.1247-1.3319 1.0233c-3.0347 2.3318-6.0138 3.238-7.7186 2.3473h-7.2e-4c-1.9669-1.0276-2.6366-3.0195-2.4191-7.195 0.11843-2.2727 0.0816-2.9605-0.15731-2.9607-0.5504-2.5e-4 -3.489-1.5019-4.726-2.4146-0.8066-0.59515-1.4145-1.3266-1.8554-2.2324-0.58927-1.2106-0.62696-1.4535-0.37461-2.3954 0.50533-1.8865 2.8256-3.9157 5.7701-5.047l1.3806-0.53121-1e-3 -3.5784c-1e-3 -3.2496 0.0501-3.677 0.57143-4.6583 1.5546-2.9265 5.1334-2.7669 9.3194 0.41553 0.75448 0.57361 1.4394 1.0425 1.5224 1.0425s0.77664-0.48785 1.5408-1.0844c0.76413-0.5964 2.096-1.4036 2.9602-1.7934 1.0837-0.48881 2.062-0.72813 2.9263-0.71976zm-0.27303 2.5991c-0.55245 0-1.2409 0.21106-2.0416 0.61341-1.258 0.63193-3.1196 2.0408-3.1196 2.3607 0 0.0961 0.55481 0.85314 1.2332 1.682 1.1422 1.3956 1.3414 1.5287 2.6942 1.7949 2.8221 0.55522 2.7749 0.57608 2.9764-1.3155 0.20959-1.9673 5e-3 -3.7546-0.51994-4.5613-0.25387-0.38945-0.67014-0.58102-1.2226-0.5743zm-14.42 0.0412c-0.6136 5.5e-4 -1.0108 0.31398-1.3305 0.9573-0.70223 1.413-0.52457 5.7951 0.23492 5.7951 0.19665 0 1.141-0.13037 2.0988-0.28928 1.714-0.28461 1.7614-0.31329 2.9933-1.8254 0.68846-0.84505 1.2515-1.6126 1.2515-1.7055 0-0.33648-1.994-1.7455-3.3588-2.3735-0.80388-0.36997-1.412-0.55934-1.8893-0.55879zm93.098 0.14889h11.292l2.7352 5.6624h1.6444c3.7862 0 6.8622 3.092 6.8622 6.8979v13.094c0 3.8058-3.076 6.8971-6.8622 6.8971h-20.42c-3.7862 0-6.8608-3.0913-6.8608-6.8971v-13.094c0-3.8059 3.0746-6.8979 6.8608-6.8979h1.8293zm1.066 1.7621-2.0043 3.8862 12.95-0.1235-1.8173-3.7626zm-86.911 2.9656-0.55732 0.55961-0.55663 0.56017h2.2279l-0.55733-0.56017zm81.096 2.6962c-2.8456 0-5.1084 2.2761-5.1084 5.1363v13.094c0 2.8603 2.2628 5.1349 5.1084 5.1349h20.42c2.8455 0 5.1098-2.2746 5.1098-5.1349v-13.094c0-2.8602-2.2643-5.1363-5.1098-5.1363h-18.05l-1.4568 0.0137 7e-3 -0.0137zm1.2402 0.99065a0.74686 0.75074 0 0 1 0.74707 0.75104 0.74686 0.75074 0 0 1-0.74707 0.75091 0.74686 0.75074 0 0 1-0.74639-0.75091 0.74686 0.75074 0 0 1 0.74639-0.75104zm-82.336 0.0137c-3.1099 0-3.1726 0.0343-4.5588 2.4601-0.67296 1.1778-1.2932 2.417-1.3785 2.7536-0.16778 0.66213 0.36842 1.8405 1.9838 4.3569l0.88255 1.3736c0.0402 0.0307 0.0858 0.0563 0.12913 0.0815h5.883c0.0413-0.0242 0.086-0.0453 0.12488-0.0745l0.88678-1.3807c1.6154-2.5165 2.1516-3.6947 1.9838-4.357-0.0852-0.33662-0.70554-1.5758-1.3785-2.7536-1.3862-2.4262-1.4482-2.4601-4.5581-2.4601zm79.847 0.61478a1.2448 1.2512 0 0 1 1.2452 1.251 1.2448 1.2512 0 0 1-1.2452 1.251 1.2448 1.2512 0 0 1-1.2444-1.251 1.2448 1.2512 0 0 1 1.2444-1.251zm-73.382 0.0439 0.45432 0.77232c0.4695 0.79894 0.74724 0.76642 0.89172-0.10429 0.0649-0.39192-0.0749-0.52188-0.63068-0.58583zm-13.762 0.0576c-0.52774 0-0.68049 0.3336-0.43528 0.97802l0.23564 0.61903 0.48888-0.74528c0.4886-0.7446 0.48834-0.74473-0.0401-0.82899-0.0907-0.0137-0.17364-0.022-0.24904-0.0233zm7.471 0.98996c1.1756 0.0357 2.3469 0.60504 3.0858 1.8232 1.1983 1.9755 0.1117 5.0074-2.0064 5.5988-1.1752 0.32807-1.3793 0.33639-2.2561 0.0893-1.6676-0.46987-2.7572-1.9665-2.7556-3.7841 1e-3 -2.365 1.973-3.7867 3.9323-3.7272zm10.632 0c-0.27735 8.2e-4 -0.61669 0.60119-1.0773 1.9049l-0.67232 1.9034 0.61942 1.6856c0.34051 0.92711 0.66729 1.8269 0.72663 1.9998 0.11692 0.34063 2.0044-0.29215 3.3277-1.1155 1.235-0.7682 2.3104-1.9334 2.3104-2.504 0-0.30863-0.28793-0.90571-0.63988-1.326-0.6481-0.77423-3.851-2.5502-4.5948-2.548zm-21.67 0.0398c-0.72721 0.0302-3.3105 1.3978-4.2371 2.2765-1.1794 1.1183-1.2108 1.8557-0.12488 2.9081 0.99437 0.96375 4.367 2.6995 4.6893 2.4132 0.0637-0.0564 0.42166-0.94545 0.79507-1.9749l0.67867-1.8722-0.69559-1.8203c-0.38266-1.0015-0.82669-1.8648-0.98627-1.9183-0.031-0.0137-0.0707-0.0137-0.11912-0.0137zm134.82 0.12762a7.0359 7.0725 0 0 1 7.0357 7.0724 7.0359 7.0725 0 0 1-7.0357 7.0723 7.0359 7.0725 0 0 1-7.0364-7.0723 7.0359 7.0725 0 0 1 7.0364-7.0724zm-32.644 0.0137c4.8186 0 8.75 3.9519 8.75 8.7956 0 4.8436-3.9315 8.7955-8.75 8.7955-4.8186 0-8.7507-3.9519-8.7507-8.7955 0-4.8437 3.9322-8.7956 8.7507-8.7956zm-12.954 1.4666a0.74686 0.75074 0 0 1 0.7471 0.75023 0.74686 0.75074 0 0 1-0.7471 0.75104 0.74686 0.75074 0 0 1-0.74709-0.75104 0.74686 0.75074 0 0 1 0.74709-0.75023zm12.954 0.902c-3.5454 0-6.3952 2.8633-6.3952 6.427s2.8498 6.4277 6.3952 6.4277 6.3937-2.8639 6.3937-6.4277-2.8484-6.427-6.3937-6.427zm-83.833 4.6705c-0.14435 0.0202-0.31622 0.26177-0.53686 0.72687-0.45867 0.96679-0.45768 0.96789 0.41975 0.63255 0.46665-0.17833 0.58912-0.3688 0.48749-0.75949-0.10896-0.41898-0.22601-0.62017-0.37038-0.59993zm-14.97 0.10923c-0.14356 1.9e-4 -0.26462 0.16581-0.35062 0.49639-0.0974 0.37473 0.0163 0.57613 0.40917 0.72476 0.64939 0.24562 0.80354-0.0173 0.42611-0.72617v-7.1e-4c-0.17575-0.33008-0.3411-0.49453-0.48466-0.49427zm144.47 1.1885a4.7271 4.7516 0 0 1 4.7274 4.7513 4.7271 4.7516 0 0 1-4.7274 4.752 4.7271 4.7516 0 0 1-4.7267-4.752 4.7271 4.7516 0 0 1 4.7267-4.7513zm-109.4 1.2218h24.158v7.1e-4h0.0222l-0.0198 0.22409c-0.011 0.12337-0.0322 0.47192-0.0465 0.77438-0.0456 0.96153-2.0953 24.506-2.1369 24.548-0.0416 0.0413-9.3644 2.7222-9.6107 2.7635-0.12625 0.0211-0.19303 0.0305-0.25397 0.0383-0.011 1e-3 -0.039 8e-3 -0.0452 0.01h-7.1e-4c-4e-3 3.3e-4 -0.0236 5e-3 -0.0254 5e-3 -1e-3 -1e-4 -0.029-7e-3 -0.0332-8e-3 -0.0161-9.2e-4 -0.0445 1e-3 -0.0494-4e-3 -0.01-0.011-0.0941-0.0298-0.18695-0.0432-0.15152-0.022-9.3596-2.6504-9.5472-2.7252-0.0624-0.0248-0.0811-0.0549-0.0939-0.15105-0.0483-0.36409-2.0689-23.997-2.0889-24.433-0.0137-0.28653-0.0331-0.62886-0.0445-0.7602l-0.0211-0.23827h0.0225zm-36.058 1.4091c-0.1161-3e-3 -0.1877 1e-3 -0.20247 0.0163-0.29034 0.29187-0.37028 4.4314-0.10443 5.4129 0.44599 1.6465 1.4247 1.8452 3.6509 0.74106 1.1841-0.58735 3.1142-1.9923 3.1252-2.2749 4e-3 -0.10896-0.55622-0.90636-1.2459-1.7714l-1.2289-1.5417c-0.0123-0.01-0.0261-0.024-0.0375-0.0333l-2.0198-0.31912c-0.83828-0.13257-1.5891-0.21951-1.9372-0.22976zm16.975 8e-3c-0.35452 3e-5 -1.1068 0.0775-1.9394 0.20565l-1.9866 0.30563c-0.029 0.0233-0.0674 0.0609-0.0988 0.088l-1.2416 1.558-1.3086 1.641 0.95804 0.83254c1.4791 1.2852 3.3461 2.1311 4.5179 2.0466 0.92457-0.0667 1.0288-0.15065 1.339-1.08 0.31998-0.95878 0.29723-5.2417-0.0296-5.5703-0.018-0.0181-0.0919-0.0269-0.21022-0.0269zm-8.4876 0.69779c-0.11404 0-0.22712 3e-3 -0.3344 8e-3 -0.52215 0.0714-0.52784 0.34094-0.0204 0.85097 0.31076 0.31238 0.48227 0.33851 0.75203 0.11348 0.19218-0.16032 0.34922-0.44806 0.34922-0.63894 0-0.17163-0.17904-0.2852-0.48396-0.32692-0.0866-3e-3 -0.17331-7e-3 -0.26244-7e-3zm-50.505 0.3489a5.442 5.4703 0 0 1 5.442 5.4703 5.442 5.4703 0 0 1-5.442 5.4703 5.442 5.4703 0 0 1-5.4421-5.4703 5.442 5.4703 0 0 1 5.4421-5.4703zm90.173 2.8337c-4.125 0-7.5054 0.01-7.5119 0.0213-8e-3 0.0154 0.2224 2.9176 0.23705 2.9812 8.2e-4 4e-3 2.6 8e-3 5.7758 8e-3 4.3812 0 5.4577 3e-3 5.7087 0.0284h0.0635v0.011c7e-3 3e-3 0.018 4e-3 0.0191 7e-3 0.0261 0.0685-0.24773 3.2016-0.2836 3.245-0.0247 0.0299-0.76452 0.0376-3.799 0.0376h-3.696c-3e-3 6.1e-4 -0.0546 7.3e-4 -0.0557 1e-3 -3e-3 6.6e-4 -0.0151 1e-3 -0.0169 3e-3l0.0169 0.19147c0.01 0.10745 0.0653 0.79451 0.12337 1.5268l0.10512 1.3318 7.054 0.0282 7e-3 0.1305c0.011 0.17631-0.26659 3.2939-0.33438 3.8074-8e-5 1e-3 -4e-3 0.041-4e-3 0.0419-8e-5 4e-3 -3e-3 7e-3 -3e-3 0.011-3e-3 0.0224-0.0137 0.13037-0.015 0.13188-0.0143 0.0137-0.77741 0.23477-1.696 0.49073l-1.6706 0.4652-1.7094-0.48789c-0.94014-0.2684-1.7177-0.50231-1.7284-0.5198-0.011-0.0174-0.0616-0.53037-0.11294-1.1396-0.0512-0.60927-0.10045-1.1565-0.10937-1.2162l-0.0162-0.10854h-1.466c-0.80628 0-1.4663 0.01-1.4667 0.0213-1e-3 0.0584 0.41221 4.7989 0.41975 4.8073 0.0162 0.018 6.0738 1.7644 6.132 1.7679 0.0317 1e-3 1.431-0.38966 3.1097-0.87013s3.0582-0.87843 3.0653-0.8843c0.0192-0.016 1.3829-15.792 1.3686-15.834-0.01-0.0288-1.5376-0.0362-7.5119-0.0362zm104.93 2.2331a3.0945 3.1105 0 0 1 3.0942 3.1103 3.0945 3.1105 0 0 1-3.0942 3.111 3.0945 3.1105 0 0 1-3.0942-3.111 3.0945 3.1105 0 0 1 3.0942-3.1103zm3.9831 11.094c0.33354-3e-3 0.66687 0.0185 0.88466 0.0653 0.67359 0.14442 1.2762 0.41972 1.7919 0.81906 0.27466 0.2127 2.4125 2.397 12.453 12.726 0.80721 0.8304 1.5466 1.6243 1.6812 1.8048 0.62025 0.83192 0.84889 1.6032 0.67725 2.2856-0.29569 1.1753-1.5331 2.0953-4.1891 3.116-0.25674 0.0987-1.3717 0.48464-2.4776 0.85734-2.0305 0.68441-2.5845 0.88807-3.1874 1.1701-0.4092 0.19141-0.55481 0.30952-0.58622 0.47795-0.0615 0.32939 0.21126 0.56671 1.4222 1.2396 1.069 0.59392 1.4078 0.84819 1.5951 1.1942 0.13847 0.25572 0.13531 0.47055-0.011 0.82191-0.27878 0.668-0.63415 1.064-1.2099 1.3467-0.30042 0.14748-0.52266 0.2184-1.2917 0.4113-1.1023 0.27645-1.3839 0.36566-1.8787 0.5985-0.64509 0.30361-1.0778 0.60672-1.6106 1.1276-0.60065 0.5871-0.56062 0.71433 0.37742 1.1949 0.58843 0.30146 0.73021 0.45955 0.67517 0.75452-0.0484 0.25957-0.33505 0.5021-1.0907 0.9219-0.97341 0.54077-2.2709 0.98646-3.3157 1.1389-0.46402 0.0677-1.1878 0.0675-1.4985 0h-6.8e-4c-0.47397-0.10347-0.84883-0.34984-1.0067-0.66092-0.0383-0.0753-0.10511-0.28742-0.14816-0.47157-0.19362-0.82899-0.6318-1.3296-1.3983-1.5977-0.10909-0.0382-0.52142-0.13339-0.91641-0.21204-0.39498-0.0785-0.84212-0.18481-0.99399-0.23542-0.53469-0.17817-0.92527-0.51325-0.99966-0.8588-0.0793-0.36802 0.0756-0.64433 0.7908-1.4119 0.67128-0.72035 0.83677-1.0024 0.77673-1.324-0.0539-0.28886-0.488-0.63117-1.2056-0.95098-0.61318-0.27321-1.0435-0.42884-2.8925-1.046-1.9253-0.64261-2.6104-0.90062-3.1669-1.1906-0.61174-0.31882-0.87267-0.56538-0.87267-0.82547 0-0.38472 0.254-0.57638 1.7101-1.2899 1.0777-0.52811 1.3516-0.69085 1.5676-0.93111 0.14546-0.1618 0.16535-0.27038 0.0804-0.43542-0.11815-0.22992-1.0843-0.54257-3.2501-1.0517-1.2813-0.30117-1.9848-0.50574-2.5299-0.73537-1.8571-0.78257-2.1133-1.9935-0.82752-3.9173 0.12597-0.18859 0.31678-0.44891 0.42329-0.57795 0.24775-0.30012 12.88-13.291 13.101-13.473 0.43234-0.35597 1.0546-0.65315 1.6621-0.79353 0.21914-0.0506 0.55252-0.0778 0.88605-0.0808zm-162.89 0.88359a3.0962 1.9064 68.19 0 1 2.4078 2.2409 3.0962 1.9064 68.19 0 1 0.069 0.18864 6.4052 3.9792 2.178 0 1 0.41905 5e-3 6.4052 3.9792 2.178 0 1 6.2519 4.2187 6.4052 3.9792 2.178 0 1-5.7137 3.7273 4.381 4.4038 0 0 1 0.0183 0.0439 4.381 4.4038 0 0 1-0.17777 3.6408l1.9866 5.0129a1.2322 1.2386 0 0 1 0.72028 0.70347 1.2322 1.2386 0 0 1-0.68854 1.609 1.2322 1.2386 0 0 1-1.6007-0.69282 1.2322 1.2386 0 0 1 0.0423-1.0084l-1.6522-4.1705a4.381 4.4038 0 0 1-1.078 0.62617 4.381 4.4038 0 0 1-7.2e-4 0l1.6875 4.2584a1.2322 1.2386 0 0 1 0.72099 0.70277 1.2322 1.2386 0 0 1-0.68855 1.609 1.2322 1.2386 0 0 1-1.6007-0.6921 1.2322 1.2386 0 0 1 0.0423-1.0084l-1.8067-4.5598a4.381 4.4038 0 0 1-0.80706-0.0815 4.6549 4.6791 0 0 1-2.2794 1.9629 4.6549 4.6791 0 0 1-1.2741 0.30706 2.7382 2.7524 0 0 1-1.5782 2.1629l1.2332 3.1124a1.2322 1.2386 0 0 1 0.72099 0.70274 1.2322 1.2386 0 0 1-0.68924 1.6091 1.2322 1.2386 0 0 1-1.6007-0.69215 1.2322 1.2386 0 0 1 0.043-1.0084l-1.3997-3.5315a2.7382 2.7524 0 0 1-1.3453-0.71482 1.9167 1.9267 0 0 1-0.77391 0.57299l1.6875 4.2577a1.2322 1.2386 0 0 1 0.7203 0.70347 1.2322 1.2386 0 0 1-0.68854 1.6091 1.2322 1.2386 0 0 1-1.6007-0.69214 1.2322 1.2386 0 0 1 0.0423-1.0084l-2.0332-5.1299a1.9167 1.9267 0 0 1-0.15168-0.12982 3.9703 3.991 0 0 1-0.28925 0.13119 3.9703 3.991 0 0 1-5.1577-2.2303 3.9703 3.991 0 0 1 0.48325-3.8301 1.9167 1.9267 0 0 1-0.5277-0.7446 1.9167 1.9267 0 0 1 1.0709-2.5033 1.9167 1.9267 0 0 1 0.70688-0.13476 1.9167 1.9267 0 0 1-0.12131-0.24749 1.9167 1.9267 0 0 1 1.0716-2.5026 1.9167 1.9267 0 0 1 1.1563-0.0823 2.0536 2.0643 0 0 1 0.89808-2.338l7e-4 7.1e-4a2.0536 2.0643 0 0 1 0.31324-0.15742 2.0536 2.0643 0 0 1 1.2226-0.0929 4.518 4.5414 0 0 1 2.0593-1.6658 4.518 4.5414 0 0 1 3.1598-0.066 2.6012 2.6148 0 0 1 1.1633-0.92473 2.6012 2.6148 0 0 1 2.9468 0.74319 6.4052 3.9792 2.178 0 1 0.9806-0.59355 3.0962 1.9064 68.19 0 1 0.76333-3.1408 3.0962 1.9064 68.19 0 1 0.51501-0.088zm163.17 0.48009c-0.67478-0.0321-1.2139 0.11363-1.7453 0.47017-0.17036 0.11431-0.86141 0.78563-2.2589 2.1969-2.2681 2.2904-3.2465 3.3244-3.418 3.611-0.2605 0.43507-0.35421 0.92749-0.24691 1.2984 0.0693 0.23952 0.29604 0.47235 0.5185 0.53256 0.0939 0.0254 0.6368 0.036 1.5711 0.0298l1.4272-0.01 0.87266-1.5162c0.62341-1.0834 0.88997-1.5162 0.93476-1.5162 0.053 0 0.14662 0.33745 0.60322 2.1749 0.29719 1.1961 0.54505 2.175 0.55094 2.175 5e-3 0 0.71705-0.44928 1.5803-0.99777v7.1e-4c0.86324-0.54848 1.604-1.0132 1.6459-1.0325 0.0635-0.0294 0.2416 0.0526 1.0716 0.49427 0.54744 0.29136 1.0009 0.52421 1.0081 0.51697 8e-3 -8e-3 0.11801-0.64403 0.2462-1.4155 0.12817-0.77142 0.24938-1.4186 0.2688-1.4382 0.0193-0.0195 0.0567-0.0268 0.0826-0.0156 0.0261 0.011 0.57228 0.44403 1.2141 0.9616 0.64187 0.51756 1.1848 0.94099 1.2064 0.94104 0.0628 9e-5 0.12241-0.25832 0.122-0.52762-5.1e-4 -0.27975-0.0597-0.53635-0.17498-0.76304-0.0781-0.15338-5.0193-5.2358-5.4047-5.559-0.44013-0.36913-1.0189-0.58075-1.6755-0.61199zm-138.09 1.0524a5.4967 5.5252 0 0 1 5.4971 5.5249 5.4967 5.5252 0 0 1-5.4971 5.5249 5.4967 5.5252 0 0 1-5.4964-5.5249 5.4967 5.5252 0 0 1 5.4964-5.5249zm60.289 0.45598c0.0918-4e-3 0.16814-3e-3 0.22927 7e-3 0.13173 0.01 0.22106 0.0425 0.2681 0.0992 0.0469 0.0567 0.0657 0.14184 0.0564 0.2553 0 0.10402-0.0141 0.23638-0.0423 0.39713-0.0188 0.16073-0.0377 0.35456-0.0564 0.58148-0.01 0.22694 0 0.48222 0.0283 0.76589l1.6931-0.0567v0.69496c-0.0752 0-0.19282 4e-3 -0.35273 0.0141-0.15991 0.01-0.33393 0.0189-0.52205 0.0284-0.17873 0.01-0.34804 0.0189-0.50794 0.0284-0.15051 0.01-0.26339 0.0284-0.33863 0.0567-0.0752 0.3404-0.15521 0.70442-0.23986 1.0921-0.0847 0.38767-0.1411 0.7706-0.16932 1.1488-0.0283 0.37821-0.0188 0.73278 0.0283 1.0637 0.0469 0.32149 0.16461 0.59096 0.35275 0.80844 0.18811 0.20801 0.4562 0.35457 0.80423 0.43966 0.34804 0.0756 0.80896 0.0472 1.3827-0.0851-0.0188 0.14183-0.0752 0.26002-0.16933 0.35457-0.0847 0.0851-0.18811 0.15601-0.31039 0.21274-0.11294 0.0472-0.23517 0.0851-0.36685 0.11349-0.13174 0.0189-0.24928 0.0284-0.35273 0.0284-0.47974 0-0.86068-0.0851-1.1429-0.25529-0.28218-0.17964-0.49383-0.4113-0.63493-0.69496-0.14109-0.28366-0.23046-0.60513-0.26808-0.96444-0.0376-0.36875-0.0517-0.74223-0.0423-1.1204 0.0188-0.37821 0.0469-0.75169 0.0847-1.1204 0.0377-0.36874 0.0564-0.7044 0.0564-1.007-0.0847-0.0284-0.20223-0.0379-0.35273-0.0284-0.14111 0-0.29632 0.01-0.46563 0.0284-0.1599 0.01-0.31511 0.0236-0.46561 0.0425s-0.27749 0.0284-0.38095 0.0284c-0.0471 0-0.08-0.0661-0.0988-0.19857-0.01-0.14182-0.0283-0.33093-0.0564-0.56731l1.9894-0.14182c0.0283-0.33094 0.0471-0.56733 0.0564-0.70915 0.01-0.14183 0.01-0.26002 0-0.35457 0-0.10402-4e-3 -0.21747-0.014-0.3404v-0.60958c0.12227-0.0189 0.22928-0.0307 0.32099-0.0354zm31.034 0.0638c0.0258 4e-3 0.053 0.0189 0.0811 0.0425 0.0565 0.0379 0.12693 0.13709 0.21166 0.29785l-2.2857 7.7864-0.42329-0.42549 2.1728-7.3609c0.0188-0.0567 0.0423-0.11815 0.0705-0.18439 0.0283-0.0756 0.0612-0.12296 0.0988-0.14183 0.0235-0.0141 0.0482-0.0189 0.074-0.0141zm0.98413 0.62404c0.0752 0.0661 0.18817 0.16547 0.33864 0.29784 0.1599 0.12296 0.33864 0.26475 0.53618 0.42549 0.19754 0.16073 0.39977 0.33094 0.60671 0.51058 0.21635 0.17965 0.42329 0.34985 0.62083 0.51058 0.19751 0.15128 0.37153 0.29312 0.52206 0.42549 0.15989 0.12296 0.28216 0.21275 0.36683 0.26948 0.0847 0.0661 0.18811 0.12762 0.31043 0.18438 0.12226 0.0472 0.23983 0.10868 0.35271 0.18437 0.12227 0.0661 0.22574 0.14655 0.31041 0.24111 0.0847 0.0851 0.12694 0.19856 0.12694 0.34038 0 0.0189-4e-3 0.0472-0.0141 0.0851 0 0.0284-4e-3 0.052-0.014 0.0709-0.0659 0.0851-0.15989 0.2222-0.28218 0.4113-0.12227 0.17966-0.26338 0.38767-0.42329 0.62406-0.1599 0.22692-0.3292 0.47276-0.50792 0.7375-0.17873 0.2553-0.34806 0.50113-0.50796 0.73752-0.1599 0.22692-0.30569 0.43494-0.43739 0.62404-0.12227 0.17964-0.21166 0.31203-0.26809 0.39712-0.0847 0.10402-0.16459 0.1891-0.23987 0.25529-0.0752 0.0567-0.17873 0.0851-0.31038 0.0851v-0.60985l2.1587-3.2621-3.2452-2.7231zm-16.615 0.35103c0.0624-3e-3 0.12597-1e-3 0.19191 4e-3 0.41387 0.0189 0.7525 0.13242 1.0159 0.34039 0.2728 0.20801 0.48442 0.48695 0.63493 0.83679 0.15991 0.34984 0.27278 0.75169 0.33864 1.2055 0.0752 0.45386 0.12227 0.93607 0.14108 1.4467 0.0283 0.51058 0.0377 1.0306 0.0283 1.5601-0.01 0.52004-0.014 1.0212-0.014 1.5034-0.0847 0.0189-0.16934 0.052-0.25395 0.0994-0.0847 0.0379-0.15522 0.052-0.21168 0.0425-0.0564 0-0.0987-0.0379-0.12693-0.11349-0.0188-0.0851-0.01-0.24583 0.0283-0.48222 0.01-0.17019 0.0235-0.43021 0.0423-0.78005 0.0283-0.35929 0.0377-0.75642 0.0283-1.1914 0-0.43494-0.0235-0.88406-0.0705-1.3474-0.0471-0.46331-0.13641-0.88408-0.26809-1.2623-0.12227-0.38766-0.301-0.69969-0.53618-0.93607-0.23514-0.24584-0.54085-0.36876-0.91709-0.36876-0.38566 0.16074-0.71021 0.46331-0.97355 0.90771-0.25401 0.4444-0.46095 0.96442-0.62084 1.5601-0.15051 0.59567-0.26338 1.2434-0.33864 1.943-0.0659 0.69025-0.10347 1.3663-0.11294 2.0282-0.0188-0.01-0.0564-0.0141-0.11294-0.0141h-0.16929c-0.0565-0.01-0.11294-0.0189-0.16934-0.0284-0.0471-0.01-0.0752-0.0189-0.0847-0.0284-0.0188-0.15128-0.0376-0.36875-0.0564-0.6524-0.01-0.29312-0.0235-0.61933-0.0423-0.97863-0.01-0.36874-0.0188-0.75169-0.0283-1.1488-0.01-0.39712-0.0188-0.77534-0.0283-1.1346-0.01-0.35929-0.0235-0.68077-0.0423-0.96444-0.01-0.2931-0.0283-0.5153-0.0565-0.66659 0-0.01-4e-3 -0.0331-0.014-0.0709 0-0.0379-4e-3 -0.0804-0.014-0.12762v-0.19859c0.1411-0.11349 0.25866-0.1513 0.35272-0.11349 0.10347 0.0379 0.18815 0.12296 0.254 0.2553 0.0659 0.12296 0.11293 0.27893 0.14109 0.46803 0.0283 0.18911 0.0469 0.37821 0.0564 0.56732 0.0188 0.1891 0.0283 0.36403 0.0283 0.52476v0.32621c0.0188-0.16074 0.0469-0.34984 0.0847-0.56732 0.0377-0.21746 0.094-0.43966 0.16931-0.66659 0.0752-0.22692 0.16462-0.44912 0.26811-0.6666 0.11293-0.22692 0.24927-0.42547 0.40917-0.59568 0.15989-0.17019 0.33863-0.30256 0.53617-0.39712 0.15521-0.071 0.32663-0.10992 0.51355-0.11706zm-5.4942 0.40066c0.30099 0 0.57851 0.10402 0.83248 0.31203 0.26338 0.20801 0.48441 0.47749 0.66312 0.80842 0.18817 0.33094 0.32924 0.69969 0.42331 1.1063 0.094 0.40658 0.13174 0.80371 0.11294 1.1914 0 0.56733-0.10814 1.0732-0.32451 1.5176-0.21636 0.4444-0.49384 0.80371-0.83247 1.0779-0.32923 0.27421-0.68669 0.45859-1.0723 0.55314-0.37623 0.0945-0.73368 0.0709-1.0723-0.071-0.32924-0.15128-0.60672-0.43021-0.83246-0.83679-0.21639-0.40657-0.32453-0.95971-0.32453-1.6594 0-0.21747 0.0188-0.46803 0.0564-0.7517 0.0377-0.2931 0.0987-0.58622 0.18343-0.87934 0.0847-0.2931 0.18814-0.58149 0.31041-0.86515 0.13174-0.28366 0.2869-0.53423 0.46562-0.75169 0.17869-0.22692 0.38567-0.40658 0.62081-0.53895 0.23515-0.14183 0.49853-0.21274 0.79013-0.21274zm-19.626 0.071h0.32452c0 0.22692-0.0517 0.46803-0.1552 0.72333-0.094 0.25528-0.22105 0.51058-0.38096 0.76586-0.15051 0.24583-0.32452 0.48694-0.52206 0.72333-0.19752 0.23639-0.39036 0.45859-0.57848 0.6666-0.17873 0.19857-0.34804 0.37821-0.50795 0.53895-0.1505 0.16073-0.26809 0.28838-0.35274 0.38293v0.53896c0.0847 0.0284 0.20224 0.0804 0.35274 0.156 0.15991 0.0661 0.33862 0.14656 0.53616 0.24111 0.19754 0.0851 0.39977 0.17493 0.60671 0.26948 0.21636 0.0945 0.42328 0.1891 0.62082 0.28366 0.19754 0.0945 0.37156 0.17965 0.52206 0.25529 0.1599 0.0756 0.27278 0.12762 0.33863 0.15601 0.0283 0.0189 0.0705 0.052 0.12694 0.0994 0.0564 0.0473 0.11294 0.0994 0.16931 0.15602 0.0564 0.0567 0.10814 0.11348 0.15521 0.17019 0.0564 0.0567 0.0895 0.0993 0.0988 0.12762-0.0564 0.11349-0.11294 0.1891-0.16933 0.22692-0.0564 0.0379-0.13173 0.0567-0.22573 0.0567-0.0752 0-0.22577-0.052-0.45151-0.156-0.22577-0.10402-0.48444-0.23165-0.77602-0.38295-0.29161-0.16073-0.59732-0.33092-0.91714-0.51058-0.31981-0.1891-0.61612-0.36876-0.88889-0.53895-0.2634-0.17964-0.48444-0.33566-0.66315-0.46803-0.17872-0.13242-0.26809-0.22219-0.26809-0.26947v-0.071c0.01-0.0379 0.0188-0.0567 0.0283-0.0567zm-73.118 0.0262a0.95835 0.96334 0 0 0-0.3746 0.0681 0.95835 0.96334 0 0 0-0.14602 0.0737 0.95835 0.96334 0 0 0-0.38943 1.1779 0.95835 0.96334 0 0 0 1.2452 0.53825 0.95835 0.96334 0 0 0 0.53547-1.2509 0.95835 0.96334 0 0 0-0.87058-0.60703zm103.47 0.3567c0.19754 0 0.38565 0.0189 0.56438 0.0567 0.18811 0.0284 0.35745 0.0851 0.50796 0.17019 0.1599 0.0851 0.29629 0.19857 0.40917 0.34039 0.11294 0.14184 0.20223 0.32149 0.26809 0.53895 0.0376 0.42549 0.0847 0.8888 0.14108 1.3899 0.0564 0.49167 0.10347 1.007 0.14109 1.5459 0.0377 0.52949 0.0564 1.0637 0.0564 1.6026s-0.0377 1.059-0.11294 1.5601c-0.0659 0.50113-0.18346 0.96916-0.35276 1.4041-0.1599 0.4444-0.39036 0.83205-0.69138 1.163-0.2916 0.34039-0.65843 0.60987-1.1005 0.80842-0.44212 0.20803-0.97359 0.32149-1.5944 0.3404-0.26338 0-0.54087-0.0189-0.83247-0.0567-0.29159-0.0284-0.55969-0.0945-0.80425-0.19855-0.24454-0.0945-0.44208-0.23639-0.59259-0.42549-0.1599-0.17966-0.23985-0.42549-0.23985-0.73752 0-0.25528 0.0423-0.44912 0.12693-0.5815 0.0847-0.13243 0.2822-0.19856 0.59259-0.19856-0.0283 0.13243-0.0612 0.26476-0.0987 0.39713-0.0469 0.13242-0.0847 0.25528-0.11294 0.36876-0.0377 0.11348-0.0517 0.20329-0.0423 0.26947 0 0.0661 0.0329 0.0899 0.0988 0.071 0.30098 0.19857 0.63019 0.34039 0.98764 0.42549s0.71019 0.12762 1.0582 0.12762c0.52675-0.01 0.97825-0.11816 1.3545-0.32621 0.38567-0.20802 0.70078-0.47749 0.94535-0.80842 0.25397-0.33094 0.44681-0.71387 0.57851-1.1488 0.14109-0.42549 0.22576-0.86989 0.25397-1.3332 0.0377-0.45385 0.0283-0.91243-0.0283-1.3757-0.0565-0.46331-0.14582-0.8888-0.26809-1.2765-0.1599 0.17966-0.32454 0.36876-0.49384 0.56731-0.1599 0.19857-0.33393 0.37822-0.52204 0.53897-0.18815 0.15128-0.39036 0.27892-0.60671 0.38293-0.20694 0.10402-0.44212 0.156-0.70548 0.156-0.27278 0-0.47974-0.0472-0.62084-0.14183-0.13174-0.0945-0.22105-0.22219-0.26808-0.38293-0.0469-0.17019-0.0705-0.36402-0.0705-0.5815 0.01-0.21747 0.014-0.44912 0.014-0.69495 0-0.22693 4e-3 -0.48223 0.014-0.76588 0.0188-0.28367 0.0517-0.56731 0.0988-0.85098 0.0564-0.2931 0.12693-0.57677 0.21163-0.85097 0.0941-0.28365 0.21637-0.53422 0.36684-0.7517 0.15052-0.22692 0.33863-0.40658 0.56439-0.53895 0.22575-0.13242 0.49382-0.19855 0.80426-0.19855zm-25.919 0.12762c0.1411 0 0.30101 0.01 0.47972 0.0284 0.18813 0.01 0.35744 0.0473 0.50795 0.11349 0.1599 0.0567 0.2916 0.15128 0.39506 0.28366 0.11294 0.13243 0.16932 0.31675 0.16932 0.55313-0.0188 0.16073-0.0469 0.26002-0.0847 0.29784-0.0283 0.0284-0.0752 0.0189-0.14109-0.0284-0.0564-0.0567-0.12693-0.13242-0.21164-0.22692-0.0847-0.0945-0.18814-0.18438-0.31043-0.26947-0.11293-0.0945-0.25396-0.16547-0.42327-0.21275-0.15993-0.0473-0.34333-0.0473-0.55029 0-0.21634 0-0.43268 0.0236-0.64903 0.071-0.21634 0.0379-0.41388 0.10868-0.5926 0.21274-0.1693 0.10402-0.31041 0.24585-0.42328 0.42549-0.10347 0.17966-0.15521 0.40658-0.15521 0.68079 0 0.14182 0.0612 0.24109 0.18342 0.29784 0.13174 0.0472 0.30101 0.0709 0.50795 0.0709 0.21635 0 0.4562-4e-3 0.71958-0.0141 0.27278-0.0189 0.55028-0.0284 0.83246-0.0284 0.2822 0 0.55498 0.0236 0.81836 0.071 0.26338 0.0379 0.49383 0.12296 0.69137 0.2553 0.20694 0.12296 0.36685 0.30256 0.47972 0.53895 0.11294 0.23637 0.15522 0.54368 0.12694 0.92188 0 0.27421-0.08 0.53423-0.23987 0.78006-0.15051 0.24584-0.34803 0.46331-0.5926 0.65242-0.23515 0.17964-0.49855 0.32147-0.79013 0.42549-0.29161 0.10402-0.57379 0.14182-0.84658 0.11348-0.11294-0.01-0.26808-0.0379-0.4656-0.0851-0.18814-0.0567-0.37627-0.13242-0.56439-0.22693-0.17873-0.0945-0.33393-0.20801-0.46562-0.34038-0.13174-0.14184-0.19752-0.30731-0.19752-0.49641 0.16931 0 0.32451 0.0331 0.4656 0.0994 0.15049 0.0661 0.2963 0.14182 0.4374 0.22692 0.14109 0.0756 0.28219 0.14655 0.42327 0.21274 0.1505 0.0567 0.31043 0.0851 0.47974 0.0851 0.19754 0 0.39976-0.0331 0.60671-0.0992 0.21634-0.0756 0.41388-0.17493 0.59259-0.29784 0.17874-0.13243 0.32453-0.2884 0.43741-0.46805 0.11294-0.1891 0.16932-0.39239 0.16932-0.60986 0.01-0.0661 0.01-0.14655 0-0.24111 0-0.0945-0.0283-0.1891-0.0847-0.28365-0.0565-0.10402-0.15051-0.19857-0.2822-0.28367-0.13174-0.0945-0.32451-0.16547-0.57848-0.21274-0.24458-0.0472-0.55499-0.071-0.93124-0.071-0.37625-0.01-0.84188 0.0236-1.3968 0.0992-0.1411 0-0.27749-0.0379-0.40919-0.11349-0.13174-0.0851-0.24926-0.18438-0.35273-0.29784-0.10347-0.12295-0.18814-0.25056-0.25398-0.38293-0.0657-0.14184-0.0987-0.27421-0.0987-0.39713 0-0.36875 0.0752-0.66659 0.22574-0.89351 0.15991-0.23639 0.36215-0.42077 0.60671-0.55314 0.24457-0.14182 0.51735-0.24111 0.81835-0.29784 0.30101-0.0567 0.60672-0.0851 0.91713-0.0851zm15.224 0.12762c-0.22575 0-0.42798 0.0567-0.60672 0.1702-0.17872 0.11349-0.34331 0.26948-0.49379 0.46803-0.14113 0.18912-0.26339 0.40658-0.36689 0.65242-0.10347 0.24583-0.19279 0.49166-0.26808 0.73751-0.0659 0.24583-0.11746 0.48695-0.15516 0.72332-0.0283 0.22694-0.0423 0.42549-0.0423 0.59568 0.0283 0.57677 0.12694 1.0212 0.29629 1.3332 0.16929 0.31203 0.37153 0.52004 0.60671 0.62404 0.24457 0.0946 0.50792 0.0946 0.79015 0 0.28216-0.0945 0.54556-0.26002 0.79013-0.49639 0.24458-0.24585 0.4515-0.54842 0.6208-0.90771 0.17871-0.36876 0.27748-0.78006 0.29629-1.2339 0.0188-0.34039-0.01-0.67132-0.0847-0.9928-0.0659-0.32149-0.16465-0.60514-0.29633-0.85098-0.12227-0.25528-0.27749-0.45385-0.46559-0.59568-0.17873-0.15128-0.38566-0.22693-0.62084-0.22693zm-93.304 0.11349a0.41072 0.41286 0 0 1 0.3852 0.26025 0.41072 0.41286 0 0 1-0.22928 0.53611 0.41072 0.41286 0 0 1-0.53405-0.23046 0.41072 0.41286 0 0 1 0.1672-0.50492 0.41072 0.41286 0 0 1 0-7.1e-4 0.41072 0.41286 0 0 1 0.0628-0.0311 0.41072 0.41286 0 0 1 0.14815-0.0291zm88.747 0.12762c0.13174-4e-3 0.26338-1e-5 0.39506 0.0141 0.26338 0.0189 0.48443 0.0756 0.66316 0.17019 0.18812 0.0851 0.31982 0.20803 0.39506 0.36876 0.0752 0.15128 0.0564 0.33094-0.0564 0.53895-0.24458-0.14183-0.50326-0.25529-0.77602-0.34038-0.2634-0.0851-0.52207-0.11349-0.77604-0.0851-0.25397 0.0284-0.48913 0.12762-0.70547 0.29784-0.21634 0.16075-0.39508 0.42077-0.53617 0.78006-0.14109 0.3593-0.23046 0.8368-0.26808 1.4325-0.0283 0.58623 0.014 1.319 0.12693 2.1984h-0.53616l-0.0283-0.22693c-0.01-0.16074-0.0235-0.36875-0.0423-0.62405-0.01-0.25528-0.0283-0.53894-0.0564-0.85097-0.0188-0.31202-0.0377-0.62877-0.0564-0.95025-0.0188-0.32148-0.0377-0.62878-0.0564-0.9219-0.01-0.30255-0.0235-0.56257-0.0423-0.78004 0-0.0284-4e-3 -0.0851-0.014-0.1702v-0.73751c0.11294-0.0472 0.21163-0.0567 0.29629-0.0284 0.0847 0.0284 0.1552 0.0804 0.21164 0.156 0.0564 0.0756 0.0987 0.16547 0.12694 0.26949 0.0283 0.0945 0.0517 0.1891 0.0705 0.28365 0.12227-0.20801 0.29631-0.37348 0.52207-0.4964 0.23516-0.13242 0.48442-0.21748 0.7478-0.2553 0.13174-0.0236 0.26338-0.0379 0.39506-0.0425zm-90.441 0.0383a0.95835 0.96334 0 0 0-0.37461 0.0681 0.95835 0.96334 0 0 0-0.14602 0.0737 0.95835 0.96334 0 0 0-0.38943 1.1779 0.95835 0.96334 0 0 0 1.2452 0.53823 0.95835 0.96334 0 0 0 0.53545-1.2516 0.95835 0.96334 0 0 0-0.87057-0.60631zm105.69 0.0184c-0.22577 0-0.42331 0.0662-0.5926 0.19856-0.16933 0.12295-0.31041 0.28366-0.42328 0.48222-0.11294 0.19855-0.20225 0.42549-0.26811 0.68077-0.0657 0.24584-0.11746 0.49641-0.1552 0.75169-0.0283 0.24585-0.0517 0.48695-0.0705 0.72333-0.01 0.22693-0.0141 0.41603-0.0141 0.56733 0 0.10401-4e-3 0.2222-0.0141 0.35457-0.01 0.13242-4e-3 0.26474 0.0141 0.3971 0.0188 0.13243 0.0564 0.24585 0.11294 0.3404 0.0659 0.0945 0.1693 0.14656 0.31039 0.15601 0.22574 0 0.43268-0.052 0.62084-0.15601 0.19755-0.10402 0.37153-0.24583 0.52205-0.42549 0.1599-0.17964 0.29629-0.3782 0.40917-0.59568 0.12227-0.22692 0.22105-0.45857 0.29629-0.69496 0.0847-0.23638 0.14582-0.46331 0.18342-0.68077 0.0469-0.22694 0.0705-0.42549 0.0705-0.59568 0.0283-0.17966 0.0283-0.3593 0-0.53895-0.0188-0.17966-0.0705-0.34039-0.15517-0.48222-0.0847-0.14184-0.19754-0.2553-0.33863-0.34039-0.14112-0.0945-0.31041-0.14183-0.50795-0.14183zm-105.21 0.3567a0.41072 0.41286 0 0 1 0.38447 0.26025 0.41072 0.41286 0 0 1-0.22928 0.53612 0.41072 0.41286 0 0 1-0.53333-0.23047 0.41072 0.41286 0 0 1 0.1665-0.50492 0.41072 0.41286 0 0 1 0.0628-0.032 0.41072 0.41286 0 0 1 0.14886-0.0291zm43.137 9.9018 5e-3 5e-3 8.0728 10.577 6.1264 8.0275 0.37249 0.48718 1.5436 2.0232 0.0218 0.0284 8e-3 0.011v7e-4l1e-3 1e-3 3e-3 4e-3 -0.0169 0.01-0.0733 0.0902c-0.0472 0.0582-5.1876 3.3585-11.423 7.334-5.9129 3.7697-8.9615 5.7016-10.382 6.5787-0.0539 0.0349-0.80659 0.51441-0.80989 0.51699-0.0307 0.0237-0.0821 0.0414-0.13339 0.0531-0.0578 0.0314-0.11568 0.063-0.12337 0.0618-0.11897-0.0185-8.2421-6.1628-8.5617-6.4759-0.10512-0.10305-0.1425-0.14636-0.20882-0.21487-0.0581-0.0472-0.10677-0.0922-0.1425-0.12899l-4e-3 -4e-3c-8e-3 -5e-3 -0.0406-0.0232-0.0416-0.0255-7.5e-4 -1e-3 -5e-3 -0.0137-7e-3 -0.017-1e-3 -1e-3 -3e-3 -4e-3 -4e-3 -5e-3 -2.2e-4 -2.9e-4 -0.0154-0.0123-0.0155-0.0123-3e-5 -7e-5 -8e-3 -0.0184-8e-3 -0.0184-8.6e-4 -1e-3 -0.0123-0.011-0.0137-0.0123-0.0166-0.0281-0.081-0.16254-0.14321-0.29855-4e-3 -8e-3 -0.031-0.0767-0.0361-0.088-0.0199-0.035-0.0399-0.0716-0.0593-0.0985-0.1546-0.21644-3.9807-9.7787-3.9662-9.9124 0.01-0.0893 2.2782-2.2093 9.8936-9.2479 5.4344-5.0229 9.9362-9.1577 10.004-9.1884l0.10649-0.0482zm-0.2561 3.5223c-0.0742 7e-3 -16.906 15.565-16.917 15.636-7e-3 0.0428 3.2446 8.2005 3.3193 8.3289 4e-3 4e-3 0.049 0.0408 0.0593 0.0504 0.0578 0.0513 1.5969 1.2256 3.5302 2.6933 3.4134 2.5913 3.5769 2.7081 3.6974 2.6416 0.33291-0.18368 19.288-12.289 19.306-12.329 0.0273-0.0624-12.926-17.028-12.996-17.021zm72.808 1.331a2.7485 2.7628 0 0 1 0.54745 0.0369h7.1e-4a2.7485 2.7628 0 0 1 0.45361 0.11775 2.7485 2.7628 0 0 1 1.3157 0.98569 6.0467 6.0781 0 0 1 3.5351 0.1383 6.0467 6.0781 0 0 1 3.2473 2.7238 3.4814 3.4995 0 0 1 1.9831 0.0951 3.4814 3.4995 0 0 1 2.3245 3.3528 8.5935 5.3127 43.524 0 1 1.509 0.26738 2.5511 4.1447 18.798 0 1 3.5168-2.4969 2.5511 4.1447 18.798 0 1 1.0674 4.7555 2.5511 4.1447 18.798 0 1-0.0945 0.25173 8.5935 5.3127 43.524 0 1 0.41694 0.37655 8.5935 5.3127 43.524 0 1 2.623 9.7805 8.5935 5.3127 43.524 0 1-9.0259-1.2843 5.8635 5.8939 0 0 1-0.0198 0.0611 5.8635 5.8939 0 0 1-3.3623 3.5174l-2.3775 6.8156a1.6491 1.6577 0 0 1 0.11294 1.3467 1.6491 1.6577 0 0 1-2.1016 1.0162 1.6491 1.6577 0 0 1-1.011-2.1132 1.6491 1.6577 0 0 1 0.92487-0.98003l1.9774-5.6696a5.8635 5.8939 0 0 1-1.636-0.32052l-2.0191 5.7887a1.6491 1.6577 0 0 1 0.11294 1.3467 1.6491 1.6577 0 0 1-2.1016 1.0155 1.6491 1.6577 0 0 1-1.0109-2.1125 1.6491 1.6577 0 0 1 0.92489-0.98076l2.1623-6.1986a5.8635 5.8939 0 0 1-0.74287-0.79493 6.2299 6.2623 0 0 1-4.0177-0.032 6.2299 6.2623 0 0 1-1.5549-0.81552 3.6647 3.6837 0 0 1-3.4844 0.78927l-1.4752 4.2308a1.6491 1.6577 0 0 1 0.11294 1.3467 1.6491 1.6577 0 0 1-2.1016 1.0155 1.6491 1.6577 0 0 1-1.011-2.1125 1.6491 1.6577 0 0 1 0.92418-0.98076l1.6748-4.8009a3.6647 3.6837 0 0 1-0.733-1.9097 2.5653 2.5786 0 0 1-1.2826-0.10567l-2.0191 5.7894a1.6491 1.6577 0 0 1 0.11294 1.3459 1.6491 1.6577 0 0 1-2.1016 1.0162 1.6491 1.6577 0 0 1-1.0109-2.1125 1.6491 1.6577 0 0 1 0.92487-0.98076l2.4325-6.9744a2.5653 2.5786 0 0 1-0.0402-0.26523 5.3138 5.3414 0 0 1-0.40705-0.12269 5.3138 5.3414 0 0 1-3.2565-6.8078 5.3138 5.3414 0 0 1 3.8364-3.4394 2.5653 2.5786 0 0 1 0.11787-1.2176 2.5653 2.5786 0 0 1 3.2692-1.5807 2.5653 2.5786 0 0 1 0.83106 0.48787 2.5653 2.5786 0 0 1 0.0944-0.3567 2.5653 2.5786 0 0 1 3.2692-1.5807 2.5653 2.5786 0 0 1 1.2395 0.9389 2.7485 2.7628 0 0 1 2.4029-1.6034zm40.384 0.83396c-0.0537 0.0171-8e-3 0.0797 0.13827 0.18579 0.72447 0.52299 3.3943 1.5431 4.8868 1.8672 0.8775 0.19054 1.2529 0.19497 1.5252 0.0191 0.1797-0.1161 0.41199-0.34583 0.44443-0.44038 0.0441-0.12721-0.0567-0.16985-0.65819-0.28081-1.8332-0.33817-5.2133-1.0654-5.8837-1.2658-0.24724-0.074-0.3993-0.10223-0.45292-0.0851zm-114.35 1.6126c0.011-3e-3 0.0398 0.0181 0.0826 0.0602 0.0137 1e-3 0.0273 4e-3 0.0382 0.011 0.0605 0.0373 2.16 2.7741 4.3874 5.6944 0.30112 0.39431 0.30823 0.39943 0.65397 0.85241 3.0375 3.9797 5.0632 6.6694 5.0498 6.705-0.0226 0.0601-2.6837 1.7673-2.8219 1.8104-0.0591 0.0184-0.87225-1.0208-3.8971-4.9838-2.3897-3.131-3.8462-5.0051-3.8872-5.0009-0.0623 7e-3 -2.0817 1.8317-2.2674 2.0494l-0.0882 0.10278 3.6424 4.7718c3.4329 4.4977 3.6392 4.7779 3.5923 4.8761-0.0596 0.12447-8.5554 5.5524-8.6633 5.5349-0.0641-0.011-5.3666-4.0005-5.6318-4.2378-0.0657-0.0589-0.64171-1.4313-1.4032-3.3422-0.71064-1.7832-1.2861-3.2855-1.2783-3.3386 0.0166-0.11431 3.6977-3.5259 3.8547-3.5727 0.0644-0.0191 0.23493 0.17251 0.56226 0.58646 0.23066 0.28331 0.47765 0.60279 0.73228 0.94314l0.84941 1.1127-0.0726 0.12336c-0.0397 0.0679-0.46457 0.48167-0.94392 0.91976-0.47938 0.43814-0.87328 0.81992-0.87552 0.84816-7e-3 0.09 1.3207 3.2724 1.4194 3.4018 0.1198 0.15707 2.8314 2.2656 2.9355 2.2827 0.0424 7e-3 0.84892-0.47966 1.7919-1.0821l1.7143-1.0956-3.4322-4.4974c-2.4787-3.2476-3.2686-4.3019-3.4075-4.5612l-0.0296-0.039 8e-3 -0.0123c-7.2e-4 -3e-3 -7e-3 -0.0123-7e-3 -0.0143-3e-3 -0.11472 0.42708-0.52769 3.6494-3.506 2.0088-1.8566 3.6929-3.3877 3.7425-3.4025zm134.63 1.8374c0.90377 0.0323 1.7794 0.44075 2.158 1.2091 0.0873 0.17704 0.10608 0.25099 0.0876 0.35103-0.1032 0.55319-1.2787 0.83687-2.9115 0.70274-0.93671-0.0767-1.7256-0.29788-1.873-0.52403-0.0814-0.12474-0.011-0.35369 0.21304-0.69001 0.49063-0.73733 1.4222-1.081 2.326-1.0488zm-22.065 2.8153c0.27824-8e-3 0.54989 5e-3 0.69843 0.0432 0.29928 0.0763 0.55484 0.20172 0.74565 0.36591 0.18083 0.15558 0.19 0.23179 0.0572 0.49568-0.40279 0.80056-1.1747 1.4753-1.9062 1.6658-0.29201 0.076-0.69833 0.0707-0.93617-0.0123-0.57537-0.19976-1.025-0.76751-0.96369-1.2169 0.0725-0.53105 0.6792-1.0182 1.5669-1.2573 0.17498-0.0472 0.45967-0.0764 0.73794-0.0844zm18.936 0.0526 0.24412 0.0667c0.39295 0.1069 0.82977 0.34638 1.073 0.58858 0.35676 0.35533 0.52006 0.80482 0.39859 1.097-0.13023 0.31348-0.91864 0.51397-1.4526 0.36947-0.54943-0.14869-0.86909-0.52756-0.86986-1.0311-2.9e-4 -0.2006 0.02-0.27845 0.12419-0.48718 0.0694-0.13921 0.20282-0.32688 0.30334-0.42622zm-42.947 2.838a1.2826 1.2893 0 0 0-1.1676 0.8616 1.2826 1.2893 0 0 0 0.78659 1.6431 1.2826 1.2893 0 0 0 1.6346-0.78999 1.2826 1.2893 0 0 0-0.7859-1.6431 1.2826 1.2893 0 0 0-0.21236-0.0553v6.9e-4a1.2826 1.2893 0 0 0-0.25537-0.017zm0.69065 1.0084a0.5497 0.55256 0 0 1 0.10937 7e-3 0.5497 0.55256 0 0 1 7e-4 0 0.5497 0.55256 0 0 1 0.0903 0.0235 0.5497 0.55256 0 0 1 0.33722 0.7042 0.5497 0.55256 0 0 1-0.70056 0.33893 0.5497 0.55256 0 0 1-0.33718-0.70415 0.5497 0.55256 0 0 1 0.50015-0.36947zm2.3352 0.0575a1.2826 1.2893 0 0 0-1.1669 0.86232 1.2826 1.2893 0 0 0 0.7859 1.6431 1.2826 1.2893 0 0 0 1.6346-0.79 1.2826 1.2893 0 0 0-0.7859-1.6431 1.2826 1.2893 0 0 0-0.21166-0.0553 1.2826 1.2893 0 0 0-0.25607-0.017zm-0.64128 0.4638a0.5497 0.55256 0 0 1 0.10937 8e-3v-6.8e-4a0.5497 0.55256 0 0 1 0.0911 0.0242 0.5497 0.55256 0 0 1 0.3365 0.7042 0.5497 0.55256 0 0 1-0.70056 0.33894 0.5497 0.55256 0 0 1-0.3365-0.70489 0.5497 0.55256 0 0 1 0.5002-0.36944zm-74.349 11.999h34.738v34.919l-16.267-0.0156c-8.9466-8e-3 -16.762-0.024-17.369-0.0354l-0.9404-0.0177h-0.0944v-7.2e-4h-0.0678v-17.427zm114.56 4.6399a7.0359 7.0725 0 0 1 7.3e-4 0 7.0359 7.0725 0 0 1 0.49736 4e-3 7.0359 7.0725 0 0 1 6.7324 7.3659 7.0359 7.0725 0 0 1-7.3271 6.7666 7.0359 7.0725 0 0 1-6.7323-7.3652 7.0359 7.0725 0 0 1 6.829-6.7709zm-173.62 3.4003a9.7476 9.7982 0 0 0-9.7469 9.7982 9.7476 9.7982 0 0 0 9.7469 9.7983 9.7476 9.7982 0 0 0 9.7476-9.7983 9.7476 9.7982 0 0 0-9.7476-9.7982zm135.41 6.0207c0.0683 1e-3 0.12062 0.0707 0.15662 0.20775 5e-3 0.0182 7e-3 0.0468 8e-3 0.0858l0.0182 0.0687c0.0366 0.17609 0.0926 0.4251 0.16793 0.74744l0.29207 1.1105c0.1198 0.41805 0.24893 0.87252 0.38801 1.3636 0.13668 0.48203 0.27617 0.97332 0.41763 1.4736 0.13909 0.49118 0.2779 0.98246 0.41694 1.4736 0.14573 0.47964 0.27378 0.92975 0.3845 1.3502 0.11993 0.41801 0.21874 0.79249 0.29628 1.124 0.0843 0.31991 0.14355 0.56346 0.17778 0.73041-0.0446 0.23684-0.14332 0.43407-0.29628 0.59215-0.14392 0.15566-0.31324 0.28876-0.50797 0.39925-0.18801 0.0989-0.39016 0.18241-0.60598 0.24962-0.21583 0.0672-0.4193 0.1257-0.61027 0.17656-0.60923 0.16212-1.1381 0.11252-1.5866-0.14962-0.45093-0.27126-0.75769-0.71803-0.92136-1.3396-0.065-0.24679-0.0951-0.52749-0.0903-0.84174 3e-3 -0.32343 0.0479-0.629 0.13754-0.91692 0.0873-0.29708 0.21875-0.55676 0.39368-0.77935 0.17489-0.22262 0.40743-0.37289 0.69842-0.4503 0.21824-0.0581 0.41546-0.0858 0.59118-0.0837 0.18242-0.01 0.35926 0.0169 0.53122 0.0788 0.17866 0.0502 0.35019 0.12721 0.51361 0.23047 0.17009 0.0917 0.35058 0.20472 0.5418 0.33967l-1.9344-7.012c0.22146-0.15672 0.36251-0.23281 0.42189-0.22903zm8.8326 0.71621c0.0262-1e-3 0.0556 4e-3 0.0889 0.0199 0.0642 0.0221 0.15803 0.10032 0.28078 0.234l-0.22785 8.1147-0.51715-0.30208 0.22649-7.6751c4e-3 -0.0597 0.011-0.12516 0.0211-0.19643 8e-3 -0.0804 0.028-0.13435 0.0593-0.16237 0.0191-0.0198 0.0421-0.0305 0.0683-0.0327zm1.1104 0.35034 0.40286 0.20068c0.18587 0.0777 0.39457 0.16843 0.62643 0.273 0.2319 0.10457 0.47102 0.21712 0.71678 0.33755 0.25486 0.11802 0.49828 0.22943 0.73016 0.33404 0.22948 0.0951 0.43389 0.18801 0.61308 0.27724 0.18589 0.0777 0.327 0.13284 0.42327 0.16597 0.0987 0.0423 0.21376 0.0752 0.3464 0.0985 0.13023 0.0143 0.25962 0.0431 0.388 0.0873 0.13503 0.0325 0.25602 0.0836 0.36192 0.15315 0.10347 0.0605 0.17342 0.15932 0.20954 0.29645 5e-3 0.0183 7e-3 0.0468 8e-3 0.0858 7e-3 0.0274 8e-3 0.0516 4e-3 0.0723-0.042 0.0992-0.0978 0.2559-0.16793 0.47016-0.0725 0.20514-0.15604 0.44306-0.25043 0.71269-0.0967 0.26051-0.19797 0.54128-0.30337 0.84318-0.10786 0.29275-0.20892 0.57426-0.30334 0.84388-0.0967 0.2605-0.18468 0.49884-0.26386 0.71552-0.0725 0.2051-0.12515 0.35637-0.15802 0.45313-0.0554 0.12227-0.11129 0.22515-0.16721 0.30851-0.0583 0.0742-0.15066 0.12776-0.27794 0.16168l-0.15522-0.58932 1.2565-3.7088-3.8308-1.7977zm-59.356 0.84953c-0.22988-0.011-0.47737-0.011-0.75203 7e-4 -0.99604 0.0424-1.4593 0.15296-2.2265 0.53046-0.9948 0.48948-1.7646 1.3619-2.0713 2.3466-0.21899 0.70299-0.2148 2.0419 8e-3 2.7649 0.4836 1.5658 1.5257 2.4521 4.2505 3.6145 1.9647 0.83813 2.5504 1.3323 2.6575 2.2416 0.0288 0.24515 1e-3 0.40781-0.11431 0.67794-0.296 0.69167-1.0111 1.1126-1.9697 1.1595-1.2969 0.0634-2.3137-0.42048-3.2889-1.5658l-0.19824-0.23263c-0.046-0.0358-0.0782-0.0568-0.10086-0.0674l-0.71748 0.42052c-0.41048 0.24064-0.93716 0.54934-1.1704 0.68644-0.23324 0.13709-0.42401 0.28734-0.42401 0.334 0 0.1458 0.77215 1.1378 1.1584 1.4885 0.92872 0.84322 1.8886 1.2876 3.3877 1.5672 0.0933 0.0174 0.70361 0.0209 1.3566 8e-3 0.94698-0.0182 1.2976-0.0523 1.7305-0.16876v7.3e-4c1.7123-0.46111 2.8372-1.5233 3.224-3.0437 0.17934-0.70482 0.18112-1.7328 4e-3 -2.431-0.40862-1.606-1.4645-2.5965-3.9062-3.6663-1.6611-0.72778-2.1932-1.0073-2.5376-1.331-0.421-0.39583-0.57804-0.77376-0.53546-1.29 0.0937-1.1371 1.286-1.739 2.5143-1.2694 0.38409 0.14684 1.147 0.78894 1.2176 1.0247 0.0255 0.0851 0.0602 0.088 0.21519 0.017 0.24438-0.11198 1.7182-1.0575 1.9697-1.2637l0.19754-0.16241-0.22646-0.33468c-0.43066-0.63794-1.1129-1.234-1.7877-1.5616-0.64249-0.31192-1.1749-0.46009-1.8646-0.49499zm-11.201 0.18652-0.0204 5.8483c-0.0183 5.2221-0.032 5.8832-0.13188 6.1752-0.24482 0.71523-0.71211 1.068-1.4886 1.124-0.84288 0.0608-1.5893-0.35593-2.1115-1.1793l-0.27232-0.42974-0.51711 0.30633c-0.91928 0.54426-1.839 1.1238-1.8744 1.1814-0.0655 0.10663 0.64277 1.0729 1.114 1.5197 0.556 0.52723 1.4704 1.0116 2.2102 1.1708 0.63577 0.13682 2.4056 0.0995 2.9856-0.0631 1.5163-0.42473 2.4927-1.4001 2.8431-2.8387 0.2192-0.90015 0.23994-1.5127 0.24197-7.1375l3e-3 -5.6774h-1.49zm92.341 3.6265a4.7271 4.7516 0 0 1 0.33441 3e-3 4.7271 4.7516 0 0 1 4.5228 4.9484 4.7271 4.7516 0 0 1-4.9228 4.5463 4.7271 4.7516 0 0 1-4.5228-4.9484 4.7271 4.7516 0 0 1 4.5884-4.5485zm-48.756 0.049 1.5387 4.4024c0.0491-0.0718 0.10951-0.17574 0.1806-0.31203 0.0711-0.13627 0.1628-0.26799 0.27514-0.3957 0.10992-0.13681 0.23836-0.25908 0.38518-0.36663 0.14441-0.11664 0.31317-0.19589 0.50651-0.23757 0.38244-0.0626 0.71797 0.01 1.006 0.21629 0.29714 0.2046 0.551 0.48478 0.7612 0.83962 0.21929 0.35249 0.40698 0.75183 0.56369 1.1992 0.15431 0.43819 0.27673 0.86594 0.36685 1.2821 0.0992 0.41377 0.17222 0.7852 0.22012 1.1148 0.057 0.32718 0.0919 0.55288 0.10511 0.67653l-0.50863 0.0618-0.10086-0.38362c-0.039-0.18525-0.0855-0.39817-0.13899-0.63824-0.0558-0.24922-0.11843-0.50649-0.18837-0.77155l-0.19541-0.74035c-0.0535-0.24007-0.10855-0.45004-0.1658-0.63043-0.0482-0.1828-0.0866-0.3094-0.115-0.3801-0.0583-0.25834-0.17328-0.49202-0.345-0.70063-0.17172-0.2086-0.36395-0.34795-0.57709-0.41838-0.21557-0.0796-0.44453-0.0631-0.68712 0.0504-0.245 0.10429-0.47122 0.35506-0.67798 0.75238-0.15351 0.45164-0.24009 0.88092-0.2596 1.2871-0.022 0.39711-3e-3 0.78346 0.0572 1.1588 0.0575 0.36614 0.14167 0.73967 0.25184 1.1211 0.10786 0.37234 0.21236 0.76992 0.31395 1.1928l-0.55378 0.0596c7.9e-4 -0.10786-0.029-0.29559-0.0897-0.56307-0.0541-0.27906-0.12625-0.60711-0.21585-0.98431-0.0919-0.38633-0.19896-0.8124-0.32168-1.2786-0.11377-0.46861-0.2405-0.94841-0.37958-1.4396-0.13242-0.50272-0.26909-1.0045-0.41057-1.5048-0.14148-0.50032-0.28123-0.97672-0.41979-1.4289-0.12941-0.45458-0.25393-0.87115-0.37319-1.2502-0.1102-0.38149-0.20245-0.69453-0.27654-0.93892zm12.424 0.0688c0.15509-3e-3 0.30583 0.0359 0.45291 0.11417 0.15619 0.0757 0.31458 0.21436 0.47476 0.41627 0.16691 0.19033 0.3399 0.47666 0.51856 0.85949 0.18775 0.3804 0.3906 0.87438 0.6088 1.4814 0.22493 0.59545 0.47347 1.3364 0.74571 2.2224 0.0494 0.11404 0.0365 0.23016-0.0395 0.3482-0.0692 0.10622-0.17768 0.21298-0.3245 0.32053-0.14926 0.0984-0.32213 0.19861-0.51924 0.29995-0.19043 0.0898-0.38757 0.17144-0.5919 0.24536-0.20434 0.074-0.40122 0.14103-0.58978 0.20068-0.18855 0.06-0.34606 0.10718-0.4734 0.14113-0.16365 0.0436-0.33905 0.0606-0.52626 0.0517-0.17811-0.011-0.35361-0.048-0.52559-0.10991-0.16526-0.0734-0.31219-0.17084-0.44161-0.2929-0.12268-0.13366-0.20867-0.2916-0.25682-0.4744-0.13723-0.52103-0.0958-0.93828 0.12337-1.2509 0.22844-0.31509 0.57472-0.53399 1.0385-0.6574 0.18187-0.0483 0.35094-0.0885 0.50796-0.12049 0.16609-0.0344 0.32671-0.0524 0.48185-0.0546 0.15509-3e-3 0.31068 0.015 0.46632 0.0517 0.16473 0.0344 0.34195 0.0998 0.53263 0.1957l-0.043-0.16452c-0.0149-0.0939-0.0357-0.1909-0.0622-0.29144l-0.0719-0.27445-0.0508-0.19218c-0.0524-0.16208-0.11253-0.37093-0.17988-0.62686-0.0697-0.26508-0.16311-0.52857-0.2808-0.79072-0.10854-0.26455-0.25919-0.50331-0.45149-0.71622-0.18317-0.21534-0.42789-0.35094-0.73441-0.40636-0.19093 0.0508-0.36042 0.1301-0.50724 0.23757-0.14682 0.10759-0.29224 0.21948-0.43666 0.33614-0.14444 0.11664-0.28986 0.22932-0.4367 0.33683-0.14925 0.0984-0.31912 0.17257-0.51004 0.2234-0.0602-0.22852-0.0414-0.43369 0.0564-0.61626 0.10456-0.19409 0.24562-0.35875 0.42397-0.49425 0.1784-0.13545 0.37314-0.24639 0.58416-0.3319 0.21101-0.0855 0.39857-0.15003 0.56227-0.1936 0.17089-0.0161 0.32946-0.0237 0.4755-0.0233zm4.6385 1.2481c-0.0521-4e-3 -0.10485-3e-3 -0.15803 6.8e-4 -0.0709 5e-3 -0.14315 0.0176-0.21591 0.0369-0.19092 0.0508-0.35953 0.14992-0.50582 0.29642-0.14629 0.14651-0.26711 0.31538-0.36262 0.50704-0.0864 0.18924-0.14505 0.39046-0.17637 0.60418-0.0313 0.21374-0.0215 0.41652 0.029 0.60845 0.0602 0.22851 0.13838 0.45273 0.23492 0.67155 0.0943 0.20971 0.20972 0.38908 0.3464 0.53824 0.13668 0.14948 0.30129 0.25724 0.49384 0.32339 0.19013 0.057 0.41206 0.0521 0.66667-0.0156l0.55945-0.1489c0.21823-0.0581 0.42151-0.13654 0.60953-0.23546 0.18561-0.108 0.33202-0.23554 0.43951-0.38153 0.10758-0.14596 0.13476-0.3194 0.0819-0.52051-0.0626-0.23763-0.16956-0.49706-0.32171-0.77933-0.14547-0.29383-0.32762-0.55873-0.54532-0.79423-0.21103-0.24708-0.45082-0.4377-0.71959-0.57159-0.14744-0.0818-0.29927-0.12845-0.45572-0.13969zm-9.5303 0.25455c0.0792-4e-3 0.16013 1e-3 0.24129 0.0137 0.17142 0.0229 0.33914 0.0705 0.50442 0.14395 0.17198 0.0619 0.33098 0.14723 0.47618 0.25532 0.15191 0.0965 0.27881 0.20896 0.38096 0.33824 0.1021 0.12927 0.17131 0.26285 0.20741 0.39998 0.0451 0.13462 0.0398 0.26345-0.0154 0.38577l-2.7366 1.2998c-0.034 0.0188-0.0543 0.0735-0.06 0.16312-8e-3 0.0804-5e-3 0.18198 8e-3 0.30565 0.0137 0.12364 0.0298 0.26091 0.0501 0.41198 0.027 0.13954 0.0541 0.27958 0.0811 0.41911 0.0246 0.13037 0.0515 0.24988 0.0804 0.35957l0.0613 0.23327c0.0674 0.25594 0.18205 0.45055 0.34359 0.58366 0.16821 0.12144 0.3581 0.19759 0.57073 0.22903 0.21262 0.0314 0.44068 0.0298 0.68431-5e-3 0.25274-0.0379 0.49799-0.0881 0.73441-0.15103 0.2364-0.063 0.4567-0.13174 0.66102-0.20565 0.20435-0.074 0.37437-0.129 0.51075-0.16525 0.01 0.0366 7e-3 0.0818-8e-3 0.13476-0.0152 0.053-0.035 0.10703-0.0593 0.16236l-0.0804 0.1383c-0.0292 0.0371-0.0469 0.0615-0.0537 0.073-0.0678 0.0376-0.17461 0.0954-0.31956 0.173-0.13826 0.0661-0.2902 0.13586-0.45573 0.2092-0.15647 0.0709-0.3045 0.13517-0.44517 0.19219-0.14066 0.057-0.23823 0.0925-0.29278 0.10704-0.26743 0.12982-0.51475 0.19062-0.74075 0.18226-0.226-8e-3 -0.43157-0.0705-0.61798-0.1872-0.18641-0.11665-0.35431-0.27285-0.50301-0.46804-0.1511-0.20431-0.28293-0.42844-0.39579-0.67228-0.11294-0.24382-0.21007-0.50117-0.29133-0.77297-0.0722-0.2742-0.12845-0.5431-0.16862-0.80629-0.0722-0.27421-0.0924-0.59186-0.0607-0.95237 0.0292-0.36966 0.10594-0.72289 0.23139-1.0595 0.13215-0.34812 0.30034-0.65156 0.50443-0.91126 0.21075-0.27123 0.45746-0.44478 0.73934-0.51979 0.0773-0.0206 0.155-0.0329 0.2342-0.0369zm0.23565 0.56096c-0.14773 3e-3 -0.32266 0.0191-0.52417 0.0482-0.0819 0.0218-0.17834 0.0963-0.29066 0.22409-0.10567 0.1161-0.20007 0.25833-0.28221 0.42688-0.0753 0.15699-0.13338 0.32422-0.17424 0.50137-0.0343 0.16561-0.0231 0.29965 0.0332 0.40208 0.24368-0.0354 0.48802-0.10553 0.733-0.20989 0.24501-0.10429 0.46198-0.22083 0.65188-0.34962 0.18749-0.1379 0.33663-0.27518 0.44655-0.41202 0.10759-0.14596 0.1417-0.27282 0.10374-0.38008-0.0288-0.10965-0.13996-0.18284-0.33435-0.21911-0.0939-0.0239-0.21493-0.0346-0.36263-0.032zm-9.0252 1.5176c0.0578 0.21904 0.0689 0.46619 0.0339 0.73963-0.0259 0.27097-0.084 0.55028-0.17357 0.83821-0.0829 0.27634-0.1895 0.55392-0.32028 0.83323-0.13077 0.27933-0.26049 0.54404-0.38942 0.79352-0.12213 0.23793-0.24049 0.4552-0.35416 0.6517-0.10456 0.19411-0.18561 0.34779-0.24337 0.46096l0.13682 0.52052c0.0891 5e-3 0.21621 0.0258 0.38097 0.0602 0.17142 0.0228 0.36483 0.0545 0.57987 0.095 0.21263 0.0314 0.43059 0.0668 0.65468 0.10498 0.23323 0.0358 0.45731 0.0736 0.67234 0.11417 0.21503 0.0406 0.40527 0.0784 0.57001 0.11281 0.17386 0.032 0.29598 0.0534 0.36684 0.0638 0.0321 0.011 0.0815 0.032 0.14816 0.0631 0.0666 0.0311 0.13421 0.0667 0.20318 0.10704 0.0689 0.0403 0.13339 0.0821 0.19329 0.12474 0.0689 0.0403 0.11211 0.0729 0.12844 0.0978-0.0257 0.12419-0.0609 0.21201-0.1058 0.2631-0.0449 0.051-0.11294 0.0885-0.20386 0.1128-0.0727 0.0194-0.23152 8e-3 -0.47623-0.0347-0.24471-0.0425-0.52757-0.0996-0.84799-0.17091-0.32249-0.0804-0.66169-0.166-1.0166-0.25742-0.35728-0.10059-0.6891-0.19777-0.99611-0.29213-0.30036-0.10594-0.55405-0.20028-0.76053-0.28226-0.20645-0.0819-0.31529-0.14578-0.32731-0.19145l-0.0183-0.0681c-5.5e-4 -0.039 4e-3 -0.06 0.0124-0.0624l1.8385-4.7144zm14.474 0.68996c-0.0764-4e-3 -0.15453-7.6e-4 -0.23421 0.011-0.1594 0.0229-0.33461 0.0598-0.52559 0.11061-0.42095 0.24893-0.69803 0.48928-0.83175 0.7205-0.13613 0.22206-0.17369 0.4126-0.11226 0.57228 0.0705 0.15725 0.21951 0.27889 0.44661 0.36519 0.22463 0.0771 0.47989 0.10278 0.76473 0.0759 0.28243-0.036 0.57183-0.13797 0.86845-0.30492 0.29417-0.17609 0.55312-0.43039 0.77669-0.76374-0.1789-0.23604-0.34156-0.40822-0.48676-0.51627-0.14763-0.11719-0.29438-0.19548-0.44093-0.23473-0.0733-0.0196-0.14854-0.0314-0.22505-0.0354zm-116.78 1.8906a7.4081 7.4466 0 0 0-7.4082 7.446 7.4081 7.4466 0 0 0 7.4082 7.4467 7.4081 7.4466 0 0 0 7.4082-7.4467 7.4081 7.4466 0 0 0-7.4082-7.446zm144.98 2.7111a3.0945 3.1105 0 0 1 0.21871 3e-3 3.0945 3.1105 0 0 1 2.9609 3.2394 3.0945 3.1105 0 0 1-3.2226 2.9756 3.0945 3.1105 0 0 1-2.9609-3.2394 3.0945 3.1105 0 0 1 3.0039-2.9777zm-156.68 11.79a3.899 3.9193 0 0 0-3.8992 3.9194 3.899 3.9193 0 0 0 3.8992 3.9194 3.899 3.9193 0 0 0 3.8992-3.9194 3.899 3.9193 0 0 0-3.8992-3.9194zm134.79 0.29641c1.4406 0.014 2.5655 0.71596 3.3383 2.0984 0.58861 1.0529 0.62611 1.3372 0.61448 4.6952l-0.0124 3.5748 1.3912 0.53398c2.8892 1.1101 5.2603 3.149 5.7546 4.9484 0.60275 2.1943-1.0708 4.4609-4.5376 6.1462-1.1306 0.54956-2.1906 0.99915-2.3556 0.99915-0.2237 0-0.26696 0.78543-0.1707 3.0862 0.14917 3.5666-0.10127 4.8311-1.2078 6.0979-1.8252 2.0896-4.8671 1.6453-8.731-1.2743l-1.4886-1.1247-1.3326 1.024c-3.0347 2.3317-6.0138 3.2373-7.7187 2.3466h-6.8e-4c-1.9669-1.0276-2.6366-3.0195-2.4191-7.195 0.11843-2.2727 0.0823-2.9605-0.15661-2.9607-0.55037-2.4e-4 -3.489-1.5011-4.726-2.4139-0.80646-0.5952-1.4145-1.3273-1.8554-2.2331-0.58927-1.2107-0.62763-1.4528-0.37529-2.3948 0.50533-1.8865 2.8256-3.9163 5.7701-5.0477l1.3813-0.53043-3e-3 -3.5784c-1e-3 -3.2496 0.0501-3.6777 0.57145-4.6591 1.5546-2.9265 5.1335-2.7669 9.3193 0.41554 0.75448 0.5736 1.4402 1.0424 1.5231 1.0424 0.083 0 0.77594-0.48784 1.5401-1.0843 0.76411-0.59643 2.096-1.4029 2.9602-1.7927 1.0836-0.48885 2.0619-0.7282 2.9263-0.71978zm-50.963 0.62759a0.31866 0.32032 0 0 1 0.0318 3e-3c3e-3 0 3e-3 1e-3 5e-3 1e-3 0.22036-0.011 0.42047 4e-3 0.42047 4e-3a0.31866 0.32032 0 0 1 0.26454 0.36308l-0.0649 0.44677a0.31866 0.32032 0 0 1-0.35627 0.27016s-0.40508-0.0335-0.6822 0.16598c-0.14536 0.10457-0.27029 0.24293-0.3492 0.59069-0.0779 0.3434-0.0832 0.89507 0.11157 1.7105 0.39723 1.6636 0.92302 2.3103 1.2917 3.0514a0.31866 0.32032 0 0 1 0 1e-3c0.18607 0.37409 0.32707 0.79505 0.30196 1.2942-0.0248 0.49477-0.19452 1.031-0.52207 1.726a0.31866 0.32032 0 0 1-0.42469 0.15246l-0.40565-0.1936a0.31866 0.32032 0 0 1-0.15168-0.42688c0.29567-0.6274 0.40443-1.0347 0.41835-1.3126 0.0143-0.28354-0.0424-0.45963-0.18765-0.7517-0.28666-0.57628-0.94172-1.4656-1.3764-3.2862-0.22088-0.92507-0.24399-1.6376-0.11499-2.2069 0.12981-0.57276 0.42842-0.98808 0.77602-1.2381 0.34305-0.24675 0.70774-0.33356 0.98414-0.36166a0.31866 0.32032 0 0 1 0.0296-3e-3zm2.8692 0a0.31866 0.32032 0 0 1 0.0479 4e-3c0.21661-0.01 0.41622 4e-3 0.41622 4e-3a0.31866 0.32032 0 0 1 0.26455 0.36308l-0.0641 0.44677a0.31866 0.32032 0 0 1-0.35698 0.27016s-0.40581-0.0333-0.68291 0.16598c-0.14536 0.10457-0.26958 0.24293-0.3485 0.59069-0.0779 0.34344-0.0825 0.8958 0.11225 1.7112 0.39721 1.6636 0.92233 2.3095 1.291 3.0508 0.18611 0.37408 0.32636 0.79646 0.30125 1.2956-0.0248 0.49478-0.19382 1.031-0.52136 1.726a0.31866 0.32032 0 0 1-0.42398 0.15246l-0.40564-0.1936a0.31866 0.32032 0 0 1-0.15239-0.42687c0.29571-0.62741 0.40371-1.0347 0.41763-1.3126 0.0141-0.28354-0.0416-0.45963-0.18694-0.75169-0.28666-0.57629-0.94243-1.4656-1.3771-3.2862-0.22088-0.92507-0.24328-1.6376-0.11431-2.2069 0.12982-0.57276 0.4277-0.98808 0.77531-1.2381 0.34306-0.24675 0.70772-0.33356 0.98414-0.36167a0.31866 0.32032 0 0 1 0.0232-3e-3zm2.8925 0a0.31866 0.32032 0 0 1 0.0353 4e-3c0.21355-0.01 0.41199 4e-3 0.41199 4e-3a0.31866 0.32032 0 0 1 0.26457 0.36308l-0.0649 0.44677a0.31866 0.32032 0 0 1-0.35487 0.27016s-0.40649-0.0333-0.6836 0.16598c-0.14536 0.10457-0.2689 0.24293-0.3478 0.59069-0.0778 0.34344-0.0847 0.8951 0.11005 1.7105 0.39228 1.6429 0.99283 2.2331 1.4258 2.9678 0.21971 0.3728 0.38899 0.81823 0.33721 1.3474-0.0511 0.52154-0.28195 1.0744-0.71464 1.8027a0.31866 0.32032 0 0 1-0.43737 0.11129l-0.3859-0.2319a0.31866 0.32032 0 0 1-0.11074-0.43824c0.39315-0.66171 0.54237-1.0892 0.56791-1.3502 0.0265-0.2709-0.0261-0.40426-0.19118-0.68434-0.32226-0.54684-1.1073-1.4276-1.5471-3.2699-0.22088-0.92507-0.24401-1.6376-0.115-2.2069 0.12982-0.57276 0.4284-0.98808 0.77602-1.2381 0.34306-0.24675 0.70841-0.33356 0.98485-0.36167a0.31866 0.32032 0 0 1 0.0395-3e-3zm44.929 1.9707c-0.55245 7e-3 -1.2416 0.21186-2.0424 0.61412-1.258 0.63197-3.1196 2.0402-3.1196 2.36 0 0.0963 0.55481 0.85321 1.2331 1.6821 1.1422 1.3956 1.3414 1.5287 2.6942 1.7949 2.8221 0.5553 2.7749 0.57611 2.9764-1.3154 0.20956-1.9672 5e-3 -3.7546-0.51997-4.5612-0.25384-0.38948-0.66945-0.58112-1.2219-0.57443zm-14.42 0.0419c-0.61359 5.5e-4 -1.0115 0.31331-1.3312 0.95662-0.70226 1.413-0.52458 5.7951 0.23492 5.7951 0.19665 0 1.1409-0.13037 2.0988-0.28933 1.714-0.28456 1.7614-0.3132 2.9933-1.8254 0.68846-0.845 1.2522-1.6126 1.2522-1.7055 0-0.3364-1.9947-1.7455-3.3595-2.3735-0.80387-0.36993-1.4113-0.55855-1.8886-0.55809zm7.253 4.876-0.55734 0.55954-0.55662 0.56019h2.2279l-0.55734-0.56019zm-50.475 2.9819 0.79647 0.0163-4e-3 0.23684h17.353l-4e-3 -0.23684 0.79647-0.0163 8e-3 0.40071c1e-3 0.0593 6.1e-4 0.11787 6.7e-4 0.17725v1e-3c0 3.6759-2.0777 6.8671-5.1147 8.4558 4.0399-0.34597 7.7141-1.1635 10.418-2.3395l0.36615-0.15812 0.31605 0.73538-0.36543 0.15813c-3.4972 1.5207-8.4135 2.4288-13.674 2.5685-0.4646 0.0705-0.93964 0.10773-1.4237 0.10773-0.484 0-0.95973-0.0372-1.4243-0.10773-5.2559-0.13975-10.169-1.0467-13.666-2.565l-0.36545-0.15811 0.31536-0.73539 0.36542 0.15954c2.7035 1.1738 6.3752 1.9884 10.411 2.3338-3.0369-1.5889-5.1147-4.7796-5.1147-8.4551v-1e-3c0-0.0594-5e-4 -0.11788 7.1e-4 -0.17725zm50.475 0.71699c-3.1099 0-3.1726 0.0332-4.5588 2.4593-0.67297 1.1778-1.2932 2.417-1.3785 2.7536-0.16779 0.66222 0.36911 1.8405 1.9845 4.357l0.88184 1.3743c0.0403 0.0307 0.0859 0.0563 0.12913 0.0815h5.883c0.042-0.0246 0.0869-0.0461 0.12625-0.0759l0.88535-1.38c1.6154-2.5165 2.1523-3.6948 1.9845-4.357-0.0852-0.33658-0.70626-1.5758-1.3792-2.7536-1.3862-2.4261-1.4482-2.4593-4.5581-2.4593zm-49.684 0.017c0.0742 4.2952 3.2241 7.8275 7.3348 8.4679 0.44599 0.011 0.89371 0.0191 1.3439 0.0191 0.45008 0 0.89742-8e-3 1.3432-0.0191 4.1109-0.64007 7.2598-4.1725 7.3342-8.4679zm56.15 0.64036 0.45361 0.77298c0.46952 0.79893 0.74726 0.7665 0.89173-0.10429 0.065-0.39183-0.0749-0.52254-0.6307-0.58645zm-13.763 0.0582c-0.52775-3e-3 -0.6805 0.33283-0.43529 0.9772l0.23561 0.61906 0.4889-0.74459c0.4886-0.74457 0.48834-0.74543-0.0401-0.8297-0.0907-0.0144-0.17365-0.0216-0.24903-0.022zm18.104 0.98925c-0.27736 8.3e-4 -0.6174 0.60105-1.078 1.9048l-0.67231 1.9033 0.61939 1.6856c0.3405 0.92709 0.66728 1.8268 0.72664 1.9998 0.11691 0.34066 2.0044-0.29147 3.3277-1.1148 1.235-0.76831 2.3104-1.9341 2.3104-2.5047 0-0.30861-0.28795-0.90497-0.63986-1.3254-0.64811-0.77424-3.8503-2.5509-4.5941-2.5487zm-10.633 7e-4c1.1756 0.0357 2.3469 0.60435 3.0857 1.8225 1.1983 1.9755 0.11184 5.0074-2.0064 5.5987-1.1752 0.32804-1.3785 0.33636-2.2554 0.0893-1.6677-0.46986-2.7579-1.9665-2.7563-3.784 1e-3 -2.365 1.973-3.786 3.9324-3.7266zm-11.038 0.039c-0.72725 0.0307-3.3098 1.3985-4.2364 2.2771-1.1793 1.1183-1.2115 1.8551-0.12556 2.9075 0.99435 0.96372 4.3678 2.6995 4.69 2.4132 0.0635-0.0564 0.42093-0.94535 0.79435-1.9749l0.67868-1.8714-0.69562-1.8211c-0.38266-1.0014-0.82669-1.8647-0.98626-1.9182-0.0309-0.011-0.0707-0.0141-0.11925-0.0123zm18.34 7.1794c-0.14435 0.0202-0.31692 0.26178-0.53759 0.72685-0.45865 0.96681-0.45768 0.96791 0.41976 0.63256 0.46664-0.17834 0.58913-0.36878 0.48747-0.7595-0.10896-0.41899-0.22527-0.6201-0.36964-0.59991zm-14.971 0.10923c-0.14354 2.5e-4 -0.26462 0.16578-0.35062 0.49637-0.0974 0.37474 0.0162 0.57613 0.40917 0.72475 0.64942 0.24565 0.80425-0.0173 0.42684-0.72617-0.17576-0.33007-0.3418-0.49521-0.48539-0.49495zm-0.98694 3.8194c-0.1161-3e-3 -0.18769 1e-3 -0.20247 0.0163-0.29037 0.29188-0.36958 4.4314-0.10374 5.4129 0.44593 1.6465 1.4247 1.8453 3.6508 0.74106 1.1841-0.58736 3.1142-1.9923 3.1252-2.2749 4e-3 -0.10896-0.55694-0.90636-1.2466-1.7714l-1.2296-1.5417c-0.011-0.01-0.0255-0.0235-0.0368-0.0327l-2.0198-0.31984c-0.83829-0.13256-1.5891-0.21952-1.9372-0.22976zm16.975 8e-3c-0.35453 5e-5 -1.1067 0.0775-1.9393 0.20565l-1.9866 0.30565c-0.0283 0.0229-0.0659 0.0601-0.0966 0.0866l-1.2438 1.5594-1.308 1.6417 0.95806 0.83251c1.4791 1.2852 3.3454 2.1304 4.5172 2.0459 0.92457-0.0667 1.0288-0.15065 1.339-1.08 0.32-0.95879 0.29725-5.2417-0.0296-5.5703-0.018-0.0181-0.0921-0.0269-0.21023-0.0269zm-8.4876 0.69778c-0.11376 0-0.22662 3e-3 -0.33372 8e-3 -0.52229 0.0714-0.52789 0.34162-0.0204 0.85168 0.31078 0.3124 0.48156 0.33781 0.75135 0.1128 0.19216-0.16034 0.34989-0.44735 0.34989-0.63823 0-0.17358-0.18461-0.28715-0.49593-0.32765-0.083-3e-3 -0.16587-7e-3 -0.25115-7e-3zm-28.991 14.872a7.6569 7.6967 0 0 1 4.9651 1.8402 7.6569 7.6967 0 0 1 1.126-0.0907 7.6569 7.6967 0 0 1 7.6566 7.6964 7.6569 7.6967 0 0 1-1.0738 3.9138 7.6569 7.6967 0 0 1 0.89952 3.6081 7.6569 7.6967 0 0 1-7.6566 7.6964 7.6569 7.6967 0 0 1-3.8286-1.0389v8.736h-2.436v-10.984a7.6569 7.6967 0 0 1-0.0657-0.0915 7.6569 7.6967 0 0 1-3.9373 1.1049 7.6569 7.6967 0 0 1-7.6565-7.6971 7.6569 7.6967 0 0 1 4.3528-6.9354 7.6569 7.6967 0 0 1-3e-3 -0.0609 7.6569 7.6967 0 0 1 7.6565-7.697zm29.852 3.0557 0.26595 0.39074-3.1309 3.445c0.0863 0.01 0.20599 0.0137 0.3591 0.0123 0.15312-1e-3 0.31183 0.0176 0.47689 0.0567 0.17195 0.0327 0.34003 0.0882 0.50372 0.16735 0.17055 0.0727 0.31931 0.18531 0.44727 0.33687 0.2358 0.30909 0.33167 0.63978 0.28644 0.99281-0.0388 0.35988-0.16439 0.7168-0.37602 1.0708-0.20523 0.36091-0.46652 0.71688-0.78451 1.0672-0.31113 0.34391-0.62813 0.65449-0.95028 0.93112-0.31572 0.28354-0.60643 0.52433-0.87266 0.72261-0.25986 0.20517-0.44104 0.34264-0.54322 0.41271l-0.29489-0.4212 0.28852-0.27163c0.1439-0.12214 0.308-0.26312 0.49316-0.42404 0.19198-0.16739 0.3876-0.34467 0.58696-0.53188l0.5573-0.52334c0.18516-0.16093 0.34304-0.30935 0.47408-0.44536 0.13747-0.12913 0.23013-0.22297 0.27868-0.2815 0.19886-0.17384 0.34912-0.3861 0.45081-0.63684 0.10168-0.25064 0.13352-0.48704 0.0944-0.70914-0.0323-0.22855-0.15549-0.42321-0.36969-0.5843-0.20728-0.16768-0.53383-0.24948-0.97992-0.24469-0.46846 0.0777-0.88547 0.20388-1.2508 0.37869-0.35841 0.16836-0.68845 0.36795-0.98907 0.59851-0.29378 0.22409-0.58126 0.47513-0.86353 0.7531-0.27539 0.27159-0.57477 0.55247-0.89735 0.8425l-0.31395-0.46239c0.0948-0.0502 0.24575-0.16505 0.45151-0.34536 0.21907-0.17973 0.47227-0.39891 0.7605-0.65664 0.29511-0.2642 0.61805-0.56081 0.96861-0.88997 0.35697-0.32228 0.71818-0.66147 1.0829-1.0169 0.37803-0.35502 0.7529-0.71313 1.1246-1.075 0.3716-0.36193 0.7224-0.71157 1.0533-1.0482 0.33725-0.32965 0.6441-0.63695 0.91994-0.92187 0.28225-0.27801 0.51288-0.5074 0.69207-0.68858zm-3.7496 0.76516 0.22152 0.23829c-0.16496 0.15489-0.37526 0.2811-0.63138 0.37938-0.24981 0.10526-0.52224 0.18641-0.81697 0.24324-0.28146 0.0574-0.57587 0.0944-0.88254 0.1106-0.30669 0.0163-0.59939 0.0259-0.87903 0.0298-0.26634 4e-3 -0.51261 3e-3 -0.73861-5e-3 -0.21962-8.3e-4 -0.39274-2.4e-4 -0.51923 3e-3l-0.39228 0.36804c0.0372 0.0815 0.08 0.20373 0.12762 0.36592 0.0611 0.16266 0.12433 0.34845 0.1905 0.55809 0.0729 0.20318 0.14613 0.41319 0.21867 0.62974 0.0789 0.22347 0.1512 0.43994 0.2173 0.64958s0.12296 0.39518 0.17074 0.55736c0.0542 0.1691 0.0935 0.28757 0.11774 0.35529 5e-3 0.0336 0.011 0.088 0.015 0.16168 4e-3 0.0737 5e-3 0.1503 3e-3 0.23047-3e-3 0.0801-8e-3 0.15722-0.0176 0.23049-3e-3 0.0801-0.011 0.13325-0.0254 0.15954-0.1209 0.036-0.21477 0.0461-0.28081 0.0305-0.066-0.0156-0.13119-0.0578-0.1954-0.12694-0.0513-0.0553-0.11636-0.20144-0.19469-0.43825-0.0785-0.23683-0.16207-0.51437-0.25119-0.83185-0.0822-0.32383-0.16762-0.66429-0.25536-1.0219-0.0808-0.36403-0.15197-0.7046-0.21445-1.0212-0.0493-0.31609-0.0871-0.58466-0.11294-0.80629-0.0258-0.22166-0.0217-0.34852 0.0124-0.3808l0.0515-0.0482c0.034-0.0189 0.0542-0.0254 0.0607-0.0184zm5.0738 4.6485c7e-3 7e-3 0.0686 0.0331 0.18698 0.0773 0.11829 0.0442 0.25955 0.10525 0.42325 0.18441 0.17702 0.0796 0.37038 0.17008 0.57992 0.2709 0.22286 0.10127 0.43507 0.20543 0.63774 0.31273 0.20958 0.10086 0.40268 0.19773 0.57923 0.29074 0.18293 0.0999 0.33314 0.1923 0.45005 0.27657l-5.186 4.8697c-4e-3 0.12021 0.0414 0.24616 0.13682 0.37654 0.10868 0.13078 0.22737 0.25812 0.35628 0.38295 0.13531 0.13174 0.26757 0.26022 0.39647 0.38504 0.1353 0.13174 0.23759 0.25551 0.30687 0.37162l-0.43244 0.38647c-0.26328-0.28328-0.53686-0.55008-0.82119-0.80064-0.28434-0.25052-0.5723-0.49764-0.8635-0.74173-0.27791-0.24367-0.55939-0.49053-0.84373-0.74106-0.27795-0.24366-0.54185-0.50069-0.79227-0.77013-0.0705-0.076-0.0745-0.16281-0.011-0.26098 0.0633-0.0981 0.12008-0.21655 0.17143-0.35527 0.14951 0.10553 0.25979 0.18909 0.33087 0.25176 0.0779 0.0561 0.14011 0.10182 0.1855 0.13681 0.0519 0.0419 0.0936 0.0803 0.12557 0.11486 0.0321 0.0346 0.0771 0.076 0.13544 0.12488 0.0583 0.0489 0.13627 0.1117 0.23351 0.18862 0.1036 0.0838 0.25605 0.1929 0.45787 0.32692 0.24337-0.11212 0.50193-0.26389 0.7746-0.45527 0.27956-0.19784 0.56647-0.41566 0.86066-0.65311 0.30111-0.24392 0.60246-0.50091 0.90443-0.77155 0.3084-0.26375 0.61-0.52795 0.90514-0.79214 0.29511-0.26418 0.58331-0.51517 0.86423-0.7531 0.28777-0.2444 0.55433-0.45578 0.8-0.63467l-0.0479-0.0517c-0.0124-0.0272-0.0218-0.0442-0.0283-0.0511-0.1349-0.14512-0.29791-0.25818-0.4882-0.33828-0.18385-0.0731-0.37453-0.13971-0.57215-0.19998-0.19074-0.0667-0.38113-0.14044-0.57141-0.22054-0.1839-0.0731-0.34622-0.18553-0.48749-0.33755zm9.409 8.909c0.0284-4e-3 0.053-3e-3 0.0726 5e-3 0.0527 0.0152 0.0812 0.0596 0.0854 0.13324 0.011 0.0673-0.0137 0.18692-0.0726 0.35884l-7.2205 3.6365 0.0204-0.60133 6.8346-3.4287c0.0541-0.0248 0.11472-0.0493 0.18202-0.0737 0.0372-0.0155 0.0696-0.0258 0.098-0.0298zm0.35135 1.1992c3e-3 0.10045 8e-3 0.25081 0.0148 0.4517 0.0198 0.2014 0.0386 0.42953 0.0564 0.68434 0.018 0.25481 0.0324 0.51961 0.043 0.79424 0.017 0.28157 0.035 0.54934 0.053 0.80419 0.0248 0.24828 0.0408 0.47346 0.0472 0.67439 0.0198 0.20136 0.0379 0.35222 0.0543 0.45312 0.01 0.10732 0.0354 0.22533 0.0777 0.35386 0.049 0.12213 0.0852 0.25054 0.10718 0.38509 0.0354 0.13503 0.0476 0.26614 0.0368 0.39285-4e-3 0.12035-0.0578 0.22866-0.16084 0.32551-0.0137 0.0123-0.0382 0.0285-0.0719 0.0475-0.0206 0.0192-0.0406 0.0323-0.0607 0.0383-0.10677 0.01-0.27075 0.0338-0.4917 0.073-0.21409 0.0328-0.46189 0.0716-0.74289 0.11554-0.27412 0.0373-0.56806 0.081-0.88254 0.13051-0.30761 0.0431-0.60226 0.0859-0.88325 0.12982-0.27415 0.0375-0.52469 0.0726-0.75206 0.10497-0.21406 0.0328-0.37157 0.0578-0.47195 0.0745-0.13339 8e-3 -0.24973 8e-3 -0.34922-3e-3 -0.0926-0.0165-0.1838-0.0734-0.27372-0.17017l0.44302-0.41628 3.8456-0.64105-0.23562-4.2428zm-16.215 15.446a4.7271 4.7516 0 0 1 4.7267 4.7513 4.7271 4.7516 0 0 1-4.7267 4.752 4.7271 4.7516 0 0 1-4.7274-4.752 4.7271 4.7516 0 0 1 4.7274-4.7513z" clip-path="url(#clipPath3389)" fill="#fff" opacity=".195"/>
</svg>
