<?xml version="1.0" encoding="UTF-8" standalone="no"?>
<svg
   xmlns:dc="http://purl.org/dc/elements/1.1/"
   xmlns:cc="http://creativecommons.org/ns#"
   xmlns:rdf="http://www.w3.org/1999/02/22-rdf-syntax-ns#"
   xmlns:svg="http://www.w3.org/2000/svg"
   xmlns="http://www.w3.org/2000/svg"
   xmlns:sodipodi="http://sodipodi.sourceforge.net/DTD/sodipodi-0.dtd"
   xmlns:inkscape="http://www.inkscape.org/namespaces/inkscape"
   width="238.12mm"
   height="158.75mm"
   version="1.1"
   viewBox="0 0 238.12 158.75"
   id="svg8"
   sodipodi:docname="contactbgmd.svg"
   inkscape:version="0.92.3 (2405546, 2018-03-11)">
  <metadata
     id="metadata14">
    <rdf:RDF>
      <cc:Work
         rdf:about="">
        <dc:format>image/svg+xml</dc:format>
        <dc:type
           rdf:resource="http://purl.org/dc/dcmitype/StillImage" />
      </cc:Work>
    </rdf:RDF>
  </metadata>
  <defs
     id="defs12" />
  <sodipodi:namedview
     pagecolor="#ffffff"
     bordercolor="#666666"
     borderopacity="1"
     objecttolerance="10"
     gridtolerance="10"
     guidetolerance="10"
     inkscape:pageopacity="0"
     inkscape:pageshadow="2"
     inkscape:window-width="1280"
     inkscape:window-height="999"
     id="namedview10"
     showgrid="false"
     inkscape:zoom="0.35667416"
     inkscape:cx="449.99055"
     inkscape:cy="382.14621"
     inkscape:window-x="0"
     inkscape:window-y="0"
     inkscape:window-maximized="1"
     inkscape:current-layer="svg8" />
  <g
     id="g825"
     transform="translate(3.0517579e-6,1.2568651)">
    <rect
       x="-3.0517579e-06"
       y="-1.2568651"
       width="238.12"
       height="158.75"
       id="rect2"
       style="fill:#363732;stroke-width:0.99999994" />
    <path
       d="m 152.63,0.72594 a 22.573,22.69 0 0 0 -20.41,13.061 7.5039,7.5429 0 0 0 -4.8157,-1.7597 7.5039,7.5429 0 0 0 -7.5036,7.5427 7.5039,7.5429 0 0 0 7.5036,7.543 7.5039,7.5429 0 0 0 2.8911,-0.58991 22.573,22.69 0 0 0 22.335,19.583 22.573,22.69 0 0 0 1.8245,-0.0848 7.5039,7.5429 0 0 0 7.4892,7.1311 7.5039,7.5429 0 0 0 2.0987,-0.30554 36.45,36.639 0 0 0 13.86,18.013 7.5039,7.5429 0 0 0 -0.95913,3.6824 7.5039,7.5429 0 0 0 4.0146,6.6721 21.648,21.76 0 0 0 -0.77769,5.6864 21.648,21.76 0 0 0 21.648,21.76 21.648,21.76 0 0 0 21.648,-21.76 21.648,21.76 0 0 0 -6.1173,-15.159 36.45,36.639 0 0 0 17.422,-31.215 36.45,36.639 0 0 0 -36.45,-36.639 36.45,36.639 0 0 0 -25.172,10.16 22.573,22.69 0 0 0 -20.528,-13.321 z m 2.3418,4.6522 c 0.68363,0.007 1.2174,0.34012 1.5841,0.99609 0.27934,0.49972 0.2968,0.63458 0.29126,2.2281 l -0.006,1.6964 0.65985,0.25337 c 1.371,0.52676 2.4965,1.4944 2.7311,2.3482 0.28604,1.0413 -0.50813,2.1168 -2.1533,2.9166 -0.53649,0.26081 -1.0395,0.47414 -1.1178,0.47414 -0.10611,0 -0.12704,0.37274 -0.0814,1.4646 0.0707,1.6925 -0.0478,2.2925 -0.5728,2.8936 -0.8661,0.99159 -2.3096,0.78079 -4.1432,-0.6047 l -0.7067,-0.53372 -0.63206,0.4856 c -1.4401,1.1065 -2.8538,1.5366 -3.6628,1.1139 h -3.4e-4 c -0.93336,-0.48761 -1.2511,-1.4329 -1.1479,-3.4143 0.0563,-1.0784 0.0388,-1.4049 -0.0747,-1.405 -0.26118,-1.3e-4 -1.6557,-0.71268 -2.2427,-1.1458 -0.38277,-0.28243 -0.67125,-0.62953 -0.88046,-1.0594 -0.27963,-0.57448 -0.29751,-0.68974 -0.17776,-1.1367 0.23979,-0.89521 1.3408,-1.8581 2.7381,-2.395 l 0.65515,-0.25208 -6.5e-4,-1.6981 c -6.6e-4,-1.542 0.0237,-1.7449 0.27116,-2.2106 0.73771,-1.3888 2.436,-1.313 4.4224,0.19718 0.35802,0.27219 0.68305,0.49472 0.72244,0.49472 0.0394,0 0.36854,-0.23151 0.73114,-0.51458 0.36261,-0.28301 0.99466,-0.66605 1.4047,-0.85105 0.51424,-0.23196 0.97847,-0.34553 1.3886,-0.34157 z m -0.12957,1.2334 c -0.26216,0 -0.58887,0.10017 -0.96883,0.29109 -0.59696,0.29987 -1.4804,0.96845 -1.4804,1.1202 0,0.0456 0.26328,0.40484 0.58519,0.79817 0.54198,0.66227 0.63653,0.72544 1.2785,0.85177 1.3392,0.26347 1.3168,0.27337 1.4124,-0.62425 0.0994,-0.93355 0.002,-1.7817 -0.24673,-2.1645 -0.12048,-0.18482 -0.31801,-0.27573 -0.58017,-0.27253 z m -6.8428,0.0195 c -0.29118,2.5e-4 -0.47966,0.14899 -0.63138,0.45428 -0.33324,0.67053 -0.24893,2.75 0.11148,2.75 0.0932,0 0.54143,-0.0618 0.99595,-0.13727 0.81338,-0.13506 0.83583,-0.14868 1.4204,-0.86622 0.3267,-0.40101 0.5939,-0.76523 0.5939,-0.80931 0,-0.15968 -0.94626,-0.82833 -1.5939,-1.1263 -0.38148,-0.17557 -0.67007,-0.26543 -0.89653,-0.26517 z m 44.179,0.0707 h 5.3584 l 1.2979,2.687 h 0.78035 c 1.7967,0 3.2564,1.4673 3.2564,3.2734 v 6.2137 c 0,1.806 -1.4597,3.273 -3.2564,3.273 h -9.6901 c -1.7967,0 -3.2557,-1.467 -3.2557,-3.273 v -6.2137 c 0,-1.806 1.459,-3.2734 3.2557,-3.2734 h 0.86807 z m 0.50586,0.83613 -0.95111,1.8442 6.1455,-0.0586 -0.86237,-1.7855 z m -41.242,1.4073 -0.26446,0.26556 -0.26414,0.26581 h 1.0572 l -0.26447,-0.26581 z m 38.483,1.2795 c -1.3503,0 -2.4241,1.0801 -2.4241,2.4374 v 6.2138 c 0,1.3573 1.0738,2.4367 2.4241,2.4367 h 9.6901 c 1.3503,0 2.4248,-1.0794 2.4248,-2.4367 v -6.2138 c 0,-1.3573 -1.0745,-2.4374 -2.4248,-2.4374 h -8.5652 l -0.69132,0.007 0.003,-0.007 z m 0.58854,0.47011 a 0.35441,0.35625 0 0 1 0.35451,0.3564 0.35441,0.35625 0 0 1 -0.35451,0.35633 0.35441,0.35625 0 0 1 -0.35419,-0.35633 0.35441,0.35625 0 0 1 0.35419,-0.3564 z m -39.072,0.007 c -1.4758,0 -1.5055,0.0163 -2.1633,1.1674 -0.31935,0.55892 -0.61369,1.147 -0.65415,1.3067 -0.0796,0.3142 0.17483,0.87339 0.94139,2.0676 l 0.4188,0.65185 c 0.0191,0.0143 0.0408,0.0267 0.0613,0.0385 h 2.7917 c 0.0196,-0.0118 0.0409,-0.0215 0.0592,-0.0351 l 0.42082,-0.65524 c 0.76654,-1.1942 1.021,-1.7533 0.94138,-2.0675 -0.0404,-0.1598 -0.3348,-0.74778 -0.65415,-1.3068 -0.6578,-1.1513 -0.68724,-1.1674 -2.163,-1.1674 z m 37.89,0.29174 a 0.59069,0.59376 0 0 1 0.59088,0.59362 0.59069,0.59376 0 0 1 -0.59088,0.59364 0.59069,0.59376 0 0 1 -0.59054,-0.59364 0.59069,0.59376 0 0 1 0.59054,-0.59362 z m -34.822,0.0209 0.21559,0.3665 c 0.22278,0.37912 0.35458,0.36369 0.42315,-0.0494 0.0307,-0.18599 -0.0356,-0.24766 -0.29928,-0.278 z m -6.5308,0.0274 c -0.25043,0 -0.32291,0.15824 -0.20655,0.46412 l 0.11182,0.29369 0.23198,-0.35367 c 0.23187,-0.35335 0.23174,-0.35335 -0.019,-0.39339 -0.0431,-0.007 -0.0824,-0.01 -0.11818,-0.0111 z m 3.5453,0.46972 c 0.55787,0.017 1.1137,0.28711 1.4643,0.86518 0.56862,0.93746 0.0529,2.3763 -0.95211,2.6568 -0.55766,0.1557 -0.65451,0.15968 -1.0706,0.0423 -0.79136,-0.22297 -1.3084,-0.93317 -1.3076,-1.7956 6.6e-4,-1.1223 0.93627,-1.797 1.866,-1.7688 z m 5.0454,0 c -0.13162,3.9e-4 -0.29265,0.28529 -0.51121,0.90399 l -0.31904,0.90314 0.29394,0.79987 c 0.16158,0.44001 0.31665,0.86693 0.34482,0.94905 0.0554,0.16163 0.95114,-0.13864 1.5791,-0.52943 0.58604,-0.36454 1.0964,-0.91746 1.0964,-1.1882 0,-0.14652 -0.13663,-0.42985 -0.30365,-0.62931 -0.30754,-0.3674 -1.8274,-1.2102 -2.1804,-1.2091 z m -10.283,0.0189 c -0.34508,0.0143 -1.571,0.6633 -2.0106,1.0803 -0.55971,0.53066 -0.57457,0.88061 -0.0593,1.38 0.47185,0.45732 2.0723,1.281 2.2252,1.1452 0.0302,-0.0267 0.20009,-0.44868 0.3773,-0.9372 l 0.32204,-0.88837 -0.33007,-0.86388 c -0.1816,-0.47524 -0.3923,-0.8849 -0.46803,-0.9103 -0.0147,-0.007 -0.0335,-0.007 -0.0566,-0.007 z m 63.975,0.0605 a 3.3388,3.3561 0 0 1 3.3387,3.3561 3.3388,3.3561 0 0 1 -3.3387,3.3561 3.3388,3.3561 0 0 1 -3.339,-3.3561 3.3388,3.3561 0 0 1 3.339,-3.3561 z m -15.491,0.007 c 2.2866,0 4.1522,1.8753 4.1522,4.1738 0,2.2985 -1.8656,4.1738 -4.1522,4.1738 -2.2866,0 -4.1526,-1.8753 -4.1526,-4.1738 0,-2.2985 1.866,-4.1738 4.1526,-4.1738 z m -6.1471,0.69594 a 0.35441,0.35625 0 0 1 0.35451,0.35601 0.35441,0.35625 0 0 1 -0.35451,0.35639 0.35441,0.35625 0 0 1 -0.35453,-0.35639 0.35441,0.35625 0 0 1 0.35453,-0.35601 z m 6.1471,0.42803 c -1.6824,0 -3.0347,1.3587 -3.0347,3.0499 0,1.6912 1.3523,3.0502 3.0347,3.0502 1.6824,0 3.0341,-1.359 3.0341,-3.0502 0,-1.6912 -1.3517,-3.0498 -3.0341,-3.0499 z m -39.782,2.2163 c -0.0685,0.01 -0.15006,0.12425 -0.25476,0.34493 -0.21765,0.45878 -0.21718,0.4593 0.19919,0.30015 0.22145,-0.0846 0.27957,-0.17498 0.23134,-0.36037 -0.0517,-0.19882 -0.10721,-0.29428 -0.17577,-0.28471 z m -7.1039,0.0521 c -0.0682,6e-5 -0.12557,0.0787 -0.16638,0.23553 -0.0462,0.17786 0.008,0.27345 0.19417,0.34397 0.30815,0.11657 0.3813,-0.009 0.20219,-0.34461 v -3.3e-4 c -0.0834,-0.15667 -0.16185,-0.23468 -0.22998,-0.23456 z m 68.559,0.564 a 2.2432,2.2548 0 0 1 2.2433,2.2546 2.2432,2.2548 0 0 1 -2.2433,2.255 2.2432,2.2548 0 0 1 -2.243,-2.255 2.2432,2.2548 0 0 1 2.243,-2.2546 z m -51.916,0.57983 h 11.464 v 3.3e-4 h 0.011 l -0.01,0.10632 c -0.006,0.0586 -0.0152,0.22396 -0.0221,0.36748 -0.0216,0.45629 -0.99428,11.629 -1.014,11.649 -0.0198,0.0195 -4.4438,1.2918 -4.5606,1.3115 -0.06,0.01 -0.0916,0.0143 -0.12052,0.0182 -0.006,6.4e-4 -0.0185,0.007 -0.0214,0.007 h -3.6e-4 c -0.002,1.2e-4 -0.0112,0 -0.0121,0 -6.5e-4,-7e-5 -0.0137,-0.007 -0.0157,-0.007 -0.008,-5.2e-4 -0.0211,5.1e-4 -0.0235,0 -0.005,-0.007 -0.0447,-0.0143 -0.0887,-0.0209 -0.072,-0.01 -4.4415,-1.2577 -4.5305,-1.2932 -0.0297,-0.0118 -0.0385,-0.026 -0.0446,-0.0717 -0.023,-0.17275 -0.98176,-11.388 -0.99126,-11.594 -0.007,-0.13603 -0.0157,-0.29844 -0.0211,-0.36077 l -0.01,-0.1131 h 0.011 z m -17.111,0.66865 c -0.0551,0 -0.0891,6.5e-4 -0.0961,0.008 -0.13779,0.13851 -0.17571,2.1028 -0.0495,2.5686 0.21164,0.78129 0.67609,0.87566 1.7325,0.35171 0.5619,-0.27872 1.4778,-0.94547 1.483,-1.0796 0.002,-0.0514 -0.26396,-0.43011 -0.59121,-0.84063 l -0.58318,-0.73155 c -0.006,-0.007 -0.0124,-0.0111 -0.0178,-0.0156 l -0.95847,-0.15146 c -0.39779,-0.0632 -0.75409,-0.10413 -0.91928,-0.10897 z m 8.0554,0.007 c -0.16824,0 -0.5252,0.0371 -0.9203,0.0975 l -0.94273,0.1451 c -0.0137,0.0111 -0.032,0.0286 -0.0469,0.0416 l -0.58921,0.7393 -0.62101,0.7787 0.45463,0.39507 c 0.70189,0.60985 1.5878,1.0112 2.1439,0.9712 0.43876,-0.032 0.48821,-0.0715 0.6354,-0.51255 0.15185,-0.45493 0.14105,-2.4874 -0.0141,-2.6433 -0.009,-0.009 -0.0437,-0.0131 -0.0997,-0.0131 z m -4.0277,0.33112 c -0.0542,0 -0.10775,0 -0.15868,0.007 -0.24779,0.0338 -0.25049,0.16176 -0.01,0.40381 0.14748,0.14821 0.22886,0.16064 0.35687,0.0541 0.0911,-0.076 0.16571,-0.21261 0.16571,-0.30319 0,-0.0815 -0.0849,-0.13539 -0.22964,-0.15517 h -0.12455 z m -23.967,0.16554 a 2.5824,2.5958 0 0 1 2.5825,2.5959 2.5824,2.5958 0 0 1 -2.5825,2.5959 2.5824,2.5958 0 0 1 -2.5824,-2.5959 2.5824,2.5958 0 0 1 2.5824,-2.5959 z m 42.79,1.3447 c -1.9575,0 -3.5616,0.007 -3.5647,0.01 -0.005,0.008 0.10557,1.3845 0.1125,1.4147 3.3e-4,0 1.2338,0.007 2.7408,0.007 2.079,0 2.5898,0 2.709,0.0137 h 0.0301 v 0.007 h 0.009 c 0.0124,0.0326 -0.11755,1.5192 -0.13458,1.5399 -0.0118,0.0143 -0.3628,0.0176 -1.8028,0.0176 h -1.7539 c -9.6e-4,3.5e-4 -0.0259,3.5e-4 -0.0264,0 -9.6e-4,3.5e-4 -0.008,0 -0.008,0 l 0.008,0.0908 c 0.005,0.0507 0.031,0.37704 0.0586,0.72453 l 0.0499,0.63198 3.3474,0.014 0.003,0.0618 c 0.006,0.0837 -0.12651,1.5631 -0.15868,1.8068 -3e-5,6.5e-4 -0.002,0.0195 -0.002,0.0202 -3e-5,0 -9.5e-4,0 -9.5e-4,0.007 -9.6e-4,0.01 -0.007,0.0618 -0.007,0.0625 -0.007,0.007 -0.36892,0.11143 -0.8048,0.23288 l -0.79274,0.22076 -0.81117,-0.2315 c -0.44613,-0.12739 -0.81509,-0.23841 -0.82019,-0.24668 -0.006,-0.009 -0.0292,-0.25169 -0.0536,-0.54075 -0.0243,-0.28913 -0.0477,-0.54883 -0.0519,-0.57716 l -0.008,-0.0514 h -0.69565 c -0.38261,0 -0.69583,0.007 -0.69599,0.01 -6.5e-4,0.0281 0.19561,2.2772 0.19919,2.2812 0.008,0.009 2.8822,0.83732 2.9099,0.83893 0.015,6.6e-4 0.67909,-0.18487 1.4757,-0.41284 0.7966,-0.22806 1.4512,-0.41691 1.4546,-0.41964 0.009,-0.008 0.65625,-7.4938 0.64946,-7.5137 -0.005,-0.0137 -0.72967,-0.0169 -3.5647,-0.0169 z m 49.791,1.0597 a 1.4684,1.4761 0 0 1 1.4683,1.4759 1.4684,1.4761 0 0 1 -1.4683,1.4763 1.4684,1.4761 0 0 1 -1.4683,-1.4763 1.4684,1.4761 0 0 1 1.4683,-1.4759 z m 1.8902,5.2645 c 0.15828,0 0.31646,0.009 0.41981,0.0313 0.31964,0.0685 0.6056,0.19914 0.85031,0.38865 0.13034,0.10094 1.1448,1.1374 5.9095,6.0388 0.38306,0.39404 0.7339,0.77076 0.79778,0.85639 0.29432,0.39483 0.40282,0.76079 0.32136,1.0846 -0.1403,0.55768 -0.7275,0.99424 -1.9879,1.4786 -0.12184,0.0469 -0.6509,0.23001 -1.1757,0.40688 -0.96354,0.32475 -1.2264,0.42138 -1.5125,0.55527 -0.19419,0.0907 -0.26329,0.14684 -0.27819,0.22675 -0.0292,0.15636 0.10029,0.26894 0.6749,0.58829 0.50725,0.28183 0.66803,0.40251 0.75692,0.56667 0.0657,0.12132 0.0642,0.22328 -0.006,0.39 -0.13229,0.317 -0.30093,0.50488 -0.57414,0.63908 -0.14256,0.07 -0.24802,0.10359 -0.61297,0.19517 -0.5231,0.13115 -0.65671,0.17348 -0.89152,0.28398 -0.30612,0.14411 -0.51144,0.28789 -0.76429,0.53508 -0.28504,0.27859 -0.26604,0.33896 0.1791,0.56701 0.27922,0.14306 0.34651,0.21809 0.32039,0.3581 -0.023,0.12313 -0.159,0.2382 -0.51756,0.43747 -0.46192,0.25657 -1.0776,0.46808 -1.5734,0.54042 -0.22019,0.0319 -0.56365,0.0319 -0.71108,0 h -3.5e-4 c -0.22492,-0.0489 -0.40278,-0.16605 -0.47772,-0.31361 -0.0181,-0.0358 -0.0499,-0.13643 -0.0703,-0.22383 -0.0918,-0.39338 -0.2998,-0.63094 -0.66352,-0.75818 -0.0517,-0.0182 -0.24743,-0.0632 -0.43487,-0.10062 -0.18744,-0.0371 -0.39962,-0.0878 -0.47169,-0.11167 -0.25373,-0.0846 -0.43907,-0.24355 -0.47438,-0.40753 -0.0377,-0.17465 0.0359,-0.3058 0.37526,-0.67002 0.31856,-0.34181 0.39709,-0.4757 0.3686,-0.62827 -0.0256,-0.13707 -0.23158,-0.29955 -0.57213,-0.45127 -0.29097,-0.12967 -0.49517,-0.20351 -1.3726,-0.49634 -0.91364,-0.30497 -1.2387,-0.42738 -1.5028,-0.56505 -0.29029,-0.15127 -0.41411,-0.2683 -0.41411,-0.3917 0,-0.18259 0.12053,-0.27349 0.8115,-0.61213 0.5114,-0.25057 0.64139,-0.32781 0.74386,-0.44184 0.069,-0.0768 0.0784,-0.12828 0.0381,-0.20661 -0.056,-0.10908 -0.51453,-0.25749 -1.5423,-0.49908 -0.60802,-0.14288 -0.94188,-0.23996 -1.2005,-0.34891 -0.88129,-0.37138 -1.0029,-0.94599 -0.39269,-1.8589 0.0597,-0.0895 0.15031,-0.21306 0.20087,-0.27428 0.11757,-0.14242 6.1122,-6.307 6.2171,-6.3934 0.20517,-0.16893 0.50044,-0.30998 0.78875,-0.37659 0.10402,-0.024 0.26218,-0.0371 0.42046,-0.0385 z m -77.298,0.4193 a 1.4693,0.90468 68.19 0 1 1.1426,1.0634 1.4693,0.90468 68.19 0 1 0.0327,0.0895 3.0395,1.8883 2.178 0 1 0.19886,0 3.0395,1.8883 2.178 0 1 2.9668,2.0019 3.0395,1.8883 2.178 0 1 -2.7113,1.7687 2.079,2.0898 0 0 1 0.009,0.0209 2.079,2.0898 0 0 1 -0.0843,1.7277 l 0.94273,2.3788 a 0.58471,0.58775 0 0 1 0.3418,0.3338 0.58471,0.58775 0 0 1 -0.32675,0.7636 0.58471,0.58775 0 0 1 -0.75959,-0.32879 0.58471,0.58775 0 0 1 0.0201,-0.4785 l -0.78404,-1.979 a 2.079,2.0898 0 0 1 -0.51154,0.29713 2.079,2.0898 0 0 1 -3.5e-4,0 l 0.80079,2.0207 a 0.58471,0.58775 0 0 1 0.34215,0.33355 0.58471,0.58775 0 0 1 -0.32675,0.76353 0.58471,0.58775 0 0 1 -0.7596,-0.32847 0.58471,0.58775 0 0 1 0.0201,-0.4785 l -0.85736,-2.1638 a 2.079,2.0898 0 0 1 -0.38298,-0.0385 2.2089,2.2204 0 0 1 -1.0817,0.93146 2.2089,2.2204 0 0 1 -0.6046,0.14574 1.2994,1.3061 0 0 1 -0.7489,1.0264 l 0.58518,1.477 a 0.58471,0.58775 0 0 1 0.34215,0.33347 0.58471,0.58775 0 0 1 -0.32707,0.76353 0.58471,0.58775 0 0 1 -0.75961,-0.32839 0.58471,0.58775 0 0 1 0.0205,-0.47857 l -0.66419,-1.6758 a 1.2994,1.3061 0 0 1 -0.63842,-0.33921 0.90955,0.91428 0 0 1 -0.36726,0.27195 l 0.8008,2.0204 a 0.58471,0.58775 0 0 1 0.34179,0.33388 0.58471,0.58775 0 0 1 -0.32673,0.76352 0.58471,0.58775 0 0 1 -0.7596,-0.32846 0.58471,0.58775 0 0 1 0.02,-0.4785 l -0.96482,-2.4344 a 0.90955,0.91428 0 0 1 -0.072,-0.0618 1.8841,1.8939 0 0 1 -0.13726,0.0625 1.8841,1.8939 0 0 1 -2.4475,-1.0583 1.8841,1.8939 0 0 1 0.22932,-1.8175 0.90955,0.91428 0 0 1 -0.25041,-0.35333 0.90955,0.91428 0 0 1 0.50818,-1.1879 0.90955,0.91428 0 0 1 0.33544,-0.0639 0.90955,0.91428 0 0 1 -0.0575,-0.11748 0.90955,0.91428 0 0 1 0.50853,-1.1875 0.90955,0.91428 0 0 1 0.54869,-0.0391 0.97452,0.97958 0 0 1 0.42618,-1.1095 l 3.3e-4,3.4e-4 a 0.97452,0.97958 0 0 1 0.14864,-0.0747 0.97452,0.97958 0 0 1 0.58017,-0.0442 2.1439,2.1551 0 0 1 0.97721,-0.79049 2.1439,2.1551 0 0 1 1.4995,-0.0313 1.2344,1.2408 0 0 1 0.55203,-0.43877 1.2344,1.2408 0 0 1 1.3984,0.35262 3.0395,1.8883 2.178 0 1 0.46533,-0.28165 1.4693,0.90468 68.19 0 1 0.36223,-1.4904 1.4693,0.90468 68.19 0 1 0.24439,-0.0416 z m 77.431,0.2278 c -0.32021,-0.0149 -0.57605,0.0541 -0.82823,0.2231 -0.0809,0.0541 -0.40877,0.3728 -1.0719,1.0426 -1.0763,1.0868 -1.5406,1.5775 -1.622,1.7135 -0.12362,0.20649 -0.16808,0.44013 -0.11716,0.61616 0.0328,0.1137 0.14047,0.22414 0.24605,0.25273 0.0445,0.0125 0.30218,0.017 0.74555,0.0143 l 0.67725,-0.007 0.41409,-0.71944 c 0.29584,-0.51413 0.42233,-0.71952 0.44359,-0.71952 0.0252,0 0.0695,0.16014 0.28626,1.0321 0.14102,0.56757 0.25864,1.0321 0.26143,1.0321 0.002,0 0.34026,-0.21319 0.7499,-0.47348 v 3.5e-4 c 0.40964,-0.26028 0.76115,-0.48084 0.78103,-0.48996 0.0301,-0.0137 0.11466,0.0247 0.50854,0.23457 0.25978,0.13823 0.47498,0.24875 0.47839,0.2453 0.005,-0.007 0.056,-0.30561 0.11683,-0.67171 0.0609,-0.36605 0.11834,-0.67321 0.12755,-0.68247 0.009,-0.009 0.0269,-0.0129 0.0392,-0.008 0.0124,0.007 0.27157,0.21073 0.57613,0.4563 0.3046,0.24563 0.56225,0.44659 0.57248,0.44659 0.0299,7e-5 0.0581,-0.12255 0.0579,-0.25039 -1.7e-4,-0.13271 -0.0283,-0.25448 -0.083,-0.36206 -0.0371,-0.0728 -2.3818,-2.4846 -2.5647,-2.6379 -0.20886,-0.17516 -0.48352,-0.27557 -0.79509,-0.29043 z m -65.527,0.4994 a 2.6084,2.6219 0 0 1 2.6086,2.6218 2.6084,2.6219 0 0 1 -2.6086,2.6218 2.6084,2.6219 0 0 1 -2.6082,-2.6218 2.6084,2.6219 0 0 1 2.6082,-2.6218 z m 28.61,0.21639 c 0.0436,0 0.0797,0 0.10886,0.007 0.0625,0.007 0.1049,0.0202 0.12722,0.0469 0.0223,0.0267 0.0312,0.0672 0.0268,0.12112 0,0.0495 -0.007,0.1122 -0.0201,0.18845 -0.009,0.0762 -0.0179,0.16827 -0.0268,0.27591 -0.005,0.10775 0,0.22884 0.0134,0.36344 l 0.80346,-0.0267 v 0.32983 c -0.0357,0 -0.0915,0 -0.16739,0.007 -0.0759,0.007 -0.15845,0.009 -0.24772,0.0137 -0.0848,0.007 -0.16517,0.009 -0.24104,0.0137 -0.0714,0.007 -0.12499,0.0137 -0.1607,0.0267 -0.0357,0.1615 -0.0736,0.33425 -0.11382,0.51822 -0.0402,0.18396 -0.067,0.36571 -0.0803,0.54519 -0.0134,0.17945 -0.009,0.34772 0.0134,0.50473 0.0223,0.15258 0.0781,0.28041 0.16738,0.38363 0.0893,0.0987 0.21649,0.16826 0.38165,0.20863 0.16515,0.0358 0.38387,0.0222 0.65615,-0.0404 -0.009,0.0673 -0.0357,0.1234 -0.0803,0.16827 -0.0402,0.0404 -0.0893,0.074 -0.14729,0.10095 -0.0536,0.0222 -0.11161,0.0404 -0.1741,0.054 -0.0625,0.009 -0.11828,0.0138 -0.16737,0.0138 -0.22765,0 -0.40843,-0.0404 -0.54235,-0.12113 -0.1339,-0.0852 -0.23434,-0.19515 -0.30129,-0.32976 -0.067,-0.1346 -0.1094,-0.28717 -0.12722,-0.45766 -0.0178,-0.17504 -0.0245,-0.35223 -0.0201,-0.5317 0.009,-0.17946 0.0223,-0.35672 0.0402,-0.5317 0.0179,-0.17498 0.0268,-0.33426 0.0268,-0.47785 -0.0402,-0.0137 -0.096,-0.0182 -0.1674,-0.0137 -0.067,0 -0.14061,0.007 -0.22095,0.0137 -0.0759,0.007 -0.14954,0.0111 -0.22095,0.0202 -0.0714,0.009 -0.13168,0.0137 -0.18078,0.0137 -0.0223,0 -0.038,-0.0313 -0.0469,-0.0943 -0.005,-0.0673 -0.0134,-0.15707 -0.0268,-0.2692 l 0.94406,-0.0674 c 0.0134,-0.157 0.0223,-0.26921 0.0268,-0.33647 0.005,-0.0673 0.005,-0.1234 0,-0.16826 0,-0.0496 -0.002,-0.10325 -0.007,-0.16157 v -0.28939 c 0.058,-0.009 0.10886,-0.0143 0.15233,-0.0169 z m 14.727,0.0306 c 0.0123,0 0.0252,0.009 0.0385,0.0202 0.0268,0.0182 0.0602,0.0651 0.1004,0.14131 l -1.0847,3.695 -0.20087,-0.20192 1.0311,-3.493 c 0.009,-0.0267 0.0201,-0.056 0.0335,-0.0875 0.0134,-0.0358 0.029,-0.0586 0.0469,-0.0672 0.0111,-0.007 0.0229,-0.009 0.035,-0.007 z m 0.46701,0.29611 c 0.0357,0.0313 0.0893,0.0785 0.16069,0.14136 0.0759,0.0587 0.16069,0.12562 0.25443,0.20188 0.0937,0.0762 0.18972,0.15707 0.28791,0.24231 0.10271,0.0852 0.20087,0.166 0.2946,0.24231 0.0937,0.0717 0.17632,0.13909 0.24775,0.20187 0.0759,0.0587 0.1339,0.10095 0.17407,0.12788 0.0402,0.0313 0.0893,0.0605 0.14731,0.0875 0.058,0.0222 0.11381,0.0514 0.16738,0.0876 0.058,0.0313 0.1071,0.0695 0.1473,0.11442 0.0402,0.0404 0.0602,0.0943 0.0602,0.1615 0,0.009 -0.002,0.0222 -0.007,0.0404 0,0.0137 -0.002,0.0247 -0.007,0.0338 -0.0313,0.0404 -0.0759,0.10545 -0.13391,0.19523 -0.058,0.0852 -0.12499,0.18396 -0.20087,0.29609 -0.0759,0.10776 -0.15621,0.22435 -0.24103,0.35003 -0.0848,0.12112 -0.16517,0.23775 -0.24104,0.34995 -0.0759,0.10776 -0.14506,0.20637 -0.20756,0.29611 -0.058,0.0854 -0.10039,0.14807 -0.12722,0.18845 -0.0402,0.0495 -0.0781,0.0897 -0.11382,0.12119 -0.0357,0.0267 -0.0848,0.0403 -0.14729,0.0403 v -0.2894 l 1.0244,-1.548 -1.54,-1.2922 z m -7.8846,0.16657 c 0.0297,0 0.0597,-5.2e-4 0.091,0 0.1964,0.009 0.35709,0.0632 0.48208,0.16157 0.12945,0.0986 0.22987,0.23103 0.30129,0.39703 0.0759,0.16605 0.12944,0.35673 0.16069,0.57207 0.0357,0.21543 0.058,0.44425 0.0669,0.68656 0.0134,0.24223 0.0179,0.48905 0.0134,0.74027 -0.005,0.24681 -0.007,0.48464 -0.007,0.71347 -0.0402,0.009 -0.0804,0.0247 -0.12052,0.0469 -0.0402,0.0182 -0.0737,0.0247 -0.1005,0.0202 -0.0268,0 -0.0468,-0.0182 -0.0602,-0.0541 -0.009,-0.0403 -0.005,-0.11668 0.0134,-0.22882 0.005,-0.0809 0.0111,-0.20415 0.0201,-0.3702 0.0134,-0.17049 0.0179,-0.35895 0.0134,-0.56531 0,-0.20643 -0.0111,-0.41956 -0.0335,-0.63941 -0.0223,-0.21985 -0.0647,-0.4195 -0.12722,-0.59897 -0.058,-0.18396 -0.14283,-0.33204 -0.25443,-0.44423 -0.11158,-0.11665 -0.25666,-0.175 -0.43519,-0.175 -0.18303,0.0763 -0.33703,0.21992 -0.462,0.43077 -0.12053,0.21087 -0.21873,0.45767 -0.29461,0.74035 -0.0714,0.28268 -0.12499,0.58998 -0.16069,0.92203 -0.0313,0.32756 -0.0491,0.64833 -0.0536,0.96239 -0.009,-0.007 -0.0268,-0.007 -0.0536,-0.007 h -0.0803 c -0.0268,-0.007 -0.0536,-0.009 -0.0804,-0.0136 -0.0223,-0.007 -0.0357,-0.009 -0.0402,-0.0137 -0.009,-0.0717 -0.0178,-0.17498 -0.0268,-0.30957 -0.005,-0.1391 -0.0111,-0.29391 -0.0201,-0.46438 -0.005,-0.17498 -0.009,-0.35672 -0.0134,-0.54518 -0.005,-0.18846 -0.009,-0.36792 -0.0134,-0.53841 -0.005,-0.17048 -0.0111,-0.32306 -0.02,-0.45765 -0.005,-0.1391 -0.0134,-0.24453 -0.0268,-0.31637 0,-0.007 -0.002,-0.0156 -0.007,-0.0338 0,-0.0182 -0.002,-0.0385 -0.007,-0.0605 v -0.0944 c 0.067,-0.0541 0.12275,-0.0717 0.16739,-0.0541 0.0491,0.0182 0.0893,0.0587 0.12051,0.12119 0.0313,0.0587 0.0536,0.13239 0.067,0.22206 0.0134,0.0899 0.0223,0.17954 0.0268,0.26927 0.009,0.0897 0.0134,0.1727 0.0134,0.24902 v 0.15479 c 0.009,-0.0764 0.0223,-0.16606 0.0402,-0.2692 0.0179,-0.10326 0.0446,-0.20865 0.0803,-0.31635 0.0357,-0.10776 0.0781,-0.21313 0.12724,-0.31635 0.0536,-0.10765 0.11828,-0.20188 0.19416,-0.28262 0.0759,-0.0809 0.16069,-0.14361 0.25444,-0.18846 0.0736,-0.0338 0.15499,-0.0521 0.24369,-0.0553 z m -2.6072,0.19015 c 0.14283,0 0.27453,0.0495 0.39505,0.14808 0.12498,0.0986 0.22987,0.22654 0.31468,0.38363 0.0893,0.157 0.15623,0.33198 0.20087,0.52491 0.0446,0.19295 0.0625,0.38142 0.0536,0.56538 0,0.2692 -0.0513,0.50925 -0.154,0.72017 -0.1027,0.21085 -0.23434,0.38133 -0.39504,0.51144 -0.15621,0.13017 -0.32585,0.21763 -0.50886,0.2625 -0.17853,0.0449 -0.34815,0.0338 -0.50886,-0.0338 -0.15623,-0.0717 -0.2879,-0.20414 -0.39501,-0.39703 -0.10271,-0.19295 -0.15401,-0.45545 -0.15401,-0.7875 0,-0.10325 0.009,-0.22206 0.0268,-0.35672 0.0179,-0.13903 0.0468,-0.27813 0.0871,-0.41723 0.0402,-0.13909 0.0893,-0.27596 0.1473,-0.41057 0.0625,-0.1346 0.13615,-0.25351 0.22095,-0.35673 0.0848,-0.10765 0.18302,-0.19288 0.2946,-0.25572 0.11159,-0.0673 0.23658,-0.10095 0.37495,-0.10095 z m -9.3134,0.0338 h 0.15399 c 0,0.10764 -0.0246,0.22206 -0.0736,0.34325 -0.0446,0.12113 -0.1049,0.24231 -0.18078,0.36342 -0.0714,0.11664 -0.154,0.23105 -0.24773,0.34326 -0.0937,0.11214 -0.18525,0.21763 -0.27452,0.31628 -0.0848,0.0943 -0.16516,0.17955 -0.24103,0.2558 -0.0714,0.0762 -0.12723,0.13681 -0.1674,0.18168 v 0.25578 c 0.0402,0.0138 0.096,0.0385 0.1674,0.074 0.0759,0.0313 0.16068,0.0695 0.25442,0.11442 0.0937,0.0404 0.1897,0.0829 0.2879,0.12782 0.10271,0.0449 0.20086,0.0897 0.29461,0.13461 0.0937,0.0449 0.17632,0.0854 0.24773,0.12118 0.0759,0.0358 0.12945,0.0605 0.1607,0.074 0.0134,0.009 0.0335,0.0247 0.0602,0.0469 0.0268,0.0222 0.0536,0.0469 0.0803,0.074 0.0268,0.0267 0.0513,0.0541 0.0736,0.0807 0.0268,0.0267 0.0424,0.0469 0.0469,0.0605 -0.0268,0.0541 -0.0536,0.0897 -0.0803,0.10765 -0.0268,0.0182 -0.0625,0.0267 -0.10709,0.0267 -0.0357,0 -0.1071,-0.0247 -0.21426,-0.0739 -0.10709,-0.0495 -0.22989,-0.10999 -0.36825,-0.18174 -0.13838,-0.0762 -0.28345,-0.15707 -0.43521,-0.24232 -0.15176,-0.0897 -0.29237,-0.17497 -0.42181,-0.25572 -0.125,-0.0852 -0.2299,-0.15928 -0.3147,-0.22213 -0.0848,-0.0632 -0.12722,-0.10545 -0.12722,-0.12782 v -0.0338 c 0.005,-0.0183 0.009,-0.0267 0.0134,-0.0267 z m -34.697,0.0124 a 0.45477,0.45714 0 0 0 -0.17776,0.0326 0.45477,0.45714 0 0 0 -0.0693,0.0351 0.45477,0.45714 0 0 0 -0.18479,0.55892 0.45477,0.45714 0 0 0 0.59087,0.25546 0.45477,0.45714 0 0 0 0.2541,-0.59362 0.45477,0.45714 0 0 0 -0.41312,-0.2881 z m 49.099,0.16923 c 0.0937,0 0.18301,0.009 0.26783,0.0267 0.0893,0.0137 0.16961,0.0404 0.24104,0.0807 0.0759,0.0404 0.1406,0.0943 0.19417,0.16157 0.0536,0.0672 0.096,0.15257 0.12722,0.25572 0.0178,0.20194 0.0402,0.42178 0.067,0.65961 0.0268,0.23332 0.0491,0.47784 0.0669,0.73356 0.0179,0.2513 0.0268,0.50481 0.0268,0.76054 0,0.25579 -0.0179,0.50252 -0.0536,0.74034 -0.0313,0.23782 -0.0871,0.45988 -0.16738,0.66631 -0.0759,0.21085 -0.18525,0.39482 -0.3281,0.55189 -0.13837,0.16149 -0.31245,0.28938 -0.52223,0.38362 -0.2098,0.0987 -0.46201,0.15257 -0.7566,0.16148 -0.12499,0 -0.25666,-0.009 -0.39504,-0.0267 -0.13837,-0.0137 -0.2656,-0.0449 -0.38164,-0.0941 -0.11605,-0.0449 -0.20979,-0.1122 -0.28121,-0.20194 -0.0759,-0.0852 -0.11383,-0.20193 -0.11383,-0.34995 0,-0.12119 0.0201,-0.21313 0.0602,-0.27598 0.0402,-0.0625 0.13391,-0.0942 0.28121,-0.0942 -0.0134,0.0625 -0.029,0.12568 -0.0468,0.18845 -0.0223,0.0632 -0.0402,0.12113 -0.0536,0.17499 -0.0179,0.0541 -0.0246,0.0964 -0.0201,0.12789 0,0.0313 0.0156,0.0423 0.0469,0.0338 0.14281,0.0942 0.29903,0.16155 0.46867,0.20193 0.16962,0.0403 0.33701,0.0605 0.50216,0.0605 0.24997,-0.007 0.46422,-0.056 0.64276,-0.15486 0.18302,-0.0986 0.33255,-0.22656 0.44861,-0.38362 0.12051,-0.157 0.21202,-0.33875 0.27452,-0.54512 0.067,-0.20193 0.1071,-0.41279 0.12051,-0.63263 0.0179,-0.21542 0.0134,-0.43298 -0.0134,-0.65289 -0.0268,-0.21984 -0.0692,-0.42171 -0.12721,-0.60568 -0.0759,0.0852 -0.15401,0.17498 -0.23435,0.26921 -0.0759,0.0943 -0.15846,0.17947 -0.24774,0.25573 -0.0893,0.0718 -0.18522,0.13237 -0.2879,0.18174 -0.0982,0.0495 -0.2098,0.074 -0.33477,0.074 -0.12944,0 -0.22766,-0.0222 -0.29461,-0.0673 -0.0625,-0.0449 -0.1049,-0.10545 -0.12722,-0.1817 -0.0223,-0.0809 -0.0335,-0.17276 -0.0335,-0.27596 0.005,-0.10326 0.007,-0.21315 0.007,-0.32977 0,-0.10776 0.002,-0.22884 0.007,-0.36344 0.009,-0.13459 0.0245,-0.2692 0.0469,-0.40386 0.0268,-0.13903 0.0602,-0.27371 0.1004,-0.40381 0.0447,-0.1346 0.10271,-0.25351 0.17408,-0.35667 0.0714,-0.10775 0.16069,-0.19295 0.26783,-0.25578 0.10709,-0.0625 0.23433,-0.0943 0.38165,-0.0943 z m -12.3,0.0605 c 0.0669,0 0.14284,0.007 0.22763,0.0137 0.0893,0.007 0.16963,0.0222 0.24105,0.0541 0.0759,0.0267 0.13837,0.0718 0.18748,0.1346 0.0536,0.0632 0.0803,0.15031 0.0803,0.26251 -0.009,0.0762 -0.0223,0.1234 -0.0402,0.14131 -0.0134,0.0137 -0.0357,0.009 -0.067,-0.0137 -0.0268,-0.0267 -0.0602,-0.0625 -0.1004,-0.10766 -0.0402,-0.0449 -0.0893,-0.0876 -0.14731,-0.12789 -0.0536,-0.0449 -0.12053,-0.0785 -0.20086,-0.10095 -0.0759,-0.0221 -0.16292,-0.0221 -0.26114,0 -0.1027,0 -0.20532,0.0111 -0.30799,0.0338 -0.1027,0.0183 -0.19639,0.0514 -0.28121,0.10095 -0.0803,0.0495 -0.1473,0.1167 -0.20086,0.20194 -0.0491,0.0852 -0.0736,0.19288 -0.0736,0.32305 0,0.0672 0.029,0.11442 0.087,0.14131 0.0625,0.0222 0.14284,0.0338 0.24105,0.0338 0.1027,0 0.21648,0 0.34147,-0.007 0.12943,-0.009 0.26111,-0.0136 0.39503,-0.0136 0.13391,0 0.26335,0.0111 0.38834,0.0338 0.12499,0.0183 0.23434,0.0586 0.32807,0.12113 0.0982,0.0586 0.1741,0.14358 0.22766,0.25578 0.0536,0.11213 0.0737,0.258 0.0602,0.43747 0,0.13011 -0.038,0.25351 -0.11383,0.37015 -0.0714,0.11668 -0.16515,0.21984 -0.28122,0.30957 -0.11158,0.0854 -0.23656,0.15258 -0.37493,0.20194 -0.13839,0.0495 -0.27229,0.0673 -0.40174,0.0541 -0.0536,-0.007 -0.12721,-0.0183 -0.22095,-0.0404 -0.0893,-0.0267 -0.17856,-0.0632 -0.26782,-0.10775 -0.0848,-0.0449 -0.15846,-0.0986 -0.22095,-0.16151 -0.0625,-0.0673 -0.0937,-0.14579 -0.0937,-0.23553 0.0803,0 0.154,0.0156 0.22095,0.0469 0.0714,0.0313 0.14061,0.0672 0.20756,0.10765 0.067,0.0358 0.13392,0.0695 0.20086,0.10094 0.0714,0.0267 0.14732,0.0404 0.22766,0.0404 0.0937,0 0.18969,-0.0156 0.28791,-0.0469 0.1027,-0.0358 0.1964,-0.0829 0.2812,-0.1413 0.0848,-0.0632 0.154,-0.13689 0.20757,-0.22213 0.0536,-0.0897 0.0803,-0.18617 0.0803,-0.28938 0.005,-0.0313 0.005,-0.0695 0,-0.11442 0,-0.0449 -0.0134,-0.0897 -0.0402,-0.13461 -0.0268,-0.0495 -0.0714,-0.0943 -0.13392,-0.13459 -0.0625,-0.0449 -0.154,-0.0785 -0.27451,-0.10095 -0.11608,-0.0222 -0.26338,-0.0338 -0.44191,-0.0338 -0.17855,-0.007 -0.39951,0.0111 -0.66286,0.0469 -0.0669,0 -0.13168,-0.0182 -0.19417,-0.0541 -0.0625,-0.0404 -0.11828,-0.0876 -0.16738,-0.14138 -0.0491,-0.0586 -0.0893,-0.11891 -0.12054,-0.18168 -0.0312,-0.0673 -0.0468,-0.13011 -0.0468,-0.18847 0,-0.17496 0.0357,-0.31635 0.1071,-0.42398 0.0759,-0.11221 0.17185,-0.19966 0.28791,-0.2625 0.11606,-0.0673 0.24551,-0.11441 0.38834,-0.14131 0.14284,-0.0267 0.28791,-0.0404 0.43521,-0.0404 z m 7.2244,0.0605 c -0.10709,0 -0.20309,0.0267 -0.28791,0.0807 -0.0848,0.0541 -0.16291,0.1279 -0.23431,0.22213 -0.067,0.0897 -0.125,0.19295 -0.17411,0.30959 -0.0491,0.11668 -0.0915,0.23331 -0.12721,0.35001 -0.0313,0.11662 -0.0557,0.23103 -0.0736,0.34324 -0.0134,0.10765 -0.0201,0.20188 -0.0201,0.28262 0.0134,0.2737 0.0602,0.48462 0.1406,0.6327 0.0803,0.14802 0.17631,0.24675 0.2879,0.2961 0.11607,0.0449 0.24104,0.0449 0.37496,0 0.1339,-0.0449 0.25889,-0.1234 0.37494,-0.23554 0.11607,-0.11669 0.21426,-0.26028 0.2946,-0.43076 0.0848,-0.17498 0.13167,-0.37014 0.1406,-0.58549 0.009,-0.16157 -0.005,-0.31857 -0.0402,-0.47114 -0.0313,-0.15259 -0.0781,-0.28719 -0.14062,-0.40381 -0.058,-0.12119 -0.13168,-0.21542 -0.22094,-0.28268 -0.0848,-0.0719 -0.18301,-0.10776 -0.29461,-0.10776 z m -44.276,0.0541 a 0.1949,0.19592 0 0 1 0.18278,0.12353 0.1949,0.19592 0 0 1 -0.10886,0.25436 0.1949,0.19592 0 0 1 -0.25342,-0.10929 0.1949,0.19592 0 0 1 0.0793,-0.23957 0.1949,0.19592 0 0 1 0,-3.6e-4 0.1949,0.19592 0 0 1 0.0299,-0.0149 0.1949,0.19592 0 0 1 0.0703,-0.0137 z m 42.114,0.0605 c 0.0625,0 0.12498,0 0.18747,0.007 0.125,0.009 0.22988,0.0358 0.3147,0.0807 0.0893,0.0404 0.15177,0.0987 0.18746,0.17504 0.0357,0.0717 0.0268,0.15701 -0.0268,0.25572 -0.11606,-0.0673 -0.2388,-0.12111 -0.36825,-0.16149 -0.12499,-0.0404 -0.24774,-0.0541 -0.36826,-0.0404 -0.12051,0.0137 -0.23212,0.0605 -0.33477,0.14131 -0.10271,0.0762 -0.18749,0.19967 -0.25444,0.37015 -0.0669,0.17054 -0.1094,0.39709 -0.12721,0.67978 -0.0134,0.27819 0.007,0.62593 0.0602,1.0432 h -0.25442 l -0.0134,-0.10776 c -0.005,-0.0762 -0.0111,-0.17499 -0.0201,-0.2961 -0.005,-0.12119 -0.0134,-0.25579 -0.0268,-0.40388 -0.009,-0.14801 -0.0179,-0.29838 -0.0268,-0.45088 -0.009,-0.15258 -0.0179,-0.29837 -0.0268,-0.43748 -0.005,-0.14359 -0.0111,-0.26699 -0.0201,-0.3702 0,-0.0136 -0.002,-0.0404 -0.007,-0.0807 v -0.3499 c 0.0536,-0.0222 0.1004,-0.0267 0.1406,-0.0137 0.0402,0.0137 0.0736,0.0385 0.1004,0.074 0.0268,0.0358 0.0468,0.0785 0.0602,0.12782 0.0134,0.0449 0.0246,0.0897 0.0335,0.13461 0.058,-0.0986 0.14061,-0.1772 0.24775,-0.23554 0.11158,-0.0625 0.22988,-0.10326 0.35486,-0.12113 0.0625,-0.0111 0.12498,-0.0182 0.18747,-0.0202 z m -42.918,0.0182 a 0.45477,0.45714 0 0 0 -0.17776,0.0325 0.45477,0.45714 0 0 0 -0.0693,0.0351 0.45477,0.45714 0 0 0 -0.1848,0.55899 0.45477,0.45714 0 0 0 0.59088,0.25539 0.45477,0.45714 0 0 0 0.2541,-0.59396 0.45477,0.45714 0 0 0 -0.41312,-0.28769 z m 50.155,0.009 c -0.1071,0 -0.20087,0.0312 -0.28121,0.0943 -0.0803,0.0587 -0.1473,0.1346 -0.20086,0.22882 -0.0536,0.0943 -0.096,0.20194 -0.12722,0.32306 -0.0312,0.11664 -0.0557,0.23554 -0.0736,0.35674 -0.0134,0.11662 -0.0245,0.23104 -0.0335,0.34324 -0.005,0.10764 -0.007,0.19737 -0.007,0.26921 0,0.0495 -0.002,0.10545 -0.007,0.16826 -0.005,0.0632 -0.002,0.12562 0.007,0.1884 0.009,0.0632 0.0268,0.11668 0.0536,0.16156 0.0313,0.0449 0.0803,0.0695 0.1473,0.074 0.1071,0 0.20532,-0.0247 0.2946,-0.074 0.0937,-0.0496 0.17631,-0.11664 0.24773,-0.20194 0.0759,-0.0853 0.1406,-0.17947 0.19418,-0.28262 0.058,-0.10776 0.10489,-0.21764 0.1406,-0.32983 0.0402,-0.11214 0.0692,-0.21984 0.087,-0.32306 0.0223,-0.10765 0.0335,-0.20187 0.0335,-0.28262 0.0134,-0.0854 0.0134,-0.17054 0,-0.25579 -0.009,-0.0853 -0.0335,-0.1615 -0.0736,-0.22883 -0.0402,-0.0672 -0.0938,-0.12112 -0.1607,-0.1615 -0.067,-0.0449 -0.1473,-0.0673 -0.24104,-0.0673 z m -49.925,0.16925 a 0.1949,0.19592 0 0 1 0.18244,0.12353 0.1949,0.19592 0 0 1 -0.10875,0.25442 0.1949,0.19592 0 0 1 -0.25309,-0.1094 0.1949,0.19592 0 0 1 0.079,-0.23957 0.1949,0.19592 0 0 1 0.0299,-0.0149 0.1949,0.19592 0 0 1 0.0706,-0.0137 z m 20.47,4.6988 h 0.002 l 6.5e-4,6.5e-4 3.8308,5.0192 2.9072,3.8094 0.17676,0.23117 0.73248,0.96006 0.01,0.0136 0.005,0.007 v 3.5e-4 l 6.6e-4,6.5e-4 h 9.6e-4 l -0.008,0.007 -0.0348,0.043 c -0.0224,0.0274 -2.4617,1.5937 -5.4207,3.4802 -2.8059,1.7888 -4.2526,2.7056 -4.9265,3.1218 -0.0256,0.0163 -0.38277,0.24407 -0.38434,0.24531 -0.0146,0.0111 -0.0389,0.0195 -0.0633,0.0254 -0.0275,0.0149 -0.055,0.03 -0.0586,0.0293 -0.0565,-0.009 -3.9112,-2.9244 -4.0628,-3.073 -0.0499,-0.0489 -0.0677,-0.0695 -0.0991,-0.10193 -0.0276,-0.0222 -0.0506,-0.0436 -0.0677,-0.0612 -6.6e-4,-6.5e-4 -9.5e-4,0 -0.002,0 -0.005,0 -0.0192,-0.0111 -0.0198,-0.0124 -3.3e-4,-6.6e-4 -0.002,-0.007 -0.003,-0.008 -5.1e-4,-6.5e-4 -9.5e-4,0 -0.002,0 -1.1e-4,-1.3e-4 -0.008,-0.007 -0.008,-0.007 -1e-5,0 -0.005,-0.009 -0.005,-0.009 -3.5e-4,-5.1e-4 -0.006,-0.007 -0.007,-0.007 -0.008,-0.0131 -0.0385,-0.0772 -0.068,-0.14163 -0.002,-0.007 -0.0147,-0.0365 -0.0171,-0.0416 -0.01,-0.0169 -0.0189,-0.0338 -0.0281,-0.0469 -0.0733,-0.1027 -1.889,-4.6404 -1.8821,-4.7038 0.005,-0.0423 1.0811,-1.0484 4.6949,-4.3885 2.5788,-2.3836 4.7151,-4.3457 4.7474,-4.3602 l 0.0505,-0.0228 z m -0.12152,1.6715 c -0.0352,0.007 -8.0226,7.3862 -8.0276,7.4198 -0.003,0.0202 1.5397,3.8915 1.5751,3.9524 0.002,0 0.0233,0.0195 0.0281,0.024 0.0275,0.024 0.7578,0.58166 1.6752,1.2781 1.6198,1.2296 1.6974,1.2851 1.7546,1.2535 0.15797,-0.0871 9.1531,-5.8316 9.1614,-5.8506 0.0129,-0.0293 -6.1338,-8.0804 -6.1669,-8.077 z m 34.55,0.63165 a 1.3043,1.311 0 0 1 0.25979,0.0176 h 3.4e-4 a 1.3043,1.311 0 0 1 0.21526,0.056 1.3043,1.311 0 0 1 0.62436,0.46769 2.8694,2.8843 0 0 1 1.6775,0.0657 2.8694,2.8843 0 0 1 1.541,1.2926 1.6521,1.6607 0 0 1 0.94106,0.0449 1.6521,1.6607 0 0 1 1.1031,1.591 4.0779,2.5211 43.524 0 1 0.71608,0.12692 1.2106,1.9668 18.798 0 1 1.6688,-1.1849 1.2106,1.9668 18.798 0 1 0.50652,2.2566 1.2106,1.9668 18.798 0 1 -0.0448,0.11944 4.0779,2.5211 43.524 0 1 0.19787,0.17869 4.0779,2.5211 43.524 0 1 1.2447,4.6412 4.0779,2.5211 43.524 0 1 -4.2831,-0.60938 2.7824,2.7969 0 0 1 -0.01,0.0287 2.7824,2.7969 0 0 1 -1.5955,1.6691 l -1.1282,3.2342 a 0.78256,0.78663 0 0 1 0.0536,0.63909 0.78256,0.78663 0 0 1 -0.9973,0.48221 0.78256,0.78663 0 0 1 -0.47974,-1.0028 0.78256,0.78663 0 0 1 0.4389,-0.46503 l 0.93837,-2.6905 a 2.7824,2.7969 0 0 1 -0.77635,-0.15205 l -0.95813,2.747 a 0.78256,0.78663 0 0 1 0.0536,0.63907 0.78256,0.78663 0 0 1 -0.9973,0.48189 0.78256,0.78663 0 0 1 -0.47972,-1.0025 0.78256,0.78663 0 0 1 0.4389,-0.46542 l 1.0261,-2.9414 a 2.7824,2.7969 0 0 1 -0.35252,-0.37724 2.9563,2.9717 0 0 1 -1.9065,-0.0149 2.9563,2.9717 0 0 1 -0.73786,-0.38702 1.739,1.7481 0 0 1 -1.6534,0.37457 l -0.70002,2.0076 a 0.78256,0.78663 0 0 1 0.0536,0.63909 0.78256,0.78663 0 0 1 -0.99729,0.48183 0.78256,0.78663 0 0 1 -0.47974,-1.0025 0.78256,0.78663 0 0 1 0.43856,-0.46541 l 0.79477,-2.2782 a 1.739,1.7481 0 0 1 -0.34783,-0.9062 1.2173,1.2236 0 0 1 -0.60863,-0.0501 l -0.95813,2.7473 a 0.78256,0.78663 0 0 1 0.0536,0.63868 0.78256,0.78663 0 0 1 -0.99728,0.48222 0.78256,0.78663 0 0 1 -0.47974,-1.0024 0.78256,0.78663 0 0 1 0.43889,-0.46541 l 1.1543,-3.3096 a 1.2173,1.2236 0 0 1 -0.0191,-0.12587 2.5216,2.5347 0 0 1 -0.19316,-0.058 2.5216,2.5347 0 0 1 -1.5453,-3.2305 2.5216,2.5347 0 0 1 1.8205,-1.6322 1.2173,1.2236 0 0 1 0.0559,-0.57774 1.2173,1.2236 0 0 1 1.5513,-0.7501 1.2173,1.2236 0 0 1 0.39438,0.23149 1.2173,1.2236 0 0 1 0.0448,-0.16924 1.2173,1.2236 0 0 1 1.5514,-0.75011 1.2173,1.2236 0 0 1 0.58819,0.44554 1.3043,1.311 0 0 1 1.1402,-0.76086 z m 19.164,0.39574 c -0.0255,0.009 -0.005,0.0378 0.0656,0.0883 0.34378,0.24816 1.6107,0.7322 2.319,0.88602 0.41641,0.0904 0.59456,0.0925 0.7238,0.009 0.0852,-0.0553 0.19549,-0.16411 0.2109,-0.20899 0.0209,-0.0605 -0.0269,-0.0806 -0.31234,-0.13323 -0.8699,-0.16045 -2.4739,-0.50558 -2.792,-0.60066 -0.11733,-0.0351 -0.18948,-0.0482 -0.21492,-0.0404 z m -54.265,0.76522 c 0.006,0 0.0189,0.009 0.0393,0.0287 0.007,6.5e-4 0.0129,0 0.0181,0.007 0.0286,0.0176 1.025,1.3165 2.082,2.7022 0.1429,0.18715 0.14628,0.18957 0.31034,0.40452 1.4414,1.8885 2.4027,3.1649 2.3963,3.1818 -0.011,0.0287 -1.2735,0.83868 -1.3391,0.85911 -0.0281,0.009 -0.41391,-0.48442 -1.8493,-2.365 -1.134,-1.4858 -1.8251,-2.3751 -1.8446,-2.3731 -0.0296,0.007 -0.98782,0.86922 -1.076,0.97251 l -0.0418,0.0489 1.7284,2.2644 c 1.629,2.1344 1.7269,2.2673 1.7047,2.3139 -0.0282,0.0593 -4.0599,2.6348 -4.111,2.6265 -0.0304,-0.007 -2.5466,-1.8984 -2.6725,-2.011 -0.0312,-0.028 -0.30451,-0.67926 -0.66587,-1.5861 -0.33722,-0.84617 -0.61029,-1.5591 -0.60661,-1.5843 0.008,-0.0541 1.7547,-1.6732 1.8292,-1.6953 0.0305,-0.009 0.11148,0.0818 0.2668,0.27826 0.1094,0.13447 0.22667,0.28607 0.3475,0.44756 l 0.40308,0.528 -0.0345,0.0586 c -0.0188,0.0326 -0.22045,0.22858 -0.44793,0.43651 -0.22747,0.20785 -0.41441,0.38908 -0.41546,0.40243 -0.003,0.043 0.6267,1.5528 0.67356,1.6142 0.0569,0.0746 1.3436,1.0751 1.393,1.0833 0.0201,0.007 0.40284,-0.2276 0.85032,-0.51353 l 0.81351,-0.51992 -1.6287,-2.1342 c -1.1762,-1.5411 -1.5511,-2.0414 -1.617,-2.1645 l -0.0141,-0.0182 0.005,-0.007 c -3.4e-4,0 -0.003,-0.007 -0.003,-0.007 -9.6e-4,-0.0547 0.20266,-0.25039 1.7318,-1.6637 0.95323,-0.88101 1.7524,-1.6076 1.776,-1.6146 z m 63.885,0.87189 c 0.42887,0.0156 0.84441,0.20917 1.0241,0.57377 0.0414,0.084 0.0503,0.1191 0.0416,0.16657 -0.049,0.2625 -0.60678,0.39718 -1.3816,0.33348 -0.4445,-0.0365 -0.81887,-0.14137 -0.88883,-0.24868 -0.0387,-0.0593 -0.006,-0.16783 0.10106,-0.32743 0.23283,-0.34988 0.67488,-0.51295 1.1038,-0.49771 z m -10.471,1.336 c 0.13205,-0.007 0.26095,0 0.33144,0.0209 0.14202,0.0365 0.26329,0.0958 0.35384,0.17361 0.0858,0.0738 0.0902,0.10998 0.0271,0.23522 -0.19114,0.37991 -0.55745,0.7001 -0.90455,0.79048 -0.13857,0.0358 -0.33138,0.0338 -0.44425,-0.007 -0.27304,-0.0948 -0.48638,-0.3642 -0.45732,-0.57741 0.0344,-0.252 0.32232,-0.48319 0.74354,-0.59662 0.083,-0.0222 0.21814,-0.0365 0.35018,-0.0404 z m 8.9857,0.0247 0.11585,0.0319 c 0.18647,0.0508 0.39375,0.16437 0.50918,0.2793 0.1693,0.1686 0.24679,0.38193 0.18915,0.52058 -0.0618,0.14873 -0.43593,0.24392 -0.6893,0.17536 -0.26072,-0.0707 -0.41242,-0.25039 -0.41278,-0.48931 -1.4e-4,-0.0952 0.01,-0.13213 0.059,-0.23117 0.0329,-0.0661 0.0962,-0.15512 0.14395,-0.20226 z m -20.38,1.3467 a 0.60866,0.61182 0 0 0 -0.55406,0.40882 0.60866,0.61182 0 0 0 0.37327,0.77975 0.60866,0.61182 0 0 0 0.77568,-0.3749 0.60866,0.61182 0 0 0 -0.37295,-0.77974 0.60866,0.61182 0 0 0 -0.10072,-0.026 v 3.6e-4 a 0.60866,0.61182 0 0 0 -0.12119,-0.008 z m 0.32774,0.47851 a 0.26085,0.26221 0 0 1 0.0519,0 0.26085,0.26221 0 0 1 3.5e-4,0 0.26085,0.26221 0 0 1 0.0429,0.0111 0.26085,0.26221 0 0 1 0.16002,0.33418 0.26085,0.26221 0 0 1 -0.33243,0.16079 0.26085,0.26221 0 0 1 -0.16001,-0.33412 0.26085,0.26221 0 0 1 0.23734,-0.1753 z m 1.1081,0.0274 a 0.60866,0.61182 0 0 0 -0.55373,0.40922 0.60866,0.61182 0 0 0 0.37294,0.77968 0.60866,0.61182 0 0 0 0.77568,-0.37489 0.60866,0.61182 0 0 0 -0.37295,-0.77968 0.60866,0.61182 0 0 0 -0.10039,-0.026 0.60866,0.61182 0 0 0 -0.12152,-0.008 z m -0.30432,0.22011 a 0.26085,0.26221 0 0 1 0.052,0.007 v -3.3e-4 a 0.26085,0.26221 0 0 1 0.0433,0.0118 0.26085,0.26221 0 0 1 0.15969,0.33413 0.26085,0.26221 0 0 1 -0.33245,0.16084 0.26085,0.26221 0 0 1 -0.15968,-0.33445 0.26085,0.26221 0 0 1 0.23737,-0.1753 z m -35.281,5.6941 h 16.485 v 16.57 l -7.7192,-0.008 c -4.2455,-0.007 -7.9544,-0.0118 -8.2422,-0.017 l -0.44626,-0.009 h -0.0445 v -3.5e-4 h -0.0322 v -8.2682 z m 54.364,2.2018 a 3.3388,3.3561 0 0 1 3.5e-4,0 3.3388,3.3561 0 0 1 0.23601,0 3.3388,3.3561 0 0 1 3.1948,3.4954 3.3388,3.3561 0 0 1 -3.477,3.211 3.3388,3.3561 0 0 1 -3.1947,-3.495 3.3388,3.3561 0 0 1 3.2406,-3.2131 z m -82.387,1.6136 a 4.6256,4.6496 0 0 0 -4.6253,4.6496 4.6256,4.6496 0 0 0 4.6253,4.6497 4.6256,4.6496 0 0 0 4.6256,-4.6497 4.6256,4.6496 0 0 0 -4.6256,-4.6496 z m 64.259,2.8571 c 0.0324,5.1e-4 0.0573,0.0338 0.0744,0.0986 0.002,0.009 0.003,0.0222 0.005,0.0404 l 0.009,0.0325 c 0.0173,0.0836 0.0439,0.20168 0.0797,0.35464 l 0.1386,0.52702 c 0.0568,0.19836 0.11813,0.41403 0.18413,0.64709 0.0649,0.22877 0.13104,0.4619 0.19818,0.69925 0.0661,0.23314 0.13187,0.46627 0.19785,0.69933 0.0692,0.22759 0.12992,0.44118 0.18246,0.6407 0.0569,0.19836 0.1038,0.37608 0.1406,0.53341 0.04,0.15179 0.0681,0.26739 0.0843,0.34656 -0.0213,0.1124 -0.068,0.20605 -0.1406,0.28106 -0.0683,0.0738 -0.14864,0.13702 -0.24105,0.18944 -0.0892,0.0469 -0.18515,0.0865 -0.28757,0.11845 -0.10237,0.0319 -0.19897,0.0598 -0.28959,0.0839 -0.2891,0.0769 -0.54004,0.0534 -0.7529,-0.0711 -0.21397,-0.12868 -0.35955,-0.34071 -0.43721,-0.6357 -0.0308,-0.11708 -0.0452,-0.25032 -0.0429,-0.39938 9.5e-4,-0.15349 0.0228,-0.2985 0.0653,-0.43513 0.0414,-0.14098 0.10381,-0.2642 0.18682,-0.36981 0.083,-0.10567 0.19333,-0.177 0.33142,-0.21372 0.10358,-0.0274 0.19716,-0.0404 0.28054,-0.0397 0.0865,-0.007 0.17048,0.008 0.25208,0.0371 0.0848,0.024 0.16618,0.0605 0.24372,0.1094 0.0807,0.0437 0.16637,0.0971 0.25712,0.16118 l -0.91797,-3.3275 c 0.10512,-0.0744 0.17202,-0.11043 0.20022,-0.10864 z m 4.1914,0.33986 c 0.0125,-6.5e-4 0.0263,0 0.0422,0.009 0.0304,0.01 0.0751,0.0476 0.13324,0.11103 l -0.10809,3.8507 -0.24541,-0.14333 0.10744,-3.6421 c 0.002,-0.028 0.006,-0.0593 0.01,-0.0931 0.005,-0.0385 0.0133,-0.0638 0.0281,-0.077 0.009,-0.009 0.02,-0.0143 0.0324,-0.0156 z m 0.52694,0.16624 0.19117,0.0952 c 0.0883,0.0371 0.18724,0.0799 0.29726,0.12959 0.11005,0.0495 0.22353,0.10304 0.34015,0.16013 0.12094,0.056 0.23645,0.10886 0.34648,0.15857 0.10885,0.0449 0.2059,0.0892 0.29093,0.13154 0.0882,0.0371 0.15518,0.0632 0.20085,0.0788 0.0468,0.0202 0.1015,0.0358 0.16438,0.0469 0.0618,0.007 0.12321,0.0202 0.18413,0.0416 0.064,0.0156 0.12149,0.0397 0.17174,0.0727 0.0491,0.0286 0.0823,0.0755 0.0994,0.14072 0.002,0.009 0.003,0.0222 0.005,0.0403 0.003,0.0131 0.005,0.0247 0.002,0.0345 -0.0199,0.0469 -0.0464,0.12138 -0.0797,0.2231 -0.0344,0.0973 -0.074,0.21021 -0.11883,0.33817 -0.046,0.12365 -0.0939,0.2569 -0.14396,0.40015 -0.0512,0.1389 -0.0992,0.27247 -0.14395,0.40042 -0.046,0.12361 -0.0877,0.23672 -0.12521,0.33954 -0.0344,0.0973 -0.0594,0.16912 -0.075,0.21502 -0.0263,0.058 -0.0528,0.10688 -0.0794,0.14639 -0.0277,0.0351 -0.0715,0.0605 -0.13191,0.0768 l -0.0737,-0.27968 0.59623,-1.76 -1.8178,-0.85307 z m -28.167,0.4031 c -0.10908,-0.007 -0.22654,-0.007 -0.35688,3.3e-4 -0.47265,0.0202 -0.69249,0.0725 -1.0566,0.25169 -0.47206,0.23229 -0.83734,0.64625 -0.98289,1.1136 -0.10392,0.33361 -0.10193,0.96892 0.005,1.312 0.22948,0.74309 0.72401,1.1636 2.017,1.7152 0.93233,0.3977 1.2103,0.63225 1.2611,1.0637 0.0137,0.1163 6.6e-4,0.19348 -0.0543,0.32169 -0.14046,0.3282 -0.47979,0.52793 -0.93468,0.5502 -0.61541,0.03 -1.0979,-0.19952 -1.5607,-0.74301 l -0.094,-0.11038 c -0.0218,-0.0169 -0.0371,-0.0267 -0.0479,-0.0319 l -0.34047,0.19953 c -0.19479,0.11421 -0.44472,0.26067 -0.5554,0.32578 -0.11066,0.0651 -0.2012,0.1363 -0.2012,0.15845 0,0.0692 0.36641,0.53997 0.54971,0.70635 0.4407,0.40016 0.89621,0.61102 1.6076,0.74373 0.0442,0.009 0.33388,0.01 0.64376,0.007 0.44938,-0.009 0.61578,-0.0247 0.82121,-0.0801 v 3.6e-4 c 0.81255,-0.21881 1.3464,-0.72284 1.5299,-1.4443 0.0851,-0.33444 0.0859,-0.82232 0.002,-1.1536 -0.1939,-0.76211 -0.69496,-1.2321 -1.8536,-1.7398 -0.78827,-0.34532 -1.0408,-0.47797 -1.2042,-0.63159 -0.19977,-0.18787 -0.2743,-0.36721 -0.25409,-0.61213 0.0445,-0.53957 0.61026,-0.82518 1.1931,-0.60235 0.18225,0.0696 0.5443,0.37437 0.57782,0.48625 0.0121,0.0404 0.0285,0.0416 0.10215,0.008 0.11597,-0.0534 0.81537,-0.5018 0.9347,-0.59967 l 0.0937,-0.077 -0.10742,-0.15883 c -0.20437,-0.30275 -0.52812,-0.58555 -0.84833,-0.741 -0.30489,-0.14801 -0.55754,-0.21834 -0.8848,-0.23495 z m -5.3152,0.0885 -0.01,2.7752 c -0.009,2.4781 -0.0151,2.7918 -0.0626,2.9304 -0.11618,0.33941 -0.33792,0.50677 -0.70638,0.5334 -0.39998,0.0286 -0.75417,-0.16893 -1.002,-0.55963 l -0.12922,-0.20397 -0.24539,0.14541 c -0.43623,0.25827 -0.87268,0.53327 -0.8895,0.56063 -0.0311,0.0507 0.30503,0.50917 0.52862,0.72113 0.26383,0.25019 0.69778,0.48007 1.0488,0.5556 0.3017,0.0651 1.1415,0.0469 1.4168,-0.03 0.71955,-0.20154 1.1829,-0.66442 1.3491,-1.3471 0.10402,-0.42711 0.11386,-0.7178 0.11483,-3.387 l 9.6e-4,-2.6942 h -0.70703 z m 43.819,1.7209 a 2.2432,2.2548 0 0 1 0.1587,0 2.2432,2.2548 0 0 1 2.1462,2.3482 2.2432,2.2548 0 0 1 -2.3361,2.1574 2.2432,2.2548 0 0 1 -2.1462,-2.3482 2.2432,2.2548 0 0 1 2.1774,-2.1584 z m -23.137,0.0234 0.73014,2.089 c 0.0233,-0.0338 0.052,-0.0834 0.0857,-0.14803 0.0337,-0.0645 0.0772,-0.12717 0.13056,-0.18781 0.0522,-0.0651 0.11311,-0.12294 0.18279,-0.17399 0.0685,-0.0553 0.14861,-0.093 0.24035,-0.11273 0.18148,-0.03 0.3407,0.007 0.4774,0.1026 0.141,0.0971 0.26147,0.23005 0.36121,0.39846 0.10403,0.16722 0.19314,0.3568 0.26749,0.56908 0.0732,0.20794 0.13133,0.4109 0.1741,0.60834 0.0471,0.19641 0.0817,0.37262 0.10446,0.52904 0.027,0.15524 0.0436,0.26238 0.0499,0.32104 l -0.24137,0.0293 -0.0479,-0.18208 c -0.0185,-0.0879 -0.0405,-0.18891 -0.0658,-0.3028 -0.0264,-0.11833 -0.0562,-0.24035 -0.0894,-0.36617 l -0.0927,-0.35133 c -0.0254,-0.11388 -0.0515,-0.21352 -0.0787,-0.29916 -0.0229,-0.0868 -0.0411,-0.14684 -0.0546,-0.18037 -0.0277,-0.12256 -0.0822,-0.23345 -0.16371,-0.33243 -0.0815,-0.0991 -0.17271,-0.16516 -0.27385,-0.19856 -0.10227,-0.0378 -0.21095,-0.03 -0.32607,0.024 -0.11625,0.0495 -0.2236,0.16847 -0.32173,0.357 -0.0728,0.21436 -0.11393,0.41806 -0.12318,0.61082 -0.01,0.18839 -9.6e-4,0.37176 0.0271,0.54987 0.0273,0.17374 0.0672,0.35099 0.11951,0.53202 0.0512,0.17666 0.10072,0.36533 0.14897,0.56602 l -0.26278,0.0281 c 3.4e-4,-0.0514 -0.0138,-0.14026 -0.0426,-0.26719 -0.0258,-0.13245 -0.0598,-0.28816 -0.10248,-0.46709 -0.0436,-0.18332 -0.0945,-0.38552 -0.15265,-0.60673 -0.0539,-0.22238 -0.11412,-0.45004 -0.18013,-0.68316 -0.0628,-0.23855 -0.12768,-0.47668 -0.19482,-0.71405 -0.0671,-0.23742 -0.13346,-0.46352 -0.19922,-0.67809 -0.0614,-0.21573 -0.12048,-0.41344 -0.17709,-0.5933 -0.0523,-0.18103 -0.0961,-0.32958 -0.13123,-0.44555 z m 5.8957,0.0325 c 0.0736,0 0.14513,0.0169 0.21492,0.0541 0.0742,0.0358 0.14929,0.10172 0.22531,0.19751 0.0792,0.0903 0.16129,0.22622 0.24607,0.40784 0.0891,0.18052 0.18535,0.41495 0.28889,0.70304 0.10677,0.28255 0.22468,0.63414 0.35387,1.0546 0.0234,0.0541 0.0173,0.10918 -0.0188,0.16521 -0.0328,0.0501 -0.0843,0.10106 -0.15398,0.15212 -0.0708,0.0469 -0.15288,0.0943 -0.24641,0.14235 -0.0904,0.0423 -0.18391,0.0813 -0.28087,0.11643 -0.097,0.0351 -0.1904,0.0669 -0.27988,0.0953 -0.0895,0.0287 -0.16422,0.0507 -0.22464,0.067 -0.0776,0.0209 -0.16089,0.0286 -0.24974,0.0247 -0.0845,-0.007 -0.1678,-0.0229 -0.24941,-0.0521 -0.0784,-0.0345 -0.14814,-0.0811 -0.20956,-0.13904 -0.0582,-0.0632 -0.099,-0.13837 -0.12186,-0.22511 -0.0652,-0.24721 -0.0455,-0.44524 0.0586,-0.59358 0.10842,-0.1495 0.27272,-0.25344 0.49279,-0.31198 0.0863,-0.0229 0.16654,-0.0417 0.24104,-0.0573 0.0789,-0.0163 0.15504,-0.0247 0.22865,-0.026 0.0736,0 0.14744,0.008 0.2213,0.0247 0.0782,0.0163 0.16226,0.0476 0.25275,0.0928 l -0.0204,-0.0781 c -0.007,-0.0443 -0.0169,-0.0907 -0.0296,-0.13833 l -0.0342,-0.13017 -0.024,-0.0912 c -0.0248,-0.0769 -0.0534,-0.17602 -0.0854,-0.29747 -0.033,-0.12581 -0.0774,-0.25084 -0.13324,-0.37522 -0.0515,-0.12554 -0.123,-0.23886 -0.21425,-0.33986 -0.0869,-0.10216 -0.20306,-0.16657 -0.34851,-0.19282 -0.0907,0.024 -0.17103,0.0618 -0.2407,0.11272 -0.0696,0.0507 -0.13868,0.10413 -0.20721,0.15948 -0.0685,0.0553 -0.13756,0.10886 -0.20724,0.15987 -0.0708,0.0469 -0.15143,0.0819 -0.24204,0.106 -0.0285,-0.10853 -0.0196,-0.20585 0.0268,-0.29246 0.0497,-0.0921 0.11656,-0.17023 0.2012,-0.23456 0.0847,-0.0645 0.17707,-0.11689 0.2772,-0.15746 0.10017,-0.0404 0.18914,-0.0713 0.26682,-0.0918 0.0811,-0.008 0.15635,-0.0111 0.22564,-0.0111 z m 2.2012,0.59225 c -0.0247,0 -0.0498,0 -0.075,3.6e-4 -0.0336,0 -0.0679,0.009 -0.10248,0.0176 -0.0906,0.024 -0.17061,0.0711 -0.24002,0.14067 -0.0694,0.0695 -0.12676,0.14964 -0.17208,0.24061 -0.0411,0.0897 -0.0688,0.18527 -0.0837,0.28673 -0.0148,0.10139 -0.01,0.19763 0.0137,0.28867 0.0285,0.10852 0.0657,0.21489 0.11148,0.31869 0.0447,0.0995 0.0995,0.18461 0.16437,0.25541 0.0649,0.0709 0.14297,0.12209 0.23435,0.15349 0.0902,0.0274 0.19554,0.0247 0.31635,-0.008 l 0.26549,-0.0707 c 0.10358,-0.0274 0.20002,-0.0651 0.28924,-0.11174 0.0881,-0.0514 0.15756,-0.11175 0.20857,-0.18103 0.0511,-0.0693 0.0639,-0.1516 0.0389,-0.247 -0.0297,-0.11279 -0.0804,-0.23586 -0.15266,-0.36981 -0.069,-0.13949 -0.15548,-0.26517 -0.25879,-0.37692 -0.10017,-0.11728 -0.21393,-0.20773 -0.34147,-0.27121 -0.07,-0.0391 -0.14201,-0.0612 -0.21625,-0.0663 z m -4.5225,0.12081 c 0.0375,0 0.076,5e-4 0.1145,0.007 0.0814,0.0111 0.16093,0.0332 0.23936,0.0684 0.0817,0.0293 0.15706,0.0699 0.22597,0.12112 0.0721,0.0456 0.13229,0.0992 0.18078,0.16051 0.0484,0.0612 0.0813,0.12477 0.0984,0.18982 0.0215,0.0638 0.0189,0.12503 -0.008,0.18306 l -1.2986,0.61681 c -0.0162,0.009 -0.0258,0.0351 -0.0284,0.0774 -0.005,0.0385 -0.002,0.0863 0.005,0.14503 0.007,0.0587 0.0142,0.12386 0.0237,0.19549 0.0128,0.0662 0.0256,0.13271 0.0385,0.19893 0.0117,0.0618 0.0244,0.11853 0.0381,0.17061 l 0.0291,0.11072 c 0.032,0.12144 0.0864,0.21378 0.16306,0.27695 0.0798,0.058 0.16993,0.0938 0.27082,0.10863 0.10085,0.0149 0.20913,0.0144 0.32474,0 0.11993,-0.0183 0.2363,-0.0416 0.3485,-0.0717 0.11218,-0.03 0.21672,-0.0625 0.31368,-0.0975 0.097,-0.0351 0.17766,-0.0612 0.24237,-0.0784 0.005,0.0176 0.003,0.0392 -0.005,0.0638 -0.008,0.0254 -0.0166,0.0507 -0.0281,0.0772 l -0.0381,0.0656 c -0.0139,0.0176 -0.0223,0.0293 -0.0255,0.0345 -0.0322,0.0176 -0.0828,0.0456 -0.15165,0.0821 -0.0656,0.0313 -0.13771,0.0645 -0.21627,0.0993 -0.0743,0.0338 -0.14449,0.0638 -0.21124,0.0911 -0.0668,0.0274 -0.11305,0.0435 -0.13894,0.0507 -0.1269,0.0618 -0.24427,0.0904 -0.35151,0.0864 -0.10721,-0.007 -0.20479,-0.0332 -0.29325,-0.0888 -0.0885,-0.0553 -0.16814,-0.12947 -0.2387,-0.22213 -0.0717,-0.0969 -0.13426,-0.2033 -0.18781,-0.31902 -0.0536,-0.11566 -0.0997,-0.23781 -0.13826,-0.36676 -0.0343,-0.13011 -0.061,-0.25774 -0.08,-0.38264 -0.0343,-0.13011 -0.0439,-0.28087 -0.0288,-0.45194 0.0138,-0.17543 0.0503,-0.34304 0.10985,-0.50272 0.0627,-0.16521 0.14251,-0.30919 0.23936,-0.43246 0.1,-0.12867 0.21708,-0.21105 0.35085,-0.24667 0.0367,-0.01 0.0736,-0.0156 0.11114,-0.0176 z m 0.11182,0.26621 c -0.0701,0 -0.15312,0.009 -0.24873,0.0228 -0.0389,0.01 -0.0846,0.0456 -0.13793,0.10633 -0.0502,0.0553 -0.0949,0.12255 -0.13392,0.20252 -0.0358,0.0745 -0.0633,0.15386 -0.0827,0.23794 -0.0163,0.0787 -0.011,0.14223 0.0157,0.1908 0.11564,-0.017 0.2316,-0.0501 0.34784,-0.0996 0.11626,-0.0495 0.21923,-0.10479 0.30934,-0.16587 0.0889,-0.0655 0.15974,-0.13062 0.2119,-0.19555 0.0511,-0.0692 0.0672,-0.12945 0.0492,-0.18031 -0.0137,-0.0521 -0.0664,-0.0868 -0.15868,-0.10402 -0.0445,-0.0111 -0.10192,-0.0163 -0.17206,-0.0149 z m -4.2828,0.72009 c 0.0275,0.10402 0.0327,0.22127 0.0161,0.35099 -0.0122,0.12862 -0.0398,0.26114 -0.0824,0.39775 -0.0393,0.13117 -0.09,0.26289 -0.15198,0.39541 -0.062,0.13258 -0.12362,0.2582 -0.1848,0.37659 -0.058,0.11291 -0.11412,0.216 -0.16806,0.30925 -0.0497,0.0921 -0.0881,0.16501 -0.11549,0.21874 l 0.0649,0.247 c 0.0423,0 0.10259,0.0125 0.18078,0.0287 0.0814,0.0111 0.17312,0.026 0.27517,0.0449 0.10095,0.0149 0.20433,0.0319 0.31067,0.0495 0.11069,0.017 0.21702,0.0351 0.31905,0.0541 0.10205,0.0195 0.19233,0.0371 0.2705,0.0534 0.0825,0.0149 0.14045,0.0254 0.17407,0.03 0.0152,0.007 0.0387,0.0149 0.0703,0.03 0.0317,0.0149 0.0637,0.0319 0.0964,0.0507 0.0327,0.0189 0.0633,0.0392 0.0917,0.0593 0.0327,0.0189 0.0531,0.0345 0.061,0.0462 -0.0122,0.0592 -0.0289,0.10062 -0.0502,0.12483 -0.0214,0.024 -0.0536,0.0416 -0.0968,0.0534 -0.0345,0.009 -0.10986,0.007 -0.22598,-0.0163 -0.11613,-0.0202 -0.25035,-0.0476 -0.4024,-0.0811 -0.15304,-0.0385 -0.31399,-0.0788 -0.48242,-0.12216 -0.16953,-0.0476 -0.32699,-0.0938 -0.47269,-0.13864 -0.14253,-0.0501 -0.26291,-0.0951 -0.3609,-0.13396 -0.098,-0.0392 -0.14961,-0.0692 -0.15531,-0.0908 l -0.009,-0.0326 c -3.6e-4,-0.0182 0.002,-0.0287 0.006,-0.0293 l 0.87244,-2.2371 z m 6.8682,0.32742 c -0.0363,0 -0.0734,-3.4e-4 -0.11114,0.007 -0.0757,0.0111 -0.15877,0.0287 -0.24941,0.0528 -0.19975,0.11812 -0.33123,0.23222 -0.39469,0.34194 -0.0646,0.10534 -0.0824,0.19575 -0.0533,0.27155 0.0335,0.0746 0.10414,0.13233 0.21194,0.17329 0.10655,0.0365 0.22773,0.0489 0.36289,0.0358 0.13402,-0.017 0.27136,-0.0655 0.41211,-0.1447 0.13961,-0.0836 0.26248,-0.20421 0.36858,-0.36238 -0.0849,-0.11201 -0.16209,-0.19374 -0.23099,-0.24498 -0.0701,-0.0553 -0.13969,-0.0929 -0.20924,-0.11143 -0.0348,-0.009 -0.0706,-0.0149 -0.10677,-0.0169 z m -55.418,0.89715 a 3.5154,3.5337 0 0 0 -3.5155,3.5335 3.5154,3.5337 0 0 0 3.5155,3.5337 3.5154,3.5337 0 0 0 3.5155,-3.5337 3.5154,3.5337 0 0 0 -3.5155,-3.5335 z m 68.798,1.2865 a 1.4684,1.4761 0 0 1 0.1038,0 1.4684,1.4761 0 0 1 1.405,1.5372 1.4684,1.4761 0 0 1 -1.5292,1.4121 1.4684,1.4761 0 0 1 -1.405,-1.5372 1.4684,1.4761 0 0 1 1.4255,-1.413 z m -74.349,5.5946 a 1.8502,1.8598 0 0 0 -1.8503,1.86 1.8502,1.8598 0 0 0 1.8503,1.8599 1.8502,1.8598 0 0 0 1.8503,-1.8599 1.8502,1.8598 0 0 0 -1.8503,-1.86 z m 63.964,0.14067 c 0.68362,0.007 1.2174,0.33978 1.5842,0.99579 0.27932,0.49961 0.29711,0.63453 0.2916,2.228 l -0.006,1.6964 0.66018,0.25345 c 1.371,0.52675 2.4962,1.4943 2.7308,2.3482 0.28602,1.0413 -0.50815,2.1169 -2.1533,2.9166 -0.5365,0.26075 -1.0395,0.47415 -1.1178,0.47415 -0.10611,0 -0.12668,0.37268 -0.0811,1.4645 0.0708,1.6924 -0.048,2.2925 -0.57314,2.8937 -0.86611,0.99158 -2.3096,0.78072 -4.1432,-0.6047 l -0.70637,-0.53372 -0.63238,0.48592 c -1.4401,1.1065 -2.8538,1.5362 -3.6628,1.1136 h -3.5e-4 c -0.93335,-0.48768 -1.2512,-1.4329 -1.148,-3.4143 0.0563,-1.0785 0.0392,-1.4049 -0.0744,-1.405 -0.26118,-1.3e-4 -1.6557,-0.71235 -2.2427,-1.1455 -0.3827,-0.28244 -0.67124,-0.62984 -0.88045,-1.0597 -0.27963,-0.57448 -0.29784,-0.68942 -0.1781,-1.1364 0.2398,-0.8952 1.3408,-1.8584 2.7381,-2.3953 l 0.65548,-0.25175 -9.6e-4,-1.6981 c -6.5e-4,-1.542 0.0237,-1.7452 0.27118,-2.2109 0.73769,-1.3888 2.436,-1.313 4.4224,0.19717 0.35803,0.27221 0.68341,0.49472 0.72278,0.49472 0.0394,0 0.36821,-0.2315 0.73082,-0.51457 0.3626,-0.28302 0.99465,-0.66573 1.4047,-0.85073 0.51422,-0.23196 0.97847,-0.34552 1.3886,-0.34154 z m -24.184,0.29784 a 0.15122,0.152 0 0 1 0.0151,0 h 0.002 c 0.10457,-0.007 0.19952,0 0.19952,0 a 0.15122,0.152 0 0 1 0.12554,0.17231 l -0.0307,0.21196 a 0.15122,0.152 0 0 1 -0.16906,0.12823 c 0,0 -0.19223,-0.0156 -0.32373,0.0788 -0.069,0.0495 -0.12827,0.11532 -0.16572,0.28033 -0.037,0.16293 -0.0394,0.42471 0.0529,0.81165 0.18851,0.78951 0.43801,1.0964 0.61298,1.4481 a 0.15122,0.152 0 0 1 0,6.6e-4 c 0.0884,0.17752 0.1552,0.37724 0.14328,0.61414 -0.0118,0.23476 -0.0923,0.48924 -0.24773,0.81907 a 0.15122,0.152 0 0 1 -0.20154,0.0724 l -0.19249,-0.0919 a 0.15122,0.152 0 0 1 -0.072,-0.20258 c 0.1403,-0.29773 0.19191,-0.49101 0.19851,-0.62288 0.007,-0.1346 -0.0201,-0.21815 -0.0891,-0.35673 -0.13603,-0.27351 -0.44689,-0.69548 -0.65316,-1.5594 -0.10479,-0.43897 -0.11577,-0.77714 -0.0546,-1.0473 0.0616,-0.27174 0.20331,-0.46886 0.36826,-0.5875 0.1628,-0.11708 0.33585,-0.15831 0.46702,-0.17165 a 0.15122,0.152 0 0 1 0.0141,0 z m 1.3615,0 a 0.15122,0.152 0 0 1 0.0228,0 c 0.10282,-0.007 0.19753,0 0.19753,0 a 0.15122,0.152 0 0 1 0.12552,0.17231 l -0.0304,0.21196 a 0.15122,0.152 0 0 1 -0.1694,0.12823 c 0,0 -0.19257,-0.0156 -0.32407,0.0788 -0.069,0.0495 -0.12792,0.11532 -0.16537,0.28033 -0.0371,0.163 -0.0392,0.4251 0.0532,0.81197 0.18848,0.78952 0.43767,1.096 0.61264,1.4477 0.0883,0.17752 0.15486,0.37796 0.14295,0.6148 -0.0118,0.23476 -0.0919,0.48924 -0.24741,0.81907 a 0.15122,0.152 0 0 1 -0.20119,0.0724 l -0.1925,-0.0919 a 0.15122,0.152 0 0 1 -0.0723,-0.20258 c 0.14032,-0.29773 0.19157,-0.49094 0.19818,-0.62288 0.007,-0.13453 -0.0198,-0.21808 -0.0887,-0.35673 -0.13604,-0.27344 -0.44722,-0.69548 -0.65348,-1.5594 -0.10479,-0.43897 -0.11545,-0.77707 -0.0543,-1.0472 0.0616,-0.27181 0.20296,-0.46893 0.36793,-0.58757 0.16279,-0.11708 0.33584,-0.15831 0.467,-0.17159 a 0.15122,0.152 0 0 1 0.011,0 z m 1.3726,0 a 0.15122,0.152 0 0 1 0.0166,0 c 0.10139,-0.007 0.19551,0 0.19551,0 a 0.15122,0.152 0 0 1 0.12555,0.17231 l -0.0307,0.21196 a 0.15122,0.152 0 0 1 -0.1684,0.12823 c 0,0 -0.1929,-0.0156 -0.3244,0.0788 -0.069,0.0495 -0.1276,0.11532 -0.16504,0.28033 -0.0369,0.163 -0.0402,0.42477 0.0523,0.81165 0.18616,0.77968 0.47114,1.0598 0.67657,1.4083 0.10425,0.17694 0.1846,0.38824 0.16003,0.63935 -0.0243,0.24752 -0.13381,0.50989 -0.33913,0.85548 a 0.15122,0.152 0 0 1 -0.20755,0.0527 l -0.18312,-0.11005 a 0.15122,0.152 0 0 1 -0.0527,-0.20799 c 0.18657,-0.31402 0.25739,-0.51687 0.26951,-0.64072 0.0125,-0.12854 -0.0125,-0.19184 -0.0908,-0.32475 -0.15291,-0.2595 -0.52542,-0.67744 -0.73416,-1.5517 -0.1048,-0.43898 -0.11579,-0.77715 -0.0546,-1.0472 0.0616,-0.27181 0.2033,-0.46892 0.36825,-0.58756 0.1628,-0.11708 0.33616,-0.15831 0.46735,-0.17159 a 0.15122,0.152 0 0 1 0.0188,0 z m 21.32,0.93512 c -0.26217,0.007 -0.5892,0.10051 -0.96918,0.29148 -0.59696,0.29988 -1.4804,0.96814 -1.4804,1.1199 0,0.0456 0.26329,0.40484 0.58517,0.79817 0.542,0.66226 0.63654,0.72543 1.2785,0.85177 1.3392,0.26347 1.3168,0.27337 1.4124,-0.62425 0.0994,-0.93355 0.002,-1.7817 -0.24674,-2.1644 -0.12047,-0.18486 -0.31768,-0.27577 -0.57982,-0.27265 z m -6.8428,0.0202 c -0.29117,3.3e-4 -0.48001,0.14867 -0.63171,0.45394 -0.33326,0.67053 -0.24894,2.75 0.11148,2.75 0.0933,0 0.54141,-0.0618 0.99595,-0.13734 0.81336,-0.135 0.83582,-0.14861 1.4204,-0.86615 0.3267,-0.40101 0.59422,-0.7653 0.59422,-0.80932 0,-0.15967 -0.94658,-0.82832 -1.5942,-1.1264 -0.38148,-0.1755 -0.66974,-0.26504 -0.89619,-0.26477 z m 3.4418,2.3138 -0.26447,0.26556 -0.26414,0.26582 h 1.0572 l -0.26449,-0.26582 z m -23.952,1.415 0.37796,0.008 -0.002,0.11239 h 8.2348 l -0.002,-0.11239 0.37796,-0.008 0.005,0.19015 c 5.2e-4,0.0281 3.5e-4,0.056 3.5e-4,0.0841 v 6.5e-4 c 0,1.7443 -0.98596,3.2586 -2.4271,4.0126 1.9171,-0.16416 3.6606,-0.55215 4.944,-1.1102 l 0.17375,-0.0751 0.14998,0.34897 -0.17341,0.075 c -1.6596,0.72167 -3.9925,1.1526 -6.489,1.2189 -0.22047,0.0332 -0.44589,0.0507 -0.67558,0.0507 -0.22967,0 -0.45543,-0.0176 -0.6759,-0.0507 -2.4941,-0.0663 -4.8256,-0.49674 -6.4849,-1.2172 l -0.17341,-0.075 0.14965,-0.34897 0.17341,0.0758 c 1.2829,0.55704 3.0253,0.94358 4.9403,1.1075 -1.4411,-0.75401 -2.4271,-2.2681 -2.4271,-4.0123 v -6.5e-4 c 0,-0.0281 -1.7e-4,-0.056 3.5e-4,-0.0841 z m 23.952,0.34026 c -1.4758,0 -1.5055,0.0156 -2.1633,1.167 -0.31936,0.55892 -0.61369,1.147 -0.65415,1.3067 -0.0797,0.31427 0.17515,0.87338 0.94171,2.0676 l 0.41846,0.65217 c 0.0191,0.0143 0.0408,0.0267 0.0613,0.0385 h 2.7917 c 0.0199,-0.0118 0.0412,-0.0222 0.0598,-0.0358 l 0.42014,-0.65483 c 0.76655,-1.1942 1.0213,-1.7534 0.94173,-2.0676 -0.0404,-0.15973 -0.33515,-0.74783 -0.6545,-1.3068 -0.65779,-1.1513 -0.68723,-1.167 -2.163,-1.167 z m -23.577,0.008 c 0.0352,2.0382 1.5299,3.7144 3.4807,4.0184 0.21164,0.007 0.4241,0.009 0.63775,0.009 0.21358,0 0.42585,-0.007 0.6374,-0.009 1.9508,-0.30379 3.4451,-1.98 3.4803,-4.0184 z m 26.645,0.30385 0.21526,0.36683 c 0.2228,0.37913 0.3546,0.3637 0.42316,-0.0495 0.0308,-0.18591 -0.0356,-0.24797 -0.29929,-0.27832 z m -6.5311,0.0274 c -0.25043,0 -0.32291,0.15791 -0.20655,0.46372 l 0.11181,0.29375 0.23199,-0.35333 c 0.23187,-0.35328 0.23173,-0.35373 -0.019,-0.39372 -0.0431,-0.008 -0.0824,-0.01 -0.11818,-0.01 z m 8.591,0.46945 c -0.13162,3.4e-4 -0.29298,0.28522 -0.51153,0.90385 l -0.31905,0.90321 0.29393,0.79994 c 0.16158,0.43988 0.31665,0.86687 0.34482,0.94891 0.0555,0.16171 0.95114,-0.1383 1.5791,-0.52896 0.58605,-0.36461 1.0964,-0.91786 1.0964,-1.1886 0,-0.14644 -0.13665,-0.42945 -0.30364,-0.62898 -0.30755,-0.3674 -1.8271,-1.2104 -2.18,-1.2094 z m -5.0457,3.4e-4 c 0.55785,0.0169 1.1137,0.28679 1.4643,0.86486 0.56863,0.93746 0.053,2.3762 -0.9521,2.6567 -0.55765,0.15571 -0.65416,0.15968 -1.0703,0.0423 -0.79139,-0.22297 -1.3087,-0.93324 -1.308,-1.7957 6.6e-4,-1.1223 0.93628,-1.7966 1.8661,-1.7684 z m -5.2379,0.0182 c -0.3451,0.0143 -1.5706,0.66364 -2.0103,1.0805 -0.55961,0.53072 -0.57488,0.88028 -0.0595,1.3798 0.47187,0.45728 2.0727,1.281 2.2256,1.1451 0.0301,-0.0267 0.19975,-0.44861 0.37695,-0.93715 l 0.32206,-0.88809 -0.3301,-0.8642 c -0.18159,-0.47519 -0.3923,-0.88485 -0.46803,-0.91025 -0.0146,-0.007 -0.0335,-0.007 -0.0566,-0.007 z m 8.7028,3.4069 c -0.0685,0.01 -0.15039,0.12425 -0.2551,0.34494 -0.21766,0.45877 -0.21719,0.45929 0.19918,0.30021 0.22144,-0.0847 0.27957,-0.17505 0.23133,-0.36045 -0.0517,-0.1988 -0.10689,-0.29427 -0.17541,-0.2847 z m -7.1043,0.0521 c -0.0681,1.2e-4 -0.12558,0.0787 -0.16638,0.23553 -0.0462,0.17785 0.008,0.27344 0.19416,0.34397 0.30817,0.11657 0.38165,-0.009 0.20255,-0.34461 -0.0834,-0.15662 -0.1622,-0.23496 -0.23033,-0.23489 z m -0.46835,1.8125 c -0.0551,0 -0.0891,6.5e-4 -0.0961,0.008 -0.13779,0.13852 -0.17538,2.1028 -0.0492,2.5686 0.21161,0.7813 0.67607,0.87566 1.7325,0.35165 0.5619,-0.27872 1.4778,-0.9454 1.483,-1.0796 0.002,-0.0514 -0.26429,-0.43011 -0.59153,-0.84062 l -0.58352,-0.73157 c -0.006,-0.007 -0.0121,-0.0111 -0.0174,-0.0156 l -0.95846,-0.1518 c -0.39779,-0.0632 -0.75409,-0.10414 -0.91928,-0.10898 z m 8.0554,0.007 c -0.16823,0 -0.52518,0.0371 -0.92027,0.0977 l -0.94274,0.14501 c -0.0134,0.0111 -0.0313,0.0287 -0.0457,0.0411 l -0.59021,0.74002 -0.62068,0.77903 0.45462,0.39502 c 0.7019,0.60992 1.5875,1.011 2.1436,0.97087 0.43874,-0.0319 0.48821,-0.0715 0.63541,-0.51249 0.15185,-0.455 0.14106,-2.4874 -0.0141,-2.6434 -0.009,-0.009 -0.0437,-0.0131 -0.0997,-0.0131 z m -4.0277,0.33113 c -0.0539,0 -0.10753,0 -0.15836,0.007 -0.24784,0.0338 -0.2505,0.16208 -0.01,0.40412 0.14748,0.14829 0.22852,0.16033 0.35654,0.0534 0.0911,-0.076 0.16605,-0.21229 0.16605,-0.30287 0,-0.0824 -0.0877,-0.13623 -0.23534,-0.15544 h -0.11919 z m -13.757,7.0574 a 3.6335,3.6524 0 0 1 2.3562,0.87325 3.6335,3.6524 0 0 1 0.5343,-0.043 3.6335,3.6524 0 0 1 3.6333,3.6522 3.6335,3.6524 0 0 1 -0.50956,1.8572 3.6335,3.6524 0 0 1 0.42686,1.7122 3.6335,3.6524 0 0 1 -3.6333,3.6522 3.6335,3.6524 0 0 1 -1.8168,-0.49301 v 4.1456 h -1.156 V 94.185 a 3.6335,3.6524 0 0 1 -0.0312,-0.0436 3.6335,3.6524 0 0 1 -1.8684,0.52427 3.6335,3.6524 0 0 1 -3.6333,-3.6526 3.6335,3.6524 0 0 1 2.0656,-3.2911 3.6335,3.6524 0 0 1 -9.5e-4,-0.0287 3.6335,3.6524 0 0 1 3.6333,-3.6526 z m 14.166,1.45 0.12621,0.18546 -1.4857,1.6348 c 0.041,0.007 0.0978,0.007 0.1704,0.007 0.0727,-6.6e-4 0.14799,0.009 0.22631,0.0267 0.0817,0.0156 0.16136,0.0416 0.23904,0.0795 0.081,0.0345 0.15152,0.0879 0.21224,0.15981 0.1119,0.14672 0.15739,0.30365 0.13592,0.47115 -0.0185,0.1708 -0.078,0.34017 -0.17843,0.50811 -0.0974,0.17127 -0.22137,0.3402 -0.37227,0.50645 -0.14765,0.16325 -0.29807,0.31062 -0.45095,0.44191 -0.14982,0.13453 -0.28777,0.24881 -0.41411,0.3429 -0.12331,0.0973 -0.20929,0.16255 -0.25778,0.19582 l -0.13993,-0.19985 0.13691,-0.12893 c 0.0684,-0.058 0.14616,-0.12485 0.23403,-0.20122 0.091,-0.0795 0.18391,-0.16359 0.27853,-0.25241 l 0.26446,-0.2483 c 0.0879,-0.0763 0.16279,-0.14685 0.22497,-0.21138 0.0653,-0.0612 0.10918,-0.10578 0.13224,-0.13356 0.0944,-0.0825 0.16566,-0.18324 0.21392,-0.30222 0.0482,-0.11891 0.0634,-0.2311 0.0448,-0.33653 -0.0153,-0.10842 -0.0738,-0.20083 -0.17544,-0.27722 -0.0983,-0.0797 -0.25331,-0.11839 -0.465,-0.11617 -0.22231,0.0371 -0.42019,0.0968 -0.59354,0.17973 -0.17008,0.0798 -0.32669,0.17458 -0.46936,0.28404 -0.1394,0.10633 -0.27583,0.22544 -0.40977,0.35738 -0.13068,0.12888 -0.27275,0.2621 -0.42582,0.39978 l -0.14898,-0.21946 c 0.0451,-0.024 0.11661,-0.0783 0.21425,-0.16385 0.10392,-0.0854 0.22412,-0.1893 0.36089,-0.31159 0.14004,-0.12542 0.29329,-0.26614 0.45963,-0.42236 0.1694,-0.15291 0.34082,-0.31388 0.5139,-0.48254 0.17939,-0.16846 0.35728,-0.33843 0.53363,-0.51016 0.17635,-0.17178 0.3428,-0.3377 0.49982,-0.49737 0.16004,-0.15642 0.30565,-0.30229 0.43655,-0.43747 0.13393,-0.13194 0.24338,-0.24082 0.32842,-0.32678 z m -1.7793,0.36311 0.10512,0.11311 c -0.0783,0.0735 -0.17807,0.13336 -0.29961,0.17999 -0.11854,0.0501 -0.24782,0.0885 -0.38768,0.11545 -0.13356,0.0274 -0.27327,0.0449 -0.41879,0.0528 -0.14555,0.008 -0.28444,0.0124 -0.41714,0.0143 h -0.35049 c -0.10425,-3.4e-4 -0.18637,-1.4e-4 -0.2464,0 l -0.18616,0.17465 c 0.0177,0.0385 0.038,0.0967 0.0605,0.17361 0.029,0.0771 0.059,0.16534 0.0904,0.26485 0.0346,0.0964 0.0693,0.19607 0.1038,0.29883 0.0374,0.10611 0.0717,0.20877 0.10314,0.30828 0.0314,0.0994 0.0583,0.18748 0.0811,0.26445 0.0258,0.0802 0.0444,0.13649 0.0559,0.1686 0.002,0.0156 0.006,0.0416 0.007,0.0767 0.002,0.0351 0.002,0.0714 9.5e-4,0.10941 -9.5e-4,0.0378 -0.005,0.0746 -0.009,0.1094 -9.6e-4,0.0378 -0.006,0.0632 -0.0121,0.0757 -0.0573,0.0169 -0.10194,0.0222 -0.13325,0.0143 -0.0313,-0.008 -0.0623,-0.0274 -0.0928,-0.0598 -0.0244,-0.026 -0.0552,-0.0955 -0.0924,-0.20794 -0.0372,-0.11239 -0.0769,-0.24412 -0.1192,-0.39474 -0.039,-0.15368 -0.0795,-0.31526 -0.12118,-0.48495 -0.0383,-0.1727 -0.0722,-0.33433 -0.10171,-0.48456 -0.0235,-0.15004 -0.0414,-0.27747 -0.0536,-0.38264 -0.0122,-0.10512 -0.01,-0.16534 0.006,-0.18071 l 0.0244,-0.0228 c 0.0162,-0.009 0.0257,-0.0124 0.0288,-0.009 z m 2.4077,2.2059 c 0.003,0 0.0325,0.0156 0.0887,0.0365 0.0561,0.0209 0.12317,0.0501 0.20085,0.0875 0.084,0.0378 0.17576,0.0808 0.27519,0.12854 0.10579,0.0482 0.20647,0.0975 0.30264,0.14841 0.0994,0.0476 0.19108,0.0938 0.27486,0.13799 0.0868,0.0476 0.1581,0.0913 0.21357,0.13122 l -2.4609,2.3108 c -0.002,0.0573 0.0196,0.11682 0.0649,0.17868 0.0516,0.0618 0.10786,0.1225 0.16906,0.18175 0.0641,0.0625 0.12697,0.12348 0.18813,0.18272 0.0642,0.0625 0.11276,0.12126 0.14563,0.17636 l -0.20521,0.18337 c -0.12493,-0.1344 -0.25476,-0.26107 -0.38969,-0.3799 -0.13492,-0.11891 -0.27156,-0.23619 -0.40975,-0.35205 -0.13189,-0.11558 -0.26546,-0.23273 -0.40038,-0.35164 -0.1319,-0.11559 -0.25713,-0.23756 -0.37597,-0.36545 -0.0335,-0.0358 -0.0353,-0.0772 -0.006,-0.12386 0.03,-0.0469 0.0571,-0.1027 0.0813,-0.1686 0.0709,0.0501 0.12327,0.0897 0.15701,0.1195 0.037,0.0267 0.0664,0.0482 0.088,0.0651 0.0246,0.0195 0.0444,0.0378 0.0595,0.0547 0.0152,0.0163 0.0366,0.0358 0.0642,0.0594 0.0277,0.0234 0.0647,0.0527 0.11081,0.0895 0.0491,0.0397 0.1215,0.0915 0.21728,0.15511 0.11549,-0.0534 0.23818,-0.12522 0.36757,-0.21606 0.13266,-0.0938 0.26881,-0.19725 0.40842,-0.30992 0.14289,-0.11578 0.28589,-0.23768 0.42918,-0.3661 0.14634,-0.12516 0.28947,-0.25058 0.42953,-0.37593 0.14003,-0.12535 0.2768,-0.24446 0.41011,-0.35738 0.13655,-0.11598 0.26304,-0.21626 0.37962,-0.30118 l -0.0228,-0.0247 c -0.006,-0.0129 -0.01,-0.0209 -0.0134,-0.024 -0.064,-0.0689 -0.14137,-0.12249 -0.23167,-0.16053 -0.0872,-0.0345 -0.17773,-0.0662 -0.2715,-0.0949 -0.0906,-0.032 -0.18086,-0.0667 -0.27117,-0.10469 -0.0873,-0.0345 -0.16429,-0.0881 -0.23132,-0.16019 z m 4.4649,4.2276 h 0.0345 c 0.0251,0.008 0.0386,0.028 0.0405,0.0632 0.006,0.0319 -0.007,0.0886 -0.0345,0.17029 l -3.4264,1.7257 0.01,-0.28535 3.2433,-1.6271 c 0.0256,-0.0118 0.0545,-0.0234 0.0863,-0.0351 0.0177,-0.008 0.033,-0.0124 0.0464,-0.0143 z m 0.16673,0.56908 c 9.6e-4,0.0476 0.005,0.11897 0.007,0.2143 0.01,0.0955 0.0184,0.20383 0.0268,0.32475 0.009,0.12093 0.0154,0.24661 0.0204,0.37692 0.008,0.13362 0.0166,0.26067 0.0252,0.3816 0.0118,0.1178 0.0193,0.22466 0.0224,0.32006 0.01,0.0955 0.018,0.16709 0.0258,0.21503 0.005,0.0507 0.0168,0.10687 0.0368,0.16787 0.0233,0.058 0.0404,0.11891 0.0508,0.18273 0.0168,0.0639 0.0226,0.12634 0.0174,0.18644 -0.002,0.0573 -0.0275,0.10852 -0.0763,0.15446 -0.007,0.007 -0.0181,0.0137 -0.0342,0.0228 -0.01,0.009 -0.0192,0.0156 -0.0288,0.0182 -0.0506,0.007 -0.12847,0.0163 -0.23332,0.0345 -0.1016,0.0156 -0.21918,0.0339 -0.35254,0.0548 -0.13008,0.0176 -0.26957,0.0385 -0.41878,0.0618 -0.14598,0.0202 -0.28581,0.0411 -0.41915,0.0618 -0.13009,0.0176 -0.24898,0.0345 -0.35687,0.0502 -0.1016,0.0156 -0.17634,0.0274 -0.22396,0.0351 -0.0633,0.007 -0.11852,0.007 -0.16573,0 -0.0439,-0.008 -0.0872,-0.0345 -0.12988,-0.0807 l 0.21022,-0.19752 1.8249,-0.30423 -0.11183,-2.0134 z m -7.6945,7.3296 a 2.2432,2.2548 0 0 1 2.243,2.2546 2.2432,2.2548 0 0 1 -2.243,2.255 2.2432,2.2548 0 0 1 -2.2433,-2.255 2.2432,2.2548 0 0 1 2.2433,-2.2546 z"
       id="path4"
       inkscape:connector-curvature="0"
       style="opacity:0.2;fill:#ffffff" />
  </g>
</svg>
