<svg width="9.6217mm" height="9.6217mm" version="1.1" viewBox="0 0 9.6217 9.6217" xmlns="http://www.w3.org/2000/svg">
 <g transform="translate(-93.944 -111.79)">
  <circle cx="98.755" cy="116.6" r="4.8109" fill="#fff"/>
  <path d="m97.688 118.52c0 0.0259-0.02987 0.0468-0.06753 0.0468-0.04285 4e-3 -0.07272-0.0169-0.07272-0.0468 0-0.0259 0.02987-0.0468 0.06753-0.0468 0.03896-4e-3 0.07272 0.0169 0.07272 0.0468zm-0.40387-0.0585c-0.0091 0.0259 0.01688 0.0558 0.05583 0.0636 0.03376 0.013 0.07272 0 0.08051-0.0259 0.0078-0.026-0.01688-0.0558-0.05584-0.0675-0.03376-9e-3 -0.07142 4e-3 -0.08051 0.0298zm0.57398-0.0221c-0.03766 9e-3 -0.06363 0.0337-0.05973 0.0636 0.0039 0.026 0.03766 0.0429 0.07661 0.0337 0.03766-9e-3 0.06363-0.0337 0.05973-0.0597-0.0039-0.0247-0.03895-0.0415-0.07661-0.0376zm0.85448-4.9762c-1.8012 0-3.179 1.3674-3.179 3.1686 0 1.4402 0.90643 2.6725 2.2011 3.1063 0.16622 0.0298 0.22466-0.0727 0.22466-0.15713 0-0.0805-0.0039-0.52464-0.0039-0.79735 0 0-0.90902 0.1948-1.0999-0.38698 0 0-0.14804-0.37789-0.36101-0.4753 0 0-0.29738-0.20387 0.02078-0.19997 0 0 0.32335 0.0259 0.50126 0.33504 0.2844 0.50125 0.76098 0.35711 0.94668 0.2714 0.02987-0.20777 0.11428-0.35192 0.20778-0.43762-0.72592-0.0805-1.4583-0.1857-1.4583-1.435 0-0.35711 0.0987-0.53632 0.30647-0.76488-0.03376-0.0844-0.14414-0.43244 0.03376-0.88175 0.27141-0.0844 0.89604 0.35062 0.89604 0.35062 0.25972-0.0727 0.53892-0.11038 0.81552-0.11038 0.2766 0 0.5558 0.0376 0.81552 0.11038 0 0 0.62463-0.43632 0.89604-0.35062 0.17791 0.45062 0.0675 0.79734 0.0338 0.88175 0.20778 0.22985 0.33504 0.40906 0.33504 0.76488 0 1.2532-0.76488 1.3531-1.4908 1.435 0.11947 0.10258 0.22076 0.29738 0.22076 0.60255 0 0.43763-0.0039 0.97915-0.0039 1.0856 0 0.0844 0.05973 0.187 0.22466 0.15713 1.2986-0.43114 2.1791-1.6635 2.1791-3.1037 0-1.8012-1.4609-3.1686-3.2621-3.1686zm-1.9167 4.4789c-0.01688 0.013-0.01299 0.0429 0.0091 0.0675 0.02078 0.0208 0.05065 0.0299 0.06753 0.013 0.01688-0.013 0.01298-0.0429-0.0091-0.0675-0.02078-0.0208-0.05065-0.0299-0.06753-0.013zm-0.14025-0.10518c-0.0091 0.0169 0.0039 0.0376 0.02987 0.0507 0.02078 0.013 0.04675 9e-3 0.05585-9e-3 0.0091-0.0169-0.0039-0.0376-0.02987-0.0507-0.02597-8e-3 -0.04675-4e-3 -0.05583 9e-3zm0.42075 0.46231c-0.02078 0.0169-0.01298 0.0558 0.01688 0.0805 0.02987 0.0298 0.06753 0.0337 0.08441 0.013 0.01688-0.0169 0.0091-0.0558-0.01688-0.0805-0.02856-0.0298-0.06753-0.0337-0.08441-0.013zm-0.14804-0.1909c-0.02078 0.013-0.02078 0.0468 0 0.0766s0.05585 0.0429 0.07272 0.0298c0.02078-0.0169 0.02078-0.0507 0-0.0805-0.01818-0.0299-0.05195-0.0429-0.07272-0.026z" fill="#363732" stroke-width=".012986"/>
 </g>
</svg>
