<svg width="9.6217mm" height="9.6217mm" version="1.1" viewBox="0 0 9.6217 9.6217" xmlns="http://www.w3.org/2000/svg">
 <g transform="translate(-70.028 -94.13)">
  <circle cx="74.839" cy="98.94" r="4.8109" fill="#fff"/>
  <path d="m77.531 95.8h-5.3844c-0.24672 0-0.44718 0.20326-0.44718 0.45279v5.3746c0 0.24952 0.20046 0.45279 0.44718 0.45279h5.3844c0.24672 0 0.44858-0.20327 0.44858-0.45279v-5.3746c0-0.24953-0.20186-0.45279-0.44858-0.45279zm-3.9335 5.383h-0.93081v-2.9971h0.93221v2.9971zm-0.4654-3.4064c-0.29859 0-0.5397-0.24251-0.5397-0.5397 0-0.29718 0.24111-0.5397 0.5397-0.5397 0.29718 0 0.5397 0.24252 0.5397 0.5397 0 0.29859-0.24111 0.5397-0.5397 0.5397zm3.9545 3.4064h-0.93081v-1.4579c0-0.34766-7e-3 -0.79483-0.48363-0.79483-0.48503 0-0.55932 0.37849-0.55932 0.76959v1.4831h-0.93081v-2.9971h0.89296v0.40933h0.01262c0.12476-0.2355 0.42896-0.48362 0.88174-0.48362 0.94202 0 1.1172 0.621 1.1172 1.4284z" fill="#363732" stroke-width=".014018"/>
 </g>
</svg>
