<svg width="21.057mm" height="21.167mm" version="1.1" viewBox="0 0 21.057 21.167" xmlns="http://www.w3.org/2000/svg">
 <defs>
  <filter id="filter1977" x="-.0948" y="-.0948" width="1.1896" height="1.1896" color-interpolation-filters="sRGB">
   <feGaussianBlur stdDeviation="1.6255528"/>
  </filter>
 </defs>
 <g transform="translate(-104.38 -111.04)">
  <g transform="matrix(.99223 0 0 .99223 -152.11 1040.9)">
   <g transform="translate(476.79 -526.51)">
    <path transform="matrix(.4335 0 0 .43575 -222.84 -352.87)" d="m55.529-108.05a20.577 20.577 0 0 1-20.577 20.577 20.577 20.577 0 0 1-20.577-20.577 20.577 20.577 0 0 1 20.577-20.577 20.577 20.577 0 0 1 20.577 20.577z" fill="#d17a22" filter="url(#filter1977)"/>
    <path d="m-207.69-408.92a8.9199 8.9662 0 0 0-8.9198 8.9663 8.9199 8.9662 0 0 0 8.9198 8.9662 8.9199 8.9662 0 0 0 8.9201-8.9662 8.9199 8.9662 0 0 0-8.9201-8.9663zm4.11 4.0533c0.0695 0 0.13904 0.015 0.20856 0.046 0.0739 0.026 0.13908 0.063 0.19556 0.1115 0.0608 0.048 0.10861 0.1047 0.14337 0.1702 0.0348 0.066 0.052 0.1354 0.052 0.2096 0 0.1572-0.0194 0.3122-0.0585 0.465-0.0391 0.1485-0.0761 0.2994-0.11089 0.4522-0.13902 0.6463-0.27163 1.2905-0.39762 1.9325-0.126 0.6376-0.25838 1.2815-0.39741 1.9323-0.13033 0.6506-0.26725 1.2992-0.41062 1.9455s-0.27145 1.2949-0.38441 1.9456c-9e-3 0.061-0.0175 0.1267-0.0262 0.1965-9e-3 0.07-0.0238 0.1355-0.0455 0.1966-0.0217 0.065-0.0545 0.1179-0.0979 0.1572-0.0434 0.044-0.10414 0.066-0.18234 0.066-0.0608 0-0.13467-0.013-0.22156-0.039-0.0825-0.022-0.16306-0.054-0.24126-0.098-0.0739-0.039-0.13671-0.087-0.18884-0.1441-0.0521-0.061-0.0782-0.1289-0.0782-0.2031 0-0.026 2e-3 -0.052 6e-3 -0.079 4e-3 -0.026 6e-3 -0.052 6e-3 -0.079 0.0652-0.3144 0.1347-0.6288 0.20855-0.9432 0.0739-0.3145 0.1477-0.6289 0.22155-0.9433l1.2903-5.804c0.0174-0.07 0.037-0.1703 0.0587-0.3013 0.0261-0.1354 0.0521-0.2706 0.0782-0.406 0.0304-0.1398 0.0608-0.2709 0.0912-0.3932s0.0586-0.2097 0.0847-0.2621c0.0261-0.048 0.0521-0.081 0.0782-0.098 0.0261-0.022 0.0652-0.033 0.11739-0.033zm-8.4393 0.1243c0.20419 0 0.34972 0.065 0.43661 0.1966 0.0912 0.1266 0.13687 0.2839 0.13687 0.4717v2.7184c4e-3 0.1528 9e-3 0.3123 0.013 0.4783 4e-3 0.1615 0.011 0.3427 0.0197 0.5435 0.0521-0.1179 0.11499-0.2334 0.18885-0.347 0.0782-0.1135 0.16517-0.2163 0.26075-0.308 0.0956-0.092 0.20192-0.1659 0.31922-0.2227 0.1173-0.057 0.24776-0.085 0.39113-0.085 0.20854 0 0.3758 0.046 0.5018 0.1376 0.13033 0.092 0.22806 0.2096 0.29323 0.3537 0.0695 0.1398 0.11515 0.2969 0.13688 0.4715 0.0261 0.1747 0.039 0.3429 0.039 0.5044 0 0.1791-9e-3 0.378-0.026 0.5963-0.0174 0.214-0.0434 0.4367-0.0782 0.6681-0.0348 0.2315-0.0825 0.4652-0.14337 0.701-0.0565 0.2315-0.12602 0.4541-0.20856 0.6681-0.0825 0.214-0.18028 0.4127-0.29324 0.5961-0.10861 0.179-0.23239 0.3299-0.37142 0.4521-0.0999 0.087-0.21294 0.157-0.33893 0.2095-0.12165 0.057-0.24758 0.085-0.37792 0.085-0.0478 0-0.0977-0.01-0.14986-0.026-0.0521-0.013-0.0913-0.048-0.11739-0.1047-0.0956-0.01-0.19116-0.028-0.28673-0.059-0.0912-0.026-0.16723-0.087-0.22805-0.1835-0.013-0.031-0.024-0.068-0.0327-0.1112-9e-3 -0.044-0.0173-0.09-0.026-0.1376-4e-3 -0.022-9e-3 -0.042-0.013-0.059-4e-3 -0.022-9e-3 -0.042-0.013-0.059-0.12599-0.7861-0.21297-1.572-0.26076-2.3581-0.0435-0.7861-0.0652-1.5787-0.0652-2.3779v-0.9631c4e-3 -0.2227 6e-3 -0.4562 6e-3 -0.7007 4e-3 -0.2446 9e-3 -0.474 0.0132-0.6879 4e-3 -0.214 0.0108-0.3975 0.0195-0.5504 9e-3 -0.1572 0.0173-0.2576 0.026-0.3013 0.0174-0.061 0.0413-0.1113 0.0717-0.1506 0.0304-0.039 0.0825-0.059 0.15637-0.059zm-1.7529 2.5614c0.0478 0 0.0956 0.013 0.14337 0.039 0.0478 0.026 0.0913 0.059 0.13038 0.098 0.0391 0.039 0.0694 0.083 0.0912 0.131 0.0261 0.048 0.039 0.094 0.039 0.1374 0 0.074-0.0129 0.142-0.039 0.2031-0.0261 0.057-0.0521 0.1159-0.0782 0.177-0.17813 0.3537-0.35637 0.7073-0.5345 1.061-0.17813 0.3538-0.35615 0.7076-0.53428 1.0613 0.0739 0.1485 0.16729 0.3058 0.28025 0.4718 0.11295 0.1616 0.23243 0.3254 0.35842 0.4913 0.13034 0.1616 0.26057 0.3208 0.39091 0.4781 0.13033 0.1528 0.25196 0.2926 0.36492 0.4193 0.0304 0.035 0.0674 0.074 0.11088 0.1179 0.0435 0.044 0.0848 0.09 0.12389 0.1376 0.0434 0.048 0.0803 0.098 0.11066 0.1507 0.0304 0.052 0.0457 0.1004 0.0457 0.1441 0 0.048-0.0239 0.089-0.0717 0.1243-0.0478 0.03-0.10441 0.057-0.16958 0.079-0.0652 0.017-0.13233 0.03-0.20184 0.039-0.0652 0-0.11748 0.01-0.15659 0.01-0.0782 0-0.14535-0.015-0.20183-0.046-0.0565-0.031-0.11095-0.076-0.16309-0.1375-0.0521-0.057-0.13027-0.1486-0.23454-0.2752-0.0999-0.131-0.21294-0.2773-0.33894-0.4389-0.12164-0.1616-0.24757-0.3319-0.37791-0.5109-0.13033-0.1834-0.24981-0.3561-0.35842-0.5177-0.10427-0.1659-0.19124-0.3122-0.26076-0.4389-0.0652-0.131-0.0977-0.2292-0.0977-0.2947 0-0.1136 0.0325-0.2205 0.0977-0.3209 0.0652-0.1048 0.12394-0.2031 0.17608-0.2948l0.95139-1.7818c0.0174-0.039 0.0391-0.087 0.0652-0.1441 0.0304-0.061 0.0608-0.1179 0.0912-0.1703 0.0348-0.052 0.0718-0.098 0.11089-0.1376 0.0435-0.039 0.0891-0.059 0.13687-0.059zm12.165 0c0.0478 0 0.0934 0.02 0.13688 0.059 0.0391 0.039 0.0759 0.085 0.11066 0.1376 0.0304 0.052 0.061 0.1091 0.0914 0.1702 0.0261 0.057 0.0478 0.1048 0.0652 0.1441l0.95139 1.7819c0.0521 0.092 0.11069 0.1899 0.17585 0.2947 0.0652 0.1005 0.0979 0.2074 0.0979 0.3209 0 0.065-0.0327 0.1638-0.0979 0.2948-0.0695 0.1266-0.15626 0.2729-0.26053 0.4389-0.10861 0.1615-0.22808 0.3342-0.35842 0.5176-0.13034 0.1791-0.25649 0.3494-0.37814 0.511-0.12599 0.1616-0.23878 0.3078-0.33871 0.4389-0.10427 0.1266-0.18263 0.2183-0.23477 0.2751-0.0521 0.061-0.10638 0.107-0.16286 0.1376-0.0565 0.031-0.12385 0.046-0.20206 0.046-0.0391 0-0.0912 0-0.15636-0.01-0.0695-0.01-0.13689-0.022-0.20206-0.039-0.0652-0.022-0.12157-0.048-0.16936-0.079-0.0478-0.035-0.0717-0.076-0.0717-0.1243 0-0.044 0.0153-0.092 0.0457-0.1441 0.0304-0.052 0.0672-0.1026 0.11067-0.1506 0.0391-0.048 0.0804-0.094 0.12388-0.1376 0.0435-0.044 0.0803-0.083 0.11066-0.118 0.11296-0.1266 0.23458-0.2664 0.36492-0.4193 0.13034-0.1572 0.2608-0.3165 0.39113-0.478 0.12599-0.166 0.24547-0.3298 0.35843-0.4914 0.11295-0.1659 0.20638-0.3232 0.28024-0.4717-0.17813-0.3538-0.35638-0.7076-0.5345-1.0613-0.17813-0.3537-0.35615-0.7073-0.53428-1.061-0.0261-0.061-0.0521-0.1203-0.0782-0.177-0.0261-0.061-0.0392-0.1289-0.0392-0.2031 0-0.044 0.0131-0.089 0.0392-0.1374 0.0217-0.048 0.0521-0.092 0.0912-0.1311 0.0391-0.039 0.0826-0.072 0.13038-0.098 0.0478-0.026 0.0956-0.039 0.14337-0.039zm-4.9572 0.6485c0.18247 0 0.32154 0.046 0.41712 0.1376 0.0956 0.092 0.16511 0.2073 0.20855 0.347 0.0434 0.1354 0.0673 0.2819 0.0717 0.4391 4e-3 0.1529 7e-3 0.2924 7e-3 0.4191v0.052c0 0.052-2e-3 0.1048-7e-3 0.1572 0 0.048-9e-3 0.094-0.026 0.1376-0.013 0.039-0.0391 0.072-0.0782 0.098-0.0348 0.026-0.0849 0.039-0.15009 0.039-0.0695 0-0.14335-0.01-0.22155-0.026-0.0782-0.022-0.15204-0.053-0.22155-0.092-0.0652-0.039-0.12156-0.087-0.16935-0.1441-0.0478-0.061-0.0738-0.1309-0.0782-0.2095v-0.1049c0-0.035 2e-3 -0.07 6e-3 -0.1047v-0.079c4e-3 -0.035 6e-3 -0.068 6e-3 -0.098-0.13903 0.1398-0.26281 0.3122-0.37142 0.5175-0.10427 0.2052-0.19985 0.4236-0.28674 0.655-0.0825 0.2315-0.15423 0.4652-0.21506 0.701-0.0608 0.2315-0.11291 0.4411-0.15636 0.6289v0.02c-0.013 0.1354-0.0219 0.2687-0.0262 0.3997-4e-3 0.131-9e-3 0.2663-0.013 0.406-4e-3 0.1572-0.0108 0.3167-0.0195 0.4783-4e-3 0.1616-0.0153 0.3189-0.0327 0.4717-9e-3 0.083-0.0347 0.1462-0.0782 0.1899-0.0391 0.048-0.10626 0.072-0.20184 0.072-0.0652 0-0.13685-0.01-0.21505-0.026-0.0739-0.017-0.14554-0.046-0.21506-0.085-0.0652-0.039-0.12179-0.087-0.16957-0.1441-0.0435-0.061-0.0652-0.1332-0.0652-0.2162 0-0.1223 4e-3 -0.2424 0.013-0.3603 0.013-0.1223 0.0262-0.2424 0.0392-0.3603v0.01l0.039-0.4389c0.013-0.1572 0.024-0.3299 0.0327-0.5177 9e-3 -0.1877 0.0151-0.3775 0.0195-0.5697 9e-3 -0.1965 0.0151-0.3886 0.0195-0.5764 4e-3 -0.1878 7e-3 -0.3605 7e-3 -0.5177 0-0.092-2e-3 -0.1832-7e-3 -0.275v-0.2882c-4e-3 -0.083-6e-3 -0.1747-6e-3 -0.2752v-0.2882c0-0.092 0.011-0.1659 0.0327-0.2227 0.0261-0.061 0.0956-0.092 0.20855-0.092 0.0999 0 0.20412 0.026 0.31273 0.079 0.11296 0.052 0.1911 0.1269 0.23454 0.223h-7e-3c0.0217 0.048 0.037 0.1265 0.0457 0.2357 0.013 0.1048 0.0216 0.1987 0.026 0.2817 0.0739-0.1135 0.15653-0.2336 0.24776-0.3603 0.0956-0.1266 0.19762-0.2424 0.30623-0.3472 0.10861-0.1092 0.22379-0.1988 0.34543-0.2686 0.12165-0.07 0.25189-0.1047 0.39091-0.1047zm-3.7079 0.9892c-0.0391 0.031-0.074 0.063-0.10439 0.098-0.0261 0.035-0.0543 0.074-0.0847 0.118l-0.013 0.02v-0.01c-0.12165 0.2009-0.22153 0.4346-0.29974 0.701-0.0739 0.2664-0.13478 0.5436-0.18257 0.8318-0.0435 0.2839-0.0738 0.5678-0.0912 0.8516-0.0174 0.2795-0.026 0.5327-0.026 0.7598v0.2162c4e-3 0.092 0.013 0.1683 0.026 0.2294 0.16944-0.1441 0.30851-0.3538 0.41712-0.6289 0.11296-0.2795 0.20186-0.5788 0.26702-0.8976 0.0695-0.3231 0.11731-0.6397 0.14337-0.9498 0.0261-0.31 0.0392-0.5699 0.0392-0.7795 0-0.087-4e-3 -0.1835-0.013-0.2883-4e-3 -0.1048-0.0304-0.1963-0.0782-0.2749z" fill="#fff"/>
   </g>
  </g>
 </g>
</svg>
